%TF.GenerationSoftware,KiCad,Pcbnew,8.0.3*%
%TF.CreationDate,2024-08-06T23:13:01+08:00*%
%TF.ProjectId,ErgoDOX,4572676f-444f-4582-9e6b-696361645f70,rev?*%
%TF.SameCoordinates,Original*%
%TF.FileFunction,Profile,NP*%
%FSLAX46Y46*%
G04 Gerber Fmt 4.6, Leading zero omitted, Abs format (unit mm)*
G04 Created by KiCad (PCBNEW 8.0.3) date 2024-08-06 23:13:01*
%MOMM*%
%LPD*%
G01*
G04 APERTURE LIST*
%TA.AperFunction,Profile*%
%ADD10C,0.381000*%
%TD*%
G04 APERTURE END LIST*
D10*
X131902200Y-27258000D02*
X143408400Y-27258000D01*
X65811400Y-27258000D02*
X42164000Y-27258000D01*
X202692000Y-154908000D02*
X218821000Y-154908000D01*
X77876400Y-27258000D02*
X65811400Y-27258000D01*
X21080980Y-143315440D02*
X20975000Y-140325000D01*
X131902200Y-27258000D02*
X95046800Y-27258000D01*
X20975000Y-140325000D02*
X22300000Y-138325000D01*
X44030530Y-191002920D02*
X48075000Y-192175000D01*
X202742800Y-27258000D02*
X218871800Y-27258000D01*
X22300000Y-138325000D02*
X24617680Y-137160000D01*
X202742800Y-27258000D02*
X143408400Y-27258000D01*
X42164000Y-27258000D02*
X37164000Y-27258000D01*
X222059500Y-149669500D02*
X222059500Y-151669500D01*
X42764960Y-189817760D02*
X44030530Y-191002920D01*
X222046800Y-30433000D02*
X222046800Y-50433000D01*
X129152400Y-154908000D02*
X196392800Y-154908000D01*
X28909000Y-50495200D02*
X28909000Y-30495200D01*
X48075000Y-192175000D02*
X50983900Y-191351920D01*
X218821000Y-154908000D02*
X222059500Y-151669500D01*
X24617680Y-137160000D02*
X28985200Y-135128000D01*
X222046800Y-30433000D02*
X218871800Y-27258000D01*
X196392800Y-154908000D02*
X202692000Y-154908000D01*
X37164000Y-27258000D02*
X32164000Y-27258000D01*
X28909000Y-30495200D02*
X32164000Y-27258000D01*
X222046800Y-143383000D02*
X222059500Y-149669500D01*
X222046800Y-143383000D02*
X222046800Y-50433000D01*
X28985200Y-132715000D02*
X28985200Y-135128000D01*
X28985200Y-132715000D02*
X28909000Y-50495200D01*
X77876400Y-27258000D02*
X95046800Y-27258000D01*
X21080980Y-143315440D02*
X42764960Y-189817760D01*
X50983900Y-191351920D02*
X129152400Y-154908000D01*
M02*
