M48
; DRILL file {KiCad 8.0.3} date 2024-08-06T23:14:08+0800
; FORMAT={-:-/ absolute / inch / decimal}
; #@! TF.CreationDate,2024-08-06T23:14:08+08:00
; #@! TF.GenerationSoftware,Kicad,Pcbnew,8.0.3
; #@! TF.FileFunction,Plated,1,2,PTH
FMAT,2
INCH
; #@! TA.AperFunction,Plated,PTH,ComponentDrill
T1C0.0157
; #@! TA.AperFunction,Plated,PTH,ComponentDrill
T2C0.0197
; #@! TA.AperFunction,Plated,PTH,ViaDrill
T3C0.0200
; #@! TA.AperFunction,Plated,PTH,ComponentDrill
T4C0.0276
; #@! TA.AperFunction,Plated,PTH,ComponentDrill
T5C0.0320
; #@! TA.AperFunction,Plated,PTH,ComponentDrill
T6C0.0335
; #@! TA.AperFunction,Plated,PTH,ComponentDrill
T7C0.0390
; #@! TA.AperFunction,Plated,PTH,ComponentDrill
T8C0.0394
; #@! TA.AperFunction,Plated,PTH,ComponentDrill
T9C0.0512
; #@! TA.AperFunction,Plated,PTH,ComponentDrill
T10C0.0591
; #@! TA.AperFunction,Plated,PTH,ComponentDrill
T11C0.1614
%
G90
G05
T1
X1.7253Y-6.4108
X1.8182Y-6.6102
X2.0423Y-7.0906
X2.0881Y-5.4142
X2.1352Y-7.29
X2.181Y-5.6136
X2.85Y-2.663
X2.85Y-2.883
X2.8632Y-6.3464
X2.95Y-3.5004
X2.95Y-4.6254
X3.0317Y-6.4878
X3.17Y-3.5004
X3.17Y-4.6254
X3.534Y-5.824
X3.6Y-2.663
X3.6Y-2.883
X3.6Y-3.4129
X3.6Y-3.6329
X3.6Y-4.1629
X3.6Y-4.3829
X3.6Y-4.9129
X3.6Y-5.1329
X3.627Y-6.0234
X4.35Y-2.6129
X4.35Y-2.8329
X4.35Y-3.3629
X4.35Y-3.5829
X4.35Y-4.1129
X4.35Y-4.3329
X4.35Y-4.8629
X4.35Y-5.0829
X4.35Y-5.6129
X4.35Y-5.8329
X5.1Y-2.55
X5.1Y-2.77
X5.1Y-3.3
X5.1Y-3.52
X5.1Y-4.05
X5.1Y-4.27
X5.1Y-4.8
X5.1Y-5.02
X5.1Y-5.55
X5.1Y-5.77
X5.85Y-2.6129
X5.85Y-2.8329
X5.85Y-3.3629
X5.85Y-3.5829
X5.85Y-4.1129
X5.85Y-4.3329
X5.85Y-4.8629
X5.85Y-5.0829
X5.85Y-5.6129
X5.85Y-5.8329
X6.6Y-2.738
X6.6Y-2.958
X6.6Y-3.4879
X6.6Y-3.7079
X6.6Y-4.2379
X6.6Y-4.4579
X6.6Y-4.9879
X6.6Y-5.2079
X6.6Y-5.7379
X6.6Y-5.9579
X7.4403Y-2.5329
X7.4403Y-3.2828
X7.4403Y-4.0328
X7.4403Y-4.7828
X7.4403Y-5.5328
X7.4469Y-2.8723
X7.4469Y-3.6222
X7.4469Y-4.3722
X7.4469Y-5.1222
X7.4469Y-5.8722
X8.2875Y-2.738
X8.2875Y-2.958
X8.2875Y-3.488
X8.2875Y-3.708
X8.2875Y-4.2378
X8.2875Y-4.4578
X8.2875Y-4.9878
X8.2875Y-5.2078
X8.2875Y-5.7382
X8.2875Y-5.9582
T2
X2.3571Y-6.7654
X3.89Y-2.36
X3.9957Y-5.0969
X6.18Y-5.2169
T3
X5.762Y-3.767
X6.148Y-2.112
X6.172Y-4.446
X6.178Y-3.869
X6.333Y-3.716
X6.849Y-2.13
X7.197Y-2.089
T4
X1.2505Y-3.3818
X1.2505Y-3.4802
X1.2505Y-3.5786
T5
X1.4979Y-2.0696
X1.4979Y-2.1696
X1.4979Y-2.2696
X1.4979Y-2.3696
X1.4979Y-2.4696
X1.4979Y-2.5696
X1.4979Y-2.6696
X1.4979Y-2.7696
X1.4979Y-2.8696
X1.4979Y-2.9696
X1.4979Y-3.0696
X1.4979Y-3.1696
X1.5895Y-2.0196
X1.5895Y-2.1196
X1.5895Y-2.2196
X1.5895Y-2.3196
X1.5895Y-2.4196
X1.5895Y-2.5196
X1.5895Y-2.6196
X1.5895Y-2.7196
X1.5895Y-2.8196
X1.5895Y-2.9196
X1.5895Y-3.0196
X1.5895Y-3.1196
X2.0979Y-2.0696
X2.0979Y-2.1696
X2.0979Y-2.2696
X2.0979Y-2.3696
X2.0979Y-2.4696
X2.0979Y-2.5696
X2.0979Y-2.6696
X2.0979Y-2.7696
X2.0979Y-2.8696
X2.0979Y-2.9696
X2.0979Y-3.0696
X2.0979Y-3.1696
X2.1887Y-2.0196
X2.1887Y-2.1196
X2.1887Y-2.2196
X2.1887Y-2.3196
X2.1887Y-2.4196
X2.1887Y-2.5196
X2.1887Y-2.6196
X2.1887Y-2.7196
X2.1887Y-2.8196
X2.1887Y-2.9196
X2.1887Y-3.0196
X2.1887Y-3.1196
T6
X1.5071Y-1.5972
X1.5071Y-1.7744
T7
X1.0935Y-5.4
X1.3654Y-5.2732
X1.4084Y-6.0863
X1.6803Y-5.9595
X1.7254Y-6.7661
X1.7712Y-5.0897
X1.9973Y-6.6393
X2.0431Y-4.9629
X2.4389Y-6.1862
X2.522Y-3.3504
X2.522Y-3.6504
X2.522Y-4.4754
X2.522Y-4.7754
X2.6318Y-5.9563
X2.7Y-2.235
X3.0Y-2.235
X3.2172Y-5.4995
X3.45Y-2.235
X3.45Y-2.9849
X3.45Y-3.7349
X3.45Y-4.4849
X3.4891Y-5.3727
X3.75Y-2.235
X3.75Y-2.9849
X3.75Y-3.7349
X3.75Y-4.4849
X4.2Y-2.1849
X4.2Y-2.9349
X4.2Y-3.6849
X4.2Y-4.4349
X4.2Y-5.1849
X4.5Y-2.1849
X4.5Y-2.9349
X4.5Y-3.6849
X4.5Y-4.4349
X4.5Y-5.1849
X4.95Y-2.122
X4.95Y-2.872
X4.95Y-3.622
X4.95Y-4.372
X4.95Y-5.122
X5.25Y-2.122
X5.25Y-2.872
X5.25Y-3.622
X5.25Y-4.372
X5.25Y-5.122
X5.7Y-2.1849
X5.7Y-2.9349
X5.7Y-3.6849
X5.7Y-4.4349
X5.7Y-5.1849
X6.0Y-2.1849
X6.0Y-2.9349
X6.0Y-3.6849
X6.0Y-4.4349
X6.0Y-5.1849
X6.45Y-2.31
X6.45Y-3.0599
X6.45Y-3.8099
X6.45Y-4.5599
X6.45Y-5.3099
X6.75Y-2.31
X6.75Y-3.0599
X6.75Y-3.8099
X6.75Y-4.5599
X6.75Y-5.3099
X7.1729Y-2.4136
X7.1729Y-3.1635
X7.1729Y-3.9135
X7.1729Y-4.6635
X7.1729Y-5.4135
X7.3875Y-2.31
X7.3875Y-3.0599
X7.3875Y-3.8099
X7.3875Y-4.5599
X7.3875Y-5.3099
X7.4729Y-2.4136
X7.4729Y-3.1635
X7.4729Y-3.9135
X7.4729Y-4.6635
X7.4729Y-5.4135
X7.6875Y-2.31
X7.6875Y-3.0599
X7.6875Y-3.8099
X7.6875Y-4.5599
X7.6875Y-5.3099
X8.1375Y-2.31
X8.1375Y-3.06
X8.1375Y-3.8098
X8.1375Y-4.5598
X8.1375Y-5.3102
X8.4375Y-2.31
X8.4375Y-3.06
X8.4375Y-3.8098
X8.4375Y-4.5598
X8.4375Y-5.3102
T8
X1.0569Y-5.6761
X1.0985Y-5.7653
X1.1401Y-5.8545
X1.5743Y-5.4348
X1.6575Y-5.6132
T9
X1.936Y-3.347
X1.936Y-3.603
T11
X2.562Y-6.933
X2.728Y-5.4512
X2.7996Y-4.0717
X3.2343Y-2.1654
X5.491Y-3.649
X7.874Y-2.1654
X7.913Y-5.2594
T10
G00X1.2497Y-5.4515
M15
G01X1.2961Y-5.4299
M16
G05
G00X1.4361Y-5.8511
M15
G01X1.4825Y-5.8295
M16
G05
M30
