M48
; DRILL file {KiCad (6.0.5)} date Sun Jun 12 17:09:13 2022
; FORMAT={-:-/ absolute / inch / decimal}
; #@! TF.CreationDate,2022-06-12T17:09:13-07:00
; #@! TF.GenerationSoftware,Kicad,Pcbnew,(6.0.5)
; #@! TF.FileFunction,Plated,1,2,PTH
FMAT,2
INCH
; #@! TA.AperFunction,Plated,PTH,ComponentDrill
T1C0.0157
; #@! TA.AperFunction,Plated,PTH,ComponentDrill
T2C0.0197
; #@! TA.AperFunction,Plated,PTH,ViaDrill
T3C0.0200
; #@! TA.AperFunction,Plated,PTH,ComponentDrill
T4C0.0276
; #@! TA.AperFunction,Plated,PTH,ComponentDrill
T5C0.0320
; #@! TA.AperFunction,Plated,PTH,ComponentDrill
T6C0.0335
; #@! TA.AperFunction,Plated,PTH,ComponentDrill
T7C0.0390
; #@! TA.AperFunction,Plated,PTH,ComponentDrill
T8C0.0512
%
G90
G05
T1
X1.4084Y-5.7311
X1.5013Y-5.9305
X1.7253Y-6.4108
X1.8182Y-6.6102
X2.0423Y-7.0906
X2.0881Y-5.4142
X2.1352Y-7.29
X2.181Y-5.6136
X2.6118Y-6.3009
X2.8112Y-6.208
X2.85Y-2.663
X2.85Y-2.883
X2.95Y-3.5004
X2.95Y-4.6254
X3.17Y-3.5004
X3.17Y-4.6254
X3.2915Y-5.9839
X3.4909Y-5.891
X3.6Y-2.663
X3.6Y-2.883
X3.6Y-3.4129
X3.6Y-3.6329
X3.6Y-4.1629
X3.6Y-4.3829
X3.6Y-4.9129
X3.6Y-5.1329
X4.35Y-2.6129
X4.35Y-2.8329
X4.35Y-3.3629
X4.35Y-3.5829
X4.35Y-4.1129
X4.35Y-4.3329
X4.35Y-4.8629
X4.35Y-5.0829
X4.35Y-5.6129
X4.35Y-5.8329
X5.1Y-2.55
X5.1Y-2.77
X5.1Y-3.3
X5.1Y-3.52
X5.1Y-4.05
X5.1Y-4.27
X5.1Y-4.8
X5.1Y-5.02
X5.1Y-5.55
X5.1Y-5.77
X5.85Y-2.6129
X5.85Y-2.8329
X5.85Y-3.3629
X5.85Y-3.5829
X5.85Y-4.1129
X5.85Y-4.3329
X5.85Y-4.8629
X5.85Y-5.0829
X5.85Y-5.6129
X5.85Y-5.8329
X6.6Y-2.738
X6.6Y-2.958
X6.6Y-3.4879
X6.6Y-3.7079
X6.6Y-4.2379
X6.6Y-4.4579
X6.6Y-4.9879
X6.6Y-5.2079
X6.6Y-5.7379
X6.6Y-5.9579
X7.5375Y-2.738
X7.5375Y-2.958
X7.5375Y-3.4879
X7.5375Y-3.7079
X7.5375Y-4.2379
X7.5375Y-4.4579
X7.5375Y-4.9879
X7.5375Y-5.2079
X7.5375Y-5.7379
X7.5375Y-5.9579
T2
X2.3571Y-6.7654
X3.076Y-2.1661
X3.89Y-2.36
X3.9957Y-5.0969
X6.18Y-5.2169
T3
X6.148Y-2.112
X6.849Y-2.13
X7.197Y-2.089
T4
X1.5234Y-3.3818
X1.5234Y-3.4802
X1.5234Y-3.5786
T5
X1.5373Y-2.0696
X1.5373Y-2.1696
X1.5373Y-2.2696
X1.5373Y-2.3696
X1.5373Y-2.4696
X1.5373Y-2.5696
X1.5373Y-2.6696
X1.5373Y-2.7696
X1.5373Y-2.8696
X1.5373Y-2.9696
X1.5373Y-3.0696
X1.5373Y-3.1696
X1.5895Y-2.0196
X1.5895Y-2.1196
X1.5895Y-2.2196
X1.5895Y-2.3196
X1.5895Y-2.4196
X1.5895Y-2.5196
X1.5895Y-2.6196
X1.5895Y-2.7196
X1.5895Y-2.8196
X1.5895Y-2.9196
X1.5895Y-3.0196
X1.5895Y-3.1196
X2.1373Y-2.0696
X2.1373Y-2.1696
X2.1373Y-2.2696
X2.1373Y-2.3696
X2.1373Y-2.4696
X2.1373Y-2.5696
X2.1373Y-2.6696
X2.1373Y-2.7696
X2.1373Y-2.8696
X2.1373Y-2.9696
X2.1373Y-3.0696
X2.1373Y-3.1696
X2.1887Y-2.0196
X2.1887Y-2.1196
X2.1887Y-2.2196
X2.1887Y-2.3196
X2.1887Y-2.4196
X2.1887Y-2.5196
X2.1887Y-2.6196
X2.1887Y-2.7196
X2.1887Y-2.8196
X2.1887Y-2.9196
X2.1887Y-3.0196
X2.1887Y-3.1196
T6
X1.524Y-3.827
X1.524Y-4.0042
T7
X1.0915Y-5.4066
X1.3634Y-5.2798
X1.4084Y-6.0863
X1.6803Y-5.9595
X1.7254Y-6.7661
X1.7712Y-5.0897
X1.9973Y-6.6393
X2.0431Y-4.9629
X2.1605Y-6.3459
X2.2873Y-6.6178
X2.522Y-3.3504
X2.522Y-3.6504
X2.522Y-4.4754
X2.522Y-4.7754
X2.7Y-2.235
X2.8402Y-6.0289
X2.967Y-6.3008
X3.0Y-2.235
X3.45Y-2.235
X3.45Y-2.9849
X3.45Y-3.7349
X3.45Y-4.4849
X3.75Y-2.235
X3.75Y-2.9849
X3.75Y-3.7349
X3.75Y-4.4849
X4.2Y-2.1849
X4.2Y-2.9349
X4.2Y-3.6849
X4.2Y-4.4349
X4.2Y-5.1849
X4.5Y-2.1849
X4.5Y-2.9349
X4.5Y-3.6849
X4.5Y-4.4349
X4.5Y-5.1849
X4.95Y-2.122
X4.95Y-2.872
X4.95Y-3.622
X4.95Y-4.372
X4.95Y-5.122
X5.25Y-2.122
X5.25Y-2.872
X5.25Y-3.622
X5.25Y-4.372
X5.25Y-5.122
X5.7Y-2.1849
X5.7Y-2.9349
X5.7Y-3.6849
X5.7Y-4.4349
X5.7Y-5.1849
X6.0Y-2.1849
X6.0Y-2.9349
X6.0Y-3.6849
X6.0Y-4.4349
X6.0Y-5.1849
X6.45Y-2.31
X6.45Y-3.0599
X6.45Y-3.8099
X6.45Y-4.5599
X6.45Y-5.3099
X6.75Y-2.31
X6.75Y-3.0599
X6.75Y-3.8099
X6.75Y-4.5599
X6.75Y-5.3099
X7.3875Y-2.31
X7.3875Y-3.0599
X7.3875Y-3.8099
X7.3875Y-4.5599
X7.3875Y-5.3099
X7.6875Y-2.31
X7.6875Y-3.0599
X7.6875Y-3.8099
X7.6875Y-4.5599
X7.6875Y-5.3099
T8
X1.936Y-3.347
X1.936Y-3.603
T0
M30
