%TF.GenerationSoftware,KiCad,Pcbnew,(6.0.5)*%
%TF.CreationDate,2022-06-24T19:59:47-07:00*%
%TF.ProjectId,ErgoDOX,4572676f-444f-4582-9e6b-696361645f70,rev?*%
%TF.SameCoordinates,Original*%
%TF.FileFunction,Legend,Bot*%
%TF.FilePolarity,Positive*%
%FSLAX46Y46*%
G04 Gerber Fmt 4.6, Leading zero omitted, Abs format (unit mm)*
G04 Created by KiCad (PCBNEW (6.0.5)) date 2022-06-24 19:59:47*
%MOMM*%
%LPD*%
G01*
G04 APERTURE LIST*
%ADD10C,0.508000*%
%ADD11C,0.125000*%
%ADD12C,0.150000*%
%ADD13C,0.120000*%
G04 APERTURE END LIST*
D10*
X75960514Y-99890217D02*
X77170038Y-99890217D01*
X77170038Y-96842217D01*
X75113847Y-98293645D02*
X74267180Y-98293645D01*
X73904323Y-99890217D02*
X75113847Y-99890217D01*
X75113847Y-96842217D01*
X73904323Y-96842217D01*
X71969085Y-98293645D02*
X72815752Y-98293645D01*
X72815752Y-99890217D02*
X72815752Y-96842217D01*
X71606228Y-96842217D01*
X71001466Y-96842217D02*
X69550038Y-96842217D01*
X70275752Y-99890217D02*
X70275752Y-96842217D01*
X77170038Y-104797497D02*
X77170038Y-101749497D01*
X77170038Y-103200925D02*
X75718609Y-103200925D01*
X75718609Y-104797497D02*
X75718609Y-101749497D01*
X74630038Y-103926640D02*
X73420514Y-103926640D01*
X74871942Y-104797497D02*
X74025276Y-101749497D01*
X73178609Y-104797497D01*
X72331942Y-104797497D02*
X72331942Y-101749497D01*
X70880514Y-104797497D01*
X70880514Y-101749497D01*
X69670990Y-104797497D02*
X69670990Y-101749497D01*
X69066228Y-101749497D01*
X68703371Y-101894640D01*
X68461466Y-102184925D01*
X68340514Y-102475211D01*
X68219561Y-103055782D01*
X68219561Y-103491211D01*
X68340514Y-104071782D01*
X68461466Y-104362068D01*
X68703371Y-104652354D01*
X69066228Y-104797497D01*
X69670990Y-104797497D01*
D11*
%TO.C,U1*%
X37269535Y-52576928D02*
X37198107Y-52612642D01*
X37174297Y-52648357D01*
X37150488Y-52719785D01*
X37150488Y-52826928D01*
X37174297Y-52898357D01*
X37198107Y-52934071D01*
X37245726Y-52969785D01*
X37436202Y-52969785D01*
X37436202Y-52219785D01*
X37269535Y-52219785D01*
X37221916Y-52255500D01*
X37198107Y-52291214D01*
X37174297Y-52362642D01*
X37174297Y-52434071D01*
X37198107Y-52505500D01*
X37221916Y-52541214D01*
X37269535Y-52576928D01*
X37436202Y-52576928D01*
X36960011Y-52755500D02*
X36721916Y-52755500D01*
X37007630Y-52969785D02*
X36840964Y-52219785D01*
X36674297Y-52969785D01*
X36579059Y-52219785D02*
X36293345Y-52219785D01*
X36436202Y-52969785D02*
X36436202Y-52219785D01*
X36198107Y-52219785D02*
X35912392Y-52219785D01*
X36055250Y-52969785D02*
X36055250Y-52219785D01*
X35745726Y-52684071D02*
X35364773Y-52684071D01*
X35555250Y-52969785D02*
X35555250Y-52398357D01*
X52350488Y-68214285D02*
X52517154Y-67857142D01*
X52636202Y-68214285D02*
X52636202Y-67464285D01*
X52445726Y-67464285D01*
X52398107Y-67500000D01*
X52374297Y-67535714D01*
X52350488Y-67607142D01*
X52350488Y-67714285D01*
X52374297Y-67785714D01*
X52398107Y-67821428D01*
X52445726Y-67857142D01*
X52636202Y-67857142D01*
X52040964Y-67464285D02*
X51945726Y-67464285D01*
X51898107Y-67500000D01*
X51850488Y-67571428D01*
X51826678Y-67714285D01*
X51826678Y-67964285D01*
X51850488Y-68107142D01*
X51898107Y-68178571D01*
X51945726Y-68214285D01*
X52040964Y-68214285D01*
X52088583Y-68178571D01*
X52136202Y-68107142D01*
X52160011Y-67964285D01*
X52160011Y-67714285D01*
X52136202Y-67571428D01*
X52088583Y-67500000D01*
X52040964Y-67464285D01*
X51660011Y-67464285D02*
X51540964Y-68214285D01*
X51445726Y-67678571D01*
X51350488Y-68214285D01*
X51231440Y-67464285D01*
X50802869Y-67464285D02*
X51040964Y-67464285D01*
X51064773Y-67821428D01*
X51040964Y-67785714D01*
X50993345Y-67750000D01*
X50874297Y-67750000D01*
X50826678Y-67785714D01*
X50802869Y-67821428D01*
X50779059Y-67892857D01*
X50779059Y-68071428D01*
X50802869Y-68142857D01*
X50826678Y-68178571D01*
X50874297Y-68214285D01*
X50993345Y-68214285D01*
X51040964Y-68178571D01*
X51064773Y-68142857D01*
X52350488Y-70714285D02*
X52517154Y-70357142D01*
X52636202Y-70714285D02*
X52636202Y-69964285D01*
X52445726Y-69964285D01*
X52398107Y-70000000D01*
X52374297Y-70035714D01*
X52350488Y-70107142D01*
X52350488Y-70214285D01*
X52374297Y-70285714D01*
X52398107Y-70321428D01*
X52445726Y-70357142D01*
X52636202Y-70357142D01*
X52040964Y-69964285D02*
X51945726Y-69964285D01*
X51898107Y-70000000D01*
X51850488Y-70071428D01*
X51826678Y-70214285D01*
X51826678Y-70464285D01*
X51850488Y-70607142D01*
X51898107Y-70678571D01*
X51945726Y-70714285D01*
X52040964Y-70714285D01*
X52088583Y-70678571D01*
X52136202Y-70607142D01*
X52160011Y-70464285D01*
X52160011Y-70214285D01*
X52136202Y-70071428D01*
X52088583Y-70000000D01*
X52040964Y-69964285D01*
X51660011Y-69964285D02*
X51540964Y-70714285D01*
X51445726Y-70178571D01*
X51350488Y-70714285D01*
X51231440Y-69964285D01*
X50826678Y-70214285D02*
X50826678Y-70714285D01*
X50945726Y-69928571D02*
X51064773Y-70464285D01*
X50755250Y-70464285D01*
X52707630Y-52219785D02*
X52421916Y-52219785D01*
X52564773Y-52969785D02*
X52564773Y-52219785D01*
X52302869Y-52219785D02*
X51969535Y-52969785D01*
X51969535Y-52219785D02*
X52302869Y-52969785D01*
X51683821Y-52219785D02*
X51636202Y-52219785D01*
X51588583Y-52255500D01*
X51564773Y-52291214D01*
X51540964Y-52362642D01*
X51517154Y-52505500D01*
X51517154Y-52684071D01*
X51540964Y-52826928D01*
X51564773Y-52898357D01*
X51588583Y-52934071D01*
X51636202Y-52969785D01*
X51683821Y-52969785D01*
X51731440Y-52934071D01*
X51755250Y-52898357D01*
X51779059Y-52826928D01*
X51802869Y-52684071D01*
X51802869Y-52505500D01*
X51779059Y-52362642D01*
X51755250Y-52291214D01*
X51731440Y-52255500D01*
X51683821Y-52219785D01*
X52350488Y-55446285D02*
X52517154Y-55089142D01*
X52636202Y-55446285D02*
X52636202Y-54696285D01*
X52445726Y-54696285D01*
X52398107Y-54732000D01*
X52374297Y-54767714D01*
X52350488Y-54839142D01*
X52350488Y-54946285D01*
X52374297Y-55017714D01*
X52398107Y-55053428D01*
X52445726Y-55089142D01*
X52636202Y-55089142D01*
X52183821Y-54696285D02*
X51850488Y-55446285D01*
X51850488Y-54696285D02*
X52183821Y-55446285D01*
X51398107Y-55446285D02*
X51683821Y-55446285D01*
X51540964Y-55446285D02*
X51540964Y-54696285D01*
X51588583Y-54803428D01*
X51636202Y-54874857D01*
X51683821Y-54910571D01*
X52374297Y-57335500D02*
X52421916Y-57299785D01*
X52493345Y-57299785D01*
X52564773Y-57335500D01*
X52612392Y-57406928D01*
X52636202Y-57478357D01*
X52660011Y-57621214D01*
X52660011Y-57728357D01*
X52636202Y-57871214D01*
X52612392Y-57942642D01*
X52564773Y-58014071D01*
X52493345Y-58049785D01*
X52445726Y-58049785D01*
X52374297Y-58014071D01*
X52350488Y-57978357D01*
X52350488Y-57728357D01*
X52445726Y-57728357D01*
X52136202Y-58049785D02*
X52136202Y-57299785D01*
X51850488Y-58049785D01*
X51850488Y-57299785D01*
X51612392Y-58049785D02*
X51612392Y-57299785D01*
X51493345Y-57299785D01*
X51421916Y-57335500D01*
X51374297Y-57406928D01*
X51350488Y-57478357D01*
X51326678Y-57621214D01*
X51326678Y-57728357D01*
X51350488Y-57871214D01*
X51374297Y-57942642D01*
X51421916Y-58014071D01*
X51493345Y-58049785D01*
X51612392Y-58049785D01*
X37150488Y-70678357D02*
X37174297Y-70714071D01*
X37245726Y-70749785D01*
X37293345Y-70749785D01*
X37364773Y-70714071D01*
X37412392Y-70642642D01*
X37436202Y-70571214D01*
X37460011Y-70428357D01*
X37460011Y-70321214D01*
X37436202Y-70178357D01*
X37412392Y-70106928D01*
X37364773Y-70035500D01*
X37293345Y-69999785D01*
X37245726Y-69999785D01*
X37174297Y-70035500D01*
X37150488Y-70071214D01*
X36840964Y-69999785D02*
X36745726Y-69999785D01*
X36698107Y-70035500D01*
X36650488Y-70106928D01*
X36626678Y-70249785D01*
X36626678Y-70499785D01*
X36650488Y-70642642D01*
X36698107Y-70714071D01*
X36745726Y-70749785D01*
X36840964Y-70749785D01*
X36888583Y-70714071D01*
X36936202Y-70642642D01*
X36960011Y-70499785D01*
X36960011Y-70249785D01*
X36936202Y-70106928D01*
X36888583Y-70035500D01*
X36840964Y-69999785D01*
X36174297Y-70749785D02*
X36412392Y-70749785D01*
X36412392Y-69999785D01*
X36055250Y-69999785D02*
X35745726Y-69999785D01*
X35912392Y-70285500D01*
X35840964Y-70285500D01*
X35793345Y-70321214D01*
X35769535Y-70356928D01*
X35745726Y-70428357D01*
X35745726Y-70606928D01*
X35769535Y-70678357D01*
X35793345Y-70714071D01*
X35840964Y-70749785D01*
X35983821Y-70749785D01*
X36031440Y-70714071D01*
X36055250Y-70678357D01*
X37150488Y-58049785D02*
X37317154Y-57692642D01*
X37436202Y-58049785D02*
X37436202Y-57299785D01*
X37245726Y-57299785D01*
X37198107Y-57335500D01*
X37174297Y-57371214D01*
X37150488Y-57442642D01*
X37150488Y-57549785D01*
X37174297Y-57621214D01*
X37198107Y-57656928D01*
X37245726Y-57692642D01*
X37436202Y-57692642D01*
X36960011Y-58014071D02*
X36888583Y-58049785D01*
X36769535Y-58049785D01*
X36721916Y-58014071D01*
X36698107Y-57978357D01*
X36674297Y-57906928D01*
X36674297Y-57835500D01*
X36698107Y-57764071D01*
X36721916Y-57728357D01*
X36769535Y-57692642D01*
X36864773Y-57656928D01*
X36912392Y-57621214D01*
X36936202Y-57585500D01*
X36960011Y-57514071D01*
X36960011Y-57442642D01*
X36936202Y-57371214D01*
X36912392Y-57335500D01*
X36864773Y-57299785D01*
X36745726Y-57299785D01*
X36674297Y-57335500D01*
X36531440Y-57299785D02*
X36245726Y-57299785D01*
X36388583Y-58049785D02*
X36388583Y-57299785D01*
X37269535Y-80516928D02*
X37198107Y-80552642D01*
X37174297Y-80588357D01*
X37150488Y-80659785D01*
X37150488Y-80766928D01*
X37174297Y-80838357D01*
X37198107Y-80874071D01*
X37245726Y-80909785D01*
X37436202Y-80909785D01*
X37436202Y-80159785D01*
X37269535Y-80159785D01*
X37221916Y-80195500D01*
X37198107Y-80231214D01*
X37174297Y-80302642D01*
X37174297Y-80374071D01*
X37198107Y-80445500D01*
X37221916Y-80481214D01*
X37269535Y-80516928D01*
X37436202Y-80516928D01*
X36721916Y-80159785D02*
X36817154Y-80159785D01*
X36864773Y-80195500D01*
X36888583Y-80231214D01*
X36936202Y-80338357D01*
X36960011Y-80481214D01*
X36960011Y-80766928D01*
X36936202Y-80838357D01*
X36912392Y-80874071D01*
X36864773Y-80909785D01*
X36769535Y-80909785D01*
X36721916Y-80874071D01*
X36698107Y-80838357D01*
X36674297Y-80766928D01*
X36674297Y-80588357D01*
X36698107Y-80516928D01*
X36721916Y-80481214D01*
X36769535Y-80445500D01*
X36864773Y-80445500D01*
X36912392Y-80481214D01*
X36936202Y-80516928D01*
X36960011Y-80588357D01*
X37150488Y-65598357D02*
X37174297Y-65634071D01*
X37245726Y-65669785D01*
X37293345Y-65669785D01*
X37364773Y-65634071D01*
X37412392Y-65562642D01*
X37436202Y-65491214D01*
X37460011Y-65348357D01*
X37460011Y-65241214D01*
X37436202Y-65098357D01*
X37412392Y-65026928D01*
X37364773Y-64955500D01*
X37293345Y-64919785D01*
X37245726Y-64919785D01*
X37174297Y-64955500D01*
X37150488Y-64991214D01*
X36840964Y-64919785D02*
X36745726Y-64919785D01*
X36698107Y-64955500D01*
X36650488Y-65026928D01*
X36626678Y-65169785D01*
X36626678Y-65419785D01*
X36650488Y-65562642D01*
X36698107Y-65634071D01*
X36745726Y-65669785D01*
X36840964Y-65669785D01*
X36888583Y-65634071D01*
X36936202Y-65562642D01*
X36960011Y-65419785D01*
X36960011Y-65169785D01*
X36936202Y-65026928D01*
X36888583Y-64955500D01*
X36840964Y-64919785D01*
X36174297Y-65669785D02*
X36412392Y-65669785D01*
X36412392Y-64919785D01*
X35745726Y-65669785D02*
X36031440Y-65669785D01*
X35888583Y-65669785D02*
X35888583Y-64919785D01*
X35936202Y-65026928D01*
X35983821Y-65098357D01*
X36031440Y-65134071D01*
X37150488Y-75792857D02*
X37174297Y-75828571D01*
X37245726Y-75864285D01*
X37293345Y-75864285D01*
X37364773Y-75828571D01*
X37412392Y-75757142D01*
X37436202Y-75685714D01*
X37460011Y-75542857D01*
X37460011Y-75435714D01*
X37436202Y-75292857D01*
X37412392Y-75221428D01*
X37364773Y-75150000D01*
X37293345Y-75114285D01*
X37245726Y-75114285D01*
X37174297Y-75150000D01*
X37150488Y-75185714D01*
X36840964Y-75114285D02*
X36745726Y-75114285D01*
X36698107Y-75150000D01*
X36650488Y-75221428D01*
X36626678Y-75364285D01*
X36626678Y-75614285D01*
X36650488Y-75757142D01*
X36698107Y-75828571D01*
X36745726Y-75864285D01*
X36840964Y-75864285D01*
X36888583Y-75828571D01*
X36936202Y-75757142D01*
X36960011Y-75614285D01*
X36960011Y-75364285D01*
X36936202Y-75221428D01*
X36888583Y-75150000D01*
X36840964Y-75114285D01*
X36174297Y-75864285D02*
X36412392Y-75864285D01*
X36412392Y-75114285D01*
X35769535Y-75114285D02*
X36007630Y-75114285D01*
X36031440Y-75471428D01*
X36007630Y-75435714D01*
X35960011Y-75400000D01*
X35840964Y-75400000D01*
X35793345Y-75435714D01*
X35769535Y-75471428D01*
X35745726Y-75542857D01*
X35745726Y-75721428D01*
X35769535Y-75792857D01*
X35793345Y-75828571D01*
X35840964Y-75864285D01*
X35960011Y-75864285D01*
X36007630Y-75828571D01*
X36031440Y-75792857D01*
X52374297Y-59875500D02*
X52421916Y-59839785D01*
X52493345Y-59839785D01*
X52564773Y-59875500D01*
X52612392Y-59946928D01*
X52636202Y-60018357D01*
X52660011Y-60161214D01*
X52660011Y-60268357D01*
X52636202Y-60411214D01*
X52612392Y-60482642D01*
X52564773Y-60554071D01*
X52493345Y-60589785D01*
X52445726Y-60589785D01*
X52374297Y-60554071D01*
X52350488Y-60518357D01*
X52350488Y-60268357D01*
X52445726Y-60268357D01*
X52136202Y-60589785D02*
X52136202Y-59839785D01*
X51850488Y-60589785D01*
X51850488Y-59839785D01*
X51612392Y-60589785D02*
X51612392Y-59839785D01*
X51493345Y-59839785D01*
X51421916Y-59875500D01*
X51374297Y-59946928D01*
X51350488Y-60018357D01*
X51326678Y-60161214D01*
X51326678Y-60268357D01*
X51350488Y-60411214D01*
X51374297Y-60482642D01*
X51421916Y-60554071D01*
X51493345Y-60589785D01*
X51612392Y-60589785D01*
X52350488Y-80846285D02*
X52517154Y-80489142D01*
X52636202Y-80846285D02*
X52636202Y-80096285D01*
X52445726Y-80096285D01*
X52398107Y-80132000D01*
X52374297Y-80167714D01*
X52350488Y-80239142D01*
X52350488Y-80346285D01*
X52374297Y-80417714D01*
X52398107Y-80453428D01*
X52445726Y-80489142D01*
X52636202Y-80489142D01*
X52040964Y-80096285D02*
X51945726Y-80096285D01*
X51898107Y-80132000D01*
X51850488Y-80203428D01*
X51826678Y-80346285D01*
X51826678Y-80596285D01*
X51850488Y-80739142D01*
X51898107Y-80810571D01*
X51945726Y-80846285D01*
X52040964Y-80846285D01*
X52088583Y-80810571D01*
X52136202Y-80739142D01*
X52160011Y-80596285D01*
X52160011Y-80346285D01*
X52136202Y-80203428D01*
X52088583Y-80132000D01*
X52040964Y-80096285D01*
X51660011Y-80096285D02*
X51540964Y-80846285D01*
X51445726Y-80310571D01*
X51350488Y-80846285D01*
X51231440Y-80096285D01*
X50945726Y-80096285D02*
X50898107Y-80096285D01*
X50850488Y-80132000D01*
X50826678Y-80167714D01*
X50802869Y-80239142D01*
X50779059Y-80382000D01*
X50779059Y-80560571D01*
X50802869Y-80703428D01*
X50826678Y-80774857D01*
X50850488Y-80810571D01*
X50898107Y-80846285D01*
X50945726Y-80846285D01*
X50993345Y-80810571D01*
X51017154Y-80774857D01*
X51040964Y-80703428D01*
X51064773Y-80560571D01*
X51064773Y-80382000D01*
X51040964Y-80239142D01*
X51017154Y-80167714D01*
X50993345Y-80132000D01*
X50945726Y-80096285D01*
X52660011Y-63128571D02*
X52588583Y-63164285D01*
X52469535Y-63164285D01*
X52421916Y-63128571D01*
X52398107Y-63092857D01*
X52374297Y-63021428D01*
X52374297Y-62950000D01*
X52398107Y-62878571D01*
X52421916Y-62842857D01*
X52469535Y-62807142D01*
X52564773Y-62771428D01*
X52612392Y-62735714D01*
X52636202Y-62700000D01*
X52660011Y-62628571D01*
X52660011Y-62557142D01*
X52636202Y-62485714D01*
X52612392Y-62450000D01*
X52564773Y-62414285D01*
X52445726Y-62414285D01*
X52374297Y-62450000D01*
X52160011Y-63164285D02*
X52160011Y-62414285D01*
X52040964Y-62414285D01*
X51969535Y-62450000D01*
X51921916Y-62521428D01*
X51898107Y-62592857D01*
X51874297Y-62735714D01*
X51874297Y-62842857D01*
X51898107Y-62985714D01*
X51921916Y-63057142D01*
X51969535Y-63128571D01*
X52040964Y-63164285D01*
X52160011Y-63164285D01*
X51683821Y-62950000D02*
X51445726Y-62950000D01*
X51731440Y-63164285D02*
X51564773Y-62414285D01*
X51398107Y-63164285D01*
X37150488Y-78298357D02*
X37174297Y-78334071D01*
X37245726Y-78369785D01*
X37293345Y-78369785D01*
X37364773Y-78334071D01*
X37412392Y-78262642D01*
X37436202Y-78191214D01*
X37460011Y-78048357D01*
X37460011Y-77941214D01*
X37436202Y-77798357D01*
X37412392Y-77726928D01*
X37364773Y-77655500D01*
X37293345Y-77619785D01*
X37245726Y-77619785D01*
X37174297Y-77655500D01*
X37150488Y-77691214D01*
X36840964Y-77619785D02*
X36745726Y-77619785D01*
X36698107Y-77655500D01*
X36650488Y-77726928D01*
X36626678Y-77869785D01*
X36626678Y-78119785D01*
X36650488Y-78262642D01*
X36698107Y-78334071D01*
X36745726Y-78369785D01*
X36840964Y-78369785D01*
X36888583Y-78334071D01*
X36936202Y-78262642D01*
X36960011Y-78119785D01*
X36960011Y-77869785D01*
X36936202Y-77726928D01*
X36888583Y-77655500D01*
X36840964Y-77619785D01*
X36174297Y-78369785D02*
X36412392Y-78369785D01*
X36412392Y-77619785D01*
X35793345Y-77619785D02*
X35888583Y-77619785D01*
X35936202Y-77655500D01*
X35960011Y-77691214D01*
X36007630Y-77798357D01*
X36031440Y-77941214D01*
X36031440Y-78226928D01*
X36007630Y-78298357D01*
X35983821Y-78334071D01*
X35936202Y-78369785D01*
X35840964Y-78369785D01*
X35793345Y-78334071D01*
X35769535Y-78298357D01*
X35745726Y-78226928D01*
X35745726Y-78048357D01*
X35769535Y-77976928D01*
X35793345Y-77941214D01*
X35840964Y-77905500D01*
X35936202Y-77905500D01*
X35983821Y-77941214D01*
X36007630Y-77976928D01*
X36031440Y-78048357D01*
X52350488Y-75864285D02*
X52517154Y-75507142D01*
X52636202Y-75864285D02*
X52636202Y-75114285D01*
X52445726Y-75114285D01*
X52398107Y-75150000D01*
X52374297Y-75185714D01*
X52350488Y-75257142D01*
X52350488Y-75364285D01*
X52374297Y-75435714D01*
X52398107Y-75471428D01*
X52445726Y-75507142D01*
X52636202Y-75507142D01*
X52040964Y-75114285D02*
X51945726Y-75114285D01*
X51898107Y-75150000D01*
X51850488Y-75221428D01*
X51826678Y-75364285D01*
X51826678Y-75614285D01*
X51850488Y-75757142D01*
X51898107Y-75828571D01*
X51945726Y-75864285D01*
X52040964Y-75864285D01*
X52088583Y-75828571D01*
X52136202Y-75757142D01*
X52160011Y-75614285D01*
X52160011Y-75364285D01*
X52136202Y-75221428D01*
X52088583Y-75150000D01*
X52040964Y-75114285D01*
X51660011Y-75114285D02*
X51540964Y-75864285D01*
X51445726Y-75328571D01*
X51350488Y-75864285D01*
X51231440Y-75114285D01*
X51064773Y-75185714D02*
X51040964Y-75150000D01*
X50993345Y-75114285D01*
X50874297Y-75114285D01*
X50826678Y-75150000D01*
X50802869Y-75185714D01*
X50779059Y-75257142D01*
X50779059Y-75328571D01*
X50802869Y-75435714D01*
X51088583Y-75864285D01*
X50779059Y-75864285D01*
X37150488Y-73281857D02*
X37174297Y-73317571D01*
X37245726Y-73353285D01*
X37293345Y-73353285D01*
X37364773Y-73317571D01*
X37412392Y-73246142D01*
X37436202Y-73174714D01*
X37460011Y-73031857D01*
X37460011Y-72924714D01*
X37436202Y-72781857D01*
X37412392Y-72710428D01*
X37364773Y-72639000D01*
X37293345Y-72603285D01*
X37245726Y-72603285D01*
X37174297Y-72639000D01*
X37150488Y-72674714D01*
X36840964Y-72603285D02*
X36745726Y-72603285D01*
X36698107Y-72639000D01*
X36650488Y-72710428D01*
X36626678Y-72853285D01*
X36626678Y-73103285D01*
X36650488Y-73246142D01*
X36698107Y-73317571D01*
X36745726Y-73353285D01*
X36840964Y-73353285D01*
X36888583Y-73317571D01*
X36936202Y-73246142D01*
X36960011Y-73103285D01*
X36960011Y-72853285D01*
X36936202Y-72710428D01*
X36888583Y-72639000D01*
X36840964Y-72603285D01*
X36174297Y-73353285D02*
X36412392Y-73353285D01*
X36412392Y-72603285D01*
X35793345Y-72853285D02*
X35793345Y-73353285D01*
X35912392Y-72567571D02*
X36031440Y-73103285D01*
X35721916Y-73103285D01*
X37150488Y-68074857D02*
X37174297Y-68110571D01*
X37245726Y-68146285D01*
X37293345Y-68146285D01*
X37364773Y-68110571D01*
X37412392Y-68039142D01*
X37436202Y-67967714D01*
X37460011Y-67824857D01*
X37460011Y-67717714D01*
X37436202Y-67574857D01*
X37412392Y-67503428D01*
X37364773Y-67432000D01*
X37293345Y-67396285D01*
X37245726Y-67396285D01*
X37174297Y-67432000D01*
X37150488Y-67467714D01*
X36840964Y-67396285D02*
X36745726Y-67396285D01*
X36698107Y-67432000D01*
X36650488Y-67503428D01*
X36626678Y-67646285D01*
X36626678Y-67896285D01*
X36650488Y-68039142D01*
X36698107Y-68110571D01*
X36745726Y-68146285D01*
X36840964Y-68146285D01*
X36888583Y-68110571D01*
X36936202Y-68039142D01*
X36960011Y-67896285D01*
X36960011Y-67646285D01*
X36936202Y-67503428D01*
X36888583Y-67432000D01*
X36840964Y-67396285D01*
X36174297Y-68146285D02*
X36412392Y-68146285D01*
X36412392Y-67396285D01*
X36031440Y-67467714D02*
X36007630Y-67432000D01*
X35960011Y-67396285D01*
X35840964Y-67396285D01*
X35793345Y-67432000D01*
X35769535Y-67467714D01*
X35745726Y-67539142D01*
X35745726Y-67610571D01*
X35769535Y-67717714D01*
X36055250Y-68146285D01*
X35745726Y-68146285D01*
X37507630Y-59839785D02*
X37340964Y-60589785D01*
X37174297Y-59839785D01*
X36721916Y-60518357D02*
X36745726Y-60554071D01*
X36817154Y-60589785D01*
X36864773Y-60589785D01*
X36936202Y-60554071D01*
X36983821Y-60482642D01*
X37007630Y-60411214D01*
X37031440Y-60268357D01*
X37031440Y-60161214D01*
X37007630Y-60018357D01*
X36983821Y-59946928D01*
X36936202Y-59875500D01*
X36864773Y-59839785D01*
X36817154Y-59839785D01*
X36745726Y-59875500D01*
X36721916Y-59911214D01*
X36221916Y-60518357D02*
X36245726Y-60554071D01*
X36317154Y-60589785D01*
X36364773Y-60589785D01*
X36436202Y-60554071D01*
X36483821Y-60482642D01*
X36507630Y-60411214D01*
X36531440Y-60268357D01*
X36531440Y-60161214D01*
X36507630Y-60018357D01*
X36483821Y-59946928D01*
X36436202Y-59875500D01*
X36364773Y-59839785D01*
X36317154Y-59839785D01*
X36245726Y-59875500D01*
X36221916Y-59911214D01*
X52350488Y-78242785D02*
X52517154Y-77885642D01*
X52636202Y-78242785D02*
X52636202Y-77492785D01*
X52445726Y-77492785D01*
X52398107Y-77528500D01*
X52374297Y-77564214D01*
X52350488Y-77635642D01*
X52350488Y-77742785D01*
X52374297Y-77814214D01*
X52398107Y-77849928D01*
X52445726Y-77885642D01*
X52636202Y-77885642D01*
X52040964Y-77492785D02*
X51945726Y-77492785D01*
X51898107Y-77528500D01*
X51850488Y-77599928D01*
X51826678Y-77742785D01*
X51826678Y-77992785D01*
X51850488Y-78135642D01*
X51898107Y-78207071D01*
X51945726Y-78242785D01*
X52040964Y-78242785D01*
X52088583Y-78207071D01*
X52136202Y-78135642D01*
X52160011Y-77992785D01*
X52160011Y-77742785D01*
X52136202Y-77599928D01*
X52088583Y-77528500D01*
X52040964Y-77492785D01*
X51660011Y-77492785D02*
X51540964Y-78242785D01*
X51445726Y-77707071D01*
X51350488Y-78242785D01*
X51231440Y-77492785D01*
X50779059Y-78242785D02*
X51064773Y-78242785D01*
X50921916Y-78242785D02*
X50921916Y-77492785D01*
X50969535Y-77599928D01*
X51017154Y-77671357D01*
X51064773Y-77707071D01*
X37150488Y-63058357D02*
X37174297Y-63094071D01*
X37245726Y-63129785D01*
X37293345Y-63129785D01*
X37364773Y-63094071D01*
X37412392Y-63022642D01*
X37436202Y-62951214D01*
X37460011Y-62808357D01*
X37460011Y-62701214D01*
X37436202Y-62558357D01*
X37412392Y-62486928D01*
X37364773Y-62415500D01*
X37293345Y-62379785D01*
X37245726Y-62379785D01*
X37174297Y-62415500D01*
X37150488Y-62451214D01*
X36840964Y-62379785D02*
X36745726Y-62379785D01*
X36698107Y-62415500D01*
X36650488Y-62486928D01*
X36626678Y-62629785D01*
X36626678Y-62879785D01*
X36650488Y-63022642D01*
X36698107Y-63094071D01*
X36745726Y-63129785D01*
X36840964Y-63129785D01*
X36888583Y-63094071D01*
X36936202Y-63022642D01*
X36960011Y-62879785D01*
X36960011Y-62629785D01*
X36936202Y-62486928D01*
X36888583Y-62415500D01*
X36840964Y-62379785D01*
X36174297Y-63129785D02*
X36412392Y-63129785D01*
X36412392Y-62379785D01*
X35912392Y-62379785D02*
X35864773Y-62379785D01*
X35817154Y-62415500D01*
X35793345Y-62451214D01*
X35769535Y-62522642D01*
X35745726Y-62665500D01*
X35745726Y-62844071D01*
X35769535Y-62986928D01*
X35793345Y-63058357D01*
X35817154Y-63094071D01*
X35864773Y-63129785D01*
X35912392Y-63129785D01*
X35960011Y-63094071D01*
X35983821Y-63058357D01*
X36007630Y-62986928D01*
X36031440Y-62844071D01*
X36031440Y-62665500D01*
X36007630Y-62522642D01*
X35983821Y-62451214D01*
X35960011Y-62415500D01*
X35912392Y-62379785D01*
X52350488Y-73226285D02*
X52517154Y-72869142D01*
X52636202Y-73226285D02*
X52636202Y-72476285D01*
X52445726Y-72476285D01*
X52398107Y-72512000D01*
X52374297Y-72547714D01*
X52350488Y-72619142D01*
X52350488Y-72726285D01*
X52374297Y-72797714D01*
X52398107Y-72833428D01*
X52445726Y-72869142D01*
X52636202Y-72869142D01*
X52040964Y-72476285D02*
X51945726Y-72476285D01*
X51898107Y-72512000D01*
X51850488Y-72583428D01*
X51826678Y-72726285D01*
X51826678Y-72976285D01*
X51850488Y-73119142D01*
X51898107Y-73190571D01*
X51945726Y-73226285D01*
X52040964Y-73226285D01*
X52088583Y-73190571D01*
X52136202Y-73119142D01*
X52160011Y-72976285D01*
X52160011Y-72726285D01*
X52136202Y-72583428D01*
X52088583Y-72512000D01*
X52040964Y-72476285D01*
X51660011Y-72476285D02*
X51540964Y-73226285D01*
X51445726Y-72690571D01*
X51350488Y-73226285D01*
X51231440Y-72476285D01*
X51088583Y-72476285D02*
X50779059Y-72476285D01*
X50945726Y-72762000D01*
X50874297Y-72762000D01*
X50826678Y-72797714D01*
X50802869Y-72833428D01*
X50779059Y-72904857D01*
X50779059Y-73083428D01*
X50802869Y-73154857D01*
X50826678Y-73190571D01*
X50874297Y-73226285D01*
X51017154Y-73226285D01*
X51064773Y-73190571D01*
X51088583Y-73154857D01*
X37174297Y-54900000D02*
X37221916Y-54864285D01*
X37293345Y-54864285D01*
X37364773Y-54900000D01*
X37412392Y-54971428D01*
X37436202Y-55042857D01*
X37460011Y-55185714D01*
X37460011Y-55292857D01*
X37436202Y-55435714D01*
X37412392Y-55507142D01*
X37364773Y-55578571D01*
X37293345Y-55614285D01*
X37245726Y-55614285D01*
X37174297Y-55578571D01*
X37150488Y-55542857D01*
X37150488Y-55292857D01*
X37245726Y-55292857D01*
X36936202Y-55614285D02*
X36936202Y-54864285D01*
X36650488Y-55614285D01*
X36650488Y-54864285D01*
X36412392Y-55614285D02*
X36412392Y-54864285D01*
X36293345Y-54864285D01*
X36221916Y-54900000D01*
X36174297Y-54971428D01*
X36150488Y-55042857D01*
X36126678Y-55185714D01*
X36126678Y-55292857D01*
X36150488Y-55435714D01*
X36174297Y-55507142D01*
X36221916Y-55578571D01*
X36293345Y-55614285D01*
X36412392Y-55614285D01*
X52660011Y-65634071D02*
X52588583Y-65669785D01*
X52469535Y-65669785D01*
X52421916Y-65634071D01*
X52398107Y-65598357D01*
X52374297Y-65526928D01*
X52374297Y-65455500D01*
X52398107Y-65384071D01*
X52421916Y-65348357D01*
X52469535Y-65312642D01*
X52564773Y-65276928D01*
X52612392Y-65241214D01*
X52636202Y-65205500D01*
X52660011Y-65134071D01*
X52660011Y-65062642D01*
X52636202Y-64991214D01*
X52612392Y-64955500D01*
X52564773Y-64919785D01*
X52445726Y-64919785D01*
X52374297Y-64955500D01*
X51874297Y-65598357D02*
X51898107Y-65634071D01*
X51969535Y-65669785D01*
X52017154Y-65669785D01*
X52088583Y-65634071D01*
X52136202Y-65562642D01*
X52160011Y-65491214D01*
X52183821Y-65348357D01*
X52183821Y-65241214D01*
X52160011Y-65098357D01*
X52136202Y-65026928D01*
X52088583Y-64955500D01*
X52017154Y-64919785D01*
X51969535Y-64919785D01*
X51898107Y-64955500D01*
X51874297Y-64991214D01*
X51421916Y-65669785D02*
X51660011Y-65669785D01*
X51660011Y-64919785D01*
D12*
%TO.C,BATTERY*%
X36638171Y-96658180D02*
X36685790Y-96801038D01*
X36733409Y-96848657D01*
X36828647Y-96896276D01*
X36971504Y-96896276D01*
X37066742Y-96848657D01*
X37114361Y-96801038D01*
X37161980Y-96705800D01*
X37161980Y-96324847D01*
X36161980Y-96324847D01*
X36161980Y-96658180D01*
X36209600Y-96753419D01*
X36257219Y-96801038D01*
X36352457Y-96848657D01*
X36447695Y-96848657D01*
X36542933Y-96801038D01*
X36590552Y-96753419D01*
X36638171Y-96658180D01*
X36638171Y-96324847D01*
X36781028Y-97324847D02*
X36781028Y-98086752D01*
X37161980Y-97705800D02*
X36400076Y-97705800D01*
X36638171Y-101158180D02*
X36685790Y-101301038D01*
X36733409Y-101348657D01*
X36828647Y-101396276D01*
X36971504Y-101396276D01*
X37066742Y-101348657D01*
X37114361Y-101301038D01*
X37161980Y-101205800D01*
X37161980Y-100824847D01*
X36161980Y-100824847D01*
X36161980Y-101158180D01*
X36209600Y-101253419D01*
X36257219Y-101301038D01*
X36352457Y-101348657D01*
X36447695Y-101348657D01*
X36542933Y-101301038D01*
X36590552Y-101253419D01*
X36638171Y-101158180D01*
X36638171Y-100824847D01*
X36781028Y-101824847D02*
X36781028Y-102586752D01*
%TO.C,BSW1*%
X41250580Y-90529619D02*
X41250580Y-90720095D01*
X41298200Y-90815333D01*
X41393438Y-90910571D01*
X41583914Y-90958190D01*
X41917247Y-90958190D01*
X42107723Y-90910571D01*
X42202961Y-90815333D01*
X42250580Y-90720095D01*
X42250580Y-90529619D01*
X42202961Y-90434380D01*
X42107723Y-90339142D01*
X41917247Y-90291523D01*
X41583914Y-90291523D01*
X41393438Y-90339142D01*
X41298200Y-90434380D01*
X41250580Y-90529619D01*
X41726771Y-91720095D02*
X41726771Y-91386761D01*
X42250580Y-91386761D02*
X41250580Y-91386761D01*
X41250580Y-91862952D01*
X41726771Y-92577238D02*
X41726771Y-92243904D01*
X42250580Y-92243904D02*
X41250580Y-92243904D01*
X41250580Y-92720095D01*
X41250580Y-84386952D02*
X41250580Y-84577428D01*
X41298200Y-84672666D01*
X41393438Y-84767904D01*
X41583914Y-84815523D01*
X41917247Y-84815523D01*
X42107723Y-84767904D01*
X42202961Y-84672666D01*
X42250580Y-84577428D01*
X42250580Y-84386952D01*
X42202961Y-84291714D01*
X42107723Y-84196476D01*
X41917247Y-84148857D01*
X41583914Y-84148857D01*
X41393438Y-84196476D01*
X41298200Y-84291714D01*
X41250580Y-84386952D01*
X42250580Y-85244095D02*
X41250580Y-85244095D01*
X42250580Y-85815523D01*
X41250580Y-85815523D01*
%TO.C,RSW1*%
X46626780Y-86685619D02*
X46150590Y-86352285D01*
X46626780Y-86114190D02*
X45626780Y-86114190D01*
X45626780Y-86495142D01*
X45674400Y-86590380D01*
X45722019Y-86638000D01*
X45817257Y-86685619D01*
X45960114Y-86685619D01*
X46055352Y-86638000D01*
X46102971Y-86590380D01*
X46150590Y-86495142D01*
X46150590Y-86114190D01*
X46102971Y-87114190D02*
X46102971Y-87447523D01*
X46626780Y-87590380D02*
X46626780Y-87114190D01*
X45626780Y-87114190D01*
X45626780Y-87590380D01*
X46579161Y-87971333D02*
X46626780Y-88114190D01*
X46626780Y-88352285D01*
X46579161Y-88447523D01*
X46531542Y-88495142D01*
X46436304Y-88542761D01*
X46341066Y-88542761D01*
X46245828Y-88495142D01*
X46198209Y-88447523D01*
X46150590Y-88352285D01*
X46102971Y-88161809D01*
X46055352Y-88066571D01*
X46007733Y-88018952D01*
X45912495Y-87971333D01*
X45817257Y-87971333D01*
X45722019Y-88018952D01*
X45674400Y-88066571D01*
X45626780Y-88161809D01*
X45626780Y-88399904D01*
X45674400Y-88542761D01*
X46102971Y-88971333D02*
X46102971Y-89304666D01*
X46626780Y-89447523D02*
X46626780Y-88971333D01*
X45626780Y-88971333D01*
X45626780Y-89447523D01*
X45626780Y-89733238D02*
X45626780Y-90304666D01*
X46626780Y-90018952D02*
X45626780Y-90018952D01*
%TO.C,SW1:13*%
X193602500Y-150852660D02*
X193602500Y-147302660D01*
X191952500Y-151402660D02*
X191952500Y-146802660D01*
X185052500Y-149052660D02*
X185052500Y-144702660D01*
X184902500Y-148952660D02*
X184902500Y-144852660D01*
X191802500Y-151402660D02*
X191802500Y-146802660D01*
X186552500Y-149202660D02*
X186552500Y-144602660D01*
X186852500Y-149202660D02*
X186852500Y-144602660D01*
X187302500Y-149202660D02*
X187302500Y-144652660D01*
X191502500Y-151402660D02*
X191502500Y-146802660D01*
X191352500Y-151402660D02*
X191352500Y-146802660D01*
X187902500Y-149302660D02*
X187902500Y-144752660D01*
X185202500Y-149202660D02*
X185202500Y-144602660D01*
X188952500Y-150052660D02*
X188952500Y-145602660D01*
X187002500Y-149202660D02*
X187002500Y-144602660D01*
X189352500Y-150752660D02*
X189352500Y-146552660D01*
X188052500Y-149402660D02*
X188052500Y-144852660D01*
X189052500Y-150252660D02*
X189052500Y-146102660D01*
X187452500Y-149252660D02*
X187452500Y-144602660D01*
X186402500Y-149202660D02*
X186402500Y-144602660D01*
X189152500Y-150402660D02*
X189152500Y-146252660D01*
X190452500Y-151402660D02*
X190452500Y-146802660D01*
X184452500Y-148452660D02*
X184452500Y-145302660D01*
X187152500Y-149227660D02*
X185177500Y-149227660D01*
X187602500Y-149252660D02*
X187602500Y-144602660D01*
X185352500Y-149202660D02*
X185352500Y-144602660D01*
X193302500Y-151202660D02*
X193302500Y-147002660D01*
X184602500Y-148652660D02*
X184602500Y-145152660D01*
X193152500Y-151302660D02*
X193152500Y-146902660D01*
X192752500Y-151427660D02*
X190152500Y-151427660D01*
X187152500Y-149202660D02*
X187152500Y-144602660D01*
X193752500Y-147777660D02*
X193752500Y-150427660D01*
X186252500Y-149202660D02*
X186252500Y-144602660D01*
X188652500Y-149752660D02*
X188652500Y-145352660D01*
X192552500Y-151402660D02*
X192552500Y-146802660D01*
X185502500Y-149202660D02*
X185502500Y-144602660D01*
X187727500Y-144577660D02*
X185177500Y-144577660D01*
X192752500Y-146777660D02*
X190177500Y-146777660D01*
X189452500Y-151002660D02*
X189452500Y-146602660D01*
X186702500Y-149202660D02*
X186702500Y-144602660D01*
X192402500Y-151402660D02*
X192402500Y-146802660D01*
X184752500Y-148802660D02*
X184752500Y-145002660D01*
X189252500Y-150602660D02*
X189252500Y-146452660D01*
X186102500Y-149202660D02*
X186102500Y-144602660D01*
X192252500Y-151402660D02*
X192252500Y-146802660D01*
X188352500Y-149552660D02*
X188352500Y-145102660D01*
X190002500Y-151402660D02*
X190002500Y-146802660D01*
X185802500Y-149202660D02*
X185802500Y-144602660D01*
X184302500Y-148352660D02*
X184302500Y-145452660D01*
X190752500Y-151402660D02*
X190752500Y-146802660D01*
X192102500Y-151402660D02*
X192102500Y-146802660D01*
X185952500Y-149202660D02*
X185952500Y-144602660D01*
X189702500Y-151252660D02*
X189702500Y-146702660D01*
X190302500Y-151402660D02*
X190302500Y-146852660D01*
X184152500Y-148202660D02*
X185177500Y-149227660D01*
X188502500Y-149652660D02*
X188502500Y-145252660D01*
X190602500Y-151402660D02*
X190602500Y-146802660D01*
X193502500Y-151002660D02*
X193502500Y-147252660D01*
X184152500Y-145602660D02*
X185177500Y-144577660D01*
X188202500Y-149452660D02*
X188202500Y-145002660D01*
X187752500Y-149252660D02*
X187752500Y-144652660D01*
X190902500Y-151402660D02*
X190902500Y-146802660D01*
X187727500Y-144577660D02*
X189002500Y-145602660D01*
X193402500Y-151102660D02*
X193402500Y-147152660D01*
X189852500Y-151352660D02*
X189852500Y-146802660D01*
X192852500Y-151402660D02*
X192852500Y-146852660D01*
X189552500Y-151152660D02*
X189552500Y-146652660D01*
X188802500Y-149902660D02*
X188802500Y-145452660D01*
X185652500Y-149202660D02*
X185652500Y-144602660D01*
X191052500Y-151402660D02*
X191052500Y-146802660D01*
X184152500Y-145602660D02*
X184152500Y-148202660D01*
X191202500Y-151402660D02*
X191202500Y-146802660D01*
X190152500Y-151402660D02*
X190152500Y-146802660D01*
X191652500Y-151402660D02*
X191652500Y-146802660D01*
X193002500Y-151352660D02*
X193002500Y-146852660D01*
X192702500Y-151402660D02*
X192702500Y-146802660D01*
X189290301Y-150724564D02*
G75*
G03*
X190151505Y-151426451I899995J224994D01*
G01*
X193752500Y-147777660D02*
G75*
G03*
X192752500Y-146777660I-1000000J0D01*
G01*
X192752500Y-151427660D02*
G75*
G03*
X193752500Y-150427660I0J1000000D01*
G01*
X189002500Y-145602660D02*
G75*
G03*
X190177500Y-146777660I1175002J2D01*
G01*
X189290301Y-150724564D02*
G75*
G03*
X187152500Y-149227660I-2137802J-778098D01*
G01*
%TO.C,SW1:10*%
X127440000Y-145980000D02*
X127440000Y-141780000D01*
X131840000Y-143005000D02*
X131840000Y-145655000D01*
X125540000Y-144480000D02*
X125540000Y-139830000D01*
X131590000Y-146230000D02*
X131590000Y-142480000D01*
X130790000Y-146630000D02*
X130790000Y-142030000D01*
X125240000Y-144455000D02*
X123265000Y-144455000D01*
X125840000Y-144480000D02*
X125840000Y-139880000D01*
X131390000Y-146430000D02*
X131390000Y-142230000D01*
X129290000Y-146630000D02*
X129290000Y-142030000D01*
X129740000Y-146630000D02*
X129740000Y-142030000D01*
X122540000Y-143680000D02*
X122540000Y-140530000D01*
X127040000Y-145280000D02*
X127040000Y-140830000D01*
X126740000Y-144980000D02*
X126740000Y-140580000D01*
X126440000Y-144780000D02*
X126440000Y-140330000D01*
X125990000Y-144530000D02*
X125990000Y-139980000D01*
X127940000Y-146580000D02*
X127940000Y-142030000D01*
X129440000Y-146630000D02*
X129440000Y-142030000D01*
X124040000Y-144430000D02*
X124040000Y-139830000D01*
X122990000Y-144180000D02*
X122990000Y-140080000D01*
X130940000Y-146630000D02*
X130940000Y-142080000D01*
X129890000Y-146630000D02*
X129890000Y-142030000D01*
X125690000Y-144480000D02*
X125690000Y-139830000D01*
X125090000Y-144430000D02*
X125090000Y-139830000D01*
X122240000Y-143430000D02*
X123265000Y-144455000D01*
X126590000Y-144880000D02*
X126590000Y-140480000D01*
X126290000Y-144680000D02*
X126290000Y-140230000D01*
X127340000Y-145830000D02*
X127340000Y-141680000D01*
X128840000Y-146630000D02*
X128840000Y-142030000D01*
X128990000Y-146630000D02*
X128990000Y-142030000D01*
X125390000Y-144430000D02*
X125390000Y-139880000D01*
X125815000Y-139805000D02*
X123265000Y-139805000D01*
X127540000Y-146230000D02*
X127540000Y-141830000D01*
X129140000Y-146630000D02*
X129140000Y-142030000D01*
X123890000Y-144430000D02*
X123890000Y-139830000D01*
X130840000Y-142005000D02*
X128265000Y-142005000D01*
X124340000Y-144430000D02*
X124340000Y-139830000D01*
X128240000Y-146630000D02*
X128240000Y-142030000D01*
X131240000Y-146530000D02*
X131240000Y-142130000D01*
X124490000Y-144430000D02*
X124490000Y-139830000D01*
X123440000Y-144430000D02*
X123440000Y-139830000D01*
X130490000Y-146630000D02*
X130490000Y-142030000D01*
X128690000Y-146630000D02*
X128690000Y-142030000D01*
X131690000Y-146080000D02*
X131690000Y-142530000D01*
X122840000Y-144030000D02*
X122840000Y-140230000D01*
X126890000Y-145130000D02*
X126890000Y-140680000D01*
X127140000Y-145480000D02*
X127140000Y-141330000D01*
X130640000Y-146630000D02*
X130640000Y-142030000D01*
X129590000Y-146630000D02*
X129590000Y-142030000D01*
X125240000Y-144430000D02*
X125240000Y-139830000D01*
X123740000Y-144430000D02*
X123740000Y-139830000D01*
X124190000Y-144430000D02*
X124190000Y-139830000D01*
X127640000Y-146380000D02*
X127640000Y-141880000D01*
X127240000Y-145630000D02*
X127240000Y-141480000D01*
X123290000Y-144430000D02*
X123290000Y-139830000D01*
X126140000Y-144630000D02*
X126140000Y-140080000D01*
X128390000Y-146630000D02*
X128390000Y-142080000D01*
X124790000Y-144430000D02*
X124790000Y-139830000D01*
X124640000Y-144430000D02*
X124640000Y-139830000D01*
X131490000Y-146330000D02*
X131490000Y-142380000D01*
X125815000Y-139805000D02*
X127090000Y-140830000D01*
X130040000Y-146630000D02*
X130040000Y-142030000D01*
X123590000Y-144430000D02*
X123590000Y-139830000D01*
X128090000Y-146630000D02*
X128090000Y-142030000D01*
X127790000Y-146480000D02*
X127790000Y-141930000D01*
X131090000Y-146580000D02*
X131090000Y-142080000D01*
X130340000Y-146630000D02*
X130340000Y-142030000D01*
X124940000Y-144430000D02*
X124940000Y-139830000D01*
X122390000Y-143580000D02*
X122390000Y-140680000D01*
X123140000Y-144280000D02*
X123140000Y-139930000D01*
X122240000Y-140830000D02*
X122240000Y-143430000D01*
X130840000Y-146655000D02*
X128240000Y-146655000D01*
X122690000Y-143880000D02*
X122690000Y-140380000D01*
X130190000Y-146630000D02*
X130190000Y-142030000D01*
X128540000Y-146630000D02*
X128540000Y-142030000D01*
X122240000Y-140830000D02*
X123265000Y-139805000D01*
X131840000Y-143005000D02*
G75*
G03*
X130840000Y-142005000I-1000000J0D01*
G01*
X127377801Y-145951904D02*
G75*
G03*
X125240000Y-144455000I-2137802J-778098D01*
G01*
X127090000Y-140830000D02*
G75*
G03*
X128265000Y-142005000I1175002J2D01*
G01*
X130840000Y-146655000D02*
G75*
G03*
X131840000Y-145655000I0J1000000D01*
G01*
X127377801Y-145951904D02*
G75*
G03*
X128239005Y-146653791I899995J224994D01*
G01*
%TO.C,SW1:9*%
X104990000Y-146027660D02*
X104990000Y-141427660D01*
X107990000Y-146877660D02*
X107990000Y-142427660D01*
X103340000Y-145177660D02*
X103340000Y-142277660D01*
X103790000Y-145627660D02*
X103790000Y-141827660D01*
X109190000Y-148227660D02*
X109190000Y-143627660D01*
X109040000Y-148227660D02*
X109040000Y-143627660D01*
X106340000Y-146027660D02*
X106340000Y-141477660D01*
X108590000Y-147977660D02*
X108590000Y-143477660D01*
X103940000Y-145777660D02*
X103940000Y-141677660D01*
X104090000Y-145877660D02*
X104090000Y-141527660D01*
X110540000Y-148227660D02*
X110540000Y-143627660D01*
X109940000Y-148227660D02*
X109940000Y-143627660D01*
X103190000Y-142427660D02*
X104215000Y-141402660D01*
X111790000Y-143602660D02*
X109215000Y-143602660D01*
X110990000Y-148227660D02*
X110990000Y-143627660D01*
X112640000Y-147677660D02*
X112640000Y-144127660D01*
X112340000Y-148027660D02*
X112340000Y-143827660D01*
X106765000Y-141402660D02*
X108040000Y-142427660D01*
X106640000Y-146077660D02*
X106640000Y-141427660D01*
X109790000Y-148227660D02*
X109790000Y-143627660D01*
X107090000Y-146227660D02*
X107090000Y-141677660D01*
X106765000Y-141402660D02*
X104215000Y-141402660D01*
X106490000Y-146077660D02*
X106490000Y-141427660D01*
X112190000Y-148127660D02*
X112190000Y-143727660D01*
X110840000Y-148227660D02*
X110840000Y-143627660D01*
X105440000Y-146027660D02*
X105440000Y-141427660D01*
X107690000Y-146577660D02*
X107690000Y-142177660D01*
X111890000Y-148227660D02*
X111890000Y-143677660D01*
X110090000Y-148227660D02*
X110090000Y-143627660D01*
X111290000Y-148227660D02*
X111290000Y-143627660D01*
X106790000Y-146077660D02*
X106790000Y-141477660D01*
X111790000Y-148252660D02*
X109190000Y-148252660D01*
X111590000Y-148227660D02*
X111590000Y-143627660D01*
X108190000Y-147227660D02*
X108190000Y-143077660D01*
X109490000Y-148227660D02*
X109490000Y-143627660D01*
X108890000Y-148177660D02*
X108890000Y-143627660D01*
X112040000Y-148177660D02*
X112040000Y-143677660D01*
X106040000Y-146027660D02*
X106040000Y-141427660D01*
X103640000Y-145477660D02*
X103640000Y-141977660D01*
X105140000Y-146027660D02*
X105140000Y-141427660D01*
X104840000Y-146027660D02*
X104840000Y-141427660D01*
X103190000Y-145027660D02*
X104215000Y-146052660D01*
X107390000Y-146377660D02*
X107390000Y-141927660D01*
X104390000Y-146027660D02*
X104390000Y-141427660D01*
X109640000Y-148227660D02*
X109640000Y-143627660D01*
X103490000Y-145277660D02*
X103490000Y-142127660D01*
X107840000Y-146727660D02*
X107840000Y-142277660D01*
X110390000Y-148227660D02*
X110390000Y-143627660D01*
X103190000Y-142427660D02*
X103190000Y-145027660D01*
X104690000Y-146027660D02*
X104690000Y-141427660D01*
X104240000Y-146027660D02*
X104240000Y-141427660D01*
X111440000Y-148227660D02*
X111440000Y-143627660D01*
X105590000Y-146027660D02*
X105590000Y-141427660D01*
X106190000Y-146027660D02*
X106190000Y-141427660D01*
X110240000Y-148227660D02*
X110240000Y-143627660D01*
X112440000Y-147927660D02*
X112440000Y-143977660D01*
X104540000Y-146027660D02*
X104540000Y-141427660D01*
X105290000Y-146027660D02*
X105290000Y-141427660D01*
X107240000Y-146277660D02*
X107240000Y-141827660D01*
X108740000Y-148077660D02*
X108740000Y-143527660D01*
X106940000Y-146127660D02*
X106940000Y-141577660D01*
X105890000Y-146027660D02*
X105890000Y-141427660D01*
X112790000Y-144602660D02*
X112790000Y-147252660D01*
X107540000Y-146477660D02*
X107540000Y-142077660D01*
X105740000Y-146027660D02*
X105740000Y-141427660D01*
X106190000Y-146052660D02*
X104215000Y-146052660D01*
X108290000Y-147427660D02*
X108290000Y-143277660D01*
X111740000Y-148227660D02*
X111740000Y-143627660D01*
X108390000Y-147577660D02*
X108390000Y-143377660D01*
X112540000Y-147827660D02*
X112540000Y-144077660D01*
X109340000Y-148227660D02*
X109340000Y-143677660D01*
X108490000Y-147827660D02*
X108490000Y-143427660D01*
X110690000Y-148227660D02*
X110690000Y-143627660D01*
X111140000Y-148227660D02*
X111140000Y-143627660D01*
X108090000Y-147077660D02*
X108090000Y-142927660D01*
X112790000Y-144602660D02*
G75*
G03*
X111790000Y-143602660I-1000000J0D01*
G01*
X108327801Y-147549564D02*
G75*
G03*
X106190000Y-146052660I-2137802J-778098D01*
G01*
X108040000Y-142427660D02*
G75*
G03*
X109215000Y-143602660I1175002J2D01*
G01*
X111790000Y-148252660D02*
G75*
G03*
X112790000Y-147252660I0J1000000D01*
G01*
X108327801Y-147549564D02*
G75*
G03*
X109189005Y-148251451I899995J224994D01*
G01*
%TO.C,SW2:13*%
X186102500Y-130152660D02*
X186102500Y-125552660D01*
X191802500Y-132352660D02*
X191802500Y-127752660D01*
X192752500Y-132377660D02*
X190152500Y-132377660D01*
X190152500Y-132352660D02*
X190152500Y-127752660D01*
X184602500Y-129602660D02*
X184602500Y-126102660D01*
X188202500Y-130402660D02*
X188202500Y-125952660D01*
X187752500Y-130202660D02*
X187752500Y-125602660D01*
X185952500Y-130152660D02*
X185952500Y-125552660D01*
X188502500Y-130602660D02*
X188502500Y-126202660D01*
X192402500Y-132352660D02*
X192402500Y-127752660D01*
X185802500Y-130152660D02*
X185802500Y-125552660D01*
X187152500Y-130177660D02*
X185177500Y-130177660D01*
X193002500Y-132302660D02*
X193002500Y-127802660D01*
X187727500Y-125527660D02*
X189002500Y-126552660D01*
X188802500Y-130852660D02*
X188802500Y-126402660D01*
X185202500Y-130152660D02*
X185202500Y-125552660D01*
X191052500Y-132352660D02*
X191052500Y-127752660D01*
X189352500Y-131702660D02*
X189352500Y-127502660D01*
X191652500Y-132352660D02*
X191652500Y-127752660D01*
X184152500Y-126552660D02*
X184152500Y-129152660D01*
X189152500Y-131352660D02*
X189152500Y-127202660D01*
X185652500Y-130152660D02*
X185652500Y-125552660D01*
X184152500Y-126552660D02*
X185177500Y-125527660D01*
X193402500Y-132052660D02*
X193402500Y-128102660D01*
X186402500Y-130152660D02*
X186402500Y-125552660D01*
X193752500Y-128727660D02*
X193752500Y-131377660D01*
X193502500Y-131952660D02*
X193502500Y-128202660D01*
X184452500Y-129402660D02*
X184452500Y-126252660D01*
X188352500Y-130502660D02*
X188352500Y-126052660D01*
X185352500Y-130152660D02*
X185352500Y-125552660D01*
X192752500Y-127727660D02*
X190177500Y-127727660D01*
X187452500Y-130202660D02*
X187452500Y-125552660D01*
X184752500Y-129752660D02*
X184752500Y-125952660D01*
X193602500Y-131802660D02*
X193602500Y-128252660D01*
X187902500Y-130252660D02*
X187902500Y-125702660D01*
X189702500Y-132202660D02*
X189702500Y-127652660D01*
X191352500Y-132352660D02*
X191352500Y-127752660D01*
X188952500Y-131002660D02*
X188952500Y-126552660D01*
X187302500Y-130152660D02*
X187302500Y-125602660D01*
X192102500Y-132352660D02*
X192102500Y-127752660D01*
X185052500Y-130002660D02*
X185052500Y-125652660D01*
X187002500Y-130152660D02*
X187002500Y-125552660D01*
X190902500Y-132352660D02*
X190902500Y-127752660D01*
X188652500Y-130702660D02*
X188652500Y-126302660D01*
X187727500Y-125527660D02*
X185177500Y-125527660D01*
X186552500Y-130152660D02*
X186552500Y-125552660D01*
X187152500Y-130152660D02*
X187152500Y-125552660D01*
X190602500Y-132352660D02*
X190602500Y-127752660D01*
X186252500Y-130152660D02*
X186252500Y-125552660D01*
X192252500Y-132352660D02*
X192252500Y-127752660D01*
X191502500Y-132352660D02*
X191502500Y-127752660D01*
X185502500Y-130152660D02*
X185502500Y-125552660D01*
X190302500Y-132352660D02*
X190302500Y-127802660D01*
X192552500Y-132352660D02*
X192552500Y-127752660D01*
X189852500Y-132302660D02*
X189852500Y-127752660D01*
X186702500Y-130152660D02*
X186702500Y-125552660D01*
X184302500Y-129302660D02*
X184302500Y-126402660D01*
X190452500Y-132352660D02*
X190452500Y-127752660D01*
X189552500Y-132102660D02*
X189552500Y-127602660D01*
X192852500Y-132352660D02*
X192852500Y-127802660D01*
X184152500Y-129152660D02*
X185177500Y-130177660D01*
X189252500Y-131552660D02*
X189252500Y-127402660D01*
X190002500Y-132352660D02*
X190002500Y-127752660D01*
X187602500Y-130202660D02*
X187602500Y-125552660D01*
X191952500Y-132352660D02*
X191952500Y-127752660D01*
X186852500Y-130152660D02*
X186852500Y-125552660D01*
X193152500Y-132252660D02*
X193152500Y-127852660D01*
X193302500Y-132152660D02*
X193302500Y-127952660D01*
X190752500Y-132352660D02*
X190752500Y-127752660D01*
X189452500Y-131952660D02*
X189452500Y-127552660D01*
X184902500Y-129902660D02*
X184902500Y-125802660D01*
X189052500Y-131202660D02*
X189052500Y-127052660D01*
X188052500Y-130352660D02*
X188052500Y-125802660D01*
X192702500Y-132352660D02*
X192702500Y-127752660D01*
X191202500Y-132352660D02*
X191202500Y-127752660D01*
X189290301Y-131674564D02*
G75*
G03*
X187152500Y-130177660I-2137802J-778098D01*
G01*
X189002500Y-126552660D02*
G75*
G03*
X190177500Y-127727660I1175002J2D01*
G01*
X193752500Y-128727660D02*
G75*
G03*
X192752500Y-127727660I-1000000J0D01*
G01*
X189290301Y-131674564D02*
G75*
G03*
X190151505Y-132376451I899995J224994D01*
G01*
X192752500Y-132377660D02*
G75*
G03*
X193752500Y-131377660I0J1000000D01*
G01*
%TO.C,SW2:10*%
X130040000Y-127580000D02*
X130040000Y-122980000D01*
X124190000Y-125380000D02*
X124190000Y-120780000D01*
X127340000Y-126780000D02*
X127340000Y-122630000D01*
X125090000Y-125380000D02*
X125090000Y-120780000D01*
X122240000Y-121780000D02*
X123265000Y-120755000D01*
X129890000Y-127580000D02*
X129890000Y-122980000D01*
X130190000Y-127580000D02*
X130190000Y-122980000D01*
X128390000Y-127580000D02*
X128390000Y-123030000D01*
X123440000Y-125380000D02*
X123440000Y-120780000D01*
X124940000Y-125380000D02*
X124940000Y-120780000D01*
X131090000Y-127530000D02*
X131090000Y-123030000D01*
X127540000Y-127180000D02*
X127540000Y-122780000D01*
X125240000Y-125380000D02*
X125240000Y-120780000D01*
X130340000Y-127580000D02*
X130340000Y-122980000D01*
X128240000Y-127580000D02*
X128240000Y-122980000D01*
X130490000Y-127580000D02*
X130490000Y-122980000D01*
X128990000Y-127580000D02*
X128990000Y-122980000D01*
X130790000Y-127580000D02*
X130790000Y-122980000D01*
X127640000Y-127330000D02*
X127640000Y-122830000D01*
X123890000Y-125380000D02*
X123890000Y-120780000D01*
X123590000Y-125380000D02*
X123590000Y-120780000D01*
X127940000Y-127530000D02*
X127940000Y-122980000D01*
X127790000Y-127430000D02*
X127790000Y-122880000D01*
X124640000Y-125380000D02*
X124640000Y-120780000D01*
X125390000Y-125380000D02*
X125390000Y-120830000D01*
X126290000Y-125630000D02*
X126290000Y-121180000D01*
X131390000Y-127380000D02*
X131390000Y-123180000D01*
X126140000Y-125580000D02*
X126140000Y-121030000D01*
X124340000Y-125380000D02*
X124340000Y-120780000D01*
X122390000Y-124530000D02*
X122390000Y-121630000D01*
X123740000Y-125380000D02*
X123740000Y-120780000D01*
X128090000Y-127580000D02*
X128090000Y-122980000D01*
X125690000Y-125430000D02*
X125690000Y-120780000D01*
X128540000Y-127580000D02*
X128540000Y-122980000D01*
X126740000Y-125930000D02*
X126740000Y-121530000D01*
X131490000Y-127280000D02*
X131490000Y-123330000D01*
X127240000Y-126580000D02*
X127240000Y-122430000D01*
X125240000Y-125405000D02*
X123265000Y-125405000D01*
X129440000Y-127580000D02*
X129440000Y-122980000D01*
X123290000Y-125380000D02*
X123290000Y-120780000D01*
X127440000Y-126930000D02*
X127440000Y-122730000D01*
X130840000Y-127605000D02*
X128240000Y-127605000D01*
X130940000Y-127580000D02*
X130940000Y-123030000D01*
X122240000Y-124380000D02*
X123265000Y-125405000D01*
X124040000Y-125380000D02*
X124040000Y-120780000D01*
X125815000Y-120755000D02*
X123265000Y-120755000D01*
X124490000Y-125380000D02*
X124490000Y-120780000D01*
X126890000Y-126080000D02*
X126890000Y-121630000D01*
X130640000Y-127580000D02*
X130640000Y-122980000D01*
X122840000Y-124980000D02*
X122840000Y-121180000D01*
X124790000Y-125380000D02*
X124790000Y-120780000D01*
X125990000Y-125480000D02*
X125990000Y-120930000D01*
X127040000Y-126230000D02*
X127040000Y-121780000D01*
X131840000Y-123955000D02*
X131840000Y-126605000D01*
X131240000Y-127480000D02*
X131240000Y-123080000D01*
X125540000Y-125430000D02*
X125540000Y-120780000D01*
X131590000Y-127180000D02*
X131590000Y-123430000D01*
X129740000Y-127580000D02*
X129740000Y-122980000D01*
X131690000Y-127030000D02*
X131690000Y-123480000D01*
X129140000Y-127580000D02*
X129140000Y-122980000D01*
X122240000Y-121780000D02*
X122240000Y-124380000D01*
X125815000Y-120755000D02*
X127090000Y-121780000D01*
X125840000Y-125430000D02*
X125840000Y-120830000D01*
X130840000Y-122955000D02*
X128265000Y-122955000D01*
X126590000Y-125830000D02*
X126590000Y-121430000D01*
X127140000Y-126430000D02*
X127140000Y-122280000D01*
X128690000Y-127580000D02*
X128690000Y-122980000D01*
X126440000Y-125730000D02*
X126440000Y-121280000D01*
X129590000Y-127580000D02*
X129590000Y-122980000D01*
X122540000Y-124630000D02*
X122540000Y-121480000D01*
X129290000Y-127580000D02*
X129290000Y-122980000D01*
X123140000Y-125230000D02*
X123140000Y-120880000D01*
X122690000Y-124830000D02*
X122690000Y-121330000D01*
X122990000Y-125130000D02*
X122990000Y-121030000D01*
X128840000Y-127580000D02*
X128840000Y-122980000D01*
X127377801Y-126901904D02*
G75*
G03*
X128239005Y-127603791I899995J224994D01*
G01*
X127090000Y-121780000D02*
G75*
G03*
X128265000Y-122955000I1175002J2D01*
G01*
X127377801Y-126901904D02*
G75*
G03*
X125240000Y-125405000I-2137802J-778098D01*
G01*
X130840000Y-127605000D02*
G75*
G03*
X131840000Y-126605000I0J1000000D01*
G01*
X131840000Y-123955000D02*
G75*
G03*
X130840000Y-122955000I-1000000J0D01*
G01*
%TO.C,SW2:9*%
X104090000Y-126827660D02*
X104090000Y-122477660D01*
X112190000Y-129077660D02*
X112190000Y-124677660D01*
X105140000Y-126977660D02*
X105140000Y-122377660D01*
X107690000Y-127527660D02*
X107690000Y-123127660D01*
X112440000Y-128877660D02*
X112440000Y-124927660D01*
X103190000Y-123377660D02*
X104215000Y-122352660D01*
X111790000Y-129202660D02*
X109190000Y-129202660D01*
X108090000Y-128027660D02*
X108090000Y-123877660D01*
X111140000Y-129177660D02*
X111140000Y-124577660D01*
X106340000Y-126977660D02*
X106340000Y-122427660D01*
X108590000Y-128927660D02*
X108590000Y-124427660D01*
X107390000Y-127327660D02*
X107390000Y-122877660D01*
X107840000Y-127677660D02*
X107840000Y-123227660D01*
X107990000Y-127827660D02*
X107990000Y-123377660D01*
X110690000Y-129177660D02*
X110690000Y-124577660D01*
X106190000Y-126977660D02*
X106190000Y-122377660D01*
X111890000Y-129177660D02*
X111890000Y-124627660D01*
X109790000Y-129177660D02*
X109790000Y-124577660D01*
X105740000Y-126977660D02*
X105740000Y-122377660D01*
X104390000Y-126977660D02*
X104390000Y-122377660D01*
X104840000Y-126977660D02*
X104840000Y-122377660D01*
X112040000Y-129127660D02*
X112040000Y-124627660D01*
X104240000Y-126977660D02*
X104240000Y-122377660D01*
X111790000Y-124552660D02*
X109215000Y-124552660D01*
X103190000Y-123377660D02*
X103190000Y-125977660D01*
X105440000Y-126977660D02*
X105440000Y-122377660D01*
X111590000Y-129177660D02*
X111590000Y-124577660D01*
X111740000Y-129177660D02*
X111740000Y-124577660D01*
X105290000Y-126977660D02*
X105290000Y-122377660D01*
X108290000Y-128377660D02*
X108290000Y-124227660D01*
X105590000Y-126977660D02*
X105590000Y-122377660D01*
X108740000Y-129027660D02*
X108740000Y-124477660D01*
X108390000Y-128527660D02*
X108390000Y-124327660D01*
X106765000Y-122352660D02*
X108040000Y-123377660D01*
X110090000Y-129177660D02*
X110090000Y-124577660D01*
X106940000Y-127077660D02*
X106940000Y-122527660D01*
X104990000Y-126977660D02*
X104990000Y-122377660D01*
X110840000Y-129177660D02*
X110840000Y-124577660D01*
X112340000Y-128977660D02*
X112340000Y-124777660D01*
X110540000Y-129177660D02*
X110540000Y-124577660D01*
X107240000Y-127227660D02*
X107240000Y-122777660D01*
X106190000Y-127002660D02*
X104215000Y-127002660D01*
X103190000Y-125977660D02*
X104215000Y-127002660D01*
X109190000Y-129177660D02*
X109190000Y-124577660D01*
X108190000Y-128177660D02*
X108190000Y-124027660D01*
X111290000Y-129177660D02*
X111290000Y-124577660D01*
X107090000Y-127177660D02*
X107090000Y-122627660D01*
X108890000Y-129127660D02*
X108890000Y-124577660D01*
X106040000Y-126977660D02*
X106040000Y-122377660D01*
X112790000Y-125552660D02*
X112790000Y-128202660D01*
X112640000Y-128627660D02*
X112640000Y-125077660D01*
X103340000Y-126127660D02*
X103340000Y-123227660D01*
X112540000Y-128777660D02*
X112540000Y-125027660D01*
X106640000Y-127027660D02*
X106640000Y-122377660D01*
X109490000Y-129177660D02*
X109490000Y-124577660D01*
X106765000Y-122352660D02*
X104215000Y-122352660D01*
X105890000Y-126977660D02*
X105890000Y-122377660D01*
X106490000Y-127027660D02*
X106490000Y-122377660D01*
X103490000Y-126227660D02*
X103490000Y-123077660D01*
X103640000Y-126427660D02*
X103640000Y-122927660D01*
X111440000Y-129177660D02*
X111440000Y-124577660D01*
X109940000Y-129177660D02*
X109940000Y-124577660D01*
X106790000Y-127027660D02*
X106790000Y-122427660D01*
X108490000Y-128777660D02*
X108490000Y-124377660D01*
X110390000Y-129177660D02*
X110390000Y-124577660D01*
X104540000Y-126977660D02*
X104540000Y-122377660D01*
X109340000Y-129177660D02*
X109340000Y-124627660D01*
X110240000Y-129177660D02*
X110240000Y-124577660D01*
X110990000Y-129177660D02*
X110990000Y-124577660D01*
X109040000Y-129177660D02*
X109040000Y-124577660D01*
X104690000Y-126977660D02*
X104690000Y-122377660D01*
X109640000Y-129177660D02*
X109640000Y-124577660D01*
X103940000Y-126727660D02*
X103940000Y-122627660D01*
X103790000Y-126577660D02*
X103790000Y-122777660D01*
X107540000Y-127427660D02*
X107540000Y-123027660D01*
X108327801Y-128499564D02*
G75*
G03*
X106190000Y-127002660I-2137802J-778098D01*
G01*
X111790000Y-129202660D02*
G75*
G03*
X112790000Y-128202660I0J1000000D01*
G01*
X112790000Y-125552660D02*
G75*
G03*
X111790000Y-124552660I-1000000J0D01*
G01*
X108327801Y-128499564D02*
G75*
G03*
X109189005Y-129201451I899995J224994D01*
G01*
X108040000Y-123377660D02*
G75*
G03*
X109215000Y-124552660I1175002J2D01*
G01*
%TO.C,SW2:7*%
X73765000Y-121210160D02*
X74790000Y-119935160D01*
X80290000Y-115535160D02*
X76340000Y-115535160D01*
X80590000Y-117285160D02*
X75990000Y-117285160D01*
X80540000Y-115935160D02*
X76040000Y-115935160D01*
X78940000Y-120285160D02*
X74540000Y-120285160D01*
X77990000Y-124185160D02*
X74190000Y-124185160D01*
X78740000Y-120585160D02*
X74290000Y-120585160D01*
X80590000Y-118335160D02*
X75990000Y-118335160D01*
X80590000Y-118035160D02*
X75990000Y-118035160D01*
X78440000Y-121185160D02*
X73840000Y-121185160D01*
X80590000Y-118485160D02*
X75990000Y-118485160D01*
X80590000Y-118635160D02*
X76040000Y-118635160D01*
X79590000Y-119785160D02*
X75440000Y-119785160D01*
X80590000Y-118935160D02*
X75990000Y-118935160D01*
X77840000Y-124335160D02*
X74340000Y-124335160D01*
X80590000Y-116835160D02*
X75990000Y-116835160D01*
X80190000Y-115435160D02*
X76440000Y-115435160D01*
X78390000Y-122835160D02*
X73790000Y-122835160D01*
X78390000Y-122535160D02*
X73790000Y-122535160D01*
X80590000Y-117885160D02*
X75990000Y-117885160D01*
X80590000Y-117585160D02*
X75990000Y-117585160D01*
X76965000Y-115185160D02*
X79615000Y-115185160D01*
X79440000Y-119885160D02*
X75290000Y-119885160D01*
X77390000Y-124785160D02*
X78415000Y-123760160D01*
X78390000Y-123435160D02*
X73790000Y-123435160D01*
X80590000Y-116535160D02*
X75990000Y-116535160D01*
X80590000Y-117735160D02*
X75990000Y-117735160D01*
X78390000Y-121785160D02*
X73790000Y-121785160D01*
X78390000Y-123585160D02*
X73790000Y-123585160D01*
X80490000Y-115785160D02*
X76090000Y-115785160D01*
X78390000Y-121635160D02*
X73840000Y-121635160D01*
X78140000Y-124035160D02*
X74040000Y-124035160D01*
X78440000Y-121335160D02*
X73790000Y-121335160D01*
X80590000Y-116235160D02*
X75990000Y-116235160D01*
X80590000Y-117135160D02*
X75990000Y-117135160D01*
X80590000Y-118185160D02*
X75990000Y-118185160D01*
X80390000Y-115635160D02*
X76190000Y-115635160D01*
X80590000Y-116385160D02*
X75990000Y-116385160D01*
X80190000Y-119485160D02*
X75790000Y-119485160D01*
X80590000Y-118785160D02*
X75990000Y-118785160D01*
X74790000Y-124785160D02*
X73765000Y-123760160D01*
X80615000Y-116185160D02*
X80615000Y-118785160D01*
X78390000Y-123135160D02*
X73790000Y-123135160D01*
X78390000Y-121935160D02*
X73790000Y-121935160D01*
X80590000Y-116085160D02*
X76040000Y-116085160D01*
X78415000Y-121785160D02*
X78415000Y-123760160D01*
X78390000Y-122235160D02*
X73790000Y-122235160D01*
X78240000Y-123885160D02*
X73890000Y-123885160D01*
X80590000Y-116985160D02*
X75990000Y-116985160D01*
X80590000Y-116685160D02*
X75990000Y-116685160D01*
X78440000Y-121485160D02*
X73790000Y-121485160D01*
X78590000Y-120885160D02*
X74040000Y-120885160D01*
X78490000Y-121035160D02*
X73940000Y-121035160D01*
X74790000Y-124785160D02*
X77390000Y-124785160D01*
X78840000Y-120435160D02*
X74440000Y-120435160D01*
X77640000Y-124485160D02*
X74490000Y-124485160D01*
X75965000Y-116185160D02*
X75965000Y-118760160D01*
X78390000Y-122385160D02*
X73790000Y-122385160D01*
X78640000Y-120735160D02*
X74190000Y-120735160D01*
X80440000Y-119235160D02*
X75890000Y-119235160D01*
X79790000Y-119685160D02*
X75640000Y-119685160D01*
X80540000Y-119085160D02*
X75990000Y-119085160D01*
X80340000Y-119385160D02*
X75840000Y-119385160D01*
X73765000Y-121210160D02*
X73765000Y-123760160D01*
X78390000Y-122985160D02*
X73790000Y-122985160D01*
X79240000Y-119985160D02*
X74790000Y-119985160D01*
X78390000Y-123735160D02*
X73790000Y-123735160D01*
X78390000Y-122085160D02*
X73790000Y-122085160D01*
X78390000Y-123285160D02*
X73790000Y-123285160D01*
X80590000Y-117435160D02*
X75990000Y-117435160D01*
X79940000Y-119585160D02*
X75740000Y-119585160D01*
X77540000Y-124635160D02*
X74640000Y-124635160D01*
X80040000Y-115335160D02*
X76490000Y-115335160D01*
X79090000Y-120135160D02*
X74640000Y-120135160D01*
X78390000Y-122685160D02*
X73790000Y-122685160D01*
X79911904Y-119647359D02*
G75*
G03*
X80613791Y-118786155I-224994J899995D01*
G01*
X79911904Y-119647359D02*
G75*
G03*
X78415000Y-121785160I778098J-2137802D01*
G01*
X74790000Y-119935160D02*
G75*
G03*
X75965000Y-118760160I-2J1175002D01*
G01*
X80615000Y-116185160D02*
G75*
G03*
X79615000Y-115185160I-1000000J0D01*
G01*
X76965000Y-115185160D02*
G75*
G03*
X75965000Y-116185160I0J-1000000D01*
G01*
%TO.C,SW3:13*%
X186102500Y-111102660D02*
X186102500Y-106502660D01*
X188202500Y-111352660D02*
X188202500Y-106902660D01*
X193502500Y-112902660D02*
X193502500Y-109152660D01*
X193602500Y-112752660D02*
X193602500Y-109202660D01*
X185502500Y-111102660D02*
X185502500Y-106502660D01*
X189452500Y-112902660D02*
X189452500Y-108502660D01*
X184152500Y-110102660D02*
X185177500Y-111127660D01*
X189152500Y-112302660D02*
X189152500Y-108152660D01*
X187727500Y-106477660D02*
X185177500Y-106477660D01*
X187152500Y-111127660D02*
X185177500Y-111127660D01*
X184902500Y-110852660D02*
X184902500Y-106752660D01*
X187002500Y-111102660D02*
X187002500Y-106502660D01*
X193402500Y-113002660D02*
X193402500Y-109052660D01*
X187602500Y-111152660D02*
X187602500Y-106502660D01*
X184152500Y-107502660D02*
X184152500Y-110102660D01*
X186552500Y-111102660D02*
X186552500Y-106502660D01*
X189852500Y-113252660D02*
X189852500Y-108702660D01*
X185202500Y-111102660D02*
X185202500Y-106502660D01*
X187727500Y-106477660D02*
X189002500Y-107502660D01*
X186402500Y-111102660D02*
X186402500Y-106502660D01*
X191352500Y-113302660D02*
X191352500Y-108702660D01*
X189352500Y-112652660D02*
X189352500Y-108452660D01*
X184302500Y-110252660D02*
X184302500Y-107352660D01*
X184602500Y-110552660D02*
X184602500Y-107052660D01*
X191052500Y-113302660D02*
X191052500Y-108702660D01*
X192752500Y-108677660D02*
X190177500Y-108677660D01*
X184752500Y-110702660D02*
X184752500Y-106902660D01*
X188352500Y-111452660D02*
X188352500Y-107002660D01*
X187302500Y-111102660D02*
X187302500Y-106552660D01*
X184152500Y-107502660D02*
X185177500Y-106477660D01*
X189052500Y-112152660D02*
X189052500Y-108002660D01*
X187452500Y-111152660D02*
X187452500Y-106502660D01*
X193302500Y-113102660D02*
X193302500Y-108902660D01*
X189702500Y-113152660D02*
X189702500Y-108602660D01*
X189552500Y-113052660D02*
X189552500Y-108552660D01*
X188502500Y-111552660D02*
X188502500Y-107152660D01*
X188802500Y-111802660D02*
X188802500Y-107352660D01*
X192102500Y-113302660D02*
X192102500Y-108702660D01*
X193752500Y-109677660D02*
X193752500Y-112327660D01*
X192752500Y-113327660D02*
X190152500Y-113327660D01*
X192252500Y-113302660D02*
X192252500Y-108702660D01*
X190752500Y-113302660D02*
X190752500Y-108702660D01*
X192702500Y-113302660D02*
X192702500Y-108702660D01*
X191802500Y-113302660D02*
X191802500Y-108702660D01*
X193002500Y-113252660D02*
X193002500Y-108752660D01*
X185052500Y-110952660D02*
X185052500Y-106602660D01*
X190602500Y-113302660D02*
X190602500Y-108702660D01*
X190452500Y-113302660D02*
X190452500Y-108702660D01*
X192552500Y-113302660D02*
X192552500Y-108702660D01*
X188052500Y-111302660D02*
X188052500Y-106752660D01*
X190902500Y-113302660D02*
X190902500Y-108702660D01*
X191952500Y-113302660D02*
X191952500Y-108702660D01*
X190302500Y-113302660D02*
X190302500Y-108752660D01*
X186852500Y-111102660D02*
X186852500Y-106502660D01*
X187152500Y-111102660D02*
X187152500Y-106502660D01*
X191202500Y-113302660D02*
X191202500Y-108702660D01*
X191502500Y-113302660D02*
X191502500Y-108702660D01*
X193152500Y-113202660D02*
X193152500Y-108802660D01*
X186252500Y-111102660D02*
X186252500Y-106502660D01*
X186702500Y-111102660D02*
X186702500Y-106502660D01*
X184452500Y-110352660D02*
X184452500Y-107202660D01*
X188952500Y-111952660D02*
X188952500Y-107502660D01*
X189252500Y-112502660D02*
X189252500Y-108352660D01*
X192402500Y-113302660D02*
X192402500Y-108702660D01*
X188652500Y-111652660D02*
X188652500Y-107252660D01*
X192852500Y-113302660D02*
X192852500Y-108752660D01*
X190152500Y-113302660D02*
X190152500Y-108702660D01*
X190002500Y-113302660D02*
X190002500Y-108702660D01*
X187752500Y-111152660D02*
X187752500Y-106552660D01*
X187902500Y-111202660D02*
X187902500Y-106652660D01*
X185952500Y-111102660D02*
X185952500Y-106502660D01*
X185802500Y-111102660D02*
X185802500Y-106502660D01*
X185352500Y-111102660D02*
X185352500Y-106502660D01*
X191652500Y-113302660D02*
X191652500Y-108702660D01*
X185652500Y-111102660D02*
X185652500Y-106502660D01*
X189002500Y-107502660D02*
G75*
G03*
X190177500Y-108677660I1175002J2D01*
G01*
X189290301Y-112624564D02*
G75*
G03*
X190151505Y-113326451I899995J224994D01*
G01*
X192752500Y-113327660D02*
G75*
G03*
X193752500Y-112327660I0J1000000D01*
G01*
X189290301Y-112624564D02*
G75*
G03*
X187152500Y-111127660I-2137802J-778098D01*
G01*
X193752500Y-109677660D02*
G75*
G03*
X192752500Y-108677660I-1000000J0D01*
G01*
%TO.C,SW3:11*%
X141290000Y-104327660D02*
X142315000Y-103302660D01*
X141740000Y-107377660D02*
X141740000Y-103877660D01*
X149990000Y-110127660D02*
X149990000Y-105577660D01*
X146840000Y-109977660D02*
X146840000Y-105427660D01*
X147740000Y-110127660D02*
X147740000Y-105527660D01*
X143990000Y-107927660D02*
X143990000Y-103327660D01*
X141890000Y-107527660D02*
X141890000Y-103727660D01*
X150890000Y-106502660D02*
X150890000Y-109152660D01*
X145790000Y-108477660D02*
X145790000Y-104077660D01*
X147890000Y-110127660D02*
X147890000Y-105527660D01*
X149890000Y-105502660D02*
X147315000Y-105502660D01*
X148790000Y-110127660D02*
X148790000Y-105527660D01*
X146590000Y-109727660D02*
X146590000Y-105327660D01*
X141440000Y-107077660D02*
X141440000Y-104177660D01*
X150440000Y-109927660D02*
X150440000Y-105727660D01*
X150740000Y-109577660D02*
X150740000Y-106027660D01*
X149390000Y-110127660D02*
X149390000Y-105527660D01*
X142340000Y-107927660D02*
X142340000Y-103327660D01*
X142190000Y-107777660D02*
X142190000Y-103427660D01*
X147140000Y-110127660D02*
X147140000Y-105527660D01*
X150540000Y-109827660D02*
X150540000Y-105877660D01*
X150640000Y-109727660D02*
X150640000Y-105977660D01*
X148640000Y-110127660D02*
X148640000Y-105527660D01*
X145040000Y-108027660D02*
X145040000Y-103477660D01*
X144140000Y-107927660D02*
X144140000Y-103327660D01*
X142640000Y-107927660D02*
X142640000Y-103327660D01*
X149540000Y-110127660D02*
X149540000Y-105527660D01*
X141590000Y-107177660D02*
X141590000Y-104027660D01*
X144865000Y-103302660D02*
X146140000Y-104327660D01*
X143240000Y-107927660D02*
X143240000Y-103327660D01*
X143390000Y-107927660D02*
X143390000Y-103327660D01*
X141290000Y-104327660D02*
X141290000Y-106927660D01*
X144890000Y-107977660D02*
X144890000Y-103377660D01*
X145340000Y-108177660D02*
X145340000Y-103727660D01*
X145490000Y-108277660D02*
X145490000Y-103827660D01*
X147440000Y-110127660D02*
X147440000Y-105577660D01*
X148490000Y-110127660D02*
X148490000Y-105527660D01*
X150290000Y-110027660D02*
X150290000Y-105627660D01*
X142940000Y-107927660D02*
X142940000Y-103327660D01*
X146390000Y-109327660D02*
X146390000Y-105177660D01*
X146190000Y-108977660D02*
X146190000Y-104827660D01*
X149690000Y-110127660D02*
X149690000Y-105527660D01*
X145190000Y-108127660D02*
X145190000Y-103577660D01*
X144865000Y-103302660D02*
X142315000Y-103302660D01*
X144590000Y-107977660D02*
X144590000Y-103327660D01*
X144440000Y-107927660D02*
X144440000Y-103377660D01*
X148190000Y-110127660D02*
X148190000Y-105527660D01*
X148040000Y-110127660D02*
X148040000Y-105527660D01*
X149240000Y-110127660D02*
X149240000Y-105527660D01*
X147290000Y-110127660D02*
X147290000Y-105527660D01*
X149840000Y-110127660D02*
X149840000Y-105527660D01*
X147590000Y-110127660D02*
X147590000Y-105527660D01*
X143690000Y-107927660D02*
X143690000Y-103327660D01*
X148940000Y-110127660D02*
X148940000Y-105527660D01*
X148340000Y-110127660D02*
X148340000Y-105527660D01*
X144740000Y-107977660D02*
X144740000Y-103327660D01*
X145640000Y-108377660D02*
X145640000Y-103977660D01*
X143540000Y-107927660D02*
X143540000Y-103327660D01*
X146090000Y-108777660D02*
X146090000Y-104327660D01*
X149090000Y-110127660D02*
X149090000Y-105527660D01*
X146690000Y-109877660D02*
X146690000Y-105377660D01*
X142040000Y-107677660D02*
X142040000Y-103577660D01*
X141290000Y-106927660D02*
X142315000Y-107952660D01*
X144290000Y-107952660D02*
X142315000Y-107952660D01*
X150140000Y-110077660D02*
X150140000Y-105577660D01*
X145940000Y-108627660D02*
X145940000Y-104177660D01*
X149890000Y-110152660D02*
X147290000Y-110152660D01*
X144290000Y-107927660D02*
X144290000Y-103327660D01*
X146490000Y-109477660D02*
X146490000Y-105277660D01*
X143090000Y-107927660D02*
X143090000Y-103327660D01*
X146290000Y-109127660D02*
X146290000Y-104977660D01*
X142790000Y-107927660D02*
X142790000Y-103327660D01*
X142490000Y-107927660D02*
X142490000Y-103327660D01*
X146990000Y-110077660D02*
X146990000Y-105527660D01*
X143840000Y-107927660D02*
X143840000Y-103327660D01*
X146427801Y-109449564D02*
G75*
G03*
X144290000Y-107952660I-2137802J-778098D01*
G01*
X146427801Y-109449564D02*
G75*
G03*
X147289005Y-110151451I899995J224994D01*
G01*
X149890000Y-110152660D02*
G75*
G03*
X150890000Y-109152660I0J1000000D01*
G01*
X146140000Y-104327660D02*
G75*
G03*
X147315000Y-105502660I1175002J2D01*
G01*
X150890000Y-106502660D02*
G75*
G03*
X149890000Y-105502660I-1000000J0D01*
G01*
%TO.C,SW3:10*%
X131690000Y-107980000D02*
X131690000Y-104430000D01*
X124340000Y-106330000D02*
X124340000Y-101730000D01*
X125390000Y-106330000D02*
X125390000Y-101780000D01*
X124490000Y-106330000D02*
X124490000Y-101730000D01*
X125840000Y-106380000D02*
X125840000Y-101780000D01*
X128690000Y-108530000D02*
X128690000Y-103930000D01*
X123890000Y-106330000D02*
X123890000Y-101730000D01*
X130040000Y-108530000D02*
X130040000Y-103930000D01*
X131240000Y-108430000D02*
X131240000Y-104030000D01*
X130640000Y-108530000D02*
X130640000Y-103930000D01*
X127790000Y-108380000D02*
X127790000Y-103830000D01*
X130840000Y-103905000D02*
X128265000Y-103905000D01*
X122990000Y-106080000D02*
X122990000Y-101980000D01*
X129440000Y-108530000D02*
X129440000Y-103930000D01*
X123740000Y-106330000D02*
X123740000Y-101730000D01*
X128840000Y-108530000D02*
X128840000Y-103930000D01*
X125240000Y-106355000D02*
X123265000Y-106355000D01*
X128990000Y-108530000D02*
X128990000Y-103930000D01*
X122540000Y-105580000D02*
X122540000Y-102430000D01*
X127940000Y-108480000D02*
X127940000Y-103930000D01*
X131840000Y-104905000D02*
X131840000Y-107555000D01*
X123140000Y-106180000D02*
X123140000Y-101830000D01*
X126440000Y-106680000D02*
X126440000Y-102230000D01*
X126290000Y-106580000D02*
X126290000Y-102130000D01*
X131590000Y-108130000D02*
X131590000Y-104380000D01*
X124940000Y-106330000D02*
X124940000Y-101730000D01*
X122240000Y-102730000D02*
X123265000Y-101705000D01*
X126890000Y-107030000D02*
X126890000Y-102580000D01*
X131490000Y-108230000D02*
X131490000Y-104280000D01*
X126740000Y-106880000D02*
X126740000Y-102480000D01*
X126140000Y-106530000D02*
X126140000Y-101980000D01*
X127240000Y-107530000D02*
X127240000Y-103380000D01*
X128240000Y-108530000D02*
X128240000Y-103930000D01*
X126590000Y-106780000D02*
X126590000Y-102380000D01*
X128090000Y-108530000D02*
X128090000Y-103930000D01*
X123590000Y-106330000D02*
X123590000Y-101730000D01*
X128540000Y-108530000D02*
X128540000Y-103930000D01*
X127540000Y-108130000D02*
X127540000Y-103730000D01*
X127440000Y-107880000D02*
X127440000Y-103680000D01*
X123290000Y-106330000D02*
X123290000Y-101730000D01*
X127140000Y-107380000D02*
X127140000Y-103230000D01*
X130190000Y-108530000D02*
X130190000Y-103930000D01*
X127040000Y-107180000D02*
X127040000Y-102730000D01*
X129740000Y-108530000D02*
X129740000Y-103930000D01*
X131090000Y-108480000D02*
X131090000Y-103980000D01*
X122240000Y-105330000D02*
X123265000Y-106355000D01*
X130340000Y-108530000D02*
X130340000Y-103930000D01*
X124790000Y-106330000D02*
X124790000Y-101730000D01*
X124190000Y-106330000D02*
X124190000Y-101730000D01*
X130940000Y-108530000D02*
X130940000Y-103980000D01*
X128390000Y-108530000D02*
X128390000Y-103980000D01*
X125815000Y-101705000D02*
X123265000Y-101705000D01*
X122240000Y-102730000D02*
X122240000Y-105330000D01*
X129140000Y-108530000D02*
X129140000Y-103930000D01*
X125990000Y-106430000D02*
X125990000Y-101880000D01*
X125540000Y-106380000D02*
X125540000Y-101730000D01*
X127340000Y-107730000D02*
X127340000Y-103580000D01*
X122690000Y-105780000D02*
X122690000Y-102280000D01*
X129290000Y-108530000D02*
X129290000Y-103930000D01*
X131390000Y-108330000D02*
X131390000Y-104130000D01*
X124040000Y-106330000D02*
X124040000Y-101730000D01*
X122840000Y-105930000D02*
X122840000Y-102130000D01*
X125815000Y-101705000D02*
X127090000Y-102730000D01*
X129890000Y-108530000D02*
X129890000Y-103930000D01*
X125240000Y-106330000D02*
X125240000Y-101730000D01*
X129590000Y-108530000D02*
X129590000Y-103930000D01*
X122390000Y-105480000D02*
X122390000Y-102580000D01*
X125090000Y-106330000D02*
X125090000Y-101730000D01*
X124640000Y-106330000D02*
X124640000Y-101730000D01*
X130790000Y-108530000D02*
X130790000Y-103930000D01*
X125690000Y-106380000D02*
X125690000Y-101730000D01*
X130490000Y-108530000D02*
X130490000Y-103930000D01*
X127640000Y-108280000D02*
X127640000Y-103780000D01*
X123440000Y-106330000D02*
X123440000Y-101730000D01*
X130840000Y-108555000D02*
X128240000Y-108555000D01*
X127377801Y-107851904D02*
G75*
G03*
X125240000Y-106355000I-2137802J-778098D01*
G01*
X127090000Y-102730000D02*
G75*
G03*
X128265000Y-103905000I1175002J2D01*
G01*
X130840000Y-108555000D02*
G75*
G03*
X131840000Y-107555000I0J1000000D01*
G01*
X127377801Y-107851904D02*
G75*
G03*
X128239005Y-108553791I899995J224994D01*
G01*
X131840000Y-104905000D02*
G75*
G03*
X130840000Y-103905000I-1000000J0D01*
G01*
%TO.C,SW3:9*%
X106940000Y-108027660D02*
X106940000Y-103477660D01*
X105740000Y-107927660D02*
X105740000Y-103327660D01*
X106190000Y-107927660D02*
X106190000Y-103327660D01*
X106490000Y-107977660D02*
X106490000Y-103327660D01*
X104690000Y-107927660D02*
X104690000Y-103327660D01*
X104990000Y-107927660D02*
X104990000Y-103327660D01*
X103790000Y-107527660D02*
X103790000Y-103727660D01*
X104090000Y-107777660D02*
X104090000Y-103427660D01*
X112340000Y-109927660D02*
X112340000Y-105727660D01*
X104840000Y-107927660D02*
X104840000Y-103327660D01*
X112540000Y-109727660D02*
X112540000Y-105977660D01*
X108740000Y-109977660D02*
X108740000Y-105427660D01*
X105890000Y-107927660D02*
X105890000Y-103327660D01*
X111440000Y-110127660D02*
X111440000Y-105527660D01*
X107240000Y-108177660D02*
X107240000Y-103727660D01*
X107540000Y-108377660D02*
X107540000Y-103977660D01*
X111740000Y-110127660D02*
X111740000Y-105527660D01*
X107840000Y-108627660D02*
X107840000Y-104177660D01*
X108890000Y-110077660D02*
X108890000Y-105527660D01*
X110540000Y-110127660D02*
X110540000Y-105527660D01*
X108190000Y-109127660D02*
X108190000Y-104977660D01*
X105290000Y-107927660D02*
X105290000Y-103327660D01*
X110690000Y-110127660D02*
X110690000Y-105527660D01*
X109040000Y-110127660D02*
X109040000Y-105527660D01*
X103190000Y-106927660D02*
X104215000Y-107952660D01*
X109190000Y-110127660D02*
X109190000Y-105527660D01*
X108290000Y-109327660D02*
X108290000Y-105177660D01*
X111290000Y-110127660D02*
X111290000Y-105527660D01*
X111140000Y-110127660D02*
X111140000Y-105527660D01*
X109340000Y-110127660D02*
X109340000Y-105577660D01*
X105590000Y-107927660D02*
X105590000Y-103327660D01*
X107090000Y-108127660D02*
X107090000Y-103577660D01*
X106765000Y-103302660D02*
X108040000Y-104327660D01*
X105140000Y-107927660D02*
X105140000Y-103327660D01*
X104240000Y-107927660D02*
X104240000Y-103327660D01*
X103940000Y-107677660D02*
X103940000Y-103577660D01*
X110840000Y-110127660D02*
X110840000Y-105527660D01*
X108090000Y-108977660D02*
X108090000Y-104827660D01*
X111890000Y-110127660D02*
X111890000Y-105577660D01*
X107690000Y-108477660D02*
X107690000Y-104077660D01*
X104540000Y-107927660D02*
X104540000Y-103327660D01*
X109490000Y-110127660D02*
X109490000Y-105527660D01*
X111590000Y-110127660D02*
X111590000Y-105527660D01*
X109790000Y-110127660D02*
X109790000Y-105527660D01*
X112640000Y-109577660D02*
X112640000Y-106027660D01*
X108590000Y-109877660D02*
X108590000Y-105377660D01*
X106040000Y-107927660D02*
X106040000Y-103327660D01*
X108490000Y-109727660D02*
X108490000Y-105327660D01*
X103640000Y-107377660D02*
X103640000Y-103877660D01*
X106640000Y-107977660D02*
X106640000Y-103327660D01*
X110990000Y-110127660D02*
X110990000Y-105527660D01*
X104390000Y-107927660D02*
X104390000Y-103327660D01*
X103490000Y-107177660D02*
X103490000Y-104027660D01*
X112440000Y-109827660D02*
X112440000Y-105877660D01*
X103190000Y-104327660D02*
X103190000Y-106927660D01*
X108390000Y-109477660D02*
X108390000Y-105277660D01*
X110390000Y-110127660D02*
X110390000Y-105527660D01*
X105440000Y-107927660D02*
X105440000Y-103327660D01*
X107390000Y-108277660D02*
X107390000Y-103827660D01*
X112790000Y-106502660D02*
X112790000Y-109152660D01*
X110240000Y-110127660D02*
X110240000Y-105527660D01*
X112190000Y-110027660D02*
X112190000Y-105627660D01*
X109940000Y-110127660D02*
X109940000Y-105527660D01*
X106340000Y-107927660D02*
X106340000Y-103377660D01*
X109640000Y-110127660D02*
X109640000Y-105527660D01*
X106190000Y-107952660D02*
X104215000Y-107952660D01*
X106765000Y-103302660D02*
X104215000Y-103302660D01*
X111790000Y-105502660D02*
X109215000Y-105502660D01*
X103190000Y-104327660D02*
X104215000Y-103302660D01*
X106790000Y-107977660D02*
X106790000Y-103377660D01*
X103340000Y-107077660D02*
X103340000Y-104177660D01*
X107990000Y-108777660D02*
X107990000Y-104327660D01*
X111790000Y-110152660D02*
X109190000Y-110152660D01*
X112040000Y-110077660D02*
X112040000Y-105577660D01*
X110090000Y-110127660D02*
X110090000Y-105527660D01*
X108327801Y-109449564D02*
G75*
G03*
X109189005Y-110151451I899995J224994D01*
G01*
X112790000Y-106502660D02*
G75*
G03*
X111790000Y-105502660I-1000000J0D01*
G01*
X108040000Y-104327660D02*
G75*
G03*
X109215000Y-105502660I1175002J2D01*
G01*
X111790000Y-110152660D02*
G75*
G03*
X112790000Y-109152660I0J1000000D01*
G01*
X108327801Y-109449564D02*
G75*
G03*
X106190000Y-107952660I-2137802J-778098D01*
G01*
%TO.C,SW3:8*%
X92240000Y-111397660D02*
X92240000Y-106797660D01*
X92840000Y-111397660D02*
X92840000Y-106847660D01*
X89440000Y-110997660D02*
X89440000Y-106597660D01*
X92690000Y-111397660D02*
X92690000Y-106797660D01*
X87890000Y-109297660D02*
X87890000Y-104747660D01*
X85040000Y-109047660D02*
X85040000Y-104697660D01*
X87715000Y-104572660D02*
X85165000Y-104572660D01*
X93290000Y-111197660D02*
X93290000Y-106997660D01*
X90140000Y-111397660D02*
X90140000Y-106797660D01*
X88490000Y-109647660D02*
X88490000Y-105247660D01*
X84290000Y-108347660D02*
X84290000Y-105447660D01*
X88190000Y-109447660D02*
X88190000Y-104997660D01*
X92090000Y-111397660D02*
X92090000Y-106797660D01*
X84140000Y-105597660D02*
X84140000Y-108197660D01*
X86840000Y-109197660D02*
X86840000Y-104597660D01*
X93740000Y-107772660D02*
X93740000Y-110422660D01*
X88790000Y-109897660D02*
X88790000Y-105447660D01*
X84140000Y-105597660D02*
X85165000Y-104572660D01*
X87440000Y-109247660D02*
X87440000Y-104597660D01*
X90290000Y-111397660D02*
X90290000Y-106847660D01*
X88340000Y-109547660D02*
X88340000Y-105097660D01*
X85340000Y-109197660D02*
X85340000Y-104597660D01*
X88640000Y-109747660D02*
X88640000Y-105347660D01*
X89540000Y-111147660D02*
X89540000Y-106647660D01*
X91340000Y-111397660D02*
X91340000Y-106797660D01*
X85790000Y-109197660D02*
X85790000Y-104597660D01*
X89140000Y-110397660D02*
X89140000Y-106247660D01*
X91640000Y-111397660D02*
X91640000Y-106797660D01*
X91490000Y-111397660D02*
X91490000Y-106797660D01*
X85190000Y-109197660D02*
X85190000Y-104597660D01*
X84740000Y-108797660D02*
X84740000Y-104997660D01*
X90890000Y-111397660D02*
X90890000Y-106797660D01*
X92990000Y-111347660D02*
X92990000Y-106847660D01*
X92540000Y-111397660D02*
X92540000Y-106797660D01*
X87140000Y-109197660D02*
X87140000Y-104597660D01*
X85940000Y-109197660D02*
X85940000Y-104597660D01*
X92390000Y-111397660D02*
X92390000Y-106797660D01*
X90740000Y-111397660D02*
X90740000Y-106797660D01*
X89240000Y-110597660D02*
X89240000Y-106447660D01*
X93390000Y-111097660D02*
X93390000Y-107147660D01*
X87290000Y-109197660D02*
X87290000Y-104647660D01*
X91040000Y-111397660D02*
X91040000Y-106797660D01*
X86990000Y-109197660D02*
X86990000Y-104597660D01*
X89340000Y-110747660D02*
X89340000Y-106547660D01*
X90440000Y-111397660D02*
X90440000Y-106797660D01*
X86690000Y-109197660D02*
X86690000Y-104597660D01*
X89990000Y-111397660D02*
X89990000Y-106797660D01*
X93590000Y-110847660D02*
X93590000Y-107297660D01*
X86240000Y-109197660D02*
X86240000Y-104597660D01*
X90590000Y-111397660D02*
X90590000Y-106797660D01*
X85490000Y-109197660D02*
X85490000Y-104597660D01*
X88040000Y-109397660D02*
X88040000Y-104847660D01*
X89040000Y-110247660D02*
X89040000Y-106097660D01*
X89840000Y-111347660D02*
X89840000Y-106797660D01*
X84890000Y-108947660D02*
X84890000Y-104847660D01*
X93490000Y-110997660D02*
X93490000Y-107247660D01*
X86540000Y-109197660D02*
X86540000Y-104597660D01*
X84590000Y-108647660D02*
X84590000Y-105147660D01*
X84140000Y-108197660D02*
X85165000Y-109222660D01*
X92740000Y-111422660D02*
X90140000Y-111422660D01*
X91190000Y-111397660D02*
X91190000Y-106797660D01*
X92740000Y-106772660D02*
X90165000Y-106772660D01*
X88940000Y-110047660D02*
X88940000Y-105597660D01*
X86390000Y-109197660D02*
X86390000Y-104597660D01*
X85640000Y-109197660D02*
X85640000Y-104597660D01*
X84440000Y-108447660D02*
X84440000Y-105297660D01*
X87590000Y-109247660D02*
X87590000Y-104597660D01*
X86090000Y-109197660D02*
X86090000Y-104597660D01*
X91790000Y-111397660D02*
X91790000Y-106797660D01*
X87740000Y-109247660D02*
X87740000Y-104647660D01*
X93140000Y-111297660D02*
X93140000Y-106897660D01*
X89690000Y-111247660D02*
X89690000Y-106697660D01*
X87140000Y-109222660D02*
X85165000Y-109222660D01*
X87715000Y-104572660D02*
X88990000Y-105597660D01*
X91940000Y-111397660D02*
X91940000Y-106797660D01*
X88990000Y-105597660D02*
G75*
G03*
X90165000Y-106772660I1175002J2D01*
G01*
X93740000Y-107772660D02*
G75*
G03*
X92740000Y-106772660I-1000000J0D01*
G01*
X89277801Y-110719564D02*
G75*
G03*
X90139005Y-111421451I899995J224994D01*
G01*
X92740000Y-111422660D02*
G75*
G03*
X93740000Y-110422660I0J1000000D01*
G01*
X89277801Y-110719564D02*
G75*
G03*
X87140000Y-109222660I-2137802J-778098D01*
G01*
%TO.C,SW4:13*%
X189052500Y-93102660D02*
X189052500Y-88952660D01*
X191052500Y-94252660D02*
X191052500Y-89652660D01*
X191802500Y-94252660D02*
X191802500Y-89652660D01*
X193002500Y-94202660D02*
X193002500Y-89702660D01*
X188502500Y-92502660D02*
X188502500Y-88102660D01*
X187152500Y-92052660D02*
X187152500Y-87452660D01*
X184902500Y-91802660D02*
X184902500Y-87702660D01*
X192702500Y-94252660D02*
X192702500Y-89652660D01*
X189452500Y-93852660D02*
X189452500Y-89452660D01*
X185952500Y-92052660D02*
X185952500Y-87452660D01*
X191352500Y-94252660D02*
X191352500Y-89652660D01*
X192252500Y-94252660D02*
X192252500Y-89652660D01*
X188202500Y-92302660D02*
X188202500Y-87852660D01*
X184152500Y-91052660D02*
X185177500Y-92077660D01*
X193602500Y-93702660D02*
X193602500Y-90152660D01*
X186702500Y-92052660D02*
X186702500Y-87452660D01*
X192552500Y-94252660D02*
X192552500Y-89652660D01*
X186552500Y-92052660D02*
X186552500Y-87452660D01*
X188352500Y-92402660D02*
X188352500Y-87952660D01*
X190902500Y-94252660D02*
X190902500Y-89652660D01*
X187302500Y-92052660D02*
X187302500Y-87502660D01*
X189552500Y-94002660D02*
X189552500Y-89502660D01*
X189152500Y-93252660D02*
X189152500Y-89102660D01*
X186102500Y-92052660D02*
X186102500Y-87452660D01*
X193152500Y-94152660D02*
X193152500Y-89752660D01*
X191502500Y-94252660D02*
X191502500Y-89652660D01*
X189852500Y-94202660D02*
X189852500Y-89652660D01*
X187727500Y-87427660D02*
X185177500Y-87427660D01*
X184452500Y-91302660D02*
X184452500Y-88152660D01*
X184152500Y-88452660D02*
X184152500Y-91052660D01*
X185652500Y-92052660D02*
X185652500Y-87452660D01*
X184752500Y-91652660D02*
X184752500Y-87852660D01*
X184302500Y-91202660D02*
X184302500Y-88302660D01*
X192852500Y-94252660D02*
X192852500Y-89702660D01*
X189252500Y-93452660D02*
X189252500Y-89302660D01*
X188652500Y-92602660D02*
X188652500Y-88202660D01*
X187002500Y-92052660D02*
X187002500Y-87452660D01*
X185202500Y-92052660D02*
X185202500Y-87452660D01*
X185352500Y-92052660D02*
X185352500Y-87452660D01*
X193302500Y-94052660D02*
X193302500Y-89852660D01*
X186852500Y-92052660D02*
X186852500Y-87452660D01*
X192752500Y-94277660D02*
X190152500Y-94277660D01*
X187752500Y-92102660D02*
X187752500Y-87502660D01*
X187152500Y-92077660D02*
X185177500Y-92077660D01*
X190152500Y-94252660D02*
X190152500Y-89652660D01*
X187727500Y-87427660D02*
X189002500Y-88452660D01*
X184602500Y-91502660D02*
X184602500Y-88002660D01*
X186402500Y-92052660D02*
X186402500Y-87452660D01*
X188802500Y-92752660D02*
X188802500Y-88302660D01*
X190752500Y-94252660D02*
X190752500Y-89652660D01*
X184152500Y-88452660D02*
X185177500Y-87427660D01*
X188952500Y-92902660D02*
X188952500Y-88452660D01*
X189702500Y-94102660D02*
X189702500Y-89552660D01*
X192102500Y-94252660D02*
X192102500Y-89652660D01*
X189352500Y-93602660D02*
X189352500Y-89402660D01*
X190452500Y-94252660D02*
X190452500Y-89652660D01*
X193402500Y-93952660D02*
X193402500Y-90002660D01*
X187452500Y-92102660D02*
X187452500Y-87452660D01*
X185802500Y-92052660D02*
X185802500Y-87452660D01*
X187602500Y-92102660D02*
X187602500Y-87452660D01*
X186252500Y-92052660D02*
X186252500Y-87452660D01*
X190602500Y-94252660D02*
X190602500Y-89652660D01*
X192752500Y-89627660D02*
X190177500Y-89627660D01*
X185502500Y-92052660D02*
X185502500Y-87452660D01*
X191202500Y-94252660D02*
X191202500Y-89652660D01*
X192402500Y-94252660D02*
X192402500Y-89652660D01*
X191952500Y-94252660D02*
X191952500Y-89652660D01*
X190002500Y-94252660D02*
X190002500Y-89652660D01*
X193752500Y-90627660D02*
X193752500Y-93277660D01*
X187902500Y-92152660D02*
X187902500Y-87602660D01*
X188052500Y-92252660D02*
X188052500Y-87702660D01*
X191652500Y-94252660D02*
X191652500Y-89652660D01*
X193502500Y-93852660D02*
X193502500Y-90102660D01*
X190302500Y-94252660D02*
X190302500Y-89702660D01*
X185052500Y-91902660D02*
X185052500Y-87552660D01*
X189002500Y-88452660D02*
G75*
G03*
X190177500Y-89627660I1175002J2D01*
G01*
X189290301Y-93574564D02*
G75*
G03*
X187152500Y-92077660I-2137802J-778098D01*
G01*
X189290301Y-93574564D02*
G75*
G03*
X190151505Y-94276451I899995J224994D01*
G01*
X193752500Y-90627660D02*
G75*
G03*
X192752500Y-89627660I-1000000J0D01*
G01*
X192752500Y-94277660D02*
G75*
G03*
X193752500Y-93277660I0J1000000D01*
G01*
%TO.C,SW4:12*%
X161090000Y-91802660D02*
X161090000Y-87702660D01*
X165240000Y-93102660D02*
X165240000Y-88952660D01*
X164390000Y-92302660D02*
X164390000Y-87852660D01*
X167690000Y-94252660D02*
X167690000Y-89652660D01*
X164840000Y-92602660D02*
X164840000Y-88202660D01*
X168940000Y-94277660D02*
X166340000Y-94277660D01*
X164540000Y-92402660D02*
X164540000Y-87952660D01*
X167540000Y-94252660D02*
X167540000Y-89652660D01*
X162290000Y-92052660D02*
X162290000Y-87452660D01*
X169790000Y-93702660D02*
X169790000Y-90152660D01*
X161540000Y-92052660D02*
X161540000Y-87452660D01*
X163340000Y-92077660D02*
X161365000Y-92077660D01*
X168140000Y-94252660D02*
X168140000Y-89652660D01*
X166490000Y-94252660D02*
X166490000Y-89702660D01*
X168290000Y-94252660D02*
X168290000Y-89652660D01*
X169590000Y-93952660D02*
X169590000Y-90002660D01*
X168940000Y-89627660D02*
X166365000Y-89627660D01*
X162440000Y-92052660D02*
X162440000Y-87452660D01*
X163940000Y-92102660D02*
X163940000Y-87502660D01*
X165640000Y-93852660D02*
X165640000Y-89452660D01*
X162890000Y-92052660D02*
X162890000Y-87452660D01*
X165340000Y-93252660D02*
X165340000Y-89102660D01*
X169940000Y-90627660D02*
X169940000Y-93277660D01*
X161390000Y-92052660D02*
X161390000Y-87452660D01*
X160940000Y-91652660D02*
X160940000Y-87852660D01*
X167090000Y-94252660D02*
X167090000Y-89652660D01*
X168740000Y-94252660D02*
X168740000Y-89652660D01*
X162140000Y-92052660D02*
X162140000Y-87452660D01*
X161690000Y-92052660D02*
X161690000Y-87452660D01*
X169040000Y-94252660D02*
X169040000Y-89702660D01*
X160790000Y-91502660D02*
X160790000Y-88002660D01*
X163915000Y-87427660D02*
X161365000Y-87427660D01*
X165890000Y-94102660D02*
X165890000Y-89552660D01*
X161990000Y-92052660D02*
X161990000Y-87452660D01*
X160340000Y-88452660D02*
X161365000Y-87427660D01*
X165140000Y-92902660D02*
X165140000Y-88452660D01*
X163790000Y-92102660D02*
X163790000Y-87452660D01*
X167240000Y-94252660D02*
X167240000Y-89652660D01*
X161840000Y-92052660D02*
X161840000Y-87452660D01*
X161240000Y-91902660D02*
X161240000Y-87552660D01*
X169190000Y-94202660D02*
X169190000Y-89702660D01*
X166340000Y-94252660D02*
X166340000Y-89652660D01*
X169340000Y-94152660D02*
X169340000Y-89752660D01*
X169690000Y-93852660D02*
X169690000Y-90102660D01*
X160340000Y-91052660D02*
X161365000Y-92077660D01*
X165440000Y-93452660D02*
X165440000Y-89302660D01*
X165540000Y-93602660D02*
X165540000Y-89402660D01*
X164690000Y-92502660D02*
X164690000Y-88102660D01*
X163490000Y-92052660D02*
X163490000Y-87502660D01*
X166190000Y-94252660D02*
X166190000Y-89652660D01*
X160640000Y-91302660D02*
X160640000Y-88152660D01*
X163190000Y-92052660D02*
X163190000Y-87452660D01*
X160340000Y-88452660D02*
X160340000Y-91052660D01*
X166040000Y-94202660D02*
X166040000Y-89652660D01*
X169490000Y-94052660D02*
X169490000Y-89852660D01*
X167840000Y-94252660D02*
X167840000Y-89652660D01*
X166640000Y-94252660D02*
X166640000Y-89652660D01*
X168890000Y-94252660D02*
X168890000Y-89652660D01*
X163915000Y-87427660D02*
X165190000Y-88452660D01*
X167390000Y-94252660D02*
X167390000Y-89652660D01*
X164090000Y-92152660D02*
X164090000Y-87602660D01*
X164990000Y-92752660D02*
X164990000Y-88302660D01*
X163040000Y-92052660D02*
X163040000Y-87452660D01*
X165740000Y-94002660D02*
X165740000Y-89502660D01*
X162590000Y-92052660D02*
X162590000Y-87452660D01*
X166790000Y-94252660D02*
X166790000Y-89652660D01*
X166940000Y-94252660D02*
X166940000Y-89652660D01*
X168440000Y-94252660D02*
X168440000Y-89652660D01*
X164240000Y-92252660D02*
X164240000Y-87702660D01*
X160490000Y-91202660D02*
X160490000Y-88302660D01*
X168590000Y-94252660D02*
X168590000Y-89652660D01*
X163340000Y-92052660D02*
X163340000Y-87452660D01*
X167990000Y-94252660D02*
X167990000Y-89652660D01*
X163640000Y-92102660D02*
X163640000Y-87452660D01*
X162740000Y-92052660D02*
X162740000Y-87452660D01*
X165477801Y-93574564D02*
G75*
G03*
X163340000Y-92077660I-2137802J-778098D01*
G01*
X165190000Y-88452660D02*
G75*
G03*
X166365000Y-89627660I1175002J2D01*
G01*
X168940000Y-94277660D02*
G75*
G03*
X169940000Y-93277660I0J1000000D01*
G01*
X165477801Y-93574564D02*
G75*
G03*
X166339005Y-94276451I899995J224994D01*
G01*
X169940000Y-90627660D02*
G75*
G03*
X168940000Y-89627660I-1000000J0D01*
G01*
%TO.C,SW4:11*%
X148490000Y-91077660D02*
X148490000Y-86477660D01*
X149890000Y-86452660D02*
X147315000Y-86452660D01*
X148640000Y-91077660D02*
X148640000Y-86477660D01*
X147140000Y-91077660D02*
X147140000Y-86477660D01*
X150640000Y-90677660D02*
X150640000Y-86927660D01*
X143540000Y-88877660D02*
X143540000Y-84277660D01*
X143990000Y-88877660D02*
X143990000Y-84277660D01*
X144140000Y-88877660D02*
X144140000Y-84277660D01*
X146990000Y-91027660D02*
X146990000Y-86477660D01*
X147590000Y-91077660D02*
X147590000Y-86477660D01*
X146690000Y-90827660D02*
X146690000Y-86327660D01*
X146840000Y-90927660D02*
X146840000Y-86377660D01*
X145190000Y-89077660D02*
X145190000Y-84527660D01*
X149240000Y-91077660D02*
X149240000Y-86477660D01*
X142040000Y-88627660D02*
X142040000Y-84527660D01*
X150740000Y-90527660D02*
X150740000Y-86977660D01*
X144865000Y-84252660D02*
X146140000Y-85277660D01*
X147890000Y-91077660D02*
X147890000Y-86477660D01*
X144890000Y-88927660D02*
X144890000Y-84327660D01*
X149540000Y-91077660D02*
X149540000Y-86477660D01*
X147290000Y-91077660D02*
X147290000Y-86477660D01*
X149690000Y-91077660D02*
X149690000Y-86477660D01*
X149090000Y-91077660D02*
X149090000Y-86477660D01*
X141740000Y-88327660D02*
X141740000Y-84827660D01*
X150290000Y-90977660D02*
X150290000Y-86577660D01*
X144740000Y-88927660D02*
X144740000Y-84277660D01*
X146590000Y-90677660D02*
X146590000Y-86277660D01*
X150140000Y-91027660D02*
X150140000Y-86527660D01*
X142190000Y-88727660D02*
X142190000Y-84377660D01*
X146090000Y-89727660D02*
X146090000Y-85277660D01*
X148190000Y-91077660D02*
X148190000Y-86477660D01*
X146190000Y-89927660D02*
X146190000Y-85777660D01*
X150440000Y-90877660D02*
X150440000Y-86677660D01*
X141290000Y-85277660D02*
X141290000Y-87877660D01*
X146390000Y-90277660D02*
X146390000Y-86127660D01*
X142490000Y-88877660D02*
X142490000Y-84277660D01*
X148940000Y-91077660D02*
X148940000Y-86477660D01*
X149390000Y-91077660D02*
X149390000Y-86477660D01*
X145340000Y-89127660D02*
X145340000Y-84677660D01*
X144590000Y-88927660D02*
X144590000Y-84277660D01*
X141890000Y-88477660D02*
X141890000Y-84677660D01*
X141290000Y-87877660D02*
X142315000Y-88902660D01*
X144290000Y-88877660D02*
X144290000Y-84277660D01*
X144865000Y-84252660D02*
X142315000Y-84252660D01*
X143690000Y-88877660D02*
X143690000Y-84277660D01*
X150890000Y-87452660D02*
X150890000Y-90102660D01*
X149890000Y-91102660D02*
X147290000Y-91102660D01*
X142340000Y-88877660D02*
X142340000Y-84277660D01*
X147740000Y-91077660D02*
X147740000Y-86477660D01*
X143390000Y-88877660D02*
X143390000Y-84277660D01*
X142940000Y-88877660D02*
X142940000Y-84277660D01*
X148340000Y-91077660D02*
X148340000Y-86477660D01*
X145040000Y-88977660D02*
X145040000Y-84427660D01*
X147440000Y-91077660D02*
X147440000Y-86527660D01*
X144290000Y-88902660D02*
X142315000Y-88902660D01*
X145790000Y-89427660D02*
X145790000Y-85027660D01*
X144440000Y-88877660D02*
X144440000Y-84327660D01*
X145940000Y-89577660D02*
X145940000Y-85127660D01*
X143840000Y-88877660D02*
X143840000Y-84277660D01*
X146290000Y-90077660D02*
X146290000Y-85927660D01*
X141440000Y-88027660D02*
X141440000Y-85127660D01*
X149990000Y-91077660D02*
X149990000Y-86527660D01*
X143090000Y-88877660D02*
X143090000Y-84277660D01*
X142790000Y-88877660D02*
X142790000Y-84277660D01*
X145490000Y-89227660D02*
X145490000Y-84777660D01*
X149840000Y-91077660D02*
X149840000Y-86477660D01*
X142640000Y-88877660D02*
X142640000Y-84277660D01*
X146490000Y-90427660D02*
X146490000Y-86227660D01*
X141290000Y-85277660D02*
X142315000Y-84252660D01*
X141590000Y-88127660D02*
X141590000Y-84977660D01*
X148040000Y-91077660D02*
X148040000Y-86477660D01*
X150540000Y-90777660D02*
X150540000Y-86827660D01*
X148790000Y-91077660D02*
X148790000Y-86477660D01*
X143240000Y-88877660D02*
X143240000Y-84277660D01*
X145640000Y-89327660D02*
X145640000Y-84927660D01*
X149890000Y-91102660D02*
G75*
G03*
X150890000Y-90102660I0J1000000D01*
G01*
X150890000Y-87452660D02*
G75*
G03*
X149890000Y-86452660I-1000000J0D01*
G01*
X146427801Y-90399564D02*
G75*
G03*
X147289005Y-91101451I899995J224994D01*
G01*
X146427801Y-90399564D02*
G75*
G03*
X144290000Y-88902660I-2137802J-778098D01*
G01*
X146140000Y-85277660D02*
G75*
G03*
X147315000Y-86452660I1175002J2D01*
G01*
%TO.C,SW4:10*%
X122240000Y-83680000D02*
X123265000Y-82655000D01*
X127440000Y-88830000D02*
X127440000Y-84630000D01*
X131490000Y-89180000D02*
X131490000Y-85230000D01*
X130840000Y-89505000D02*
X128240000Y-89505000D01*
X129590000Y-89480000D02*
X129590000Y-84880000D01*
X123590000Y-87280000D02*
X123590000Y-82680000D01*
X125090000Y-87280000D02*
X125090000Y-82680000D01*
X130640000Y-89480000D02*
X130640000Y-84880000D01*
X128540000Y-89480000D02*
X128540000Y-84880000D01*
X125815000Y-82655000D02*
X123265000Y-82655000D01*
X125690000Y-87330000D02*
X125690000Y-82680000D01*
X124340000Y-87280000D02*
X124340000Y-82680000D01*
X130940000Y-89480000D02*
X130940000Y-84930000D01*
X124940000Y-87280000D02*
X124940000Y-82680000D01*
X127640000Y-89230000D02*
X127640000Y-84730000D01*
X122840000Y-86880000D02*
X122840000Y-83080000D01*
X124790000Y-87280000D02*
X124790000Y-82680000D01*
X131590000Y-89080000D02*
X131590000Y-85330000D01*
X124190000Y-87280000D02*
X124190000Y-82680000D01*
X129890000Y-89480000D02*
X129890000Y-84880000D01*
X126590000Y-87730000D02*
X126590000Y-83330000D01*
X124490000Y-87280000D02*
X124490000Y-82680000D01*
X130490000Y-89480000D02*
X130490000Y-84880000D01*
X127940000Y-89430000D02*
X127940000Y-84880000D01*
X123740000Y-87280000D02*
X123740000Y-82680000D01*
X125240000Y-87305000D02*
X123265000Y-87305000D01*
X123140000Y-87130000D02*
X123140000Y-82780000D01*
X130340000Y-89480000D02*
X130340000Y-84880000D01*
X122240000Y-86280000D02*
X123265000Y-87305000D01*
X127240000Y-88480000D02*
X127240000Y-84330000D01*
X128840000Y-89480000D02*
X128840000Y-84880000D01*
X129140000Y-89480000D02*
X129140000Y-84880000D01*
X128090000Y-89480000D02*
X128090000Y-84880000D01*
X129440000Y-89480000D02*
X129440000Y-84880000D01*
X131390000Y-89280000D02*
X131390000Y-85080000D01*
X127140000Y-88330000D02*
X127140000Y-84180000D01*
X122690000Y-86730000D02*
X122690000Y-83230000D01*
X128990000Y-89480000D02*
X128990000Y-84880000D01*
X126440000Y-87630000D02*
X126440000Y-83180000D01*
X126290000Y-87530000D02*
X126290000Y-83080000D01*
X125815000Y-82655000D02*
X127090000Y-83680000D01*
X131090000Y-89430000D02*
X131090000Y-84930000D01*
X130840000Y-84855000D02*
X128265000Y-84855000D01*
X127040000Y-88130000D02*
X127040000Y-83680000D01*
X124040000Y-87280000D02*
X124040000Y-82680000D01*
X130790000Y-89480000D02*
X130790000Y-84880000D01*
X128240000Y-89480000D02*
X128240000Y-84880000D01*
X131840000Y-85855000D02*
X131840000Y-88505000D01*
X122240000Y-83680000D02*
X122240000Y-86280000D01*
X127540000Y-89080000D02*
X127540000Y-84680000D01*
X124640000Y-87280000D02*
X124640000Y-82680000D01*
X125390000Y-87280000D02*
X125390000Y-82730000D01*
X128390000Y-89480000D02*
X128390000Y-84930000D01*
X123890000Y-87280000D02*
X123890000Y-82680000D01*
X125990000Y-87380000D02*
X125990000Y-82830000D01*
X125840000Y-87330000D02*
X125840000Y-82730000D01*
X130040000Y-89480000D02*
X130040000Y-84880000D01*
X126740000Y-87830000D02*
X126740000Y-83430000D01*
X123440000Y-87280000D02*
X123440000Y-82680000D01*
X122390000Y-86430000D02*
X122390000Y-83530000D01*
X127340000Y-88680000D02*
X127340000Y-84530000D01*
X131690000Y-88930000D02*
X131690000Y-85380000D01*
X123290000Y-87280000D02*
X123290000Y-82680000D01*
X128690000Y-89480000D02*
X128690000Y-84880000D01*
X126890000Y-87980000D02*
X126890000Y-83530000D01*
X127790000Y-89330000D02*
X127790000Y-84780000D01*
X129290000Y-89480000D02*
X129290000Y-84880000D01*
X122540000Y-86530000D02*
X122540000Y-83380000D01*
X129740000Y-89480000D02*
X129740000Y-84880000D01*
X122990000Y-87030000D02*
X122990000Y-82930000D01*
X125240000Y-87280000D02*
X125240000Y-82680000D01*
X131240000Y-89380000D02*
X131240000Y-84980000D01*
X126140000Y-87480000D02*
X126140000Y-82930000D01*
X125540000Y-87330000D02*
X125540000Y-82680000D01*
X130190000Y-89480000D02*
X130190000Y-84880000D01*
X127377801Y-88801904D02*
G75*
G03*
X128239005Y-89503791I899995J224994D01*
G01*
X131840000Y-85855000D02*
G75*
G03*
X130840000Y-84855000I-1000000J0D01*
G01*
X127377801Y-88801904D02*
G75*
G03*
X125240000Y-87305000I-2137802J-778098D01*
G01*
X130840000Y-89505000D02*
G75*
G03*
X131840000Y-88505000I0J1000000D01*
G01*
X127090000Y-83680000D02*
G75*
G03*
X128265000Y-84855000I1175002J2D01*
G01*
%TO.C,SW4:9*%
X109340000Y-91077660D02*
X109340000Y-86527660D01*
X104540000Y-88877660D02*
X104540000Y-84277660D01*
X106040000Y-88877660D02*
X106040000Y-84277660D01*
X111740000Y-91077660D02*
X111740000Y-86477660D01*
X106640000Y-88927660D02*
X106640000Y-84277660D01*
X112040000Y-91027660D02*
X112040000Y-86527660D01*
X106765000Y-84252660D02*
X108040000Y-85277660D01*
X106190000Y-88877660D02*
X106190000Y-84277660D01*
X108090000Y-89927660D02*
X108090000Y-85777660D01*
X103640000Y-88327660D02*
X103640000Y-84827660D01*
X103790000Y-88477660D02*
X103790000Y-84677660D01*
X107090000Y-89077660D02*
X107090000Y-84527660D01*
X106940000Y-88977660D02*
X106940000Y-84427660D01*
X112440000Y-90777660D02*
X112440000Y-86827660D01*
X105440000Y-88877660D02*
X105440000Y-84277660D01*
X103490000Y-88127660D02*
X103490000Y-84977660D01*
X106190000Y-88902660D02*
X104215000Y-88902660D01*
X103190000Y-85277660D02*
X103190000Y-87877660D01*
X109040000Y-91077660D02*
X109040000Y-86477660D01*
X111890000Y-91077660D02*
X111890000Y-86527660D01*
X105890000Y-88877660D02*
X105890000Y-84277660D01*
X104840000Y-88877660D02*
X104840000Y-84277660D01*
X104690000Y-88877660D02*
X104690000Y-84277660D01*
X104090000Y-88727660D02*
X104090000Y-84377660D01*
X109940000Y-91077660D02*
X109940000Y-86477660D01*
X108490000Y-90677660D02*
X108490000Y-86277660D01*
X107690000Y-89427660D02*
X107690000Y-85027660D01*
X107840000Y-89577660D02*
X107840000Y-85127660D01*
X107990000Y-89727660D02*
X107990000Y-85277660D01*
X106490000Y-88927660D02*
X106490000Y-84277660D01*
X105590000Y-88877660D02*
X105590000Y-84277660D01*
X111590000Y-91077660D02*
X111590000Y-86477660D01*
X111290000Y-91077660D02*
X111290000Y-86477660D01*
X109190000Y-91077660D02*
X109190000Y-86477660D01*
X110990000Y-91077660D02*
X110990000Y-86477660D01*
X110840000Y-91077660D02*
X110840000Y-86477660D01*
X110390000Y-91077660D02*
X110390000Y-86477660D01*
X110090000Y-91077660D02*
X110090000Y-86477660D01*
X111790000Y-91102660D02*
X109190000Y-91102660D01*
X107390000Y-89227660D02*
X107390000Y-84777660D01*
X106790000Y-88927660D02*
X106790000Y-84327660D01*
X109640000Y-91077660D02*
X109640000Y-86477660D01*
X110240000Y-91077660D02*
X110240000Y-86477660D01*
X103190000Y-85277660D02*
X104215000Y-84252660D01*
X112640000Y-90527660D02*
X112640000Y-86977660D01*
X104240000Y-88877660D02*
X104240000Y-84277660D01*
X104390000Y-88877660D02*
X104390000Y-84277660D01*
X105290000Y-88877660D02*
X105290000Y-84277660D01*
X108590000Y-90827660D02*
X108590000Y-86327660D01*
X103190000Y-87877660D02*
X104215000Y-88902660D01*
X108890000Y-91027660D02*
X108890000Y-86477660D01*
X112340000Y-90877660D02*
X112340000Y-86677660D01*
X109790000Y-91077660D02*
X109790000Y-86477660D01*
X103940000Y-88627660D02*
X103940000Y-84527660D01*
X106340000Y-88877660D02*
X106340000Y-84327660D01*
X104990000Y-88877660D02*
X104990000Y-84277660D01*
X112540000Y-90677660D02*
X112540000Y-86927660D01*
X105140000Y-88877660D02*
X105140000Y-84277660D01*
X110690000Y-91077660D02*
X110690000Y-86477660D01*
X105740000Y-88877660D02*
X105740000Y-84277660D01*
X108190000Y-90077660D02*
X108190000Y-85927660D01*
X107240000Y-89127660D02*
X107240000Y-84677660D01*
X111440000Y-91077660D02*
X111440000Y-86477660D01*
X110540000Y-91077660D02*
X110540000Y-86477660D01*
X106765000Y-84252660D02*
X104215000Y-84252660D01*
X112190000Y-90977660D02*
X112190000Y-86577660D01*
X109490000Y-91077660D02*
X109490000Y-86477660D01*
X111790000Y-86452660D02*
X109215000Y-86452660D01*
X108290000Y-90277660D02*
X108290000Y-86127660D01*
X112790000Y-87452660D02*
X112790000Y-90102660D01*
X103340000Y-88027660D02*
X103340000Y-85127660D01*
X108390000Y-90427660D02*
X108390000Y-86227660D01*
X111140000Y-91077660D02*
X111140000Y-86477660D01*
X107540000Y-89327660D02*
X107540000Y-84927660D01*
X108740000Y-90927660D02*
X108740000Y-86377660D01*
X111790000Y-91102660D02*
G75*
G03*
X112790000Y-90102660I0J1000000D01*
G01*
X108327801Y-90399564D02*
G75*
G03*
X106190000Y-88902660I-2137802J-778098D01*
G01*
X108327801Y-90399564D02*
G75*
G03*
X109189005Y-91101451I899995J224994D01*
G01*
X108040000Y-85277660D02*
G75*
G03*
X109215000Y-86452660I1175002J2D01*
G01*
X112790000Y-87452660D02*
G75*
G03*
X111790000Y-86452660I-1000000J0D01*
G01*
%TO.C,SW4:8*%
X85790000Y-90147660D02*
X85790000Y-85547660D01*
X89440000Y-91947660D02*
X89440000Y-87547660D01*
X86690000Y-90147660D02*
X86690000Y-85547660D01*
X88490000Y-90597660D02*
X88490000Y-86197660D01*
X90140000Y-92347660D02*
X90140000Y-87747660D01*
X89690000Y-92197660D02*
X89690000Y-87647660D01*
X84140000Y-86547660D02*
X84140000Y-89147660D01*
X85490000Y-90147660D02*
X85490000Y-85547660D01*
X89540000Y-92097660D02*
X89540000Y-87597660D01*
X86390000Y-90147660D02*
X86390000Y-85547660D01*
X92540000Y-92347660D02*
X92540000Y-87747660D01*
X85190000Y-90147660D02*
X85190000Y-85547660D01*
X87440000Y-90197660D02*
X87440000Y-85547660D01*
X88790000Y-90847660D02*
X88790000Y-86397660D01*
X86240000Y-90147660D02*
X86240000Y-85547660D01*
X92690000Y-92347660D02*
X92690000Y-87747660D01*
X84140000Y-89147660D02*
X85165000Y-90172660D01*
X87290000Y-90147660D02*
X87290000Y-85597660D01*
X88940000Y-90997660D02*
X88940000Y-86547660D01*
X91790000Y-92347660D02*
X91790000Y-87747660D01*
X93590000Y-91797660D02*
X93590000Y-88247660D01*
X89040000Y-91197660D02*
X89040000Y-87047660D01*
X84740000Y-89747660D02*
X84740000Y-85947660D01*
X93740000Y-88722660D02*
X93740000Y-91372660D01*
X93490000Y-91947660D02*
X93490000Y-88197660D01*
X88340000Y-90497660D02*
X88340000Y-86047660D01*
X91640000Y-92347660D02*
X91640000Y-87747660D01*
X84890000Y-89897660D02*
X84890000Y-85797660D01*
X92840000Y-92347660D02*
X92840000Y-87797660D01*
X90890000Y-92347660D02*
X90890000Y-87747660D01*
X88640000Y-90697660D02*
X88640000Y-86297660D01*
X86540000Y-90147660D02*
X86540000Y-85547660D01*
X86990000Y-90147660D02*
X86990000Y-85547660D01*
X89140000Y-91347660D02*
X89140000Y-87197660D01*
X90290000Y-92347660D02*
X90290000Y-87797660D01*
X85040000Y-89997660D02*
X85040000Y-85647660D01*
X91490000Y-92347660D02*
X91490000Y-87747660D01*
X87715000Y-85522660D02*
X88990000Y-86547660D01*
X87590000Y-90197660D02*
X87590000Y-85547660D01*
X84140000Y-86547660D02*
X85165000Y-85522660D01*
X91940000Y-92347660D02*
X91940000Y-87747660D01*
X87715000Y-85522660D02*
X85165000Y-85522660D01*
X85640000Y-90147660D02*
X85640000Y-85547660D01*
X92240000Y-92347660D02*
X92240000Y-87747660D01*
X93140000Y-92247660D02*
X93140000Y-87847660D01*
X88040000Y-90347660D02*
X88040000Y-85797660D01*
X92740000Y-92372660D02*
X90140000Y-92372660D01*
X84590000Y-89597660D02*
X84590000Y-86097660D01*
X89990000Y-92347660D02*
X89990000Y-87747660D01*
X87740000Y-90197660D02*
X87740000Y-85597660D01*
X90590000Y-92347660D02*
X90590000Y-87747660D01*
X92740000Y-87722660D02*
X90165000Y-87722660D01*
X92390000Y-92347660D02*
X92390000Y-87747660D01*
X85340000Y-90147660D02*
X85340000Y-85547660D01*
X91040000Y-92347660D02*
X91040000Y-87747660D01*
X91340000Y-92347660D02*
X91340000Y-87747660D01*
X86090000Y-90147660D02*
X86090000Y-85547660D01*
X90440000Y-92347660D02*
X90440000Y-87747660D01*
X84440000Y-89397660D02*
X84440000Y-86247660D01*
X86840000Y-90147660D02*
X86840000Y-85547660D01*
X85940000Y-90147660D02*
X85940000Y-85547660D01*
X92090000Y-92347660D02*
X92090000Y-87747660D01*
X87890000Y-90247660D02*
X87890000Y-85697660D01*
X84290000Y-89297660D02*
X84290000Y-86397660D01*
X89340000Y-91697660D02*
X89340000Y-87497660D01*
X91190000Y-92347660D02*
X91190000Y-87747660D01*
X89840000Y-92297660D02*
X89840000Y-87747660D01*
X90740000Y-92347660D02*
X90740000Y-87747660D01*
X87140000Y-90172660D02*
X85165000Y-90172660D01*
X87140000Y-90147660D02*
X87140000Y-85547660D01*
X93290000Y-92147660D02*
X93290000Y-87947660D01*
X92990000Y-92297660D02*
X92990000Y-87797660D01*
X93390000Y-92047660D02*
X93390000Y-88097660D01*
X88190000Y-90397660D02*
X88190000Y-85947660D01*
X89240000Y-91547660D02*
X89240000Y-87397660D01*
X88990000Y-86547660D02*
G75*
G03*
X90165000Y-87722660I1175002J2D01*
G01*
X89277801Y-91669564D02*
G75*
G03*
X87140000Y-90172660I-2137802J-778098D01*
G01*
X93740000Y-88722660D02*
G75*
G03*
X92740000Y-87722660I-1000000J0D01*
G01*
X89277801Y-91669564D02*
G75*
G03*
X90139005Y-92371451I899995J224994D01*
G01*
X92740000Y-92372660D02*
G75*
G03*
X93740000Y-91372660I0J1000000D01*
G01*
%TO.C,SW4:7*%
X80490000Y-87210160D02*
X76090000Y-87210160D01*
X80290000Y-86960160D02*
X76340000Y-86960160D01*
X78390000Y-93510160D02*
X73790000Y-93510160D01*
X78440000Y-92610160D02*
X73840000Y-92610160D01*
X80590000Y-90360160D02*
X75990000Y-90360160D01*
X74790000Y-96210160D02*
X73765000Y-95185160D01*
X80590000Y-87960160D02*
X75990000Y-87960160D01*
X79240000Y-91410160D02*
X74790000Y-91410160D01*
X78240000Y-95310160D02*
X73890000Y-95310160D01*
X80590000Y-89310160D02*
X75990000Y-89310160D01*
X78440000Y-92910160D02*
X73790000Y-92910160D01*
X80040000Y-86760160D02*
X76490000Y-86760160D01*
X80590000Y-88110160D02*
X75990000Y-88110160D01*
X78390000Y-93660160D02*
X73790000Y-93660160D01*
X78390000Y-94110160D02*
X73790000Y-94110160D01*
X78390000Y-94410160D02*
X73790000Y-94410160D01*
X78390000Y-94260160D02*
X73790000Y-94260160D01*
X73765000Y-92635160D02*
X74790000Y-91360160D01*
X80590000Y-87660160D02*
X75990000Y-87660160D01*
X79090000Y-91560160D02*
X74640000Y-91560160D01*
X80590000Y-88710160D02*
X75990000Y-88710160D01*
X78140000Y-95460160D02*
X74040000Y-95460160D01*
X78390000Y-93960160D02*
X73790000Y-93960160D01*
X80440000Y-90660160D02*
X75890000Y-90660160D01*
X78390000Y-93060160D02*
X73840000Y-93060160D01*
X80590000Y-87510160D02*
X76040000Y-87510160D01*
X80540000Y-87360160D02*
X76040000Y-87360160D01*
X78390000Y-95010160D02*
X73790000Y-95010160D01*
X78940000Y-91710160D02*
X74540000Y-91710160D01*
X80390000Y-87060160D02*
X76190000Y-87060160D01*
X73765000Y-92635160D02*
X73765000Y-95185160D01*
X79790000Y-91110160D02*
X75640000Y-91110160D01*
X77390000Y-96210160D02*
X78415000Y-95185160D01*
X78390000Y-93210160D02*
X73790000Y-93210160D01*
X80590000Y-88260160D02*
X75990000Y-88260160D01*
X80590000Y-89910160D02*
X75990000Y-89910160D01*
X78390000Y-93810160D02*
X73790000Y-93810160D01*
X78740000Y-92010160D02*
X74290000Y-92010160D01*
X80615000Y-87610160D02*
X80615000Y-90210160D01*
X80590000Y-88560160D02*
X75990000Y-88560160D01*
X80190000Y-86860160D02*
X76440000Y-86860160D01*
X80590000Y-89010160D02*
X75990000Y-89010160D01*
X78590000Y-92310160D02*
X74040000Y-92310160D01*
X78390000Y-93360160D02*
X73790000Y-93360160D01*
X79940000Y-91010160D02*
X75740000Y-91010160D01*
X80190000Y-90910160D02*
X75790000Y-90910160D01*
X76965000Y-86610160D02*
X79615000Y-86610160D01*
X79590000Y-91210160D02*
X75440000Y-91210160D01*
X80590000Y-90210160D02*
X75990000Y-90210160D01*
X80590000Y-89160160D02*
X75990000Y-89160160D01*
X80590000Y-89460160D02*
X75990000Y-89460160D01*
X80590000Y-90060160D02*
X76040000Y-90060160D01*
X77540000Y-96060160D02*
X74640000Y-96060160D01*
X80340000Y-90810160D02*
X75840000Y-90810160D01*
X78640000Y-92160160D02*
X74190000Y-92160160D01*
X77840000Y-95760160D02*
X74340000Y-95760160D01*
X78840000Y-91860160D02*
X74440000Y-91860160D01*
X79440000Y-91310160D02*
X75290000Y-91310160D01*
X78390000Y-95160160D02*
X73790000Y-95160160D01*
X78440000Y-92760160D02*
X73790000Y-92760160D01*
X78390000Y-94560160D02*
X73790000Y-94560160D01*
X78390000Y-94860160D02*
X73790000Y-94860160D01*
X77990000Y-95610160D02*
X74190000Y-95610160D01*
X78415000Y-93210160D02*
X78415000Y-95185160D01*
X80590000Y-89610160D02*
X75990000Y-89610160D01*
X80590000Y-89760160D02*
X75990000Y-89760160D01*
X80590000Y-88410160D02*
X75990000Y-88410160D01*
X78390000Y-94710160D02*
X73790000Y-94710160D01*
X77640000Y-95910160D02*
X74490000Y-95910160D01*
X80540000Y-90510160D02*
X75990000Y-90510160D01*
X80590000Y-87810160D02*
X75990000Y-87810160D01*
X75965000Y-87610160D02*
X75965000Y-90185160D01*
X78490000Y-92460160D02*
X73940000Y-92460160D01*
X80590000Y-88860160D02*
X75990000Y-88860160D01*
X74790000Y-96210160D02*
X77390000Y-96210160D01*
X79911904Y-91072359D02*
G75*
G03*
X80613791Y-90211155I-224994J899995D01*
G01*
X74790000Y-91360160D02*
G75*
G03*
X75965000Y-90185160I-2J1175002D01*
G01*
X76965000Y-86610160D02*
G75*
G03*
X75965000Y-87610160I0J-1000000D01*
G01*
X79911904Y-91072359D02*
G75*
G03*
X78415000Y-93210160I778098J-2137802D01*
G01*
X80615000Y-87610160D02*
G75*
G03*
X79615000Y-86610160I-1000000J0D01*
G01*
%TO.C,SW0:10*%
X84477196Y-149047494D02*
X86878912Y-147927555D01*
X88713453Y-149554695D02*
X84544437Y-151498739D01*
X88395269Y-153013200D02*
X84407515Y-154872721D01*
X88358870Y-153526693D02*
X84235170Y-155449606D01*
X88269704Y-148603072D02*
X84100688Y-150547116D01*
X89137173Y-156970419D02*
X85965095Y-158449583D01*
X88396489Y-148874964D02*
X84227473Y-150819008D01*
X88874929Y-155106625D02*
X84705913Y-157050669D01*
X89217297Y-151581673D02*
X85229543Y-153441193D01*
X88938322Y-155242571D02*
X84769306Y-157186615D01*
X89382071Y-156194194D02*
X85213055Y-158138238D01*
X87638586Y-147959496D02*
X84058670Y-149628838D01*
X88967024Y-150098480D02*
X84798008Y-152042524D01*
X87925502Y-148101549D02*
X83937748Y-149961069D01*
X89019304Y-157190889D02*
X86164434Y-158522136D01*
X88811536Y-154970679D02*
X84642520Y-156914723D01*
X87505693Y-147911127D02*
X84107039Y-149495945D01*
X88333097Y-148739018D02*
X84164081Y-150683062D01*
X89338220Y-151249442D02*
X85214519Y-153172355D01*
X87771479Y-148007865D02*
X83964986Y-149782861D01*
X84123286Y-155860376D02*
X84513413Y-154271650D01*
X88495061Y-152635653D02*
X84461991Y-154516305D01*
X88748143Y-154834732D02*
X84579128Y-156778776D01*
X88459882Y-149010910D02*
X84290866Y-150954954D01*
X89209726Y-156771080D02*
X85765756Y-158377029D01*
X89128500Y-155650409D02*
X84959484Y-157594453D01*
X89191893Y-155786356D02*
X85022877Y-157730400D01*
X89030417Y-150234426D02*
X84861401Y-152178470D01*
X88776846Y-149690641D02*
X84607830Y-151634685D01*
X88331632Y-153704901D02*
X84207932Y-155627814D01*
X88476495Y-154133871D02*
X84262164Y-156099046D01*
X88992066Y-157369097D02*
X86363773Y-158594690D01*
X86563112Y-158667243D02*
X88919512Y-157568436D01*
X88413102Y-153997924D02*
X84198771Y-155963099D01*
X88368031Y-153191408D02*
X84334961Y-155072059D01*
X88206311Y-148467126D02*
X84037295Y-150411170D01*
X86563112Y-158667243D02*
X85200963Y-158171461D01*
X88523275Y-149146856D02*
X84354259Y-151090900D01*
X89365458Y-151071234D02*
X85241757Y-152994147D01*
X89283988Y-150778210D02*
X85114972Y-152722254D01*
X88706614Y-152261160D02*
X84945436Y-154015026D01*
X88580623Y-154416328D02*
X89415294Y-156206286D01*
X89309517Y-156393533D02*
X85367079Y-158231922D01*
X84123286Y-155860376D02*
X85200963Y-158171461D01*
X88567614Y-152436314D02*
X84534544Y-154316966D01*
X89032982Y-151777958D02*
X85226489Y-153552955D01*
X88586667Y-149282803D02*
X84417652Y-151226847D01*
X88621358Y-154562840D02*
X84452342Y-156506884D01*
X89347380Y-150914157D02*
X85178365Y-152858201D01*
X88422507Y-152834992D02*
X84434753Y-154694513D01*
X83993507Y-150376420D02*
X85081749Y-152710162D01*
X88919512Y-157568436D02*
X89415294Y-156206286D01*
X89255285Y-155922302D02*
X85086270Y-157866346D01*
X88494573Y-154290948D02*
X84370872Y-156213861D01*
X88557965Y-154426894D02*
X84388949Y-156370938D01*
X88207838Y-148411245D02*
X89306645Y-150767645D01*
X88684751Y-154698786D02*
X84515735Y-156642830D01*
X89001714Y-155378517D02*
X84832699Y-157322561D01*
X87327485Y-147883889D02*
X84110093Y-149384183D01*
X88903631Y-149962533D02*
X84734615Y-151906577D01*
X88800298Y-152107136D02*
X85039121Y-153861002D01*
X89318678Y-156058248D02*
X85149662Y-158002292D01*
X89282279Y-156571741D02*
X85566417Y-158304476D01*
X89093809Y-150370372D02*
X84924794Y-152314416D01*
X88142918Y-148331179D02*
X84019218Y-150254092D01*
X88939298Y-151931982D02*
X85178120Y-153685848D01*
X88349710Y-153861978D02*
X84180694Y-155806022D01*
X89065107Y-155514463D02*
X84896091Y-157458507D01*
X88650060Y-149418749D02*
X84481044Y-151362793D01*
X88840238Y-149826587D02*
X84671223Y-151770631D01*
X88034210Y-148216364D02*
X83955825Y-150118146D01*
X89310982Y-151427650D02*
X85232597Y-153329432D01*
X88340793Y-153369616D02*
X84307723Y-155250267D01*
X89157202Y-150506318D02*
X84988186Y-152450362D01*
X89220595Y-150642264D02*
X85096894Y-152565177D01*
X88207838Y-148411245D02*
G75*
G03*
X86878912Y-147927555I-906308J-422618D01*
G01*
X89033805Y-151846204D02*
G75*
G03*
X89305970Y-150769058I-584268J720586D01*
G01*
X84513414Y-154271651D02*
G75*
G03*
X85081749Y-152710162I-496580J1064913D01*
G01*
X84477196Y-149047493D02*
G75*
G03*
X83993507Y-150376420I422618J-906308D01*
G01*
X89033805Y-151846204D02*
G75*
G03*
X88580623Y-154416328I1608670J-1608668D01*
G01*
%TO.C,SW0:12*%
X47471947Y-185806657D02*
X45633558Y-181864219D01*
X50852280Y-184892409D02*
X48992759Y-180904655D01*
X54446731Y-185147200D02*
X52502687Y-180978184D01*
X48079124Y-185689033D02*
X46135080Y-181520017D01*
X50674072Y-184865171D02*
X48793421Y-180832101D01*
X46496383Y-185489206D02*
X45270790Y-182860913D01*
X55454235Y-184704978D02*
X53097835Y-185803785D01*
X49449152Y-185077763D02*
X47659194Y-185912434D01*
X49867556Y-184910242D02*
X47902381Y-180695911D01*
X53902947Y-185400771D02*
X51958903Y-181231755D01*
X54718624Y-185020415D02*
X52774580Y-180851399D01*
X55649116Y-184531350D02*
X53747334Y-180452965D01*
X55534301Y-184640058D02*
X53611388Y-180516358D01*
X55398354Y-184703451D02*
X53454310Y-180534435D01*
X48622909Y-185435462D02*
X46678865Y-181266446D01*
X54038893Y-185337378D02*
X52094849Y-181168363D01*
X50338787Y-184856010D02*
X48415874Y-180732310D01*
X48005104Y-180620426D02*
X49593830Y-181010553D01*
X55262408Y-184766844D02*
X53318364Y-180597828D01*
X46674591Y-185516444D02*
X45343344Y-182661574D01*
X55763931Y-184422642D02*
X53904411Y-180434888D01*
X54990516Y-184893629D02*
X53046472Y-180724613D01*
X48215071Y-185625640D02*
X46271027Y-181456624D01*
X45198237Y-183060252D02*
X46297044Y-185416652D01*
X48351017Y-185562247D02*
X46406973Y-181393231D01*
X47671286Y-185879211D02*
X45727242Y-181710195D01*
X55981591Y-183824625D02*
X54481297Y-180607233D01*
X54817986Y-180974336D02*
X55937925Y-183376052D01*
X55857615Y-184268619D02*
X54082619Y-180462126D01*
X46297044Y-185416652D02*
X47659194Y-185912434D01*
X51758344Y-185297438D02*
X50004478Y-181536261D01*
X51429166Y-185064754D02*
X49548514Y-181031684D01*
X48894801Y-185308676D02*
X46950757Y-181139660D01*
X53489060Y-180490647D02*
X51155318Y-181578889D01*
X53359162Y-185654342D02*
X51415118Y-181485326D01*
X51030488Y-184919647D02*
X49170967Y-180931893D01*
X50160579Y-184828772D02*
X48237666Y-180705072D01*
X52616038Y-185835360D02*
X50693125Y-181711659D01*
X52283807Y-185714437D02*
X50424287Y-181726683D01*
X53631054Y-185527557D02*
X51687010Y-181358541D01*
X49030748Y-185245283D02*
X47086704Y-181076268D01*
X49302640Y-185118498D02*
X47358596Y-180949482D01*
X50003502Y-184846850D02*
X48059458Y-180677834D01*
X49438586Y-185055105D02*
X47494542Y-180886089D01*
X54174839Y-185273986D02*
X52230795Y-181104970D01*
X53495108Y-185590949D02*
X51551064Y-181421934D01*
X48005104Y-180620426D02*
X45694019Y-181698103D01*
X52437830Y-185808122D02*
X50536048Y-181729737D01*
X51933498Y-185436438D02*
X50179632Y-181675260D01*
X54310785Y-185210593D02*
X52366741Y-181041577D01*
X49166694Y-185181891D02*
X47222650Y-181012875D01*
X45198237Y-183060252D02*
X45694019Y-181698103D01*
X52087522Y-185530122D02*
X50312525Y-181723629D01*
X49731609Y-184973635D02*
X47766434Y-180759304D01*
X53087270Y-185781128D02*
X51143226Y-181612112D01*
X48758855Y-185372069D02*
X46814811Y-181203053D01*
X46895061Y-185634313D02*
X45415897Y-182462235D01*
X53767000Y-185464164D02*
X51822956Y-181295148D01*
X55954353Y-184002833D02*
X54369535Y-180604179D01*
X52951323Y-185844520D02*
X51007279Y-181675505D01*
X50495864Y-184837933D02*
X48615213Y-180804863D01*
X51229827Y-184992201D02*
X49349175Y-180959131D01*
X54854570Y-184957022D02*
X52910526Y-180788006D01*
X51604320Y-185203754D02*
X49850454Y-181442576D01*
X47293739Y-185779419D02*
X45561004Y-182063557D01*
X48486963Y-185498854D02*
X46542919Y-181329839D01*
X47807232Y-185815818D02*
X45863188Y-181646802D01*
X47094400Y-185706866D02*
X45488451Y-182262896D01*
X53223216Y-185717735D02*
X51300303Y-181594034D01*
X49574532Y-184991713D02*
X47651619Y-180868012D01*
X54582677Y-185083807D02*
X52638633Y-180914792D01*
X55126462Y-184830237D02*
X53182418Y-180661221D01*
X47943178Y-185752425D02*
X45999134Y-181583410D01*
X55905984Y-184135726D02*
X54236642Y-180555810D01*
X52794246Y-185862598D02*
X50871333Y-181738897D01*
X52019276Y-185530945D02*
G75*
G03*
X53096422Y-185803110I720586J584268D01*
G01*
X52019276Y-185530945D02*
G75*
G03*
X49449152Y-185077763I-1608668J-1608670D01*
G01*
X54817987Y-180974336D02*
G75*
G03*
X53489060Y-180490647I-906308J-422618D01*
G01*
X49593829Y-181010554D02*
G75*
G03*
X51155318Y-181578889I1064913J496580D01*
G01*
X55454235Y-184704978D02*
G75*
G03*
X55937925Y-183376052I-422618J906308D01*
G01*
%TO.C,SW0:11*%
X71892822Y-158558118D02*
X67723806Y-160502162D01*
X71575858Y-157878387D02*
X67406843Y-159822431D01*
X69298732Y-166719043D02*
X67936583Y-166223261D01*
X71293585Y-162478694D02*
X67124569Y-164422738D01*
X72073840Y-159301242D02*
X67950139Y-161224155D01*
X71768602Y-159829758D02*
X67962109Y-161604755D01*
X71258895Y-157198656D02*
X67089879Y-159142700D01*
X72019608Y-158830010D02*
X67850592Y-160774054D01*
X71727686Y-165420897D02*
X69099393Y-166646490D01*
X72045137Y-164445333D02*
X68102699Y-166283722D01*
X70878538Y-156382979D02*
X66754838Y-158305892D01*
X66858906Y-163912176D02*
X67936583Y-166223261D01*
X71067252Y-161756701D02*
X66943552Y-163679614D01*
X72083000Y-158965957D02*
X67913985Y-160910001D01*
X71766037Y-158286226D02*
X67597021Y-160230270D01*
X70661122Y-156153349D02*
X66673368Y-158012869D01*
X71158127Y-160886792D02*
X67170373Y-162746313D01*
X71212115Y-162185671D02*
X66997784Y-164150846D01*
X71872793Y-165022219D02*
X68700715Y-166501383D01*
X71103651Y-161243208D02*
X67070581Y-163123859D01*
X72046602Y-159479450D02*
X67968217Y-161381232D01*
X71005324Y-156654872D02*
X66836308Y-158598916D01*
X67212816Y-157099294D02*
X69614532Y-155979355D01*
X71132109Y-156926764D02*
X66963093Y-158870808D01*
X71927513Y-163838156D02*
X67758497Y-165782200D01*
X71303234Y-160488114D02*
X67270164Y-162368766D01*
X66858906Y-163912176D02*
X67249033Y-162323450D01*
X71094490Y-161578493D02*
X66970790Y-163501406D01*
X71754924Y-165242689D02*
X68900054Y-166573936D01*
X71148722Y-162049724D02*
X66934391Y-164014899D01*
X70507099Y-156059665D02*
X66700606Y-157834661D01*
X70941931Y-156518926D02*
X66772915Y-158462970D01*
X71655132Y-165620236D02*
X72150914Y-164258086D01*
X71420371Y-162750586D02*
X67251355Y-164694630D01*
X71442234Y-160312960D02*
X67681056Y-162066826D01*
X71956215Y-158694064D02*
X67832514Y-160616977D01*
X70943458Y-156463045D02*
X72042265Y-158819445D01*
X71702644Y-158150280D02*
X67533628Y-160094324D01*
X71512466Y-157742441D02*
X67343450Y-159686485D01*
X70241313Y-155962927D02*
X66842659Y-157547745D01*
X72017899Y-164623541D02*
X68302037Y-166356276D01*
X71674918Y-159983782D02*
X67913740Y-161737648D01*
X71230681Y-160687453D02*
X67197611Y-162568105D01*
X72054298Y-164110048D02*
X67885282Y-166054092D01*
X71639251Y-158014333D02*
X67470235Y-159958377D01*
X71483763Y-162886532D02*
X67314748Y-164830576D01*
X71322287Y-157334603D02*
X67153272Y-159278647D01*
X71990905Y-163974102D02*
X67821890Y-165918146D01*
X71068717Y-156790818D02*
X66899701Y-158734862D01*
X71864120Y-163702209D02*
X67695104Y-165646253D01*
X71076413Y-161421416D02*
X67043343Y-163302067D01*
X71356978Y-162614640D02*
X67187962Y-164558684D01*
X71085330Y-161913778D02*
X66916314Y-163857822D01*
X71195502Y-157062710D02*
X67026486Y-159006754D01*
X71535918Y-160158936D02*
X67774741Y-161912802D01*
X72101078Y-159123034D02*
X67977377Y-161045947D01*
X71130889Y-161065000D02*
X67143135Y-162924521D01*
X70374206Y-156011296D02*
X66794290Y-157680638D01*
X71673942Y-163294371D02*
X67504926Y-165238415D01*
X71547156Y-163022479D02*
X67378140Y-164966523D01*
X70769830Y-156268164D02*
X66691445Y-158169946D01*
X71945346Y-164822880D02*
X68501376Y-166428829D01*
X71449073Y-157606495D02*
X67280057Y-159550539D01*
X69298732Y-166719043D02*
X71655132Y-165620236D01*
X70063105Y-155935689D02*
X66845713Y-157435983D01*
X71230193Y-162342748D02*
X67106492Y-164265661D01*
X71737334Y-163430317D02*
X67568319Y-165374361D01*
X71610549Y-163158425D02*
X67441533Y-165102469D01*
X71316243Y-162468128D02*
X72150914Y-164258086D01*
X71385680Y-157470549D02*
X67216664Y-159414593D01*
X71829429Y-158422172D02*
X67660414Y-160366216D01*
X71800727Y-163566263D02*
X67631711Y-165510307D01*
X66729127Y-158428220D02*
X67817369Y-160761962D01*
X72117691Y-164245994D02*
X67948675Y-166190038D01*
X71952917Y-159633473D02*
X67965163Y-161492993D01*
X71769425Y-159898004D02*
G75*
G03*
X71316243Y-162468128I1608670J-1608668D01*
G01*
X67249034Y-162323451D02*
G75*
G03*
X67817369Y-160761962I-496580J1064913D01*
G01*
X70943458Y-156463045D02*
G75*
G03*
X69614532Y-155979355I-906308J-422618D01*
G01*
X71769425Y-159898004D02*
G75*
G03*
X72041590Y-158820858I-584268J720586D01*
G01*
X67212816Y-157099293D02*
G75*
G03*
X66729127Y-158428220I422618J-906308D01*
G01*
%TO.C,SW0:9*%
X47597316Y-167264430D02*
X45695534Y-163186045D01*
X37146437Y-165793332D02*
X37642219Y-164431183D01*
X37146437Y-165793332D02*
X38245244Y-168149732D01*
X44232007Y-168447517D02*
X42372487Y-164459763D01*
X40299217Y-168295327D02*
X38355173Y-164126311D01*
X46802770Y-167690102D02*
X44858726Y-163521086D01*
X39755432Y-168548898D02*
X37811388Y-164379882D01*
X45715200Y-168197244D02*
X43771156Y-164028228D01*
X47074662Y-167563317D02*
X45130618Y-163394301D01*
X45987093Y-168070458D02*
X44043049Y-163901443D01*
X40163271Y-168358720D02*
X38219227Y-164189704D01*
X46258985Y-167943673D02*
X44314941Y-163774657D01*
X39241939Y-168512499D02*
X37509204Y-164796637D01*
X47854184Y-166868806D02*
X46184842Y-163288890D01*
X47346554Y-167436531D02*
X45402510Y-163267515D01*
X47902553Y-166735913D02*
X46317735Y-163337259D01*
X42108779Y-167561852D02*
X40185866Y-163438152D01*
X46530877Y-167816887D02*
X44586833Y-163647872D01*
X44035722Y-168263202D02*
X42260725Y-164456709D01*
X42800480Y-167625489D02*
X40940959Y-163637735D01*
X39619486Y-168612291D02*
X37675442Y-164443275D01*
X42978688Y-167652727D02*
X41119167Y-163664973D01*
X44564238Y-168568440D02*
X42641325Y-164444739D01*
X45579254Y-168260637D02*
X43635210Y-164091621D01*
X43706544Y-168030518D02*
X41952678Y-164269341D01*
X47712131Y-167155722D02*
X45852611Y-163167968D01*
X44899523Y-168577600D02*
X42955479Y-164408585D01*
X38843261Y-168367393D02*
X37364097Y-165195315D01*
X47402435Y-167438058D02*
X45046035Y-168536865D01*
X40027324Y-168422113D02*
X38083280Y-164253097D01*
X41114894Y-167914971D02*
X39170850Y-163745955D01*
X43881698Y-168169518D02*
X42127832Y-164408340D01*
X40435163Y-168231934D02*
X38491119Y-164062919D01*
X45851147Y-168133851D02*
X43907103Y-163964835D01*
X38444583Y-168222286D02*
X37218990Y-165593993D01*
X45307362Y-168387422D02*
X43363318Y-164218406D01*
X46123039Y-168007066D02*
X44178995Y-163838050D01*
X41397352Y-167810843D02*
X39607394Y-168645514D01*
X47805815Y-167001699D02*
X46030819Y-163195206D01*
X39953304Y-163353506D02*
X41542030Y-163743633D01*
X45171416Y-168450815D02*
X43248503Y-164327114D01*
X38245244Y-168149732D02*
X39607394Y-168645514D01*
X42622272Y-167598251D02*
X40741621Y-163565181D01*
X44386030Y-168541202D02*
X42484248Y-164462817D01*
X38622791Y-168249524D02*
X37291544Y-165394654D01*
X39420147Y-168539737D02*
X37581758Y-164597299D01*
X40571109Y-168168542D02*
X38627065Y-163999526D01*
X41250840Y-167851578D02*
X39306796Y-163682562D01*
X41815756Y-167643322D02*
X39850581Y-163428991D01*
X46766186Y-163707416D02*
X47886125Y-166109132D01*
X40978948Y-167978363D02*
X39034904Y-163809348D01*
X39953304Y-163353506D02*
X37642219Y-164431183D01*
X42444064Y-167571013D02*
X40563413Y-163537943D01*
X46394931Y-167880280D02*
X44450887Y-163711264D01*
X39891378Y-168485505D02*
X37947334Y-164316490D01*
X41951702Y-167579930D02*
X40007658Y-163410914D01*
X45035470Y-168514208D02*
X43091426Y-164345192D01*
X45437260Y-163223727D02*
X43103518Y-164311969D01*
X43377366Y-167797834D02*
X41496714Y-163764764D01*
X46938716Y-167626709D02*
X44994672Y-163457693D01*
X47482501Y-167373138D02*
X45559588Y-163249438D01*
X44742446Y-168595678D02*
X42819533Y-164471977D01*
X40707055Y-168105149D02*
X38763011Y-163936133D01*
X43178027Y-167725281D02*
X41297375Y-163692211D01*
X39042600Y-168439946D02*
X37436651Y-164995976D01*
X41522732Y-167724793D02*
X39599819Y-163601092D01*
X45443308Y-168324029D02*
X43499264Y-164155014D01*
X47929791Y-166557705D02*
X46429497Y-163340313D01*
X41386786Y-167788185D02*
X39442742Y-163619169D01*
X40843001Y-168041756D02*
X38898957Y-163872740D01*
X43552520Y-167936834D02*
X41798654Y-164175656D01*
X42286987Y-167589090D02*
X40364074Y-163465390D01*
X46666824Y-167753495D02*
X44722780Y-163584479D01*
X47210608Y-167499924D02*
X45266564Y-163330908D01*
X41679809Y-167706715D02*
X39714634Y-163492384D01*
X41542029Y-163743634D02*
G75*
G03*
X43103518Y-164311969I1064913J496580D01*
G01*
X47402435Y-167438058D02*
G75*
G03*
X47886125Y-166109132I-422618J906308D01*
G01*
X43967476Y-168264025D02*
G75*
G03*
X41397352Y-167810843I-1608668J-1608670D01*
G01*
X43967476Y-168264025D02*
G75*
G03*
X45044622Y-168536190I720586J584268D01*
G01*
X46766187Y-163707416D02*
G75*
G03*
X45437260Y-163223727I-906308J-422618D01*
G01*
%TO.C,SW0:7*%
X32249957Y-151030947D02*
X30305913Y-146861931D01*
X30195984Y-150885352D02*
X31558134Y-151381134D01*
X39853293Y-149471533D02*
X38268475Y-146072879D01*
X33337526Y-150523805D02*
X31393482Y-146354789D01*
X39880531Y-149293325D02*
X38380237Y-146075933D01*
X35657284Y-150766138D02*
X33903418Y-147004961D01*
X37801887Y-150869471D02*
X35857843Y-146700455D01*
X39025402Y-150298937D02*
X37081358Y-146129921D01*
X32929688Y-150713983D02*
X30985644Y-146544968D01*
X37937833Y-150806078D02*
X35993789Y-146637063D01*
X36850263Y-151313220D02*
X34906219Y-147144205D01*
X35503260Y-150672454D02*
X33749394Y-146911276D01*
X35986462Y-150998822D02*
X34211465Y-147192329D01*
X31370887Y-151275357D02*
X29532498Y-147332919D01*
X39297294Y-150172151D02*
X37353250Y-146003135D01*
X37122156Y-151186435D02*
X35199243Y-147062734D01*
X34394804Y-150306633D02*
X32514153Y-146273563D01*
X30794001Y-151103013D02*
X29314837Y-147930935D01*
X39353175Y-150173678D02*
X36996775Y-151272485D01*
X31978064Y-151157733D02*
X30034020Y-146988717D01*
X37258102Y-151123042D02*
X35314058Y-146954026D01*
X33473472Y-150460413D02*
X31550559Y-146336712D01*
X38073779Y-150742686D02*
X36129735Y-146573670D01*
X33630549Y-150442335D02*
X31665374Y-146228004D01*
X33348092Y-150546463D02*
X31558134Y-151381134D01*
X38345671Y-150615900D02*
X36401627Y-146446884D01*
X38209725Y-150679293D02*
X36265681Y-146510277D01*
X34237727Y-150324710D02*
X32314814Y-146201010D01*
X36693186Y-151331298D02*
X34770273Y-147207597D01*
X30573531Y-150985144D02*
X29242284Y-148130274D01*
X38617564Y-150489115D02*
X36673520Y-146320099D01*
X38716926Y-146443036D02*
X39836865Y-148844752D01*
X31842118Y-151221125D02*
X29898074Y-147052110D01*
X30395323Y-150957906D02*
X29169730Y-148329613D01*
X34929428Y-150388347D02*
X33069907Y-146400593D01*
X36336770Y-151276822D02*
X34434988Y-147198437D01*
X31904044Y-146089126D02*
X33492770Y-146479253D01*
X36514978Y-151304060D02*
X34592065Y-147180359D01*
X30993340Y-151175566D02*
X29387391Y-147731596D01*
X31706172Y-151284518D02*
X29762128Y-147115502D01*
X32793741Y-150777376D02*
X30849697Y-146608360D01*
X38753510Y-150425722D02*
X36809466Y-146256706D01*
X37665940Y-150932864D02*
X35721896Y-146763848D01*
X39756555Y-149737319D02*
X37981559Y-145930826D01*
X29097177Y-148528952D02*
X29592959Y-147166803D01*
X33201580Y-150587198D02*
X31257536Y-146418182D01*
X39161348Y-150235544D02*
X37217304Y-146066528D01*
X32657795Y-150840769D02*
X30713751Y-146671753D01*
X35328106Y-150533454D02*
X33447454Y-146500384D01*
X39662871Y-149891342D02*
X37803351Y-145903588D01*
X34059519Y-150297472D02*
X32136606Y-146173772D01*
X39548056Y-150000050D02*
X37646274Y-145921665D01*
X31192679Y-151248119D02*
X29459944Y-147532257D01*
X37394048Y-151059649D02*
X35450004Y-146890634D01*
X32114011Y-151094340D02*
X30169967Y-146925324D01*
X33766496Y-150378942D02*
X31801321Y-146164611D01*
X38889456Y-150362329D02*
X36945412Y-146193313D01*
X31904044Y-146089126D02*
X29592959Y-147166803D01*
X31570226Y-151347911D02*
X29626182Y-147178895D01*
X35832438Y-150905138D02*
X34078572Y-147143960D01*
X39433241Y-150108758D02*
X37510328Y-145985058D01*
X32521849Y-150904162D02*
X30577805Y-146735146D01*
X33065634Y-150650591D02*
X31121590Y-146481575D01*
X35128767Y-150460901D02*
X33248115Y-146427831D01*
X33902442Y-150315550D02*
X31958398Y-146146534D01*
X38481617Y-150552507D02*
X36537573Y-146383492D01*
X37388000Y-145959347D02*
X35054258Y-147047589D01*
X36986210Y-151249828D02*
X35042166Y-147080812D01*
X39804924Y-149604426D02*
X38135582Y-146024510D01*
X37529994Y-150996257D02*
X35585950Y-146827241D01*
X34573012Y-150333871D02*
X32692361Y-146300801D01*
X32385903Y-150967554D02*
X30441859Y-146798539D01*
X34751220Y-150361109D02*
X32891699Y-146373355D01*
X29097177Y-148528952D02*
X30195984Y-150885352D01*
X36182747Y-151183137D02*
X34323227Y-147195383D01*
X38716927Y-146443036D02*
G75*
G03*
X37388000Y-145959347I-906308J-422618D01*
G01*
X35918216Y-150999645D02*
G75*
G03*
X33348092Y-150546463I-1608668J-1608670D01*
G01*
X39353175Y-150173678D02*
G75*
G03*
X39836865Y-148844752I-422618J906308D01*
G01*
X33492769Y-146479254D02*
G75*
G03*
X35054258Y-147047589I1064913J496580D01*
G01*
X35918216Y-150999645D02*
G75*
G03*
X36995362Y-151271810I720586J584268D01*
G01*
%TO.C,SW1:11*%
X146290000Y-147227660D02*
X146290000Y-143077660D01*
X143090000Y-146027660D02*
X143090000Y-141427660D01*
X147440000Y-148227660D02*
X147440000Y-143677660D01*
X142940000Y-146027660D02*
X142940000Y-141427660D01*
X147140000Y-148227660D02*
X147140000Y-143627660D01*
X142790000Y-146027660D02*
X142790000Y-141427660D01*
X148790000Y-148227660D02*
X148790000Y-143627660D01*
X149890000Y-148252660D02*
X147290000Y-148252660D01*
X141740000Y-145477660D02*
X141740000Y-141977660D01*
X147590000Y-148227660D02*
X147590000Y-143627660D01*
X142190000Y-145877660D02*
X142190000Y-141527660D01*
X148640000Y-148227660D02*
X148640000Y-143627660D01*
X148040000Y-148227660D02*
X148040000Y-143627660D01*
X141290000Y-142427660D02*
X141290000Y-145027660D01*
X146840000Y-148077660D02*
X146840000Y-143527660D01*
X144140000Y-146027660D02*
X144140000Y-141427660D01*
X149390000Y-148227660D02*
X149390000Y-143627660D01*
X144865000Y-141402660D02*
X142315000Y-141402660D01*
X150540000Y-147927660D02*
X150540000Y-143977660D01*
X150740000Y-147677660D02*
X150740000Y-144127660D01*
X148490000Y-148227660D02*
X148490000Y-143627660D01*
X144590000Y-146077660D02*
X144590000Y-141427660D01*
X144865000Y-141402660D02*
X146140000Y-142427660D01*
X145490000Y-146377660D02*
X145490000Y-141927660D01*
X145340000Y-146277660D02*
X145340000Y-141827660D01*
X145190000Y-146227660D02*
X145190000Y-141677660D01*
X149240000Y-148227660D02*
X149240000Y-143627660D01*
X149690000Y-148227660D02*
X149690000Y-143627660D01*
X143990000Y-146027660D02*
X143990000Y-141427660D01*
X142340000Y-146027660D02*
X142340000Y-141427660D01*
X150290000Y-148127660D02*
X150290000Y-143727660D01*
X143540000Y-146027660D02*
X143540000Y-141427660D01*
X149990000Y-148227660D02*
X149990000Y-143677660D01*
X141590000Y-145277660D02*
X141590000Y-142127660D01*
X148340000Y-148227660D02*
X148340000Y-143627660D01*
X144440000Y-146027660D02*
X144440000Y-141477660D01*
X149890000Y-143602660D02*
X147315000Y-143602660D01*
X150440000Y-148027660D02*
X150440000Y-143827660D01*
X146390000Y-147427660D02*
X146390000Y-143277660D01*
X149090000Y-148227660D02*
X149090000Y-143627660D01*
X144890000Y-146077660D02*
X144890000Y-141477660D01*
X145790000Y-146577660D02*
X145790000Y-142177660D01*
X150140000Y-148177660D02*
X150140000Y-143677660D01*
X146590000Y-147827660D02*
X146590000Y-143427660D01*
X148190000Y-148227660D02*
X148190000Y-143627660D01*
X143840000Y-146027660D02*
X143840000Y-141427660D01*
X146990000Y-148177660D02*
X146990000Y-143627660D01*
X146090000Y-146877660D02*
X146090000Y-142427660D01*
X141440000Y-145177660D02*
X141440000Y-142277660D01*
X143390000Y-146027660D02*
X143390000Y-141427660D01*
X146490000Y-147577660D02*
X146490000Y-143377660D01*
X145940000Y-146727660D02*
X145940000Y-142277660D01*
X149840000Y-148227660D02*
X149840000Y-143627660D01*
X143240000Y-146027660D02*
X143240000Y-141427660D01*
X150640000Y-147827660D02*
X150640000Y-144077660D01*
X147740000Y-148227660D02*
X147740000Y-143627660D01*
X141290000Y-145027660D02*
X142315000Y-146052660D01*
X147890000Y-148227660D02*
X147890000Y-143627660D01*
X143690000Y-146027660D02*
X143690000Y-141427660D01*
X147290000Y-148227660D02*
X147290000Y-143627660D01*
X146690000Y-147977660D02*
X146690000Y-143477660D01*
X145040000Y-146127660D02*
X145040000Y-141577660D01*
X148940000Y-148227660D02*
X148940000Y-143627660D01*
X149540000Y-148227660D02*
X149540000Y-143627660D01*
X142640000Y-146027660D02*
X142640000Y-141427660D01*
X142490000Y-146027660D02*
X142490000Y-141427660D01*
X146190000Y-147077660D02*
X146190000Y-142927660D01*
X144290000Y-146027660D02*
X144290000Y-141427660D01*
X144290000Y-146052660D02*
X142315000Y-146052660D01*
X145640000Y-146477660D02*
X145640000Y-142077660D01*
X144740000Y-146077660D02*
X144740000Y-141427660D01*
X150890000Y-144602660D02*
X150890000Y-147252660D01*
X141290000Y-142427660D02*
X142315000Y-141402660D01*
X141890000Y-145627660D02*
X141890000Y-141827660D01*
X142040000Y-145777660D02*
X142040000Y-141677660D01*
X150890000Y-144602660D02*
G75*
G03*
X149890000Y-143602660I-1000000J0D01*
G01*
X149890000Y-148252660D02*
G75*
G03*
X150890000Y-147252660I0J1000000D01*
G01*
X146427801Y-147549564D02*
G75*
G03*
X147289005Y-148251451I899995J224994D01*
G01*
X146140000Y-142427660D02*
G75*
G03*
X147315000Y-143602660I1175002J2D01*
G01*
X146427801Y-147549564D02*
G75*
G03*
X144290000Y-146052660I-2137802J-778098D01*
G01*
%TO.C,SW0:8*%
X53779358Y-143254800D02*
X51856445Y-139131099D01*
X55338159Y-142693426D02*
X53394115Y-138524410D01*
X51030876Y-142329682D02*
X49065701Y-138115351D01*
X55981306Y-138393776D02*
X57101245Y-140795492D01*
X57069304Y-141555166D02*
X55399962Y-137975250D01*
X53096818Y-142855878D02*
X51342952Y-139094700D01*
X49650283Y-142918294D02*
X47706239Y-138749279D01*
X50330014Y-142601331D02*
X48385970Y-138432315D01*
X55745997Y-142503247D02*
X53801953Y-138334232D01*
X52592486Y-142484194D02*
X50711834Y-138451124D01*
X56561674Y-142122891D02*
X54617630Y-137953875D01*
X56927251Y-141842082D02*
X55067731Y-137854328D01*
X56153836Y-142313069D02*
X54209792Y-138144053D01*
X51659184Y-142257373D02*
X49778533Y-138224303D01*
X49168424Y-138039866D02*
X50757150Y-138429993D01*
X54930320Y-142883604D02*
X52986276Y-138714588D01*
X56697621Y-142059498D02*
X54774708Y-137935798D01*
X52921664Y-142716878D02*
X51167798Y-138955701D01*
X49922175Y-142791509D02*
X47978131Y-138622493D01*
X53601150Y-143227562D02*
X51699368Y-139149177D01*
X54250590Y-143200568D02*
X52306546Y-139031552D01*
X49168424Y-138039866D02*
X46857339Y-139117543D01*
X56617555Y-142124418D02*
X54261155Y-143223225D01*
X54794374Y-142946997D02*
X52850330Y-138777981D01*
X50612472Y-142497203D02*
X48822514Y-143331874D01*
X53250842Y-142949562D02*
X51475845Y-139143069D01*
X51166822Y-142266290D02*
X49222778Y-138097274D01*
X57020935Y-141688059D02*
X55245939Y-137881566D01*
X54114643Y-143263960D02*
X52170599Y-139094945D01*
X52393147Y-142411641D02*
X50512495Y-138378571D01*
X50737852Y-142411153D02*
X48814939Y-138287452D01*
X50058121Y-142728116D02*
X48114077Y-138559100D01*
X47659703Y-142908646D02*
X46434110Y-140280353D01*
X57144911Y-141244065D02*
X55644617Y-138026673D01*
X52193808Y-142339087D02*
X50334287Y-138351333D01*
X52015600Y-142311849D02*
X50156079Y-138324095D01*
X51502107Y-142275450D02*
X49579194Y-138151750D01*
X50465960Y-142537938D02*
X48521916Y-138368922D01*
X49514337Y-142981687D02*
X47570293Y-138812671D01*
X48457059Y-143198859D02*
X46724324Y-139482997D01*
X55474105Y-142630033D02*
X53530061Y-138461017D01*
X57117673Y-141422273D02*
X55532855Y-138023619D01*
X56425728Y-142186284D02*
X54481684Y-138017268D01*
X48257720Y-143126306D02*
X46651771Y-139682336D01*
X49242444Y-143108473D02*
X47298400Y-138939457D01*
X49106498Y-143171865D02*
X47162454Y-139002850D01*
X50194068Y-142664723D02*
X48250024Y-138495708D01*
X50894929Y-142393075D02*
X48929754Y-138178744D01*
X47837911Y-142935884D02*
X46506664Y-140081014D01*
X53447127Y-143133877D02*
X51587607Y-139146123D01*
X53957566Y-143282038D02*
X52034653Y-139158337D01*
X47460364Y-142836092D02*
X48822514Y-143331874D01*
X54658428Y-143010389D02*
X52714384Y-138841374D01*
X46361557Y-140479692D02*
X47460364Y-142836092D01*
X52767640Y-142623194D02*
X51013774Y-138862016D01*
X55066267Y-142820211D02*
X53122223Y-138651195D01*
X48970552Y-143235258D02*
X47026508Y-139066242D01*
X51837392Y-142284611D02*
X49956741Y-138251541D01*
X50601906Y-142474545D02*
X48657862Y-138305529D01*
X48834606Y-143298651D02*
X46890562Y-139129635D01*
X46361557Y-140479692D02*
X46857339Y-139117543D01*
X54386536Y-143137175D02*
X52463623Y-139013474D01*
X48635267Y-143226097D02*
X46796878Y-139283659D01*
X51323899Y-142248212D02*
X49400986Y-138124512D01*
X55610051Y-142566640D02*
X53666007Y-138397624D01*
X56017890Y-142376462D02*
X54073846Y-138207446D01*
X54522482Y-143073782D02*
X52578438Y-138904766D01*
X55202213Y-142756818D02*
X53258169Y-138587803D01*
X49786229Y-142854902D02*
X47842185Y-138685886D01*
X48058381Y-143053753D02*
X46579217Y-139881675D01*
X49378391Y-143045080D02*
X47434347Y-138876064D01*
X56812436Y-141950790D02*
X54910654Y-137872405D01*
X56289782Y-142249677D02*
X54345738Y-138080661D01*
X55881944Y-142439855D02*
X53937900Y-138270839D01*
X54652380Y-137910087D02*
X52318638Y-138998329D01*
X53182596Y-142950385D02*
G75*
G03*
X50612472Y-142497203I-1608668J-1608670D01*
G01*
X50757149Y-138429994D02*
G75*
G03*
X52318638Y-138998329I1064913J496580D01*
G01*
X55981307Y-138393776D02*
G75*
G03*
X54652380Y-137910087I-906308J-422618D01*
G01*
X53182596Y-142950385D02*
G75*
G03*
X54259742Y-143222550I720586J584268D01*
G01*
X56617555Y-142124418D02*
G75*
G03*
X57101245Y-140795492I-422618J906308D01*
G01*
%TO.C,SW5:13*%
X190302500Y-75205200D02*
X190302500Y-70655200D01*
X187602500Y-73055200D02*
X187602500Y-68405200D01*
X192102500Y-75205200D02*
X192102500Y-70605200D01*
X191352500Y-75205200D02*
X191352500Y-70605200D01*
X185652500Y-73005200D02*
X185652500Y-68405200D01*
X188502500Y-73455200D02*
X188502500Y-69055200D01*
X187152500Y-73030200D02*
X185177500Y-73030200D01*
X185952500Y-73005200D02*
X185952500Y-68405200D01*
X189052500Y-74055200D02*
X189052500Y-69905200D01*
X186402500Y-73005200D02*
X186402500Y-68405200D01*
X193752500Y-71580200D02*
X193752500Y-74230200D01*
X188352500Y-73355200D02*
X188352500Y-68905200D01*
X191052500Y-75205200D02*
X191052500Y-70605200D01*
X189452500Y-74805200D02*
X189452500Y-70405200D01*
X191952500Y-75205200D02*
X191952500Y-70605200D01*
X185052500Y-72855200D02*
X185052500Y-68505200D01*
X186252500Y-73005200D02*
X186252500Y-68405200D01*
X187002500Y-73005200D02*
X187002500Y-68405200D01*
X185352500Y-73005200D02*
X185352500Y-68405200D01*
X187727500Y-68380200D02*
X185177500Y-68380200D01*
X185502500Y-73005200D02*
X185502500Y-68405200D01*
X193302500Y-75005200D02*
X193302500Y-70805200D01*
X188652500Y-73555200D02*
X188652500Y-69155200D01*
X184602500Y-72455200D02*
X184602500Y-68955200D01*
X189852500Y-75155200D02*
X189852500Y-70605200D01*
X185202500Y-73005200D02*
X185202500Y-68405200D01*
X184152500Y-69405200D02*
X184152500Y-72005200D01*
X186102500Y-73005200D02*
X186102500Y-68405200D01*
X190152500Y-75205200D02*
X190152500Y-70605200D01*
X188052500Y-73205200D02*
X188052500Y-68655200D01*
X184452500Y-72255200D02*
X184452500Y-69105200D01*
X193002500Y-75155200D02*
X193002500Y-70655200D01*
X190752500Y-75205200D02*
X190752500Y-70605200D01*
X184302500Y-72155200D02*
X184302500Y-69255200D01*
X193402500Y-74905200D02*
X193402500Y-70955200D01*
X189552500Y-74955200D02*
X189552500Y-70455200D01*
X192402500Y-75205200D02*
X192402500Y-70605200D01*
X189152500Y-74205200D02*
X189152500Y-70055200D01*
X190902500Y-75205200D02*
X190902500Y-70605200D01*
X193152500Y-75105200D02*
X193152500Y-70705200D01*
X191802500Y-75205200D02*
X191802500Y-70605200D01*
X189702500Y-75055200D02*
X189702500Y-70505200D01*
X184152500Y-69405200D02*
X185177500Y-68380200D01*
X188952500Y-73855200D02*
X188952500Y-69405200D01*
X193602500Y-74655200D02*
X193602500Y-71105200D01*
X185802500Y-73005200D02*
X185802500Y-68405200D01*
X191652500Y-75205200D02*
X191652500Y-70605200D01*
X192552500Y-75205200D02*
X192552500Y-70605200D01*
X186552500Y-73005200D02*
X186552500Y-68405200D01*
X184152500Y-72005200D02*
X185177500Y-73030200D01*
X188802500Y-73705200D02*
X188802500Y-69255200D01*
X184902500Y-72755200D02*
X184902500Y-68655200D01*
X189252500Y-74405200D02*
X189252500Y-70255200D01*
X191202500Y-75205200D02*
X191202500Y-70605200D01*
X186702500Y-73005200D02*
X186702500Y-68405200D01*
X191502500Y-75205200D02*
X191502500Y-70605200D01*
X192252500Y-75205200D02*
X192252500Y-70605200D01*
X187302500Y-73005200D02*
X187302500Y-68455200D01*
X186852500Y-73005200D02*
X186852500Y-68405200D01*
X190602500Y-75205200D02*
X190602500Y-70605200D01*
X188202500Y-73255200D02*
X188202500Y-68805200D01*
X192702500Y-75205200D02*
X192702500Y-70605200D01*
X190002500Y-75205200D02*
X190002500Y-70605200D01*
X187752500Y-73055200D02*
X187752500Y-68455200D01*
X184752500Y-72605200D02*
X184752500Y-68805200D01*
X189352500Y-74555200D02*
X189352500Y-70355200D01*
X187902500Y-73105200D02*
X187902500Y-68555200D01*
X192752500Y-70580200D02*
X190177500Y-70580200D01*
X192852500Y-75205200D02*
X192852500Y-70655200D01*
X187727500Y-68380200D02*
X189002500Y-69405200D01*
X187452500Y-73055200D02*
X187452500Y-68405200D01*
X192752500Y-75230200D02*
X190152500Y-75230200D01*
X193502500Y-74805200D02*
X193502500Y-71055200D01*
X190452500Y-75205200D02*
X190452500Y-70605200D01*
X187152500Y-73005200D02*
X187152500Y-68405200D01*
X193752500Y-71580200D02*
G75*
G03*
X192752500Y-70580200I-1000000J0D01*
G01*
X192752500Y-75230200D02*
G75*
G03*
X193752500Y-74230200I0J1000000D01*
G01*
X189290301Y-74527104D02*
G75*
G03*
X187152500Y-73030200I-2137802J-778098D01*
G01*
X189002500Y-69405200D02*
G75*
G03*
X190177500Y-70580200I1175002J2D01*
G01*
X189290301Y-74527104D02*
G75*
G03*
X190151505Y-75228991I899995J224994D01*
G01*
%TO.C,SW5:9*%
X105290000Y-69827660D02*
X105290000Y-65227660D01*
X103940000Y-69577660D02*
X103940000Y-65477660D01*
X109490000Y-72027660D02*
X109490000Y-67427660D01*
X112440000Y-71727660D02*
X112440000Y-67777660D01*
X105440000Y-69827660D02*
X105440000Y-65227660D01*
X108490000Y-71627660D02*
X108490000Y-67227660D01*
X111140000Y-72027660D02*
X111140000Y-67427660D01*
X109190000Y-72027660D02*
X109190000Y-67427660D01*
X106765000Y-65202660D02*
X104215000Y-65202660D01*
X103340000Y-68977660D02*
X103340000Y-66077660D01*
X111890000Y-72027660D02*
X111890000Y-67477660D01*
X112040000Y-71977660D02*
X112040000Y-67477660D01*
X105590000Y-69827660D02*
X105590000Y-65227660D01*
X104990000Y-69827660D02*
X104990000Y-65227660D01*
X105890000Y-69827660D02*
X105890000Y-65227660D01*
X112640000Y-71477660D02*
X112640000Y-67927660D01*
X109640000Y-72027660D02*
X109640000Y-67427660D01*
X108740000Y-71877660D02*
X108740000Y-67327660D01*
X106340000Y-69827660D02*
X106340000Y-65277660D01*
X109940000Y-72027660D02*
X109940000Y-67427660D01*
X103490000Y-69077660D02*
X103490000Y-65927660D01*
X108390000Y-71377660D02*
X108390000Y-67177660D01*
X112540000Y-71627660D02*
X112540000Y-67877660D01*
X104090000Y-69677660D02*
X104090000Y-65327660D01*
X109040000Y-72027660D02*
X109040000Y-67427660D01*
X110990000Y-72027660D02*
X110990000Y-67427660D01*
X103190000Y-68827660D02*
X104215000Y-69852660D01*
X103190000Y-66227660D02*
X104215000Y-65202660D01*
X106190000Y-69827660D02*
X106190000Y-65227660D01*
X107390000Y-70177660D02*
X107390000Y-65727660D01*
X110390000Y-72027660D02*
X110390000Y-67427660D01*
X104540000Y-69827660D02*
X104540000Y-65227660D01*
X110090000Y-72027660D02*
X110090000Y-67427660D01*
X107540000Y-70277660D02*
X107540000Y-65877660D01*
X106040000Y-69827660D02*
X106040000Y-65227660D01*
X110690000Y-72027660D02*
X110690000Y-67427660D01*
X106940000Y-69927660D02*
X106940000Y-65377660D01*
X107990000Y-70677660D02*
X107990000Y-66227660D01*
X110840000Y-72027660D02*
X110840000Y-67427660D01*
X104390000Y-69827660D02*
X104390000Y-65227660D01*
X106790000Y-69877660D02*
X106790000Y-65277660D01*
X108090000Y-70877660D02*
X108090000Y-66727660D01*
X112340000Y-71827660D02*
X112340000Y-67627660D01*
X103640000Y-69277660D02*
X103640000Y-65777660D01*
X104690000Y-69827660D02*
X104690000Y-65227660D01*
X108290000Y-71227660D02*
X108290000Y-67077660D01*
X107840000Y-70527660D02*
X107840000Y-66077660D01*
X111790000Y-67402660D02*
X109215000Y-67402660D01*
X103190000Y-66227660D02*
X103190000Y-68827660D01*
X103790000Y-69427660D02*
X103790000Y-65627660D01*
X109790000Y-72027660D02*
X109790000Y-67427660D01*
X106640000Y-69877660D02*
X106640000Y-65227660D01*
X109340000Y-72027660D02*
X109340000Y-67477660D01*
X110540000Y-72027660D02*
X110540000Y-67427660D01*
X111440000Y-72027660D02*
X111440000Y-67427660D01*
X108190000Y-71027660D02*
X108190000Y-66877660D01*
X106765000Y-65202660D02*
X108040000Y-66227660D01*
X107690000Y-70377660D02*
X107690000Y-65977660D01*
X111790000Y-72052660D02*
X109190000Y-72052660D01*
X105140000Y-69827660D02*
X105140000Y-65227660D01*
X107240000Y-70077660D02*
X107240000Y-65627660D01*
X107090000Y-70027660D02*
X107090000Y-65477660D01*
X104240000Y-69827660D02*
X104240000Y-65227660D01*
X112790000Y-68402660D02*
X112790000Y-71052660D01*
X111740000Y-72027660D02*
X111740000Y-67427660D01*
X106190000Y-69852660D02*
X104215000Y-69852660D01*
X112190000Y-71927660D02*
X112190000Y-67527660D01*
X110240000Y-72027660D02*
X110240000Y-67427660D01*
X111590000Y-72027660D02*
X111590000Y-67427660D01*
X106490000Y-69877660D02*
X106490000Y-65227660D01*
X104840000Y-69827660D02*
X104840000Y-65227660D01*
X108890000Y-71977660D02*
X108890000Y-67427660D01*
X108590000Y-71777660D02*
X108590000Y-67277660D01*
X105740000Y-69827660D02*
X105740000Y-65227660D01*
X111290000Y-72027660D02*
X111290000Y-67427660D01*
X108327801Y-71349564D02*
G75*
G03*
X109189005Y-72051451I899995J224994D01*
G01*
X112790000Y-68402660D02*
G75*
G03*
X111790000Y-67402660I-1000000J0D01*
G01*
X111790000Y-72052660D02*
G75*
G03*
X112790000Y-71052660I0J1000000D01*
G01*
X108040000Y-66227660D02*
G75*
G03*
X109215000Y-67402660I1175002J2D01*
G01*
X108327801Y-71349564D02*
G75*
G03*
X106190000Y-69852660I-2137802J-778098D01*
G01*
%TO.C,SW5:10*%
X131840000Y-66805000D02*
X131840000Y-69455000D01*
X128690000Y-70430000D02*
X128690000Y-65830000D01*
X122240000Y-64630000D02*
X122240000Y-67230000D01*
X126890000Y-68930000D02*
X126890000Y-64480000D01*
X129590000Y-70430000D02*
X129590000Y-65830000D01*
X129290000Y-70430000D02*
X129290000Y-65830000D01*
X130340000Y-70430000D02*
X130340000Y-65830000D01*
X123590000Y-68230000D02*
X123590000Y-63630000D01*
X125240000Y-68255000D02*
X123265000Y-68255000D01*
X130790000Y-70430000D02*
X130790000Y-65830000D01*
X127540000Y-70030000D02*
X127540000Y-65630000D01*
X131090000Y-70380000D02*
X131090000Y-65880000D01*
X130940000Y-70430000D02*
X130940000Y-65880000D01*
X130190000Y-70430000D02*
X130190000Y-65830000D01*
X125540000Y-68280000D02*
X125540000Y-63630000D01*
X124790000Y-68230000D02*
X124790000Y-63630000D01*
X131490000Y-70130000D02*
X131490000Y-66180000D01*
X128090000Y-70430000D02*
X128090000Y-65830000D01*
X129140000Y-70430000D02*
X129140000Y-65830000D01*
X129890000Y-70430000D02*
X129890000Y-65830000D01*
X125240000Y-68230000D02*
X125240000Y-63630000D01*
X122240000Y-67230000D02*
X123265000Y-68255000D01*
X122690000Y-67680000D02*
X122690000Y-64180000D01*
X125815000Y-63605000D02*
X127090000Y-64630000D01*
X129740000Y-70430000D02*
X129740000Y-65830000D01*
X127140000Y-69280000D02*
X127140000Y-65130000D01*
X125090000Y-68230000D02*
X125090000Y-63630000D01*
X131690000Y-69880000D02*
X131690000Y-66330000D01*
X124490000Y-68230000D02*
X124490000Y-63630000D01*
X122390000Y-67380000D02*
X122390000Y-64480000D01*
X126740000Y-68780000D02*
X126740000Y-64380000D01*
X123140000Y-68080000D02*
X123140000Y-63730000D01*
X125840000Y-68280000D02*
X125840000Y-63680000D01*
X128840000Y-70430000D02*
X128840000Y-65830000D01*
X128240000Y-70430000D02*
X128240000Y-65830000D01*
X125990000Y-68330000D02*
X125990000Y-63780000D01*
X124640000Y-68230000D02*
X124640000Y-63630000D01*
X124940000Y-68230000D02*
X124940000Y-63630000D01*
X127940000Y-70380000D02*
X127940000Y-65830000D01*
X127440000Y-69780000D02*
X127440000Y-65580000D01*
X125815000Y-63605000D02*
X123265000Y-63605000D01*
X130840000Y-65805000D02*
X128265000Y-65805000D01*
X123740000Y-68230000D02*
X123740000Y-63630000D01*
X131590000Y-70030000D02*
X131590000Y-66280000D01*
X126290000Y-68480000D02*
X126290000Y-64030000D01*
X124340000Y-68230000D02*
X124340000Y-63630000D01*
X127790000Y-70280000D02*
X127790000Y-65730000D01*
X127240000Y-69430000D02*
X127240000Y-65280000D01*
X124190000Y-68230000D02*
X124190000Y-63630000D01*
X130640000Y-70430000D02*
X130640000Y-65830000D01*
X122540000Y-67480000D02*
X122540000Y-64330000D01*
X130040000Y-70430000D02*
X130040000Y-65830000D01*
X128990000Y-70430000D02*
X128990000Y-65830000D01*
X131390000Y-70230000D02*
X131390000Y-66030000D01*
X123890000Y-68230000D02*
X123890000Y-63630000D01*
X126140000Y-68430000D02*
X126140000Y-63880000D01*
X127640000Y-70180000D02*
X127640000Y-65680000D01*
X126590000Y-68680000D02*
X126590000Y-64280000D01*
X123290000Y-68230000D02*
X123290000Y-63630000D01*
X130840000Y-70455000D02*
X128240000Y-70455000D01*
X125390000Y-68230000D02*
X125390000Y-63680000D01*
X122240000Y-64630000D02*
X123265000Y-63605000D01*
X126440000Y-68580000D02*
X126440000Y-64130000D01*
X131240000Y-70330000D02*
X131240000Y-65930000D01*
X122840000Y-67830000D02*
X122840000Y-64030000D01*
X128390000Y-70430000D02*
X128390000Y-65880000D01*
X124040000Y-68230000D02*
X124040000Y-63630000D01*
X127340000Y-69630000D02*
X127340000Y-65480000D01*
X122990000Y-67980000D02*
X122990000Y-63880000D01*
X129440000Y-70430000D02*
X129440000Y-65830000D01*
X128540000Y-70430000D02*
X128540000Y-65830000D01*
X125690000Y-68280000D02*
X125690000Y-63630000D01*
X123440000Y-68230000D02*
X123440000Y-63630000D01*
X130490000Y-70430000D02*
X130490000Y-65830000D01*
X127040000Y-69080000D02*
X127040000Y-64630000D01*
X130840000Y-70455000D02*
G75*
G03*
X131840000Y-69455000I0J1000000D01*
G01*
X127377801Y-69751904D02*
G75*
G03*
X125240000Y-68255000I-2137802J-778098D01*
G01*
X131840000Y-66805000D02*
G75*
G03*
X130840000Y-65805000I-1000000J0D01*
G01*
X127090000Y-64630000D02*
G75*
G03*
X128265000Y-65805000I1175002J2D01*
G01*
X127377801Y-69751904D02*
G75*
G03*
X128239005Y-70453791I899995J224994D01*
G01*
%TO.C,SW5:11*%
X143540000Y-69827660D02*
X143540000Y-65227660D01*
X143990000Y-69827660D02*
X143990000Y-65227660D01*
X144740000Y-69877660D02*
X144740000Y-65227660D01*
X148340000Y-72027660D02*
X148340000Y-67427660D01*
X145790000Y-70377660D02*
X145790000Y-65977660D01*
X147740000Y-72027660D02*
X147740000Y-67427660D01*
X144290000Y-69827660D02*
X144290000Y-65227660D01*
X142640000Y-69827660D02*
X142640000Y-65227660D01*
X149390000Y-72027660D02*
X149390000Y-67427660D01*
X141590000Y-69077660D02*
X141590000Y-65927660D01*
X142340000Y-69827660D02*
X142340000Y-65227660D01*
X141290000Y-66227660D02*
X141290000Y-68827660D01*
X146690000Y-71777660D02*
X146690000Y-67277660D01*
X148190000Y-72027660D02*
X148190000Y-67427660D01*
X147440000Y-72027660D02*
X147440000Y-67477660D01*
X142790000Y-69827660D02*
X142790000Y-65227660D01*
X144865000Y-65202660D02*
X146140000Y-66227660D01*
X145340000Y-70077660D02*
X145340000Y-65627660D01*
X149240000Y-72027660D02*
X149240000Y-67427660D01*
X146190000Y-70877660D02*
X146190000Y-66727660D01*
X149890000Y-67402660D02*
X147315000Y-67402660D01*
X146390000Y-71227660D02*
X146390000Y-67077660D01*
X150140000Y-71977660D02*
X150140000Y-67477660D01*
X146840000Y-71877660D02*
X146840000Y-67327660D01*
X141740000Y-69277660D02*
X141740000Y-65777660D01*
X147290000Y-72027660D02*
X147290000Y-67427660D01*
X141890000Y-69427660D02*
X141890000Y-65627660D01*
X147590000Y-72027660D02*
X147590000Y-67427660D01*
X144440000Y-69827660D02*
X144440000Y-65277660D01*
X150740000Y-71477660D02*
X150740000Y-67927660D01*
X146090000Y-70677660D02*
X146090000Y-66227660D01*
X149090000Y-72027660D02*
X149090000Y-67427660D01*
X148040000Y-72027660D02*
X148040000Y-67427660D01*
X147890000Y-72027660D02*
X147890000Y-67427660D01*
X146990000Y-71977660D02*
X146990000Y-67427660D01*
X142490000Y-69827660D02*
X142490000Y-65227660D01*
X145190000Y-70027660D02*
X145190000Y-65477660D01*
X142040000Y-69577660D02*
X142040000Y-65477660D01*
X143690000Y-69827660D02*
X143690000Y-65227660D01*
X150640000Y-71627660D02*
X150640000Y-67877660D01*
X149890000Y-72052660D02*
X147290000Y-72052660D01*
X141440000Y-68977660D02*
X141440000Y-66077660D01*
X142190000Y-69677660D02*
X142190000Y-65327660D01*
X145940000Y-70527660D02*
X145940000Y-66077660D01*
X147140000Y-72027660D02*
X147140000Y-67427660D01*
X145040000Y-69927660D02*
X145040000Y-65377660D01*
X148490000Y-72027660D02*
X148490000Y-67427660D01*
X150890000Y-68402660D02*
X150890000Y-71052660D01*
X144890000Y-69877660D02*
X144890000Y-65277660D01*
X148940000Y-72027660D02*
X148940000Y-67427660D01*
X148790000Y-72027660D02*
X148790000Y-67427660D01*
X141290000Y-68827660D02*
X142315000Y-69852660D01*
X143090000Y-69827660D02*
X143090000Y-65227660D01*
X144140000Y-69827660D02*
X144140000Y-65227660D01*
X150440000Y-71827660D02*
X150440000Y-67627660D01*
X143240000Y-69827660D02*
X143240000Y-65227660D01*
X142940000Y-69827660D02*
X142940000Y-65227660D01*
X141290000Y-66227660D02*
X142315000Y-65202660D01*
X145490000Y-70177660D02*
X145490000Y-65727660D01*
X150540000Y-71727660D02*
X150540000Y-67777660D01*
X144590000Y-69877660D02*
X144590000Y-65227660D01*
X146490000Y-71377660D02*
X146490000Y-67177660D01*
X143840000Y-69827660D02*
X143840000Y-65227660D01*
X146290000Y-71027660D02*
X146290000Y-66877660D01*
X149840000Y-72027660D02*
X149840000Y-67427660D01*
X148640000Y-72027660D02*
X148640000Y-67427660D01*
X143390000Y-69827660D02*
X143390000Y-65227660D01*
X146590000Y-71627660D02*
X146590000Y-67227660D01*
X145640000Y-70277660D02*
X145640000Y-65877660D01*
X144865000Y-65202660D02*
X142315000Y-65202660D01*
X144290000Y-69852660D02*
X142315000Y-69852660D01*
X149990000Y-72027660D02*
X149990000Y-67477660D01*
X149690000Y-72027660D02*
X149690000Y-67427660D01*
X150290000Y-71927660D02*
X150290000Y-67527660D01*
X149540000Y-72027660D02*
X149540000Y-67427660D01*
X146427801Y-71349564D02*
G75*
G03*
X144290000Y-69852660I-2137802J-778098D01*
G01*
X149890000Y-72052660D02*
G75*
G03*
X150890000Y-71052660I0J1000000D01*
G01*
X146140000Y-66227660D02*
G75*
G03*
X147315000Y-67402660I1175002J2D01*
G01*
X150890000Y-68402660D02*
G75*
G03*
X149890000Y-67402660I-1000000J0D01*
G01*
X146427801Y-71349564D02*
G75*
G03*
X147289005Y-72051451I899995J224994D01*
G01*
%TO.C,SW5:12*%
X167840000Y-75205200D02*
X167840000Y-70605200D01*
X167690000Y-75205200D02*
X167690000Y-70605200D01*
X168590000Y-75205200D02*
X168590000Y-70605200D01*
X166190000Y-75205200D02*
X166190000Y-70605200D01*
X168890000Y-75205200D02*
X168890000Y-70605200D01*
X164840000Y-73555200D02*
X164840000Y-69155200D01*
X168290000Y-75205200D02*
X168290000Y-70605200D01*
X162290000Y-73005200D02*
X162290000Y-68405200D01*
X169340000Y-75105200D02*
X169340000Y-70705200D01*
X167390000Y-75205200D02*
X167390000Y-70605200D01*
X164390000Y-73255200D02*
X164390000Y-68805200D01*
X162740000Y-73005200D02*
X162740000Y-68405200D01*
X169190000Y-75155200D02*
X169190000Y-70655200D01*
X161390000Y-73005200D02*
X161390000Y-68405200D01*
X168740000Y-75205200D02*
X168740000Y-70605200D01*
X167240000Y-75205200D02*
X167240000Y-70605200D01*
X168140000Y-75205200D02*
X168140000Y-70605200D01*
X165240000Y-74055200D02*
X165240000Y-69905200D01*
X168940000Y-75230200D02*
X166340000Y-75230200D01*
X161840000Y-73005200D02*
X161840000Y-68405200D01*
X162440000Y-73005200D02*
X162440000Y-68405200D01*
X169940000Y-71580200D02*
X169940000Y-74230200D01*
X167990000Y-75205200D02*
X167990000Y-70605200D01*
X166040000Y-75155200D02*
X166040000Y-70605200D01*
X169490000Y-75005200D02*
X169490000Y-70805200D01*
X162590000Y-73005200D02*
X162590000Y-68405200D01*
X164090000Y-73105200D02*
X164090000Y-68555200D01*
X168940000Y-70580200D02*
X166365000Y-70580200D01*
X163915000Y-68380200D02*
X161365000Y-68380200D01*
X160940000Y-72605200D02*
X160940000Y-68805200D01*
X160640000Y-72255200D02*
X160640000Y-69105200D01*
X163190000Y-73005200D02*
X163190000Y-68405200D01*
X163040000Y-73005200D02*
X163040000Y-68405200D01*
X166640000Y-75205200D02*
X166640000Y-70605200D01*
X168440000Y-75205200D02*
X168440000Y-70605200D01*
X161240000Y-72855200D02*
X161240000Y-68505200D01*
X167090000Y-75205200D02*
X167090000Y-70605200D01*
X166340000Y-75205200D02*
X166340000Y-70605200D01*
X163340000Y-73005200D02*
X163340000Y-68405200D01*
X160340000Y-69405200D02*
X160340000Y-72005200D01*
X163340000Y-73030200D02*
X161365000Y-73030200D01*
X162890000Y-73005200D02*
X162890000Y-68405200D01*
X165890000Y-75055200D02*
X165890000Y-70505200D01*
X165640000Y-74805200D02*
X165640000Y-70405200D01*
X164540000Y-73355200D02*
X164540000Y-68905200D01*
X164690000Y-73455200D02*
X164690000Y-69055200D01*
X165740000Y-74955200D02*
X165740000Y-70455200D01*
X166940000Y-75205200D02*
X166940000Y-70605200D01*
X169590000Y-74905200D02*
X169590000Y-70955200D01*
X163915000Y-68380200D02*
X165190000Y-69405200D01*
X169790000Y-74655200D02*
X169790000Y-71105200D01*
X164990000Y-73705200D02*
X164990000Y-69255200D01*
X163790000Y-73055200D02*
X163790000Y-68405200D01*
X165540000Y-74555200D02*
X165540000Y-70355200D01*
X167540000Y-75205200D02*
X167540000Y-70605200D01*
X160490000Y-72155200D02*
X160490000Y-69255200D01*
X161540000Y-73005200D02*
X161540000Y-68405200D01*
X165340000Y-74205200D02*
X165340000Y-70055200D01*
X160790000Y-72455200D02*
X160790000Y-68955200D01*
X161090000Y-72755200D02*
X161090000Y-68655200D01*
X163640000Y-73055200D02*
X163640000Y-68405200D01*
X163940000Y-73055200D02*
X163940000Y-68455200D01*
X162140000Y-73005200D02*
X162140000Y-68405200D01*
X165140000Y-73855200D02*
X165140000Y-69405200D01*
X165440000Y-74405200D02*
X165440000Y-70255200D01*
X160340000Y-69405200D02*
X161365000Y-68380200D01*
X166790000Y-75205200D02*
X166790000Y-70605200D01*
X166490000Y-75205200D02*
X166490000Y-70655200D01*
X161990000Y-73005200D02*
X161990000Y-68405200D01*
X160340000Y-72005200D02*
X161365000Y-73030200D01*
X169690000Y-74805200D02*
X169690000Y-71055200D01*
X161690000Y-73005200D02*
X161690000Y-68405200D01*
X163490000Y-73005200D02*
X163490000Y-68455200D01*
X169040000Y-75205200D02*
X169040000Y-70655200D01*
X164240000Y-73205200D02*
X164240000Y-68655200D01*
X165190000Y-69405200D02*
G75*
G03*
X166365000Y-70580200I1175002J2D01*
G01*
X168940000Y-75230200D02*
G75*
G03*
X169940000Y-74230200I0J1000000D01*
G01*
X165477801Y-74527104D02*
G75*
G03*
X163340000Y-73030200I-2137802J-778098D01*
G01*
X169940000Y-71580200D02*
G75*
G03*
X168940000Y-70580200I-1000000J0D01*
G01*
X165477801Y-74527104D02*
G75*
G03*
X166339005Y-75228991I899995J224994D01*
G01*
%TO.C,SW5:8*%
X89990000Y-73300200D02*
X89990000Y-68700200D01*
X89040000Y-72150200D02*
X89040000Y-68000200D01*
X89440000Y-72900200D02*
X89440000Y-68500200D01*
X86540000Y-71100200D02*
X86540000Y-66500200D01*
X91040000Y-73300200D02*
X91040000Y-68700200D01*
X84440000Y-70350200D02*
X84440000Y-67200200D01*
X85790000Y-71100200D02*
X85790000Y-66500200D01*
X88940000Y-71950200D02*
X88940000Y-67500200D01*
X85490000Y-71100200D02*
X85490000Y-66500200D01*
X90890000Y-73300200D02*
X90890000Y-68700200D01*
X92390000Y-73300200D02*
X92390000Y-68700200D01*
X86840000Y-71100200D02*
X86840000Y-66500200D01*
X92240000Y-73300200D02*
X92240000Y-68700200D01*
X87715000Y-66475200D02*
X88990000Y-67500200D01*
X87590000Y-71150200D02*
X87590000Y-66500200D01*
X86390000Y-71100200D02*
X86390000Y-66500200D01*
X88340000Y-71450200D02*
X88340000Y-67000200D01*
X91490000Y-73300200D02*
X91490000Y-68700200D01*
X90140000Y-73300200D02*
X90140000Y-68700200D01*
X93290000Y-73100200D02*
X93290000Y-68900200D01*
X89340000Y-72650200D02*
X89340000Y-68450200D01*
X91340000Y-73300200D02*
X91340000Y-68700200D01*
X91940000Y-73300200D02*
X91940000Y-68700200D01*
X84890000Y-70850200D02*
X84890000Y-66750200D01*
X88040000Y-71300200D02*
X88040000Y-66750200D01*
X92740000Y-73325200D02*
X90140000Y-73325200D01*
X89540000Y-73050200D02*
X89540000Y-68550200D01*
X84140000Y-67500200D02*
X84140000Y-70100200D01*
X93490000Y-72900200D02*
X93490000Y-69150200D01*
X84590000Y-70550200D02*
X84590000Y-67050200D01*
X86240000Y-71100200D02*
X86240000Y-66500200D01*
X93390000Y-73000200D02*
X93390000Y-69050200D01*
X89690000Y-73150200D02*
X89690000Y-68600200D01*
X89840000Y-73250200D02*
X89840000Y-68700200D01*
X92540000Y-73300200D02*
X92540000Y-68700200D01*
X89240000Y-72500200D02*
X89240000Y-68350200D01*
X93140000Y-73200200D02*
X93140000Y-68800200D01*
X93590000Y-72750200D02*
X93590000Y-69200200D01*
X92090000Y-73300200D02*
X92090000Y-68700200D01*
X85940000Y-71100200D02*
X85940000Y-66500200D01*
X84140000Y-67500200D02*
X85165000Y-66475200D01*
X85040000Y-70950200D02*
X85040000Y-66600200D01*
X91790000Y-73300200D02*
X91790000Y-68700200D01*
X84140000Y-70100200D02*
X85165000Y-71125200D01*
X89140000Y-72300200D02*
X89140000Y-68150200D01*
X87740000Y-71150200D02*
X87740000Y-66550200D01*
X86990000Y-71100200D02*
X86990000Y-66500200D01*
X86690000Y-71100200D02*
X86690000Y-66500200D01*
X88640000Y-71650200D02*
X88640000Y-67250200D01*
X84740000Y-70700200D02*
X84740000Y-66900200D01*
X87290000Y-71100200D02*
X87290000Y-66550200D01*
X90440000Y-73300200D02*
X90440000Y-68700200D01*
X92840000Y-73300200D02*
X92840000Y-68750200D01*
X85190000Y-71100200D02*
X85190000Y-66500200D01*
X88790000Y-71800200D02*
X88790000Y-67350200D01*
X90740000Y-73300200D02*
X90740000Y-68700200D01*
X87140000Y-71100200D02*
X87140000Y-66500200D01*
X91190000Y-73300200D02*
X91190000Y-68700200D01*
X88190000Y-71350200D02*
X88190000Y-66900200D01*
X87715000Y-66475200D02*
X85165000Y-66475200D01*
X88490000Y-71550200D02*
X88490000Y-67150200D01*
X86090000Y-71100200D02*
X86090000Y-66500200D01*
X90590000Y-73300200D02*
X90590000Y-68700200D01*
X87140000Y-71125200D02*
X85165000Y-71125200D01*
X92740000Y-68675200D02*
X90165000Y-68675200D01*
X85340000Y-71100200D02*
X85340000Y-66500200D01*
X87890000Y-71200200D02*
X87890000Y-66650200D01*
X84290000Y-70250200D02*
X84290000Y-67350200D01*
X87440000Y-71150200D02*
X87440000Y-66500200D01*
X92990000Y-73250200D02*
X92990000Y-68750200D01*
X92690000Y-73300200D02*
X92690000Y-68700200D01*
X85640000Y-71100200D02*
X85640000Y-66500200D01*
X93740000Y-69675200D02*
X93740000Y-72325200D01*
X91640000Y-73300200D02*
X91640000Y-68700200D01*
X90290000Y-73300200D02*
X90290000Y-68750200D01*
X93740000Y-69675200D02*
G75*
G03*
X92740000Y-68675200I-1000000J0D01*
G01*
X89277801Y-72622104D02*
G75*
G03*
X90139005Y-73323991I899995J224994D01*
G01*
X89277801Y-72622104D02*
G75*
G03*
X87140000Y-71125200I-2137802J-778098D01*
G01*
X92740000Y-73325200D02*
G75*
G03*
X93740000Y-72325200I0J1000000D01*
G01*
X88990000Y-67500200D02*
G75*
G03*
X90165000Y-68675200I1175002J2D01*
G01*
%TO.C,SW5:7*%
X67190000Y-71100200D02*
X67190000Y-66500200D01*
X67040000Y-71100200D02*
X67040000Y-66500200D01*
X69890000Y-71950200D02*
X69890000Y-67500200D01*
X74340000Y-73000200D02*
X74340000Y-69050200D01*
X65090000Y-70100200D02*
X66115000Y-71125200D01*
X68990000Y-71300200D02*
X68990000Y-66750200D01*
X70790000Y-73250200D02*
X70790000Y-68700200D01*
X74690000Y-69675200D02*
X74690000Y-72325200D01*
X71240000Y-73300200D02*
X71240000Y-68750200D01*
X65390000Y-70350200D02*
X65390000Y-67200200D01*
X73690000Y-68675200D02*
X71115000Y-68675200D01*
X70640000Y-73150200D02*
X70640000Y-68600200D01*
X68690000Y-71150200D02*
X68690000Y-66550200D01*
X67640000Y-71100200D02*
X67640000Y-66500200D01*
X73340000Y-73300200D02*
X73340000Y-68700200D01*
X65090000Y-67500200D02*
X65090000Y-70100200D01*
X68240000Y-71100200D02*
X68240000Y-66550200D01*
X73490000Y-73300200D02*
X73490000Y-68700200D01*
X65690000Y-70700200D02*
X65690000Y-66900200D01*
X69990000Y-72150200D02*
X69990000Y-68000200D01*
X74240000Y-73100200D02*
X74240000Y-68900200D01*
X68540000Y-71150200D02*
X68540000Y-66500200D01*
X69740000Y-71800200D02*
X69740000Y-67350200D01*
X67340000Y-71100200D02*
X67340000Y-66500200D01*
X72290000Y-73300200D02*
X72290000Y-68700200D01*
X70290000Y-72650200D02*
X70290000Y-68450200D01*
X65990000Y-70950200D02*
X65990000Y-66600200D01*
X67490000Y-71100200D02*
X67490000Y-66500200D01*
X71540000Y-73300200D02*
X71540000Y-68700200D01*
X66740000Y-71100200D02*
X66740000Y-66500200D01*
X72140000Y-73300200D02*
X72140000Y-68700200D01*
X71990000Y-73300200D02*
X71990000Y-68700200D01*
X68665000Y-66475200D02*
X69940000Y-67500200D01*
X73940000Y-73250200D02*
X73940000Y-68750200D01*
X65840000Y-70850200D02*
X65840000Y-66750200D01*
X73640000Y-73300200D02*
X73640000Y-68700200D01*
X68665000Y-66475200D02*
X66115000Y-66475200D01*
X70940000Y-73300200D02*
X70940000Y-68700200D01*
X70090000Y-72300200D02*
X70090000Y-68150200D01*
X73790000Y-73300200D02*
X73790000Y-68750200D01*
X74540000Y-72750200D02*
X74540000Y-69200200D01*
X69290000Y-71450200D02*
X69290000Y-67000200D01*
X68840000Y-71200200D02*
X68840000Y-66650200D01*
X72440000Y-73300200D02*
X72440000Y-68700200D01*
X74090000Y-73200200D02*
X74090000Y-68800200D01*
X73040000Y-73300200D02*
X73040000Y-68700200D01*
X68090000Y-71125200D02*
X66115000Y-71125200D01*
X66140000Y-71100200D02*
X66140000Y-66500200D01*
X66440000Y-71100200D02*
X66440000Y-66500200D01*
X66590000Y-71100200D02*
X66590000Y-66500200D01*
X71090000Y-73300200D02*
X71090000Y-68700200D01*
X67940000Y-71100200D02*
X67940000Y-66500200D01*
X73690000Y-73325200D02*
X71090000Y-73325200D01*
X67790000Y-71100200D02*
X67790000Y-66500200D01*
X70390000Y-72900200D02*
X70390000Y-68500200D01*
X65240000Y-70250200D02*
X65240000Y-67350200D01*
X66290000Y-71100200D02*
X66290000Y-66500200D01*
X71690000Y-73300200D02*
X71690000Y-68700200D01*
X71840000Y-73300200D02*
X71840000Y-68700200D01*
X68090000Y-71100200D02*
X68090000Y-66500200D01*
X72740000Y-73300200D02*
X72740000Y-68700200D01*
X70490000Y-73050200D02*
X70490000Y-68550200D01*
X72590000Y-73300200D02*
X72590000Y-68700200D01*
X70190000Y-72500200D02*
X70190000Y-68350200D01*
X65090000Y-67500200D02*
X66115000Y-66475200D01*
X66890000Y-71100200D02*
X66890000Y-66500200D01*
X69140000Y-71350200D02*
X69140000Y-66900200D01*
X74440000Y-72900200D02*
X74440000Y-69150200D01*
X72890000Y-73300200D02*
X72890000Y-68700200D01*
X71390000Y-73300200D02*
X71390000Y-68700200D01*
X65540000Y-70550200D02*
X65540000Y-67050200D01*
X68390000Y-71150200D02*
X68390000Y-66500200D01*
X73190000Y-73300200D02*
X73190000Y-68700200D01*
X69590000Y-71650200D02*
X69590000Y-67250200D01*
X69440000Y-71550200D02*
X69440000Y-67150200D01*
X70227801Y-72622104D02*
G75*
G03*
X68090000Y-71125200I-2137802J-778098D01*
G01*
X74690000Y-69675200D02*
G75*
G03*
X73690000Y-68675200I-1000000J0D01*
G01*
X69940000Y-67500200D02*
G75*
G03*
X71115000Y-68675200I1175002J2D01*
G01*
X70227801Y-72622104D02*
G75*
G03*
X71089005Y-73323991I899995J224994D01*
G01*
X73690000Y-73325200D02*
G75*
G03*
X74690000Y-72325200I0J1000000D01*
G01*
%TO.C,SW2:11*%
X148940000Y-129177660D02*
X148940000Y-124577660D01*
X149540000Y-129177660D02*
X149540000Y-124577660D01*
X144865000Y-122352660D02*
X146140000Y-123377660D01*
X144290000Y-126977660D02*
X144290000Y-122377660D01*
X142640000Y-126977660D02*
X142640000Y-122377660D01*
X150140000Y-129127660D02*
X150140000Y-124627660D01*
X142040000Y-126727660D02*
X142040000Y-122627660D01*
X145190000Y-127177660D02*
X145190000Y-122627660D01*
X143540000Y-126977660D02*
X143540000Y-122377660D01*
X145940000Y-127677660D02*
X145940000Y-123227660D01*
X141290000Y-123377660D02*
X141290000Y-125977660D01*
X149090000Y-129177660D02*
X149090000Y-124577660D01*
X149840000Y-129177660D02*
X149840000Y-124577660D01*
X147290000Y-129177660D02*
X147290000Y-124577660D01*
X148340000Y-129177660D02*
X148340000Y-124577660D01*
X141290000Y-125977660D02*
X142315000Y-127002660D01*
X143090000Y-126977660D02*
X143090000Y-122377660D01*
X142940000Y-126977660D02*
X142940000Y-122377660D01*
X148790000Y-129177660D02*
X148790000Y-124577660D01*
X150440000Y-128977660D02*
X150440000Y-124777660D01*
X142790000Y-126977660D02*
X142790000Y-122377660D01*
X143840000Y-126977660D02*
X143840000Y-122377660D01*
X150890000Y-125552660D02*
X150890000Y-128202660D01*
X147740000Y-129177660D02*
X147740000Y-124577660D01*
X149890000Y-129202660D02*
X147290000Y-129202660D01*
X141440000Y-126127660D02*
X141440000Y-123227660D01*
X149890000Y-124552660D02*
X147315000Y-124552660D01*
X148490000Y-129177660D02*
X148490000Y-124577660D01*
X141890000Y-126577660D02*
X141890000Y-122777660D01*
X145490000Y-127327660D02*
X145490000Y-122877660D01*
X146390000Y-128377660D02*
X146390000Y-124227660D01*
X143990000Y-126977660D02*
X143990000Y-122377660D01*
X149690000Y-129177660D02*
X149690000Y-124577660D01*
X142340000Y-126977660D02*
X142340000Y-122377660D01*
X144440000Y-126977660D02*
X144440000Y-122427660D01*
X141590000Y-126227660D02*
X141590000Y-123077660D01*
X146190000Y-128027660D02*
X146190000Y-123877660D01*
X144890000Y-127027660D02*
X144890000Y-122427660D01*
X144290000Y-127002660D02*
X142315000Y-127002660D01*
X145640000Y-127427660D02*
X145640000Y-123027660D01*
X150740000Y-128627660D02*
X150740000Y-125077660D01*
X144590000Y-127027660D02*
X144590000Y-122377660D01*
X146590000Y-128777660D02*
X146590000Y-124377660D01*
X150290000Y-129077660D02*
X150290000Y-124677660D01*
X149990000Y-129177660D02*
X149990000Y-124627660D01*
X148190000Y-129177660D02*
X148190000Y-124577660D01*
X142190000Y-126827660D02*
X142190000Y-122477660D01*
X143240000Y-126977660D02*
X143240000Y-122377660D01*
X145790000Y-127527660D02*
X145790000Y-123127660D01*
X146690000Y-128927660D02*
X146690000Y-124427660D01*
X144865000Y-122352660D02*
X142315000Y-122352660D01*
X146090000Y-127827660D02*
X146090000Y-123377660D01*
X146290000Y-128177660D02*
X146290000Y-124027660D01*
X143690000Y-126977660D02*
X143690000Y-122377660D01*
X144140000Y-126977660D02*
X144140000Y-122377660D01*
X143390000Y-126977660D02*
X143390000Y-122377660D01*
X142490000Y-126977660D02*
X142490000Y-122377660D01*
X141290000Y-123377660D02*
X142315000Y-122352660D01*
X146840000Y-129027660D02*
X146840000Y-124477660D01*
X147140000Y-129177660D02*
X147140000Y-124577660D01*
X146990000Y-129127660D02*
X146990000Y-124577660D01*
X149240000Y-129177660D02*
X149240000Y-124577660D01*
X148040000Y-129177660D02*
X148040000Y-124577660D01*
X146490000Y-128527660D02*
X146490000Y-124327660D01*
X147890000Y-129177660D02*
X147890000Y-124577660D01*
X147440000Y-129177660D02*
X147440000Y-124627660D01*
X144740000Y-127027660D02*
X144740000Y-122377660D01*
X147590000Y-129177660D02*
X147590000Y-124577660D01*
X150640000Y-128777660D02*
X150640000Y-125027660D01*
X150540000Y-128877660D02*
X150540000Y-124927660D01*
X145040000Y-127077660D02*
X145040000Y-122527660D01*
X141740000Y-126427660D02*
X141740000Y-122927660D01*
X149390000Y-129177660D02*
X149390000Y-124577660D01*
X148640000Y-129177660D02*
X148640000Y-124577660D01*
X145340000Y-127227660D02*
X145340000Y-122777660D01*
X150890000Y-125552660D02*
G75*
G03*
X149890000Y-124552660I-1000000J0D01*
G01*
X146427801Y-128499564D02*
G75*
G03*
X144290000Y-127002660I-2137802J-778098D01*
G01*
X149890000Y-129202660D02*
G75*
G03*
X150890000Y-128202660I0J1000000D01*
G01*
X146427801Y-128499564D02*
G75*
G03*
X147289005Y-129201451I899995J224994D01*
G01*
X146140000Y-123377660D02*
G75*
G03*
X147315000Y-124552660I1175002J2D01*
G01*
%TO.C,SW2:8*%
X88640000Y-128797660D02*
X88640000Y-124397660D01*
X87715000Y-123622660D02*
X88990000Y-124647660D01*
X87140000Y-128247660D02*
X87140000Y-123647660D01*
X90290000Y-130447660D02*
X90290000Y-125897660D01*
X92990000Y-130397660D02*
X92990000Y-125897660D01*
X90590000Y-130447660D02*
X90590000Y-125847660D01*
X91190000Y-130447660D02*
X91190000Y-125847660D01*
X90440000Y-130447660D02*
X90440000Y-125847660D01*
X91040000Y-130447660D02*
X91040000Y-125847660D01*
X87740000Y-128297660D02*
X87740000Y-123697660D01*
X88790000Y-128947660D02*
X88790000Y-124497660D01*
X93590000Y-129897660D02*
X93590000Y-126347660D01*
X89540000Y-130197660D02*
X89540000Y-125697660D01*
X93740000Y-126822660D02*
X93740000Y-129472660D01*
X89440000Y-130047660D02*
X89440000Y-125647660D01*
X84290000Y-127397660D02*
X84290000Y-124497660D01*
X86240000Y-128247660D02*
X86240000Y-123647660D01*
X85790000Y-128247660D02*
X85790000Y-123647660D01*
X87440000Y-128297660D02*
X87440000Y-123647660D01*
X93490000Y-130047660D02*
X93490000Y-126297660D01*
X89140000Y-129447660D02*
X89140000Y-125297660D01*
X86390000Y-128247660D02*
X86390000Y-123647660D01*
X91340000Y-130447660D02*
X91340000Y-125847660D01*
X86840000Y-128247660D02*
X86840000Y-123647660D01*
X91940000Y-130447660D02*
X91940000Y-125847660D01*
X86540000Y-128247660D02*
X86540000Y-123647660D01*
X88340000Y-128597660D02*
X88340000Y-124147660D01*
X86090000Y-128247660D02*
X86090000Y-123647660D01*
X90740000Y-130447660D02*
X90740000Y-125847660D01*
X89040000Y-129297660D02*
X89040000Y-125147660D01*
X93140000Y-130347660D02*
X93140000Y-125947660D01*
X84440000Y-127497660D02*
X84440000Y-124347660D01*
X89240000Y-129647660D02*
X89240000Y-125497660D01*
X88040000Y-128447660D02*
X88040000Y-123897660D01*
X88490000Y-128697660D02*
X88490000Y-124297660D01*
X88190000Y-128497660D02*
X88190000Y-124047660D01*
X90140000Y-130447660D02*
X90140000Y-125847660D01*
X87890000Y-128347660D02*
X87890000Y-123797660D01*
X84140000Y-124647660D02*
X85165000Y-123622660D01*
X85940000Y-128247660D02*
X85940000Y-123647660D01*
X87715000Y-123622660D02*
X85165000Y-123622660D01*
X92740000Y-125822660D02*
X90165000Y-125822660D01*
X87140000Y-128272660D02*
X85165000Y-128272660D01*
X92090000Y-130447660D02*
X92090000Y-125847660D01*
X92840000Y-130447660D02*
X92840000Y-125897660D01*
X89840000Y-130397660D02*
X89840000Y-125847660D01*
X85040000Y-128097660D02*
X85040000Y-123747660D01*
X91790000Y-130447660D02*
X91790000Y-125847660D01*
X92690000Y-130447660D02*
X92690000Y-125847660D01*
X89690000Y-130297660D02*
X89690000Y-125747660D01*
X89990000Y-130447660D02*
X89990000Y-125847660D01*
X86690000Y-128247660D02*
X86690000Y-123647660D01*
X84890000Y-127997660D02*
X84890000Y-123897660D01*
X84740000Y-127847660D02*
X84740000Y-124047660D01*
X93290000Y-130247660D02*
X93290000Y-126047660D01*
X84140000Y-127247660D02*
X85165000Y-128272660D01*
X88940000Y-129097660D02*
X88940000Y-124647660D01*
X92240000Y-130447660D02*
X92240000Y-125847660D01*
X84590000Y-127697660D02*
X84590000Y-124197660D01*
X89340000Y-129797660D02*
X89340000Y-125597660D01*
X85340000Y-128247660D02*
X85340000Y-123647660D01*
X90890000Y-130447660D02*
X90890000Y-125847660D01*
X85640000Y-128247660D02*
X85640000Y-123647660D01*
X92540000Y-130447660D02*
X92540000Y-125847660D01*
X84140000Y-124647660D02*
X84140000Y-127247660D01*
X87590000Y-128297660D02*
X87590000Y-123647660D01*
X92740000Y-130472660D02*
X90140000Y-130472660D01*
X91490000Y-130447660D02*
X91490000Y-125847660D01*
X87290000Y-128247660D02*
X87290000Y-123697660D01*
X85490000Y-128247660D02*
X85490000Y-123647660D01*
X85190000Y-128247660D02*
X85190000Y-123647660D01*
X93390000Y-130147660D02*
X93390000Y-126197660D01*
X91640000Y-130447660D02*
X91640000Y-125847660D01*
X86990000Y-128247660D02*
X86990000Y-123647660D01*
X92390000Y-130447660D02*
X92390000Y-125847660D01*
X89277801Y-129769564D02*
G75*
G03*
X90139005Y-130471451I899995J224994D01*
G01*
X88990000Y-124647660D02*
G75*
G03*
X90165000Y-125822660I1175002J2D01*
G01*
X93740000Y-126822660D02*
G75*
G03*
X92740000Y-125822660I-1000000J0D01*
G01*
X89277801Y-129769564D02*
G75*
G03*
X87140000Y-128272660I-2137802J-778098D01*
G01*
X92740000Y-130472660D02*
G75*
G03*
X93740000Y-129472660I0J1000000D01*
G01*
%TO.C,SW3:12*%
X167540000Y-113302660D02*
X167540000Y-108702660D01*
X166190000Y-113302660D02*
X166190000Y-108702660D01*
X167690000Y-113302660D02*
X167690000Y-108702660D01*
X160790000Y-110552660D02*
X160790000Y-107052660D01*
X163490000Y-111102660D02*
X163490000Y-106552660D01*
X162740000Y-111102660D02*
X162740000Y-106502660D01*
X167090000Y-113302660D02*
X167090000Y-108702660D01*
X169340000Y-113202660D02*
X169340000Y-108802660D01*
X161090000Y-110852660D02*
X161090000Y-106752660D01*
X168940000Y-108677660D02*
X166365000Y-108677660D01*
X164540000Y-111452660D02*
X164540000Y-107002660D01*
X169690000Y-112902660D02*
X169690000Y-109152660D01*
X169940000Y-109677660D02*
X169940000Y-112327660D01*
X161990000Y-111102660D02*
X161990000Y-106502660D01*
X161690000Y-111102660D02*
X161690000Y-106502660D01*
X161390000Y-111102660D02*
X161390000Y-106502660D01*
X162890000Y-111102660D02*
X162890000Y-106502660D01*
X166490000Y-113302660D02*
X166490000Y-108752660D01*
X166640000Y-113302660D02*
X166640000Y-108702660D01*
X168140000Y-113302660D02*
X168140000Y-108702660D01*
X163040000Y-111102660D02*
X163040000Y-106502660D01*
X167390000Y-113302660D02*
X167390000Y-108702660D01*
X168440000Y-113302660D02*
X168440000Y-108702660D01*
X165140000Y-111952660D02*
X165140000Y-107502660D01*
X165540000Y-112652660D02*
X165540000Y-108452660D01*
X160340000Y-107502660D02*
X161365000Y-106477660D01*
X160340000Y-110102660D02*
X161365000Y-111127660D01*
X166040000Y-113252660D02*
X166040000Y-108702660D01*
X163190000Y-111102660D02*
X163190000Y-106502660D01*
X164090000Y-111202660D02*
X164090000Y-106652660D01*
X166340000Y-113302660D02*
X166340000Y-108702660D01*
X161540000Y-111102660D02*
X161540000Y-106502660D01*
X164990000Y-111802660D02*
X164990000Y-107352660D01*
X169790000Y-112752660D02*
X169790000Y-109202660D01*
X163340000Y-111127660D02*
X161365000Y-111127660D01*
X164840000Y-111652660D02*
X164840000Y-107252660D01*
X160640000Y-110352660D02*
X160640000Y-107202660D01*
X165640000Y-112902660D02*
X165640000Y-108502660D01*
X164690000Y-111552660D02*
X164690000Y-107152660D01*
X162590000Y-111102660D02*
X162590000Y-106502660D01*
X161840000Y-111102660D02*
X161840000Y-106502660D01*
X168940000Y-113327660D02*
X166340000Y-113327660D01*
X160490000Y-110252660D02*
X160490000Y-107352660D01*
X162440000Y-111102660D02*
X162440000Y-106502660D01*
X168590000Y-113302660D02*
X168590000Y-108702660D01*
X164390000Y-111352660D02*
X164390000Y-106902660D01*
X169190000Y-113252660D02*
X169190000Y-108752660D01*
X162290000Y-111102660D02*
X162290000Y-106502660D01*
X165240000Y-112152660D02*
X165240000Y-108002660D01*
X167240000Y-113302660D02*
X167240000Y-108702660D01*
X166790000Y-113302660D02*
X166790000Y-108702660D01*
X161240000Y-110952660D02*
X161240000Y-106602660D01*
X160340000Y-107502660D02*
X160340000Y-110102660D01*
X169590000Y-113002660D02*
X169590000Y-109052660D01*
X163915000Y-106477660D02*
X161365000Y-106477660D01*
X163640000Y-111152660D02*
X163640000Y-106502660D01*
X167840000Y-113302660D02*
X167840000Y-108702660D01*
X162140000Y-111102660D02*
X162140000Y-106502660D01*
X166940000Y-113302660D02*
X166940000Y-108702660D01*
X163915000Y-106477660D02*
X165190000Y-107502660D01*
X168890000Y-113302660D02*
X168890000Y-108702660D01*
X169040000Y-113302660D02*
X169040000Y-108752660D01*
X168290000Y-113302660D02*
X168290000Y-108702660D01*
X165890000Y-113152660D02*
X165890000Y-108602660D01*
X167990000Y-113302660D02*
X167990000Y-108702660D01*
X165440000Y-112502660D02*
X165440000Y-108352660D01*
X164240000Y-111302660D02*
X164240000Y-106752660D01*
X163940000Y-111152660D02*
X163940000Y-106552660D01*
X165740000Y-113052660D02*
X165740000Y-108552660D01*
X163340000Y-111102660D02*
X163340000Y-106502660D01*
X163790000Y-111152660D02*
X163790000Y-106502660D01*
X169490000Y-113102660D02*
X169490000Y-108902660D01*
X160940000Y-110702660D02*
X160940000Y-106902660D01*
X165340000Y-112302660D02*
X165340000Y-108152660D01*
X168740000Y-113302660D02*
X168740000Y-108702660D01*
X165190000Y-107502660D02*
G75*
G03*
X166365000Y-108677660I1175002J2D01*
G01*
X165477801Y-112624564D02*
G75*
G03*
X163340000Y-111127660I-2137802J-778098D01*
G01*
X168940000Y-113327660D02*
G75*
G03*
X169940000Y-112327660I0J1000000D01*
G01*
X165477801Y-112624564D02*
G75*
G03*
X166339005Y-113326451I899995J224994D01*
G01*
X169940000Y-109677660D02*
G75*
G03*
X168940000Y-108677660I-1000000J0D01*
G01*
%TO.C,SW2:12*%
X167240000Y-132352660D02*
X167240000Y-127752660D01*
X169490000Y-132152660D02*
X169490000Y-127952660D01*
X163340000Y-130177660D02*
X161365000Y-130177660D01*
X168940000Y-132377660D02*
X166340000Y-132377660D01*
X163915000Y-125527660D02*
X161365000Y-125527660D01*
X163640000Y-130202660D02*
X163640000Y-125552660D01*
X160490000Y-129302660D02*
X160490000Y-126402660D01*
X166190000Y-132352660D02*
X166190000Y-127752660D01*
X168440000Y-132352660D02*
X168440000Y-127752660D01*
X165540000Y-131702660D02*
X165540000Y-127502660D01*
X163340000Y-130152660D02*
X163340000Y-125552660D01*
X166490000Y-132352660D02*
X166490000Y-127802660D01*
X162740000Y-130152660D02*
X162740000Y-125552660D01*
X164240000Y-130352660D02*
X164240000Y-125802660D01*
X161990000Y-130152660D02*
X161990000Y-125552660D01*
X169040000Y-132352660D02*
X169040000Y-127802660D01*
X168940000Y-127727660D02*
X166365000Y-127727660D01*
X168290000Y-132352660D02*
X168290000Y-127752660D01*
X168740000Y-132352660D02*
X168740000Y-127752660D01*
X166940000Y-132352660D02*
X166940000Y-127752660D01*
X162290000Y-130152660D02*
X162290000Y-125552660D01*
X167840000Y-132352660D02*
X167840000Y-127752660D01*
X163040000Y-130152660D02*
X163040000Y-125552660D01*
X167390000Y-132352660D02*
X167390000Y-127752660D01*
X162590000Y-130152660D02*
X162590000Y-125552660D01*
X164690000Y-130602660D02*
X164690000Y-126202660D01*
X162440000Y-130152660D02*
X162440000Y-125552660D01*
X164390000Y-130402660D02*
X164390000Y-125952660D01*
X165640000Y-131952660D02*
X165640000Y-127552660D01*
X166790000Y-132352660D02*
X166790000Y-127752660D01*
X166340000Y-132352660D02*
X166340000Y-127752660D01*
X165340000Y-131352660D02*
X165340000Y-127202660D01*
X165890000Y-132202660D02*
X165890000Y-127652660D01*
X163190000Y-130152660D02*
X163190000Y-125552660D01*
X160940000Y-129752660D02*
X160940000Y-125952660D01*
X169590000Y-132052660D02*
X169590000Y-128102660D01*
X161390000Y-130152660D02*
X161390000Y-125552660D01*
X165740000Y-132102660D02*
X165740000Y-127602660D01*
X165440000Y-131552660D02*
X165440000Y-127402660D01*
X166040000Y-132302660D02*
X166040000Y-127752660D01*
X160790000Y-129602660D02*
X160790000Y-126102660D01*
X162890000Y-130152660D02*
X162890000Y-125552660D01*
X164840000Y-130702660D02*
X164840000Y-126302660D01*
X166640000Y-132352660D02*
X166640000Y-127752660D01*
X165140000Y-131002660D02*
X165140000Y-126552660D01*
X163940000Y-130202660D02*
X163940000Y-125602660D01*
X167990000Y-132352660D02*
X167990000Y-127752660D01*
X168890000Y-132352660D02*
X168890000Y-127752660D01*
X163790000Y-130202660D02*
X163790000Y-125552660D01*
X168140000Y-132352660D02*
X168140000Y-127752660D01*
X160340000Y-126552660D02*
X160340000Y-129152660D01*
X161090000Y-129902660D02*
X161090000Y-125802660D01*
X163490000Y-130152660D02*
X163490000Y-125602660D01*
X161540000Y-130152660D02*
X161540000Y-125552660D01*
X164540000Y-130502660D02*
X164540000Y-126052660D01*
X164090000Y-130252660D02*
X164090000Y-125702660D01*
X167690000Y-132352660D02*
X167690000Y-127752660D01*
X160340000Y-126552660D02*
X161365000Y-125527660D01*
X162140000Y-130152660D02*
X162140000Y-125552660D01*
X160340000Y-129152660D02*
X161365000Y-130177660D01*
X169190000Y-132302660D02*
X169190000Y-127802660D01*
X167090000Y-132352660D02*
X167090000Y-127752660D01*
X169690000Y-131952660D02*
X169690000Y-128202660D01*
X168590000Y-132352660D02*
X168590000Y-127752660D01*
X165240000Y-131202660D02*
X165240000Y-127052660D01*
X161240000Y-130002660D02*
X161240000Y-125652660D01*
X169940000Y-128727660D02*
X169940000Y-131377660D01*
X167540000Y-132352660D02*
X167540000Y-127752660D01*
X163915000Y-125527660D02*
X165190000Y-126552660D01*
X160640000Y-129402660D02*
X160640000Y-126252660D01*
X169340000Y-132252660D02*
X169340000Y-127852660D01*
X161840000Y-130152660D02*
X161840000Y-125552660D01*
X169790000Y-131802660D02*
X169790000Y-128252660D01*
X161690000Y-130152660D02*
X161690000Y-125552660D01*
X164990000Y-130852660D02*
X164990000Y-126402660D01*
X165477801Y-131674564D02*
G75*
G03*
X166339005Y-132376451I899995J224994D01*
G01*
X169940000Y-128727660D02*
G75*
G03*
X168940000Y-127727660I-1000000J0D01*
G01*
X165190000Y-126552660D02*
G75*
G03*
X166365000Y-127727660I1175002J2D01*
G01*
X168940000Y-132377660D02*
G75*
G03*
X169940000Y-131377660I0J1000000D01*
G01*
X165477801Y-131674564D02*
G75*
G03*
X163340000Y-130177660I-2137802J-778098D01*
G01*
%TO.C,SW1:12*%
X163915000Y-144577660D02*
X161365000Y-144577660D01*
X162590000Y-149202660D02*
X162590000Y-144602660D01*
X163040000Y-149202660D02*
X163040000Y-144602660D01*
X165540000Y-150752660D02*
X165540000Y-146552660D01*
X164090000Y-149302660D02*
X164090000Y-144752660D01*
X168740000Y-151402660D02*
X168740000Y-146802660D01*
X169690000Y-151002660D02*
X169690000Y-147252660D01*
X166340000Y-151402660D02*
X166340000Y-146802660D01*
X165740000Y-151152660D02*
X165740000Y-146652660D01*
X169790000Y-150852660D02*
X169790000Y-147302660D01*
X169040000Y-151402660D02*
X169040000Y-146852660D01*
X161990000Y-149202660D02*
X161990000Y-144602660D01*
X167090000Y-151402660D02*
X167090000Y-146802660D01*
X168440000Y-151402660D02*
X168440000Y-146802660D01*
X165640000Y-151002660D02*
X165640000Y-146602660D01*
X166940000Y-151402660D02*
X166940000Y-146802660D01*
X169590000Y-151102660D02*
X169590000Y-147152660D01*
X165440000Y-150602660D02*
X165440000Y-146452660D01*
X165340000Y-150402660D02*
X165340000Y-146252660D01*
X161240000Y-149052660D02*
X161240000Y-144702660D01*
X167240000Y-151402660D02*
X167240000Y-146802660D01*
X166040000Y-151352660D02*
X166040000Y-146802660D01*
X160640000Y-148452660D02*
X160640000Y-145302660D01*
X163190000Y-149202660D02*
X163190000Y-144602660D01*
X168290000Y-151402660D02*
X168290000Y-146802660D01*
X162890000Y-149202660D02*
X162890000Y-144602660D01*
X167540000Y-151402660D02*
X167540000Y-146802660D01*
X165240000Y-150252660D02*
X165240000Y-146102660D01*
X168940000Y-146777660D02*
X166365000Y-146777660D01*
X163640000Y-149252660D02*
X163640000Y-144602660D01*
X168590000Y-151402660D02*
X168590000Y-146802660D01*
X162290000Y-149202660D02*
X162290000Y-144602660D01*
X163790000Y-149252660D02*
X163790000Y-144602660D01*
X169490000Y-151202660D02*
X169490000Y-147002660D01*
X169340000Y-151302660D02*
X169340000Y-146902660D01*
X166190000Y-151402660D02*
X166190000Y-146802660D01*
X160490000Y-148352660D02*
X160490000Y-145452660D01*
X160340000Y-145602660D02*
X160340000Y-148202660D01*
X166640000Y-151402660D02*
X166640000Y-146802660D01*
X169190000Y-151352660D02*
X169190000Y-146852660D01*
X161840000Y-149202660D02*
X161840000Y-144602660D01*
X168140000Y-151402660D02*
X168140000Y-146802660D01*
X163915000Y-144577660D02*
X165190000Y-145602660D01*
X161540000Y-149202660D02*
X161540000Y-144602660D01*
X160790000Y-148652660D02*
X160790000Y-145152660D01*
X160340000Y-145602660D02*
X161365000Y-144577660D01*
X164240000Y-149402660D02*
X164240000Y-144852660D01*
X164390000Y-149452660D02*
X164390000Y-145002660D01*
X163490000Y-149202660D02*
X163490000Y-144652660D01*
X167690000Y-151402660D02*
X167690000Y-146802660D01*
X162440000Y-149202660D02*
X162440000Y-144602660D01*
X165140000Y-150052660D02*
X165140000Y-145602660D01*
X163940000Y-149252660D02*
X163940000Y-144652660D01*
X167840000Y-151402660D02*
X167840000Y-146802660D01*
X164540000Y-149552660D02*
X164540000Y-145102660D01*
X166490000Y-151402660D02*
X166490000Y-146852660D01*
X167390000Y-151402660D02*
X167390000Y-146802660D01*
X164990000Y-149902660D02*
X164990000Y-145452660D01*
X160940000Y-148802660D02*
X160940000Y-145002660D01*
X162140000Y-149202660D02*
X162140000Y-144602660D01*
X164840000Y-149752660D02*
X164840000Y-145352660D01*
X161390000Y-149202660D02*
X161390000Y-144602660D01*
X167990000Y-151402660D02*
X167990000Y-146802660D01*
X162740000Y-149202660D02*
X162740000Y-144602660D01*
X166790000Y-151402660D02*
X166790000Y-146802660D01*
X169940000Y-147777660D02*
X169940000Y-150427660D01*
X163340000Y-149202660D02*
X163340000Y-144602660D01*
X168940000Y-151427660D02*
X166340000Y-151427660D01*
X163340000Y-149227660D02*
X161365000Y-149227660D01*
X160340000Y-148202660D02*
X161365000Y-149227660D01*
X164690000Y-149652660D02*
X164690000Y-145252660D01*
X161690000Y-149202660D02*
X161690000Y-144602660D01*
X165890000Y-151252660D02*
X165890000Y-146702660D01*
X161090000Y-148952660D02*
X161090000Y-144852660D01*
X168890000Y-151402660D02*
X168890000Y-146802660D01*
X165477801Y-150724564D02*
G75*
G03*
X166339005Y-151426451I899995J224994D01*
G01*
X169940000Y-147777660D02*
G75*
G03*
X168940000Y-146777660I-1000000J0D01*
G01*
X165477801Y-150724564D02*
G75*
G03*
X163340000Y-149227660I-2137802J-778098D01*
G01*
X168940000Y-151427660D02*
G75*
G03*
X169940000Y-150427660I0J1000000D01*
G01*
X165190000Y-145602660D02*
G75*
G03*
X166365000Y-146777660I1175002J2D01*
G01*
%TO.C,U1*%
X37776500Y-51297000D02*
X40316500Y-51297000D01*
X37776500Y-81777000D02*
X37776500Y-51297000D01*
X40316500Y-51297000D02*
X40316500Y-81777000D01*
X55556500Y-81777000D02*
X53016500Y-81777000D01*
X53016500Y-51297000D02*
X55556500Y-51297000D01*
X55556500Y-51297000D02*
X55556500Y-81777000D01*
X40316500Y-81777000D02*
X37776500Y-81777000D01*
X53016500Y-81777000D02*
X53016500Y-51297000D01*
D13*
%TO.C,BSW1*%
X40452200Y-84115000D02*
X36897200Y-84115000D01*
X36906200Y-92669000D02*
X40460200Y-92669000D01*
X36897200Y-84124000D02*
X36897200Y-92669000D01*
X40460200Y-92669000D02*
X40460200Y-84119000D01*
D12*
%TO.C,RSW1*%
X50924400Y-85265000D02*
X50924400Y-91265000D01*
X50924400Y-91265000D02*
X50674400Y-91265000D01*
X47674400Y-91265000D02*
X47424400Y-91265000D01*
X47424400Y-85265000D02*
X47674400Y-85265000D01*
X50674400Y-85265000D02*
X50924400Y-85265000D01*
X47424400Y-91265000D02*
X47424400Y-85265000D01*
%TD*%
M02*
