M48
; DRILL file {KiCad (6.0.5)} date Fri Jun 24 19:59:55 2022
; FORMAT={-:-/ absolute / inch / decimal}
; #@! TF.CreationDate,2022-06-24T19:59:55-07:00
; #@! TF.GenerationSoftware,Kicad,Pcbnew,(6.0.5)
; #@! TF.FileFunction,NonPlated,1,2,NPTH
FMAT,2
INCH
; #@! TA.AperFunction,NonPlated,NPTH,ComponentDrill
T1C0.0394
; #@! TA.AperFunction,NonPlated,NPTH,ComponentDrill
T2C0.0709
; #@! TA.AperFunction,NonPlated,NPTH,ComponentDrill
T3C0.1181
; #@! TA.AperFunction,NonPlated,NPTH,ComponentDrill
T4C0.1339
%
G90
G05
T1
X1.11Y-5.5775
X1.4269Y-6.2572
X1.4825Y-5.4038
X1.7439Y-6.937
X1.7897Y-5.2606
X1.7994Y-6.0835
X2.1164Y-6.7633
X2.1622Y-5.0869
X2.2845Y-6.2268
X2.4582Y-6.5993
X2.6445Y-2.3976
X2.6846Y-3.2949
X2.6846Y-3.7059
X2.6846Y-4.4199
X2.6846Y-4.8309
X2.9642Y-5.9098
X3.0555Y-2.3976
X3.1379Y-6.2823
X3.3945Y-2.3976
X3.3945Y-3.1475
X3.3945Y-3.8975
X3.3945Y-4.6475
X3.8055Y-2.3976
X3.8055Y-3.1475
X3.8055Y-3.8975
X3.8055Y-4.6475
X4.1445Y-2.3475
X4.1445Y-3.0975
X4.1445Y-3.8475
X4.1445Y-4.5975
X4.1445Y-5.3475
X4.5555Y-2.3475
X4.5555Y-3.0975
X4.5555Y-3.8475
X4.5555Y-4.5975
X4.5555Y-5.3475
X4.8945Y-2.2846
X4.8945Y-3.0346
X4.8945Y-3.7846
X4.8945Y-4.5346
X4.8945Y-5.2846
X5.3055Y-2.2846
X5.3055Y-3.0346
X5.3055Y-3.7846
X5.3055Y-4.5346
X5.3055Y-5.2846
X5.6445Y-2.3475
X5.6445Y-3.0975
X5.6445Y-3.8475
X5.6445Y-4.5975
X5.6445Y-5.3475
X6.0555Y-2.3475
X6.0555Y-3.0975
X6.0555Y-3.8475
X6.0555Y-4.5975
X6.0555Y-5.3475
X6.3945Y-2.4726
X6.3945Y-3.2225
X6.3945Y-3.9725
X6.3945Y-4.7225
X6.3945Y-5.4725
X6.8055Y-2.4726
X6.8055Y-3.2225
X6.8055Y-3.9725
X6.8055Y-4.7225
X6.8055Y-5.4725
X7.332Y-2.4726
X7.332Y-3.2225
X7.332Y-3.9725
X7.332Y-4.7225
X7.332Y-5.4725
X7.743Y-2.4726
X7.743Y-3.2225
X7.743Y-3.9725
X7.743Y-4.7225
X7.743Y-5.4725
T2
X1.1699Y-5.732
X1.4868Y-6.4117
X1.5623Y-5.549
X1.8038Y-7.0915
X1.8496Y-5.4151
X1.8792Y-6.2287
X2.1962Y-6.9085
X2.242Y-5.2321
X2.4297Y-6.147
X2.6127Y-6.5394
X2.6335Y-2.563
X2.85Y-3.2839
X2.85Y-3.7169
X2.85Y-4.4089
X2.85Y-4.8419
X3.0665Y-2.563
X3.1094Y-5.83
X3.2924Y-6.2224
X3.3835Y-2.563
X3.3835Y-3.3129
X3.3835Y-4.0629
X3.3835Y-4.8129
X3.8165Y-2.563
X3.8165Y-3.3129
X3.8165Y-4.0629
X3.8165Y-4.8129
X4.1335Y-2.5129
X4.1335Y-3.2629
X4.1335Y-4.0129
X4.1335Y-4.7629
X4.1335Y-5.5129
X4.5665Y-2.5129
X4.5665Y-3.2629
X4.5665Y-4.0129
X4.5665Y-4.7629
X4.5665Y-5.5129
X4.8835Y-2.45
X4.8835Y-3.2
X4.8835Y-3.95
X4.8835Y-4.7
X4.8835Y-5.45
X5.3165Y-2.45
X5.3165Y-3.2
X5.3165Y-3.95
X5.3165Y-4.7
X5.3165Y-5.45
X5.6335Y-2.5129
X5.6335Y-3.2629
X5.6335Y-4.0129
X5.6335Y-4.7629
X5.6335Y-5.5129
X6.0665Y-2.5129
X6.0665Y-3.2629
X6.0665Y-4.0129
X6.0665Y-4.7629
X6.0665Y-5.5129
X6.3835Y-2.638
X6.3835Y-3.3879
X6.3835Y-4.1379
X6.3835Y-4.8879
X6.3835Y-5.6379
X6.8165Y-2.638
X6.8165Y-3.3879
X6.8165Y-4.1379
X6.8165Y-4.8879
X6.8165Y-5.6379
X7.321Y-2.638
X7.321Y-3.3879
X7.321Y-4.1379
X7.321Y-4.8879
X7.321Y-5.6379
X7.754Y-2.638
X7.754Y-3.3879
X7.754Y-4.1379
X7.754Y-4.8879
X7.754Y-5.6379
T3
X1.2493Y-5.8557
X1.4643Y-5.851
X1.5662Y-6.5354
X1.6061Y-5.6893
X1.7812Y-6.5307
X1.8832Y-7.2152
X1.923Y-6.369
X1.929Y-5.5388
X2.0982Y-7.2105
X2.144Y-5.5341
X2.24Y-7.0488
X2.2858Y-5.3724
X2.57Y-6.1032
X2.6531Y-2.7087
X2.7317Y-6.245
X2.7364Y-6.46
X2.85Y-2.7953
X2.9957Y-3.3035
X2.9957Y-3.6973
X2.9957Y-4.4285
X2.9957Y-4.8223
X3.0469Y-2.7087
X3.0823Y-3.5004
X3.0823Y-4.6254
X3.2497Y-5.7862
X3.4031Y-2.7087
X3.4031Y-3.4586
X3.4031Y-4.2086
X3.4031Y-4.9586
X3.4114Y-5.928
X3.4161Y-6.143
X3.6Y-2.7953
X3.6Y-3.5452
X3.6Y-4.2952
X3.6Y-5.0452
X3.7969Y-2.7087
X3.7969Y-3.4586
X3.7969Y-4.2086
X3.7969Y-4.9586
X4.1531Y-2.6586
X4.1531Y-3.4086
X4.1531Y-4.1586
X4.1531Y-4.9086
X4.1531Y-5.6586
X4.35Y-2.7452
X4.35Y-3.4952
X4.35Y-4.2452
X4.35Y-4.9952
X4.35Y-5.7452
X4.5469Y-2.6586
X4.5469Y-3.4086
X4.5469Y-4.1586
X4.5469Y-4.9086
X4.5469Y-5.6586
X4.9031Y-2.5957
X4.9031Y-3.3457
X4.9031Y-4.0957
X4.9031Y-4.8457
X4.9031Y-5.5957
X5.1Y-2.6823
X5.1Y-3.4323
X5.1Y-4.1823
X5.1Y-4.9323
X5.1Y-5.6823
X5.2969Y-2.5957
X5.2969Y-3.3457
X5.2969Y-4.0957
X5.2969Y-4.8457
X5.2969Y-5.5957
X5.6531Y-2.6586
X5.6531Y-3.4086
X5.6531Y-4.1586
X5.6531Y-4.9086
X5.6531Y-5.6586
X5.85Y-2.7452
X5.85Y-3.4952
X5.85Y-4.2452
X5.85Y-4.9952
X5.85Y-5.7452
X6.0469Y-2.6586
X6.0469Y-3.4086
X6.0469Y-4.1586
X6.0469Y-4.9086
X6.0469Y-5.6586
X6.4031Y-2.7837
X6.4031Y-3.5336
X6.4031Y-4.2836
X6.4031Y-5.0336
X6.4031Y-5.7836
X6.6Y-2.8703
X6.6Y-3.6202
X6.6Y-4.3702
X6.6Y-5.1202
X6.6Y-5.8702
X6.7969Y-2.7837
X6.7969Y-3.5336
X6.7969Y-4.2836
X6.7969Y-5.0336
X6.7969Y-5.7836
X7.3406Y-2.7837
X7.3406Y-3.5336
X7.3406Y-4.2836
X7.3406Y-5.0336
X7.3406Y-5.7836
X7.5375Y-2.8703
X7.5375Y-3.6202
X7.5375Y-4.3702
X7.5375Y-5.1202
X7.5375Y-5.8702
X7.7344Y-2.7837
X7.7344Y-3.5336
X7.7344Y-4.2836
X7.7344Y-5.0336
X7.7344Y-5.7836
T4
X1.3661Y-5.6405
X1.683Y-6.3202
X2.0Y-7.0
X2.0458Y-5.3236
X2.5212Y-6.3432
X2.85Y-2.563
X2.85Y-3.5004
X2.85Y-4.6254
X3.2009Y-6.0262
X3.6Y-2.563
X3.6Y-3.3129
X3.6Y-4.0629
X3.6Y-4.8129
X4.35Y-2.5129
X4.35Y-3.2629
X4.35Y-4.0129
X4.35Y-4.7629
X4.35Y-5.5129
X5.1Y-2.45
X5.1Y-3.2
X5.1Y-3.95
X5.1Y-4.7
X5.1Y-5.45
X5.85Y-2.5129
X5.85Y-3.2629
X5.85Y-4.0129
X5.85Y-4.7629
X5.85Y-5.5129
X6.6Y-2.638
X6.6Y-3.3879
X6.6Y-4.1379
X6.6Y-4.8879
X6.6Y-5.6379
X7.5375Y-2.638
X7.5375Y-3.3879
X7.5375Y-4.1379
X7.5375Y-4.8879
X7.5375Y-5.6379
T0
M30
