M48
; DRILL file {KiCad (6.0.5)} date Sat May 21 18:26:23 2022
; FORMAT={-:-/ absolute / inch / decimal}
; #@! TF.CreationDate,2022-05-21T18:26:23-06:00
; #@! TF.GenerationSoftware,Kicad,Pcbnew,(6.0.5)
; #@! TF.FileFunction,Plated,1,2,PTH
FMAT,2
INCH
; #@! TA.AperFunction,Plated,PTH,ComponentDrill
T1C0.0197
; #@! TA.AperFunction,Plated,PTH,ViaDrill
T2C0.0200
; #@! TA.AperFunction,Plated,PTH,ComponentDrill
T3C0.0300
; #@! TA.AperFunction,Plated,PTH,ComponentDrill
T4C0.0390
; #@! TA.AperFunction,Plated,PTH,ComponentDrill
T5C0.0429
; #@! TA.AperFunction,Plated,PTH,ComponentDrill
T6C0.0430
; #@! TA.AperFunction,Plated,PTH,ComponentDrill
T7C0.0472
; #@! TA.AperFunction,Plated,PTH,ComponentDrill
T8C0.0590
; #@! TA.AperFunction,Plated,PTH,ComponentDrill
T9C0.0670
; #@! TA.AperFunction,Plated,PTH,ComponentDrill
T10C0.1570
%
G90
G05
T1
X2.3571Y-6.7654
X3.076Y-2.1661
X3.9445Y-2.3043
X3.9957Y-5.0969
X4.722Y-5.2756
X5.4594Y-5.2787
X5.4626Y-2.5354
X6.1142Y-1.4622
X6.2122Y-5.2169
X6.8685Y-2.1429
X6.978Y-5.2201
T2
X3.1614Y-2.0945
X3.1681Y-1.9622
T3
X5.356Y-1.4677
X5.3875Y-1.4205
X5.419Y-1.4677
X5.4505Y-1.4205
X5.482Y-1.4677
T4
X1.3147Y-5.8852
X1.3569Y-5.9758
X1.5866Y-5.7584
X1.6288Y-5.849
X1.6316Y-6.5649
X1.6738Y-6.6555
X1.9035Y-6.4381
X1.9457Y-6.5287
X1.9486Y-7.2447
X1.9908Y-7.3353
X1.9944Y-5.5683
X2.0366Y-5.6589
X2.1001Y-5.7948
X2.2205Y-7.1179
X2.2627Y-7.2085
X2.2663Y-5.4415
X2.3085Y-5.5321
X2.3719Y-5.668
X2.6391Y-6.1227
X2.7Y-2.763
X2.7Y-2.863
X2.7297Y-6.0805
X2.7659Y-6.3946
X2.7798Y-5.4778
X2.8Y-2.763
X2.8565Y-6.3524
X2.9Y-2.763
X3.0Y-2.763
X3.0Y-2.863
X3.05Y-3.3504
X3.05Y-3.4504
X3.05Y-3.5504
X3.05Y-3.6504
X3.05Y-4.4754
X3.05Y-4.5754
X3.05Y-4.6754
X3.05Y-4.7754
X3.0516Y-5.351
X3.1Y-1.375
X3.1Y-1.475
X3.1Y-1.575
X3.15Y-3.3504
X3.15Y-3.6504
X3.15Y-4.4754
X3.15Y-4.7754
X3.3188Y-5.8057
X3.4094Y-5.7635
X3.4456Y-6.0776
X3.45Y-2.763
X3.45Y-2.863
X3.45Y-3.5129
X3.45Y-3.6129
X3.45Y-4.2629
X3.45Y-4.3629
X3.45Y-5.0129
X3.45Y-5.1129
X3.5362Y-6.0354
X3.7Y-1.375
X3.7Y-1.475
X3.7Y-1.575
X3.75Y-2.763
X3.75Y-2.863
X3.75Y-3.5129
X3.75Y-3.6129
X3.75Y-4.2629
X3.75Y-4.3629
X3.75Y-5.0129
X3.75Y-5.1129
X3.8836Y-1.4961
X4.0086Y-1.4461
X4.1664Y-1.7789
X4.2Y-2.7129
X4.2Y-2.8129
X4.2Y-3.4629
X4.2Y-3.5629
X4.2Y-4.2129
X4.2Y-4.3129
X4.2Y-4.9629
X4.2Y-5.0629
X4.2Y-5.7129
X4.2Y-5.8129
X4.2914Y-1.7289
X4.5Y-2.7129
X4.5Y-2.8129
X4.5Y-3.4629
X4.5Y-3.5629
X4.5Y-4.2129
X4.5Y-4.3129
X4.5Y-4.9629
X4.5Y-5.0629
X4.5Y-5.7129
X4.5Y-5.8129
X4.7375Y-1.85
X4.95Y-2.778
X4.95Y-3.4
X4.95Y-3.5
X4.95Y-4.15
X4.95Y-4.25
X4.95Y-4.9
X4.95Y-5.0
X4.95Y-5.65
X4.95Y-5.75
X5.1375Y-1.85
X5.194Y-1.355
X5.25Y-2.778
X5.25Y-3.4
X5.25Y-3.5
X5.25Y-4.15
X5.25Y-4.25
X5.25Y-4.9
X5.25Y-5.0
X5.25Y-5.65
X5.25Y-5.75
X5.324Y-1.585
X5.419Y-1.585
X5.514Y-1.585
X5.644Y-1.355
X5.6461Y-1.8539
X5.7Y-2.8409
X5.7Y-3.4629
X5.7Y-3.5629
X5.7Y-4.2129
X5.7Y-4.3129
X5.7Y-4.9629
X5.7Y-5.0629
X5.7Y-5.7129
X5.7Y-5.8129
X5.7211Y-1.9289
X5.9289Y-1.5711
X6.0Y-2.8409
X6.0Y-3.4629
X6.0Y-3.5629
X6.0Y-4.2129
X6.0Y-4.3129
X6.0Y-4.9629
X6.0Y-5.0629
X6.0Y-5.7129
X6.0Y-5.8129
X6.0039Y-1.6461
X6.45Y-2.838
X6.45Y-2.938
X6.45Y-3.5879
X6.45Y-3.6879
X6.45Y-4.3379
X6.45Y-4.4379
X6.45Y-5.0879
X6.45Y-5.1879
X6.45Y-5.8379
X6.45Y-5.9379
X6.75Y-2.838
X6.75Y-2.938
X6.75Y-3.5879
X6.75Y-3.6879
X6.75Y-4.3379
X6.75Y-4.4379
X6.75Y-5.0879
X6.75Y-5.1879
X6.75Y-5.8379
X6.75Y-5.9379
X7.2Y-5.8379
X7.2Y-5.9379
X7.3875Y-2.838
X7.3875Y-2.938
X7.3875Y-3.5879
X7.3875Y-3.6879
X7.3875Y-4.3379
X7.3875Y-4.4379
X7.3875Y-5.0879
X7.3875Y-5.1879
X7.5Y-5.8379
X7.5Y-5.9379
X7.6875Y-2.838
X7.6875Y-2.938
X7.6875Y-3.5879
X7.6875Y-3.6879
X7.6875Y-4.3379
X7.6875Y-4.4379
X7.6875Y-5.0879
X7.6875Y-5.1879
T5
X7.475Y-1.375
X7.475Y-1.575
T6
X3.256Y-1.511
X3.335Y-1.633
X3.461Y-1.633
X3.54Y-1.511
X6.375Y-1.375
X6.375Y-1.475
X6.375Y-1.775
X6.375Y-1.975
X6.475Y-1.375
X6.475Y-1.475
X6.475Y-1.775
X6.475Y-1.975
X6.575Y-1.375
X6.575Y-1.475
X6.575Y-1.775
X6.575Y-1.975
X6.675Y-1.375
X6.675Y-1.475
X6.675Y-1.775
X6.675Y-1.975
X6.775Y-1.375
X6.775Y-1.475
X6.775Y-1.775
X6.775Y-1.975
X6.875Y-1.375
X6.875Y-1.475
X6.875Y-1.775
X6.875Y-1.975
X6.975Y-1.375
X6.975Y-1.475
X6.975Y-1.775
X6.975Y-1.975
X7.075Y-1.375
X7.075Y-1.475
X7.075Y-1.775
X7.075Y-1.975
X7.175Y-1.375
X7.175Y-1.475
X7.175Y-1.775
X7.175Y-1.975
X7.275Y-1.375
X7.275Y-1.475
X7.275Y-1.975
X7.375Y-1.375
X7.375Y-1.475
X7.375Y-1.975
X7.475Y-1.475
X7.475Y-1.975
X7.575Y-1.475
X7.575Y-1.775
X7.675Y-1.475
X7.675Y-1.775
T7
X4.9031Y-2.5996
X5.1Y-2.6823
X5.2969Y-2.5996
X5.6531Y-2.6625
X5.85Y-2.7452
X6.0469Y-2.6625
T8
X1.1879Y-5.6133
X1.1909Y-5.5015
X1.3722Y-5.417
X1.4598Y-5.4865
X1.5048Y-6.293
X1.5078Y-6.1812
X1.6891Y-6.0967
X1.7767Y-6.1662
X1.8218Y-6.9728
X1.8248Y-6.861
X1.8676Y-5.2964
X1.8706Y-5.1846
X2.0061Y-6.7765
X2.0519Y-5.1001
X2.0937Y-6.846
X2.1395Y-5.1696
X2.1846Y-5.9761
X2.1876Y-5.8643
X2.2977Y-6.3371
X2.3672Y-6.2495
X2.3689Y-5.7798
X2.3822Y-6.5184
X2.4565Y-5.8493
X2.494Y-6.5214
X2.586Y-6.837
X2.65Y-3.4004
X2.65Y-3.6004
X2.65Y-4.5254
X2.65Y-4.7254
X2.6736Y-6.9065
X2.7Y-2.463
X2.75Y-2.363
X2.75Y-3.3504
X2.75Y-3.6504
X2.75Y-4.4754
X2.75Y-4.7754
X2.8549Y-6.822
X2.8579Y-6.7102
X2.8643Y-5.6591
X2.8673Y-5.5473
X2.95Y-2.363
X2.9774Y-6.0201
X3.0Y-2.463
X3.0469Y-5.9325
X3.0486Y-5.4628
X3.0619Y-6.2014
X3.1362Y-5.5323
X3.1737Y-6.2044
X3.2658Y-6.5201
X3.3534Y-6.5896
X3.45Y-2.463
X3.45Y-3.2129
X3.45Y-3.9629
X3.45Y-4.7129
X3.5Y-2.363
X3.5Y-3.1129
X3.5Y-3.8629
X3.5Y-4.6129
X3.5347Y-6.5051
X3.5377Y-6.3933
X3.7Y-2.363
X3.7Y-3.1129
X3.7Y-3.8629
X3.7Y-4.6129
X3.75Y-2.463
X3.75Y-3.2129
X3.75Y-3.9629
X3.75Y-4.7129
X4.2Y-2.4129
X4.2Y-3.1629
X4.2Y-3.9129
X4.2Y-4.6629
X4.2Y-5.4129
X4.25Y-2.3129
X4.25Y-3.0629
X4.25Y-3.8129
X4.25Y-4.5629
X4.25Y-5.3129
X4.45Y-2.3129
X4.45Y-3.0629
X4.45Y-3.8129
X4.45Y-4.5629
X4.45Y-5.3129
X4.5Y-2.4129
X4.5Y-3.1629
X4.5Y-3.9129
X4.5Y-4.6629
X4.5Y-5.4129
X4.95Y-3.1
X4.95Y-3.85
X4.95Y-4.6
X4.95Y-5.35
X5.0Y-3.0
X5.0Y-3.75
X5.0Y-4.5
X5.0Y-5.25
X5.2Y-3.0
X5.2Y-3.75
X5.2Y-4.5
X5.2Y-5.25
X5.25Y-3.1
X5.25Y-3.85
X5.25Y-4.6
X5.25Y-5.35
X5.7Y-3.1629
X5.7Y-3.9129
X5.7Y-4.6629
X5.7Y-5.4129
X5.75Y-3.0629
X5.75Y-3.8129
X5.75Y-4.5629
X5.75Y-5.3129
X5.95Y-3.0629
X5.95Y-3.8129
X5.95Y-4.5629
X5.95Y-5.3129
X6.0Y-3.1629
X6.0Y-3.9129
X6.0Y-4.6629
X6.0Y-5.4129
X6.45Y-2.538
X6.45Y-3.2879
X6.45Y-4.0379
X6.45Y-4.7879
X6.45Y-5.5379
X6.5Y-2.438
X6.5Y-3.1879
X6.5Y-3.9379
X6.5Y-4.6879
X6.5Y-5.4379
X6.7Y-2.438
X6.7Y-3.1879
X6.7Y-3.9379
X6.7Y-4.6879
X6.7Y-5.4379
X6.75Y-2.538
X6.75Y-3.2879
X6.75Y-4.0379
X6.75Y-4.7879
X6.75Y-5.5379
X7.15Y-2.538
X7.15Y-2.738
X7.15Y-3.2879
X7.15Y-3.4879
X7.15Y-4.0379
X7.15Y-4.2379
X7.15Y-4.7879
X7.15Y-4.9879
X7.2Y-5.5379
X7.25Y-2.488
X7.25Y-2.788
X7.25Y-3.2379
X7.25Y-3.5379
X7.25Y-3.9879
X7.25Y-4.2879
X7.25Y-4.7379
X7.25Y-5.0379
X7.25Y-5.4379
X7.3875Y-2.538
X7.3875Y-3.2879
X7.3875Y-4.0379
X7.3875Y-4.7879
X7.4375Y-2.438
X7.4375Y-3.1879
X7.4375Y-3.9379
X7.4375Y-4.6879
X7.45Y-5.4379
X7.5Y-5.5379
X7.6375Y-2.438
X7.6375Y-3.1879
X7.6375Y-3.9379
X7.6375Y-4.6879
X7.6875Y-2.538
X7.6875Y-3.2879
X7.6875Y-4.0379
X7.6875Y-4.7879
T9
X7.35Y-2.438
X7.35Y-2.838
X7.35Y-3.1879
X7.35Y-3.5879
X7.35Y-3.9379
X7.35Y-4.3379
X7.35Y-4.6879
X7.35Y-5.0879
T3
G00X5.2754Y-1.2464
M15
G01X5.2754Y-1.2914
M16
G05
G00X5.5626Y-1.2464
M15
G01X5.5626Y-1.2914
M16
G05
T6
G00X3.221Y-1.314
M15
G01X3.209Y-1.314
M16
G05
G00X3.587Y-1.314
M15
G01X3.575Y-1.314
M16
G05
T10
G00X7.3499Y-2.638
M15
G01X7.5374Y-2.638
M16
G05
G00X7.3499Y-3.3879
M15
G01X7.5374Y-3.3879
M16
G05
G00X7.3499Y-4.1379
M15
G01X7.5374Y-4.1379
M16
G05
G00X7.3499Y-4.8879
M15
G01X7.5374Y-4.8879
M16
G05
T0
M30
