%TF.GenerationSoftware,KiCad,Pcbnew,(6.0.5)*%
%TF.CreationDate,2022-06-12T17:08:15-07:00*%
%TF.ProjectId,ErgoDOX,4572676f-444f-4582-9e6b-696361645f70,rev?*%
%TF.SameCoordinates,Original*%
%TF.FileFunction,Paste,Top*%
%TF.FilePolarity,Positive*%
%FSLAX46Y46*%
G04 Gerber Fmt 4.6, Leading zero omitted, Abs format (unit mm)*
G04 Created by KiCad (PCBNEW (6.0.5)) date 2022-06-12 17:08:15*
%MOMM*%
%LPD*%
G01*
G04 APERTURE LIST*
G04 Aperture macros list*
%AMRoundRect*
0 Rectangle with rounded corners*
0 $1 Rounding radius*
0 $2 $3 $4 $5 $6 $7 $8 $9 X,Y pos of 4 corners*
0 Add a 4 corners polygon primitive as box body*
4,1,4,$2,$3,$4,$5,$6,$7,$8,$9,$2,$3,0*
0 Add four circle primitives for the rounded corners*
1,1,$1+$1,$2,$3*
1,1,$1+$1,$4,$5*
1,1,$1+$1,$6,$7*
1,1,$1+$1,$8,$9*
0 Add four rect primitives between the rounded corners*
20,1,$1+$1,$2,$3,$4,$5,0*
20,1,$1+$1,$4,$5,$6,$7,0*
20,1,$1+$1,$6,$7,$8,$9,0*
20,1,$1+$1,$8,$9,$2,$3,0*%
%AMRotRect*
0 Rectangle, with rotation*
0 The origin of the aperture is its center*
0 $1 length*
0 $2 width*
0 $3 Rotation angle, in degrees counterclockwise*
0 Add horizontal line*
21,1,$1,$2,0,0,$3*%
G04 Aperture macros list end*
%ADD10R,1.600000X2.200000*%
%ADD11RoundRect,0.051100X0.553900X0.313900X-0.553900X0.313900X-0.553900X-0.313900X0.553900X-0.313900X0*%
%ADD12RotRect,1.600000X2.200000X205.000000*%
%ADD13RoundRect,0.051100X0.369344X0.518578X-0.634664X0.050402X-0.369344X-0.518578X0.634664X-0.050402X0*%
%ADD14R,2.200000X1.600000*%
%ADD15RoundRect,0.051100X-0.313900X0.553900X-0.313900X-0.553900X0.313900X-0.553900X0.313900X0.553900X0*%
%ADD16RotRect,1.600000X2.200000X295.000000*%
%ADD17RoundRect,0.051100X-0.518578X0.369344X-0.050402X-0.634664X0.518578X-0.369344X0.050402X0.634664X0*%
G04 APERTURE END LIST*
D10*
%TO.C,SW5:10*%
X137440000Y-65930000D03*
X126740000Y-68130000D03*
D11*
X131220000Y-53936000D03*
X127860000Y-53936000D03*
%TD*%
D10*
%TO.C,SW1:10*%
X137440000Y-142130000D03*
X126740000Y-144330000D03*
D11*
X131220000Y-130136000D03*
X127860000Y-130136000D03*
%TD*%
D10*
%TO.C,SW2:10*%
X137440000Y-123080000D03*
X126740000Y-125280000D03*
D11*
X131220000Y-111086000D03*
X127860000Y-111086000D03*
%TD*%
D12*
%TO.C,SW0:12*%
X59523519Y-177814655D03*
X50755786Y-184330547D03*
D13*
X48817401Y-169573085D03*
X45772207Y-170993082D03*
%TD*%
D12*
%TO.C,SW0:9*%
X51471719Y-160547735D03*
X42703986Y-167063627D03*
D13*
X40765601Y-152306165D03*
X37720407Y-153726162D03*
%TD*%
D12*
%TO.C,SW0:7*%
X43422459Y-143283355D03*
X34654726Y-149799247D03*
D13*
X32716341Y-135041785D03*
X29671147Y-136461782D03*
%TD*%
D14*
%TO.C,SW2:7*%
X76090000Y-109585160D03*
X78290000Y-120285160D03*
D15*
X64096000Y-115805160D03*
X64096000Y-119165160D03*
%TD*%
D14*
%TO.C,SW4:7*%
X76090000Y-81010160D03*
X78290000Y-91710160D03*
D15*
X64096000Y-87230160D03*
X64096000Y-90590160D03*
%TD*%
D12*
%TO.C,SW0:8*%
X60686839Y-135234095D03*
X51919106Y-141749987D03*
D13*
X49980721Y-126992525D03*
X46935527Y-128412522D03*
%TD*%
D10*
%TO.C,SW2:8*%
X99340000Y-125947660D03*
X88640000Y-128147660D03*
D11*
X93120000Y-113953660D03*
X89760000Y-113953660D03*
%TD*%
D10*
%TO.C,SW4:8*%
X99340000Y-87847660D03*
X88640000Y-90047660D03*
D11*
X93120000Y-75853660D03*
X89760000Y-75853660D03*
%TD*%
D10*
%TO.C,SW3:8*%
X99340000Y-106897660D03*
X88640000Y-109097660D03*
D11*
X93120000Y-94903660D03*
X89760000Y-94903660D03*
%TD*%
D10*
%TO.C,SW1:9*%
X118390000Y-143727660D03*
X107690000Y-145927660D03*
D11*
X112170000Y-131733660D03*
X108810000Y-131733660D03*
%TD*%
D10*
%TO.C,SW2:9*%
X118390000Y-124677660D03*
X107690000Y-126877660D03*
D11*
X112170000Y-112683660D03*
X108810000Y-112683660D03*
%TD*%
D10*
%TO.C,SW3:9*%
X118390000Y-105627660D03*
X107690000Y-107827660D03*
D11*
X112170000Y-93633660D03*
X108810000Y-93633660D03*
%TD*%
D10*
%TO.C,SW4:9*%
X118390000Y-86577660D03*
X107690000Y-88777660D03*
D11*
X112170000Y-74583660D03*
X108810000Y-74583660D03*
%TD*%
D10*
%TO.C,SW5:9*%
X118390000Y-67527660D03*
X107690000Y-69727660D03*
D11*
X112170000Y-55533660D03*
X108810000Y-55533660D03*
%TD*%
D16*
%TO.C,SW0:11*%
X64053135Y-152393761D03*
X70569027Y-161161494D03*
D17*
X55811565Y-163099879D03*
X57231562Y-166145073D03*
%TD*%
D16*
%TO.C,SW0:10*%
X81317515Y-144341961D03*
X87833407Y-153109694D03*
D17*
X73075945Y-155048079D03*
X74495942Y-158093273D03*
%TD*%
D10*
%TO.C,SW3:10*%
X137440000Y-104030000D03*
X126740000Y-106230000D03*
D11*
X131220000Y-92036000D03*
X127860000Y-92036000D03*
%TD*%
D10*
%TO.C,SW4:10*%
X137440000Y-84980000D03*
X126740000Y-87180000D03*
D11*
X131220000Y-72986000D03*
X127860000Y-72986000D03*
%TD*%
D10*
%TO.C,SW1:11*%
X156490000Y-143727660D03*
X145790000Y-145927660D03*
D11*
X150270000Y-131733660D03*
X146910000Y-131733660D03*
%TD*%
D10*
%TO.C,SW2:11*%
X156490000Y-124677660D03*
X145790000Y-126877660D03*
D11*
X150270000Y-112683660D03*
X146910000Y-112683660D03*
%TD*%
D10*
%TO.C,SW3:11*%
X156490000Y-105627660D03*
X145790000Y-107827660D03*
D11*
X150270000Y-93633660D03*
X146910000Y-93633660D03*
%TD*%
%TO.C,SW4:11*%
X146910000Y-74583660D03*
X150270000Y-74583660D03*
D10*
X145790000Y-88777660D03*
X156490000Y-86577660D03*
%TD*%
%TO.C,SW5:11*%
X156490000Y-67527660D03*
X145790000Y-69727660D03*
D11*
X150270000Y-55533660D03*
X146910000Y-55533660D03*
%TD*%
D10*
%TO.C,SW1:12*%
X175540000Y-146902660D03*
X164840000Y-149102660D03*
D11*
X169320000Y-134908660D03*
X165960000Y-134908660D03*
%TD*%
D10*
%TO.C,SW2:12*%
X175540000Y-127852660D03*
X164840000Y-130052660D03*
D11*
X169320000Y-115858660D03*
X165960000Y-115858660D03*
%TD*%
D10*
%TO.C,SW3:12*%
X175540000Y-108802660D03*
X164840000Y-111002660D03*
D11*
X169320000Y-96808660D03*
X165960000Y-96808660D03*
%TD*%
D10*
%TO.C,SW4:12*%
X175540000Y-89752660D03*
X164840000Y-91952660D03*
D11*
X169320000Y-77758660D03*
X165960000Y-77758660D03*
%TD*%
D10*
%TO.C,SW5:12*%
X175540000Y-70705200D03*
X164840000Y-72905200D03*
D11*
X169320000Y-58711200D03*
X165960000Y-58711200D03*
%TD*%
%TO.C,SW5:13*%
X189772500Y-58711200D03*
X193132500Y-58711200D03*
D10*
X188652500Y-72905200D03*
X199352500Y-70705200D03*
%TD*%
%TO.C,SW4:13*%
X199352500Y-89752660D03*
X188652500Y-91952660D03*
D11*
X193132500Y-77758660D03*
X189772500Y-77758660D03*
%TD*%
D10*
%TO.C,SW3:13*%
X199352500Y-108802660D03*
X188652500Y-111002660D03*
D11*
X193132500Y-96808660D03*
X189772500Y-96808660D03*
%TD*%
D10*
%TO.C,SW2:13*%
X199352500Y-127852660D03*
X188652500Y-130052660D03*
D11*
X193132500Y-115858660D03*
X189772500Y-115858660D03*
%TD*%
D10*
%TO.C,SW1:13*%
X199352500Y-146902660D03*
X188652500Y-149102660D03*
D11*
X193132500Y-134908660D03*
X189772500Y-134908660D03*
%TD*%
D10*
%TO.C,SW5:8*%
X99340000Y-68800200D03*
X88640000Y-71000200D03*
D11*
X93120000Y-56806200D03*
X89760000Y-56806200D03*
%TD*%
D10*
%TO.C,SW5:7*%
X80290000Y-68800200D03*
X69590000Y-71000200D03*
D11*
X74070000Y-56806200D03*
X70710000Y-56806200D03*
%TD*%
M02*
