%TF.GenerationSoftware,KiCad,Pcbnew,(6.0.5)*%
%TF.CreationDate,2022-05-21T18:26:57-06:00*%
%TF.ProjectId,ErgoDOX,4572676f-444f-4582-9e6b-696361645f70,rev?*%
%TF.SameCoordinates,Original*%
%TF.FileFunction,Other,ECO1*%
%FSLAX46Y46*%
G04 Gerber Fmt 4.6, Leading zero omitted, Abs format (unit mm)*
G04 Created by KiCad (PCBNEW (6.0.5)) date 2022-05-21 18:26:57*
%MOMM*%
%LPD*%
G01*
G04 APERTURE LIST*
%ADD10C,0.150000*%
%ADD11C,0.120000*%
G04 APERTURE END LIST*
D10*
%TO.C,SW5:10*%
X124897142Y-53982380D02*
X124325714Y-53982380D01*
X124611428Y-53982380D02*
X124611428Y-52982380D01*
X124516190Y-53125238D01*
X124420952Y-53220476D01*
X124325714Y-53268095D01*
X125373333Y-53982380D02*
X125563809Y-53982380D01*
X125659047Y-53934761D01*
X125706666Y-53887142D01*
X125801904Y-53744285D01*
X125849523Y-53553809D01*
X125849523Y-53172857D01*
X125801904Y-53077619D01*
X125754285Y-53030000D01*
X125659047Y-52982380D01*
X125468571Y-52982380D01*
X125373333Y-53030000D01*
X125325714Y-53077619D01*
X125278095Y-53172857D01*
X125278095Y-53410952D01*
X125325714Y-53506190D01*
X125373333Y-53553809D01*
X125468571Y-53601428D01*
X125659047Y-53601428D01*
X125754285Y-53553809D01*
X125801904Y-53506190D01*
X125849523Y-53410952D01*
X126278095Y-53887142D02*
X126325714Y-53934761D01*
X126278095Y-53982380D01*
X126230476Y-53934761D01*
X126278095Y-53887142D01*
X126278095Y-53982380D01*
X126944761Y-52982380D02*
X127040000Y-52982380D01*
X127135238Y-53030000D01*
X127182857Y-53077619D01*
X127230476Y-53172857D01*
X127278095Y-53363333D01*
X127278095Y-53601428D01*
X127230476Y-53791904D01*
X127182857Y-53887142D01*
X127135238Y-53934761D01*
X127040000Y-53982380D01*
X126944761Y-53982380D01*
X126849523Y-53934761D01*
X126801904Y-53887142D01*
X126754285Y-53791904D01*
X126706666Y-53601428D01*
X126706666Y-53363333D01*
X126754285Y-53172857D01*
X126801904Y-53077619D01*
X126849523Y-53030000D01*
X126944761Y-52982380D01*
X128182857Y-52982380D02*
X127706666Y-52982380D01*
X127659047Y-53458571D01*
X127706666Y-53410952D01*
X127801904Y-53363333D01*
X128040000Y-53363333D01*
X128135238Y-53410952D01*
X128182857Y-53458571D01*
X128230476Y-53553809D01*
X128230476Y-53791904D01*
X128182857Y-53887142D01*
X128135238Y-53934761D01*
X128040000Y-53982380D01*
X127801904Y-53982380D01*
X127706666Y-53934761D01*
X127659047Y-53887142D01*
X129373333Y-53934761D02*
X129468571Y-53982380D01*
X129659047Y-53982380D01*
X129754285Y-53934761D01*
X129801904Y-53839523D01*
X129801904Y-53791904D01*
X129754285Y-53696666D01*
X129659047Y-53649047D01*
X129516190Y-53649047D01*
X129420952Y-53601428D01*
X129373333Y-53506190D01*
X129373333Y-53458571D01*
X129420952Y-53363333D01*
X129516190Y-53315714D01*
X129659047Y-53315714D01*
X129754285Y-53363333D01*
X130230476Y-53315714D02*
X130230476Y-54315714D01*
X130230476Y-53363333D02*
X130325714Y-53315714D01*
X130516190Y-53315714D01*
X130611428Y-53363333D01*
X130659047Y-53410952D01*
X130706666Y-53506190D01*
X130706666Y-53791904D01*
X130659047Y-53887142D01*
X130611428Y-53934761D01*
X130516190Y-53982380D01*
X130325714Y-53982380D01*
X130230476Y-53934761D01*
X131563809Y-53982380D02*
X131563809Y-53458571D01*
X131516190Y-53363333D01*
X131420952Y-53315714D01*
X131230476Y-53315714D01*
X131135238Y-53363333D01*
X131563809Y-53934761D02*
X131468571Y-53982380D01*
X131230476Y-53982380D01*
X131135238Y-53934761D01*
X131087619Y-53839523D01*
X131087619Y-53744285D01*
X131135238Y-53649047D01*
X131230476Y-53601428D01*
X131468571Y-53601428D01*
X131563809Y-53553809D01*
X132468571Y-53934761D02*
X132373333Y-53982380D01*
X132182857Y-53982380D01*
X132087619Y-53934761D01*
X132040000Y-53887142D01*
X131992380Y-53791904D01*
X131992380Y-53506190D01*
X132040000Y-53410952D01*
X132087619Y-53363333D01*
X132182857Y-53315714D01*
X132373333Y-53315714D01*
X132468571Y-53363333D01*
X132897142Y-53982380D02*
X132897142Y-53315714D01*
X132897142Y-52982380D02*
X132849523Y-53030000D01*
X132897142Y-53077619D01*
X132944761Y-53030000D01*
X132897142Y-52982380D01*
X132897142Y-53077619D01*
X133373333Y-53315714D02*
X133373333Y-53982380D01*
X133373333Y-53410952D02*
X133420952Y-53363333D01*
X133516190Y-53315714D01*
X133659047Y-53315714D01*
X133754285Y-53363333D01*
X133801904Y-53458571D01*
X133801904Y-53982380D01*
X134706666Y-53315714D02*
X134706666Y-54125238D01*
X134659047Y-54220476D01*
X134611428Y-54268095D01*
X134516190Y-54315714D01*
X134373333Y-54315714D01*
X134278095Y-54268095D01*
X134706666Y-53934761D02*
X134611428Y-53982380D01*
X134420952Y-53982380D01*
X134325714Y-53934761D01*
X134278095Y-53887142D01*
X134230476Y-53791904D01*
X134230476Y-53506190D01*
X134278095Y-53410952D01*
X134325714Y-53363333D01*
X134420952Y-53315714D01*
X134611428Y-53315714D01*
X134706666Y-53363333D01*
%TO.C,SW5:11*%
X143947142Y-55580040D02*
X143375714Y-55580040D01*
X143661428Y-55580040D02*
X143661428Y-54580040D01*
X143566190Y-54722898D01*
X143470952Y-54818136D01*
X143375714Y-54865755D01*
X144423333Y-55580040D02*
X144613809Y-55580040D01*
X144709047Y-55532421D01*
X144756666Y-55484802D01*
X144851904Y-55341945D01*
X144899523Y-55151469D01*
X144899523Y-54770517D01*
X144851904Y-54675279D01*
X144804285Y-54627660D01*
X144709047Y-54580040D01*
X144518571Y-54580040D01*
X144423333Y-54627660D01*
X144375714Y-54675279D01*
X144328095Y-54770517D01*
X144328095Y-55008612D01*
X144375714Y-55103850D01*
X144423333Y-55151469D01*
X144518571Y-55199088D01*
X144709047Y-55199088D01*
X144804285Y-55151469D01*
X144851904Y-55103850D01*
X144899523Y-55008612D01*
X145328095Y-55484802D02*
X145375714Y-55532421D01*
X145328095Y-55580040D01*
X145280476Y-55532421D01*
X145328095Y-55484802D01*
X145328095Y-55580040D01*
X145994761Y-54580040D02*
X146090000Y-54580040D01*
X146185238Y-54627660D01*
X146232857Y-54675279D01*
X146280476Y-54770517D01*
X146328095Y-54960993D01*
X146328095Y-55199088D01*
X146280476Y-55389564D01*
X146232857Y-55484802D01*
X146185238Y-55532421D01*
X146090000Y-55580040D01*
X145994761Y-55580040D01*
X145899523Y-55532421D01*
X145851904Y-55484802D01*
X145804285Y-55389564D01*
X145756666Y-55199088D01*
X145756666Y-54960993D01*
X145804285Y-54770517D01*
X145851904Y-54675279D01*
X145899523Y-54627660D01*
X145994761Y-54580040D01*
X147232857Y-54580040D02*
X146756666Y-54580040D01*
X146709047Y-55056231D01*
X146756666Y-55008612D01*
X146851904Y-54960993D01*
X147090000Y-54960993D01*
X147185238Y-55008612D01*
X147232857Y-55056231D01*
X147280476Y-55151469D01*
X147280476Y-55389564D01*
X147232857Y-55484802D01*
X147185238Y-55532421D01*
X147090000Y-55580040D01*
X146851904Y-55580040D01*
X146756666Y-55532421D01*
X146709047Y-55484802D01*
X148423333Y-55532421D02*
X148518571Y-55580040D01*
X148709047Y-55580040D01*
X148804285Y-55532421D01*
X148851904Y-55437183D01*
X148851904Y-55389564D01*
X148804285Y-55294326D01*
X148709047Y-55246707D01*
X148566190Y-55246707D01*
X148470952Y-55199088D01*
X148423333Y-55103850D01*
X148423333Y-55056231D01*
X148470952Y-54960993D01*
X148566190Y-54913374D01*
X148709047Y-54913374D01*
X148804285Y-54960993D01*
X149280476Y-54913374D02*
X149280476Y-55913374D01*
X149280476Y-54960993D02*
X149375714Y-54913374D01*
X149566190Y-54913374D01*
X149661428Y-54960993D01*
X149709047Y-55008612D01*
X149756666Y-55103850D01*
X149756666Y-55389564D01*
X149709047Y-55484802D01*
X149661428Y-55532421D01*
X149566190Y-55580040D01*
X149375714Y-55580040D01*
X149280476Y-55532421D01*
X150613809Y-55580040D02*
X150613809Y-55056231D01*
X150566190Y-54960993D01*
X150470952Y-54913374D01*
X150280476Y-54913374D01*
X150185238Y-54960993D01*
X150613809Y-55532421D02*
X150518571Y-55580040D01*
X150280476Y-55580040D01*
X150185238Y-55532421D01*
X150137619Y-55437183D01*
X150137619Y-55341945D01*
X150185238Y-55246707D01*
X150280476Y-55199088D01*
X150518571Y-55199088D01*
X150613809Y-55151469D01*
X151518571Y-55532421D02*
X151423333Y-55580040D01*
X151232857Y-55580040D01*
X151137619Y-55532421D01*
X151090000Y-55484802D01*
X151042380Y-55389564D01*
X151042380Y-55103850D01*
X151090000Y-55008612D01*
X151137619Y-54960993D01*
X151232857Y-54913374D01*
X151423333Y-54913374D01*
X151518571Y-54960993D01*
X151947142Y-55580040D02*
X151947142Y-54913374D01*
X151947142Y-54580040D02*
X151899523Y-54627660D01*
X151947142Y-54675279D01*
X151994761Y-54627660D01*
X151947142Y-54580040D01*
X151947142Y-54675279D01*
X152423333Y-54913374D02*
X152423333Y-55580040D01*
X152423333Y-55008612D02*
X152470952Y-54960993D01*
X152566190Y-54913374D01*
X152709047Y-54913374D01*
X152804285Y-54960993D01*
X152851904Y-55056231D01*
X152851904Y-55580040D01*
X153756666Y-54913374D02*
X153756666Y-55722898D01*
X153709047Y-55818136D01*
X153661428Y-55865755D01*
X153566190Y-55913374D01*
X153423333Y-55913374D01*
X153328095Y-55865755D01*
X153756666Y-55532421D02*
X153661428Y-55580040D01*
X153470952Y-55580040D01*
X153375714Y-55532421D01*
X153328095Y-55484802D01*
X153280476Y-55389564D01*
X153280476Y-55103850D01*
X153328095Y-55008612D01*
X153375714Y-54960993D01*
X153470952Y-54913374D01*
X153661428Y-54913374D01*
X153756666Y-54960993D01*
D11*
%TO.C,SW5:10*%
X139065000Y-71755000D02*
X139065000Y-52705000D01*
X139065000Y-52705000D02*
X120015000Y-52705000D01*
X120015000Y-71755000D02*
X139065000Y-71755000D01*
X120015000Y-52705000D02*
X120015000Y-71755000D01*
%TO.C,SW5:11*%
X158115000Y-73352660D02*
X158115000Y-54302660D01*
X158115000Y-54302660D02*
X139065000Y-54302660D01*
X139065000Y-73352660D02*
X158115000Y-73352660D01*
X139065000Y-54302660D02*
X139065000Y-73352660D01*
%TD*%
M02*
