%TF.GenerationSoftware,KiCad,Pcbnew,(6.0.5)*%
%TF.CreationDate,2022-05-23T22:21:51-06:00*%
%TF.ProjectId,ErgoDOX,4572676f-444f-4582-9e6b-696361645f70,rev?*%
%TF.SameCoordinates,Original*%
%TF.FileFunction,OtherDrawing,Comment*%
%FSLAX46Y46*%
G04 Gerber Fmt 4.6, Leading zero omitted, Abs format (unit mm)*
G04 Created by KiCad (PCBNEW (6.0.5)) date 2022-05-23 22:21:51*
%MOMM*%
%LPD*%
G01*
G04 APERTURE LIST*
%ADD10C,0.120000*%
%ADD11C,0.381000*%
%ADD12C,0.025400*%
G04 APERTURE END LIST*
D10*
%TO.C,SW1:13*%
X195690000Y-134702660D02*
X195690000Y-151702660D01*
X195690000Y-151702660D02*
X177690000Y-151702660D01*
X177690000Y-134702660D02*
X195690000Y-134702660D01*
X177690000Y-151702660D02*
X177690000Y-134702660D01*
%TO.C,SW1:10*%
X120540000Y-129930000D02*
X138540000Y-129930000D01*
X138540000Y-129930000D02*
X138540000Y-146930000D01*
X120540000Y-146930000D02*
X120540000Y-129930000D01*
X138540000Y-146930000D02*
X120540000Y-146930000D01*
%TO.C,SW1:9*%
X101490000Y-148527660D02*
X101490000Y-131527660D01*
X119490000Y-131527660D02*
X119490000Y-148527660D01*
X119490000Y-148527660D02*
X101490000Y-148527660D01*
X101490000Y-131527660D02*
X119490000Y-131527660D01*
%TO.C,SW2:13*%
X200452500Y-132652660D02*
X182452500Y-132652660D01*
X200452500Y-115652660D02*
X200452500Y-132652660D01*
X182452500Y-132652660D02*
X182452500Y-115652660D01*
X182452500Y-115652660D02*
X200452500Y-115652660D01*
%TO.C,SW2:10*%
X120540000Y-110880000D02*
X138540000Y-110880000D01*
X138540000Y-110880000D02*
X138540000Y-127880000D01*
X138540000Y-127880000D02*
X120540000Y-127880000D01*
X120540000Y-127880000D02*
X120540000Y-110880000D01*
%TO.C,SW2:9*%
X119490000Y-129477660D02*
X101490000Y-129477660D01*
X101490000Y-112477660D02*
X119490000Y-112477660D01*
X101490000Y-129477660D02*
X101490000Y-112477660D01*
X119490000Y-112477660D02*
X119490000Y-129477660D01*
%TO.C,SW2:7*%
X63890000Y-126485160D02*
X63890000Y-108485160D01*
X80890000Y-108485160D02*
X80890000Y-126485160D01*
X80890000Y-126485160D02*
X63890000Y-126485160D01*
X63890000Y-108485160D02*
X80890000Y-108485160D01*
%TO.C,SW3:13*%
X200452500Y-113602660D02*
X182452500Y-113602660D01*
X182452500Y-96602660D02*
X200452500Y-96602660D01*
X200452500Y-96602660D02*
X200452500Y-113602660D01*
X182452500Y-113602660D02*
X182452500Y-96602660D01*
%TO.C,SW3:11*%
X157590000Y-110427660D02*
X139590000Y-110427660D01*
X139590000Y-93427660D02*
X157590000Y-93427660D01*
X139590000Y-110427660D02*
X139590000Y-93427660D01*
X157590000Y-93427660D02*
X157590000Y-110427660D01*
%TO.C,SW3:10*%
X138540000Y-91830000D02*
X138540000Y-108830000D01*
X120540000Y-108830000D02*
X120540000Y-91830000D01*
X120540000Y-91830000D02*
X138540000Y-91830000D01*
X138540000Y-108830000D02*
X120540000Y-108830000D01*
%TO.C,SW3:9*%
X101490000Y-93427660D02*
X119490000Y-93427660D01*
X101490000Y-110427660D02*
X101490000Y-93427660D01*
X119490000Y-93427660D02*
X119490000Y-110427660D01*
X119490000Y-110427660D02*
X101490000Y-110427660D01*
%TO.C,SW3:8*%
X100440000Y-111697660D02*
X82440000Y-111697660D01*
X82440000Y-111697660D02*
X82440000Y-94697660D01*
X100440000Y-94697660D02*
X100440000Y-111697660D01*
X82440000Y-94697660D02*
X100440000Y-94697660D01*
%TO.C,SW4:13*%
X182452500Y-94552660D02*
X182452500Y-77552660D01*
X200452500Y-94552660D02*
X182452500Y-94552660D01*
X200452500Y-77552660D02*
X200452500Y-94552660D01*
X182452500Y-77552660D02*
X200452500Y-77552660D01*
%TO.C,SW4:12*%
X158640000Y-77552660D02*
X176640000Y-77552660D01*
X176640000Y-94552660D02*
X158640000Y-94552660D01*
X158640000Y-94552660D02*
X158640000Y-77552660D01*
X176640000Y-77552660D02*
X176640000Y-94552660D01*
%TO.C,SW4:11*%
X157590000Y-91377660D02*
X139590000Y-91377660D01*
X139590000Y-91377660D02*
X139590000Y-74377660D01*
X139590000Y-74377660D02*
X157590000Y-74377660D01*
X157590000Y-74377660D02*
X157590000Y-91377660D01*
%TO.C,SW4:10*%
X138540000Y-89780000D02*
X120540000Y-89780000D01*
X120540000Y-89780000D02*
X120540000Y-72780000D01*
X120540000Y-72780000D02*
X138540000Y-72780000D01*
X138540000Y-72780000D02*
X138540000Y-89780000D01*
%TO.C,SW4:9*%
X101490000Y-91377660D02*
X101490000Y-74377660D01*
X119490000Y-91377660D02*
X101490000Y-91377660D01*
X119490000Y-74377660D02*
X119490000Y-91377660D01*
X101490000Y-74377660D02*
X119490000Y-74377660D01*
%TO.C,SW4:8*%
X82440000Y-75647660D02*
X100440000Y-75647660D01*
X82440000Y-92647660D02*
X82440000Y-75647660D01*
X100440000Y-75647660D02*
X100440000Y-92647660D01*
X100440000Y-92647660D02*
X82440000Y-92647660D01*
%TO.C,SW4:7*%
X63890000Y-79910160D02*
X80890000Y-79910160D01*
X80890000Y-97910160D02*
X63890000Y-97910160D01*
X80890000Y-79910160D02*
X80890000Y-97910160D01*
X63890000Y-97910160D02*
X63890000Y-79910160D01*
%TO.C,SW0:10*%
X92810041Y-157629995D02*
X77402808Y-164814505D01*
X69795679Y-148500965D02*
X85202912Y-141316455D01*
X77402808Y-164814505D02*
X69795679Y-148500965D01*
X85202912Y-141316455D02*
X92810041Y-157629995D01*
%TO.C,SW0:12*%
X39050975Y-173899948D02*
X55364515Y-166292819D01*
X62549025Y-181700052D02*
X46235485Y-189307181D01*
X55364515Y-166292819D02*
X62549025Y-181700052D01*
X46235485Y-189307181D02*
X39050975Y-173899948D01*
%TO.C,SW0:11*%
X75545661Y-165681795D02*
X60138428Y-172866305D01*
X67938532Y-149368255D02*
X75545661Y-165681795D01*
X52531299Y-156552765D02*
X67938532Y-149368255D01*
X60138428Y-172866305D02*
X52531299Y-156552765D01*
%TO.C,SW0:9*%
X30999175Y-156633028D02*
X47312715Y-149025899D01*
X54497225Y-164433132D02*
X38183685Y-172040261D01*
X47312715Y-149025899D02*
X54497225Y-164433132D01*
X38183685Y-172040261D02*
X30999175Y-156633028D01*
%TO.C,SW0:7*%
X46447965Y-147168752D02*
X30134425Y-154775881D01*
X22949915Y-139368648D02*
X39263455Y-131761519D01*
X39263455Y-131761519D02*
X46447965Y-147168752D01*
X30134425Y-154775881D02*
X22949915Y-139368648D01*
%TO.C,SW1:11*%
X157590000Y-131527660D02*
X157590000Y-148527660D01*
X139590000Y-131527660D02*
X157590000Y-131527660D01*
X139590000Y-148527660D02*
X139590000Y-131527660D01*
X157590000Y-148527660D02*
X139590000Y-148527660D01*
%TO.C,SW0:8*%
X47398805Y-146726621D02*
X40214295Y-131319388D01*
X40214295Y-131319388D02*
X56527835Y-123712259D01*
X63712345Y-139119492D02*
X47398805Y-146726621D01*
X56527835Y-123712259D02*
X63712345Y-139119492D01*
D11*
%TO.C,RC1*%
X128587500Y-45720000D02*
X128587500Y-48260000D01*
D12*
X125412500Y-46990000D02*
X125412500Y-46990000D01*
D11*
X122237500Y-48260000D02*
X122237500Y-45720000D01*
X128587500Y-48260000D02*
X122237500Y-48260000D01*
X122237500Y-45720000D02*
X128587500Y-45720000D01*
%TO.C,RA1*%
X150254538Y-42259410D02*
X152050590Y-44055462D01*
X152050590Y-44055462D02*
X147560462Y-48545590D01*
X147560462Y-48545590D02*
X145764410Y-46749538D01*
D12*
X148907500Y-45402500D02*
X148907500Y-45402500D01*
D11*
X145764410Y-46749538D02*
X150254538Y-42259410D01*
%TO.C,RB1*%
X148349538Y-40354410D02*
X150145590Y-42150462D01*
X145655462Y-46640590D02*
X143859410Y-44844538D01*
X150145590Y-42150462D02*
X145655462Y-46640590D01*
D12*
X147002500Y-43497500D02*
X147002500Y-43497500D01*
D11*
X143859410Y-44844538D02*
X148349538Y-40354410D01*
%TO.C,R1*%
X104062962Y-37179410D02*
X108553090Y-41669538D01*
D12*
X105410000Y-40322500D02*
X105410000Y-40322500D01*
D11*
X102266910Y-38975462D02*
X104062962Y-37179410D01*
X106757038Y-43465590D02*
X102266910Y-38975462D01*
X108553090Y-41669538D02*
X106757038Y-43465590D01*
%TO.C,J2*%
X81508600Y-30480000D02*
X81508600Y-42545000D01*
X84061300Y-30480000D02*
X81508600Y-30480000D01*
X84061300Y-31775400D02*
X84061300Y-30480000D01*
X88557100Y-31775400D02*
X84061300Y-31775400D01*
X81508600Y-42545000D02*
X91109800Y-42545000D01*
X91109800Y-42545000D02*
X91109800Y-30480000D01*
X91109800Y-30480000D02*
X88557100Y-30480000D01*
D12*
X86309200Y-30480000D02*
X86309200Y-30480000D01*
D11*
X88557100Y-30480000D02*
X88557100Y-31775400D01*
%TO.C,R2*%
X100887962Y-38449410D02*
X105378090Y-42939538D01*
D12*
X102235000Y-41592500D02*
X102235000Y-41592500D01*
D11*
X103582038Y-44735590D02*
X99091910Y-40245462D01*
X105378090Y-42939538D02*
X103582038Y-44735590D01*
X99091910Y-40245462D02*
X100887962Y-38449410D01*
%TO.C,J1*%
X133791960Y-28481020D02*
X141493240Y-28481020D01*
X141493240Y-37480240D02*
X133791960Y-37480240D01*
D12*
X137642600Y-30480000D02*
X137642600Y-30480000D01*
D11*
X141493240Y-28481020D02*
X141493240Y-37480240D01*
X133791960Y-37480240D02*
X133791960Y-28481020D01*
D10*
%TO.C,SW5:13*%
X200452500Y-58505200D02*
X200452500Y-75505200D01*
X182452500Y-75505200D02*
X182452500Y-58505200D01*
X182452500Y-58505200D02*
X200452500Y-58505200D01*
X200452500Y-75505200D02*
X182452500Y-75505200D01*
%TO.C,SW5:9*%
X119490000Y-72327660D02*
X101490000Y-72327660D01*
X119490000Y-55327660D02*
X119490000Y-72327660D01*
X101490000Y-72327660D02*
X101490000Y-55327660D01*
X101490000Y-55327660D02*
X119490000Y-55327660D01*
%TO.C,SW5:10*%
X120540000Y-53730000D02*
X138540000Y-53730000D01*
X138540000Y-53730000D02*
X138540000Y-70730000D01*
X120540000Y-70730000D02*
X120540000Y-53730000D01*
X138540000Y-70730000D02*
X120540000Y-70730000D01*
%TO.C,SW5:11*%
X139590000Y-72327660D02*
X139590000Y-55327660D01*
X157590000Y-55327660D02*
X157590000Y-72327660D01*
X139590000Y-55327660D02*
X157590000Y-55327660D01*
X157590000Y-72327660D02*
X139590000Y-72327660D01*
%TO.C,SW5:12*%
X158640000Y-58505200D02*
X176640000Y-58505200D01*
X176640000Y-58505200D02*
X176640000Y-75505200D01*
X158640000Y-75505200D02*
X158640000Y-58505200D01*
X176640000Y-75505200D02*
X158640000Y-75505200D01*
%TO.C,SW5:8*%
X82440000Y-56600200D02*
X100440000Y-56600200D01*
X100440000Y-73600200D02*
X82440000Y-73600200D01*
X100440000Y-56600200D02*
X100440000Y-73600200D01*
X82440000Y-73600200D02*
X82440000Y-56600200D01*
%TO.C,SW5:7*%
X81390000Y-56600200D02*
X81390000Y-73600200D01*
X63390000Y-56600200D02*
X81390000Y-56600200D01*
X63390000Y-73600200D02*
X63390000Y-56600200D01*
X81390000Y-73600200D02*
X63390000Y-73600200D01*
%TO.C,SW2:11*%
X157590000Y-129477660D02*
X139590000Y-129477660D01*
X157590000Y-112477660D02*
X157590000Y-129477660D01*
X139590000Y-129477660D02*
X139590000Y-112477660D01*
X139590000Y-112477660D02*
X157590000Y-112477660D01*
%TO.C,SW2:8*%
X100440000Y-130747660D02*
X82440000Y-130747660D01*
X82440000Y-113747660D02*
X100440000Y-113747660D01*
X82440000Y-130747660D02*
X82440000Y-113747660D01*
X100440000Y-113747660D02*
X100440000Y-130747660D01*
%TO.C,SW3:12*%
X176640000Y-96602660D02*
X176640000Y-113602660D01*
X176640000Y-113602660D02*
X158640000Y-113602660D01*
X158640000Y-96602660D02*
X176640000Y-96602660D01*
X158640000Y-113602660D02*
X158640000Y-96602660D01*
%TO.C,SW2:12*%
X158640000Y-115652660D02*
X176640000Y-115652660D01*
X158640000Y-132652660D02*
X158640000Y-115652660D01*
X176640000Y-132652660D02*
X158640000Y-132652660D01*
X176640000Y-115652660D02*
X176640000Y-132652660D01*
%TO.C,SW1:12*%
X158640000Y-134702660D02*
X176640000Y-134702660D01*
X158640000Y-151702660D02*
X158640000Y-134702660D01*
X176640000Y-151702660D02*
X158640000Y-151702660D01*
X176640000Y-134702660D02*
X176640000Y-151702660D01*
D11*
%TO.C,U1*%
X191135000Y-33655000D02*
X160655000Y-33655000D01*
X160655000Y-51435000D02*
X191135000Y-51435000D01*
D12*
X175895000Y-42545000D02*
X175895000Y-42545000D01*
D11*
X191135000Y-51435000D02*
X191135000Y-33655000D01*
X160655000Y-33655000D02*
X160655000Y-51435000D01*
%TO.C,U2*%
X159385000Y-38735000D02*
X159385000Y-43815000D01*
X197485000Y-43815000D02*
X197485000Y-38735000D01*
X159385000Y-43815000D02*
X197485000Y-43815000D01*
X197485000Y-38735000D02*
X159385000Y-38735000D01*
D12*
X178435000Y-41275000D02*
X178435000Y-41275000D01*
%TD*%
M02*
