%TF.GenerationSoftware,KiCad,Pcbnew,(6.0.5)*%
%TF.CreationDate,2022-05-23T22:21:51-06:00*%
%TF.ProjectId,ErgoDOX,4572676f-444f-4582-9e6b-696361645f70,rev?*%
%TF.SameCoordinates,Original*%
%TF.FileFunction,Soldermask,Top*%
%TF.FilePolarity,Negative*%
%FSLAX46Y46*%
G04 Gerber Fmt 4.6, Leading zero omitted, Abs format (unit mm)*
G04 Created by KiCad (PCBNEW (6.0.5)) date 2022-05-23 22:21:51*
%MOMM*%
%LPD*%
G01*
G04 APERTURE LIST*
G04 Aperture macros list*
%AMRoundRect*
0 Rectangle with rounded corners*
0 $1 Rounding radius*
0 $2 $3 $4 $5 $6 $7 $8 $9 X,Y pos of 4 corners*
0 Add a 4 corners polygon primitive as box body*
4,1,4,$2,$3,$4,$5,$6,$7,$8,$9,$2,$3,0*
0 Add four circle primitives for the rounded corners*
1,1,$1+$1,$2,$3*
1,1,$1+$1,$4,$5*
1,1,$1+$1,$6,$7*
1,1,$1+$1,$8,$9*
0 Add four rect primitives between the rounded corners*
20,1,$1+$1,$2,$3,$4,$5,0*
20,1,$1+$1,$4,$5,$6,$7,0*
20,1,$1+$1,$6,$7,$8,$9,0*
20,1,$1+$1,$8,$9,$2,$3,0*%
%AMRotRect*
0 Rectangle, with rotation*
0 The origin of the aperture is its center*
0 $1 length*
0 $2 width*
0 $3 Rotation angle, in degrees counterclockwise*
0 Add horizontal line*
21,1,$1,$2,0,0,$3*%
G04 Aperture macros list end*
%ADD10C,5.867400*%
%ADD11C,3.400000*%
%ADD12C,1.700000*%
%ADD13C,2.000000*%
%ADD14C,1.651000*%
%ADD15RoundRect,0.051100X-0.553900X-0.313900X0.553900X-0.313900X0.553900X0.313900X-0.553900X0.313900X0*%
%ADD16R,1.651000X1.651000*%
%ADD17RoundRect,0.051100X0.313900X-0.553900X0.313900X0.553900X-0.313900X0.553900X-0.313900X-0.553900X0*%
%ADD18RoundRect,0.051100X0.518578X-0.369344X0.050402X0.634664X-0.518578X0.369344X-0.050402X-0.634664X0*%
%ADD19RotRect,1.651000X1.651000X115.000000*%
%ADD20RoundRect,0.051100X-0.369344X-0.518578X0.634664X-0.050402X0.369344X0.518578X-0.634664X0.050402X0*%
%ADD21RotRect,1.651000X1.651000X25.000000*%
%ADD22C,0.990600*%
%ADD23O,2.057400X1.752600*%
%ADD24C,1.752600*%
%ADD25O,1.143000X1.651000*%
%ADD26O,1.701800X2.794000*%
%ADD27R,1.752600X1.752600*%
%ADD28R,2.032000X1.016000*%
%ADD29R,1.700000X0.900000*%
%ADD30C,1.092200*%
G04 APERTURE END LIST*
D10*
%TO.C,H99*%
X67411600Y-37134800D03*
X53898800Y-165836600D03*
X201777600Y-140055600D03*
X201142600Y-37134800D03*
X118211600Y-37134800D03*
X105435400Y-157759400D03*
X139039600Y-91592400D03*
X59664600Y-121666000D03*
%TD*%
D11*
%TO.C,SW1:13*%
X186690000Y-143202660D03*
D12*
X181190000Y-143202660D03*
X192190000Y-143202660D03*
D13*
X191690000Y-147002660D03*
X181690000Y-147002660D03*
X186690000Y-149102660D03*
D14*
X182880000Y-151533860D03*
D15*
X185010000Y-151496660D03*
X185010000Y-151496660D03*
X188370000Y-151496660D03*
D16*
X190500000Y-151533860D03*
D15*
X188370000Y-151496660D03*
%TD*%
D12*
%TO.C,SW1:10*%
X135040000Y-138430000D03*
D11*
X129540000Y-138430000D03*
D12*
X124040000Y-138430000D03*
D13*
X124540000Y-142230000D03*
X134540000Y-142230000D03*
X129540000Y-144330000D03*
D15*
X127860000Y-146724000D03*
D14*
X125730000Y-146761200D03*
D15*
X127860000Y-146724000D03*
X131220000Y-146724000D03*
X131220000Y-146724000D03*
D16*
X133350000Y-146761200D03*
%TD*%
D12*
%TO.C,SW1:9*%
X115990000Y-140027660D03*
X104990000Y-140027660D03*
D11*
X110490000Y-140027660D03*
D13*
X105490000Y-143827660D03*
X115490000Y-143827660D03*
X110490000Y-145927660D03*
D15*
X108810000Y-148321660D03*
D14*
X106680000Y-148358860D03*
D15*
X108810000Y-148321660D03*
X112170000Y-148321660D03*
D16*
X114300000Y-148358860D03*
D15*
X112170000Y-148321660D03*
%TD*%
D12*
%TO.C,SW2:13*%
X196952500Y-124152660D03*
D11*
X191452500Y-124152660D03*
D12*
X185952500Y-124152660D03*
D13*
X196452500Y-127952660D03*
X186452500Y-127952660D03*
X191452500Y-130052660D03*
D15*
X189772500Y-132446660D03*
D14*
X187642500Y-132483860D03*
D15*
X189772500Y-132446660D03*
X193132500Y-132446660D03*
D16*
X195262500Y-132483860D03*
D15*
X193132500Y-132446660D03*
%TD*%
D11*
%TO.C,SW2:10*%
X129540000Y-119380000D03*
D12*
X124040000Y-119380000D03*
X135040000Y-119380000D03*
D13*
X124540000Y-123180000D03*
X134540000Y-123180000D03*
X129540000Y-125280000D03*
D15*
X127860000Y-127674000D03*
D14*
X125730000Y-127711200D03*
D15*
X127860000Y-127674000D03*
X131220000Y-127674000D03*
X131220000Y-127674000D03*
D16*
X133350000Y-127711200D03*
%TD*%
D12*
%TO.C,SW2:9*%
X104990000Y-120977660D03*
D11*
X110490000Y-120977660D03*
D12*
X115990000Y-120977660D03*
D13*
X115490000Y-124777660D03*
X105490000Y-124777660D03*
X110490000Y-126877660D03*
D15*
X108810000Y-129271660D03*
X108810000Y-129271660D03*
D14*
X106680000Y-129308860D03*
D15*
X112170000Y-129271660D03*
D16*
X114300000Y-129308860D03*
D15*
X112170000Y-129271660D03*
%TD*%
D12*
%TO.C,SW2:7*%
X72390000Y-111985160D03*
X72390000Y-122985160D03*
D11*
X72390000Y-117485160D03*
D13*
X76190000Y-112485160D03*
X76190000Y-122485160D03*
X78290000Y-117485160D03*
D17*
X80684000Y-119165160D03*
D14*
X80721200Y-121295160D03*
D17*
X80684000Y-119165160D03*
X80684000Y-115805160D03*
X80684000Y-115805160D03*
D16*
X80721200Y-113675160D03*
%TD*%
D12*
%TO.C,SW3:13*%
X196952500Y-105102660D03*
X185952500Y-105102660D03*
D11*
X191452500Y-105102660D03*
D13*
X196452500Y-108902660D03*
X186452500Y-108902660D03*
X191452500Y-111002660D03*
D15*
X189772500Y-113396660D03*
X189772500Y-113396660D03*
D14*
X187642500Y-113433860D03*
D15*
X193132500Y-113396660D03*
D16*
X195262500Y-113433860D03*
D15*
X193132500Y-113396660D03*
%TD*%
D12*
%TO.C,SW3:11*%
X143090000Y-101927660D03*
X154090000Y-101927660D03*
D11*
X148590000Y-101927660D03*
D13*
X143590000Y-105727660D03*
X153590000Y-105727660D03*
X148590000Y-107827660D03*
D15*
X146910000Y-110221660D03*
D14*
X144780000Y-110258860D03*
D15*
X146910000Y-110221660D03*
X150270000Y-110221660D03*
D16*
X152400000Y-110258860D03*
D15*
X150270000Y-110221660D03*
%TD*%
D12*
%TO.C,SW3:10*%
X135040000Y-100330000D03*
D11*
X129540000Y-100330000D03*
D12*
X124040000Y-100330000D03*
D13*
X134540000Y-104130000D03*
X124540000Y-104130000D03*
X129540000Y-106230000D03*
D14*
X125730000Y-108661200D03*
D15*
X127860000Y-108624000D03*
X127860000Y-108624000D03*
X131220000Y-108624000D03*
D16*
X133350000Y-108661200D03*
D15*
X131220000Y-108624000D03*
%TD*%
D12*
%TO.C,SW3:9*%
X104990000Y-101927660D03*
X115990000Y-101927660D03*
D11*
X110490000Y-101927660D03*
D13*
X115490000Y-105727660D03*
X105490000Y-105727660D03*
X110490000Y-107827660D03*
D14*
X106680000Y-110258860D03*
D15*
X108810000Y-110221660D03*
X108810000Y-110221660D03*
X112170000Y-110221660D03*
D16*
X114300000Y-110258860D03*
D15*
X112170000Y-110221660D03*
%TD*%
D12*
%TO.C,SW3:8*%
X85940000Y-103197660D03*
D11*
X91440000Y-103197660D03*
D12*
X96940000Y-103197660D03*
D13*
X96440000Y-106997660D03*
X86440000Y-106997660D03*
X91440000Y-109097660D03*
D14*
X87630000Y-111528860D03*
D15*
X89760000Y-111491660D03*
X89760000Y-111491660D03*
X93120000Y-111491660D03*
X93120000Y-111491660D03*
D16*
X95250000Y-111528860D03*
%TD*%
D12*
%TO.C,SW4:13*%
X185952500Y-86052660D03*
X196952500Y-86052660D03*
D11*
X191452500Y-86052660D03*
D13*
X186452500Y-89852660D03*
X196452500Y-89852660D03*
X191452500Y-91952660D03*
D15*
X189772500Y-94346660D03*
D14*
X187642500Y-94383860D03*
D15*
X189772500Y-94346660D03*
X193132500Y-94346660D03*
X193132500Y-94346660D03*
D16*
X195262500Y-94383860D03*
%TD*%
D11*
%TO.C,SW4:12*%
X167640000Y-86052660D03*
D12*
X162140000Y-86052660D03*
X173140000Y-86052660D03*
D13*
X162640000Y-89852660D03*
X172640000Y-89852660D03*
X167640000Y-91952660D03*
D15*
X165960000Y-94346660D03*
X165960000Y-94346660D03*
D14*
X163830000Y-94383860D03*
D16*
X171450000Y-94383860D03*
D15*
X169320000Y-94346660D03*
X169320000Y-94346660D03*
%TD*%
D12*
%TO.C,SW4:11*%
X154090000Y-82877660D03*
D11*
X148590000Y-82877660D03*
D12*
X143090000Y-82877660D03*
D13*
X143590000Y-86677660D03*
X153590000Y-86677660D03*
X148590000Y-88777660D03*
D15*
X146910000Y-91171660D03*
X146910000Y-91171660D03*
D14*
X144780000Y-91208860D03*
D16*
X152400000Y-91208860D03*
D15*
X150270000Y-91171660D03*
X150270000Y-91171660D03*
%TD*%
D12*
%TO.C,SW4:10*%
X124040000Y-81280000D03*
X135040000Y-81280000D03*
D11*
X129540000Y-81280000D03*
D13*
X134540000Y-85080000D03*
X124540000Y-85080000D03*
X129540000Y-87180000D03*
D15*
X127860000Y-89574000D03*
X127860000Y-89574000D03*
D14*
X125730000Y-89611200D03*
D15*
X131220000Y-89574000D03*
D16*
X133350000Y-89611200D03*
D15*
X131220000Y-89574000D03*
%TD*%
D12*
%TO.C,SW4:9*%
X104990000Y-82877660D03*
X115990000Y-82877660D03*
D11*
X110490000Y-82877660D03*
D13*
X105490000Y-86677660D03*
X115490000Y-86677660D03*
X110490000Y-88777660D03*
D15*
X108810000Y-91171660D03*
X108810000Y-91171660D03*
D14*
X106680000Y-91208860D03*
D15*
X112170000Y-91171660D03*
X112170000Y-91171660D03*
D16*
X114300000Y-91208860D03*
%TD*%
D12*
%TO.C,SW4:8*%
X85940000Y-84147660D03*
X96940000Y-84147660D03*
D11*
X91440000Y-84147660D03*
D13*
X96440000Y-87947660D03*
X86440000Y-87947660D03*
X91440000Y-90047660D03*
D15*
X89760000Y-92441660D03*
X89760000Y-92441660D03*
D14*
X87630000Y-92478860D03*
D15*
X93120000Y-92441660D03*
D16*
X95250000Y-92478860D03*
D15*
X93120000Y-92441660D03*
%TD*%
D12*
%TO.C,SW4:7*%
X72390000Y-83410160D03*
X72390000Y-94410160D03*
D11*
X72390000Y-88910160D03*
D13*
X76190000Y-93910160D03*
X76190000Y-83910160D03*
X78290000Y-88910160D03*
D17*
X80684000Y-90590160D03*
X80684000Y-90590160D03*
D14*
X80721200Y-92720160D03*
D17*
X80684000Y-87230160D03*
X80684000Y-87230160D03*
D16*
X80721200Y-85100160D03*
%TD*%
D11*
%TO.C,SW0:10*%
X81302860Y-153065480D03*
D12*
X78978460Y-148080787D03*
X83627260Y-158050173D03*
D13*
X86859921Y-155991070D03*
X82633738Y-146927992D03*
X86650076Y-150572032D03*
D18*
X89529775Y-151082881D03*
D14*
X90463667Y-152997595D03*
D18*
X89529775Y-151082881D03*
X88109778Y-148037687D03*
X88109778Y-148037687D03*
D19*
X87243316Y-146091530D03*
%TD*%
D12*
%TO.C,SW0:12*%
X55784693Y-175475600D03*
X45815307Y-180124400D03*
D11*
X50800000Y-177800000D03*
D13*
X47874410Y-183357061D03*
X56937488Y-179130878D03*
X53293448Y-183147216D03*
D20*
X52782599Y-186026915D03*
D14*
X50867885Y-186960807D03*
D20*
X52782599Y-186026915D03*
X55827793Y-184606918D03*
X55827793Y-184606918D03*
D21*
X57773950Y-183740456D03*
%TD*%
D12*
%TO.C,SW0:11*%
X61714080Y-156132587D03*
D11*
X64038480Y-161117280D03*
D12*
X66362880Y-166101973D03*
D13*
X69595541Y-164042870D03*
X65369358Y-154979792D03*
X69385696Y-158623832D03*
D18*
X72265395Y-159134681D03*
D14*
X73199287Y-161049395D03*
D18*
X72265395Y-159134681D03*
X70845398Y-156089487D03*
D19*
X69978936Y-154143330D03*
D18*
X70845398Y-156089487D03*
%TD*%
D11*
%TO.C,SW0:9*%
X42748200Y-160533080D03*
D12*
X47732893Y-158208680D03*
X37763507Y-162857480D03*
D13*
X39822610Y-166090141D03*
X48885688Y-161863958D03*
X45241648Y-165880296D03*
D14*
X42816085Y-169693887D03*
D20*
X44730799Y-168759995D03*
X44730799Y-168759995D03*
X47775993Y-167339998D03*
X47775993Y-167339998D03*
D21*
X49722150Y-166473536D03*
%TD*%
D12*
%TO.C,SW0:7*%
X39683633Y-140944300D03*
D11*
X34698940Y-143268700D03*
D12*
X29714247Y-145593100D03*
D13*
X40836428Y-144599578D03*
X31773350Y-148825761D03*
X37192388Y-148615916D03*
D20*
X36681539Y-151495615D03*
X36681539Y-151495615D03*
D14*
X34766825Y-152429507D03*
D20*
X39726733Y-150075618D03*
D21*
X41672890Y-149209156D03*
D20*
X39726733Y-150075618D03*
%TD*%
D12*
%TO.C,SW1:11*%
X154090000Y-140027660D03*
X143090000Y-140027660D03*
D11*
X148590000Y-140027660D03*
D13*
X143590000Y-143827660D03*
X153590000Y-143827660D03*
X148590000Y-145927660D03*
D15*
X146910000Y-148321660D03*
D14*
X144780000Y-148358860D03*
D15*
X146910000Y-148321660D03*
X150270000Y-148321660D03*
D16*
X152400000Y-148358860D03*
D15*
X150270000Y-148321660D03*
%TD*%
D12*
%TO.C,SW0:8*%
X56948013Y-132895040D03*
X46978627Y-137543840D03*
D11*
X51963320Y-135219440D03*
D13*
X58100808Y-136550318D03*
X49037730Y-140776501D03*
X54456768Y-140566656D03*
D14*
X52031205Y-144380247D03*
D20*
X53945919Y-143446355D03*
X53945919Y-143446355D03*
X56991113Y-142026358D03*
X56991113Y-142026358D03*
D21*
X58937270Y-141159896D03*
%TD*%
D14*
%TO.C,RC1*%
X130492500Y-46990000D03*
X120332500Y-46990000D03*
%TD*%
%TO.C,RA1*%
X152499602Y-41810398D03*
X145315398Y-48994602D03*
%TD*%
%TO.C,RB1*%
X150594602Y-39905398D03*
X143410398Y-47089602D03*
%TD*%
%TO.C,R1*%
X101817898Y-36730398D03*
X109002102Y-43914602D03*
%TD*%
D22*
%TO.C,J2*%
X86309200Y-33375600D03*
X86309200Y-38379400D03*
D23*
X90957400Y-33375600D03*
D24*
X82702400Y-38379400D03*
X87909400Y-41478200D03*
D23*
X81661000Y-33375600D03*
D24*
X84709000Y-41478200D03*
X89916000Y-38379400D03*
%TD*%
D14*
%TO.C,J4*%
X78740000Y-40005000D03*
X78740000Y-37465000D03*
X78740000Y-34925000D03*
%TD*%
%TO.C,R2*%
X98642898Y-38000398D03*
X105827102Y-45184602D03*
%TD*%
%TO.C,J1*%
X140055600Y-40259000D03*
D25*
X139242800Y-37553900D03*
X138442700Y-35806380D03*
D14*
X143357600Y-34417000D03*
D25*
X137642600Y-37553900D03*
D14*
X137642600Y-40259000D03*
X131927600Y-34417000D03*
D25*
X136842500Y-35806380D03*
X136042400Y-37553900D03*
D14*
X135229600Y-40259000D03*
D26*
X141290040Y-32230060D03*
X133995160Y-32230060D03*
%TD*%
D11*
%TO.C,SW5:13*%
X191452500Y-67005200D03*
D12*
X196952500Y-67005200D03*
X185952500Y-67005200D03*
D13*
X196452500Y-70805200D03*
X186452500Y-70805200D03*
X191452500Y-72905200D03*
D15*
X189772500Y-75299200D03*
X189772500Y-75299200D03*
D14*
X187642500Y-75336400D03*
D15*
X193132500Y-75299200D03*
D16*
X195262500Y-75336400D03*
D15*
X193132500Y-75299200D03*
%TD*%
D12*
%TO.C,SW5:9*%
X115990000Y-63827660D03*
X104990000Y-63827660D03*
D11*
X110490000Y-63827660D03*
D13*
X105490000Y-67627660D03*
X115490000Y-67627660D03*
X110490000Y-69727660D03*
D14*
X106680000Y-72158860D03*
D15*
X108810000Y-72121660D03*
X108810000Y-72121660D03*
X112170000Y-72121660D03*
X112170000Y-72121660D03*
D16*
X114300000Y-72158860D03*
%TD*%
D12*
%TO.C,SW5:10*%
X135040000Y-62230000D03*
D11*
X129540000Y-62230000D03*
D12*
X124040000Y-62230000D03*
D13*
X134540000Y-66030000D03*
X124540000Y-66030000D03*
X129540000Y-68130000D03*
D15*
X127860000Y-70524000D03*
X127860000Y-70524000D03*
D14*
X125730000Y-70561200D03*
D15*
X131220000Y-70524000D03*
D16*
X133350000Y-70561200D03*
D15*
X131220000Y-70524000D03*
%TD*%
D12*
%TO.C,SW5:11*%
X143090000Y-63827660D03*
X154090000Y-63827660D03*
D11*
X148590000Y-63827660D03*
D13*
X153590000Y-67627660D03*
X143590000Y-67627660D03*
X148590000Y-69727660D03*
D15*
X146910000Y-72121660D03*
D14*
X144780000Y-72158860D03*
D15*
X146910000Y-72121660D03*
X150270000Y-72121660D03*
D16*
X152400000Y-72158860D03*
D15*
X150270000Y-72121660D03*
%TD*%
D12*
%TO.C,SW5:12*%
X162140000Y-67005200D03*
X173140000Y-67005200D03*
D11*
X167640000Y-67005200D03*
D13*
X162640000Y-70805200D03*
X172640000Y-70805200D03*
X167640000Y-72905200D03*
D14*
X163830000Y-75336400D03*
D15*
X165960000Y-75299200D03*
X165960000Y-75299200D03*
X169320000Y-75299200D03*
D16*
X171450000Y-75336400D03*
D15*
X169320000Y-75299200D03*
%TD*%
D11*
%TO.C,SW5:8*%
X91440000Y-65100200D03*
D12*
X96940000Y-65100200D03*
X85940000Y-65100200D03*
D13*
X96440000Y-68900200D03*
X86440000Y-68900200D03*
X91440000Y-71000200D03*
D15*
X89760000Y-73394200D03*
D14*
X87630000Y-73431400D03*
D15*
X89760000Y-73394200D03*
X93120000Y-73394200D03*
D16*
X95250000Y-73431400D03*
D15*
X93120000Y-73394200D03*
%TD*%
D12*
%TO.C,SW5:7*%
X77890000Y-65100200D03*
X66890000Y-65100200D03*
D11*
X72390000Y-65100200D03*
D13*
X67390000Y-68900200D03*
X77390000Y-68900200D03*
X72390000Y-71000200D03*
D14*
X68580000Y-73431400D03*
D15*
X70710000Y-73394200D03*
X70710000Y-73394200D03*
D16*
X76200000Y-73431400D03*
D15*
X74070000Y-73394200D03*
X74070000Y-73394200D03*
%TD*%
D12*
%TO.C,SW2:11*%
X154090000Y-120977660D03*
D11*
X148590000Y-120977660D03*
D12*
X143090000Y-120977660D03*
D13*
X153590000Y-124777660D03*
X143590000Y-124777660D03*
X148590000Y-126877660D03*
D15*
X146910000Y-129271660D03*
X146910000Y-129271660D03*
D14*
X144780000Y-129308860D03*
D15*
X150270000Y-129271660D03*
X150270000Y-129271660D03*
D16*
X152400000Y-129308860D03*
%TD*%
D12*
%TO.C,SW2:8*%
X96940000Y-122247660D03*
X85940000Y-122247660D03*
D11*
X91440000Y-122247660D03*
D13*
X96440000Y-126047660D03*
X86440000Y-126047660D03*
X91440000Y-128147660D03*
D15*
X89760000Y-130541660D03*
D14*
X87630000Y-130578860D03*
D15*
X89760000Y-130541660D03*
D16*
X95250000Y-130578860D03*
D15*
X93120000Y-130541660D03*
X93120000Y-130541660D03*
%TD*%
D12*
%TO.C,SW3:12*%
X173140000Y-105102660D03*
X162140000Y-105102660D03*
D11*
X167640000Y-105102660D03*
D13*
X162640000Y-108902660D03*
X172640000Y-108902660D03*
X167640000Y-111002660D03*
D14*
X163830000Y-113433860D03*
D15*
X165960000Y-113396660D03*
X165960000Y-113396660D03*
X169320000Y-113396660D03*
D16*
X171450000Y-113433860D03*
D15*
X169320000Y-113396660D03*
%TD*%
D11*
%TO.C,SW2:12*%
X167640000Y-124152660D03*
D12*
X173140000Y-124152660D03*
X162140000Y-124152660D03*
D13*
X172640000Y-127952660D03*
X162640000Y-127952660D03*
X167640000Y-130052660D03*
D14*
X163830000Y-132483860D03*
D15*
X165960000Y-132446660D03*
X165960000Y-132446660D03*
D16*
X171450000Y-132483860D03*
D15*
X169320000Y-132446660D03*
X169320000Y-132446660D03*
%TD*%
D12*
%TO.C,SW1:12*%
X173140000Y-143202660D03*
X162140000Y-143202660D03*
D11*
X167640000Y-143202660D03*
D13*
X172640000Y-147002660D03*
X162640000Y-147002660D03*
X167640000Y-149102660D03*
D15*
X165960000Y-151496660D03*
X165960000Y-151496660D03*
D14*
X163830000Y-151533860D03*
D15*
X169320000Y-151496660D03*
D16*
X171450000Y-151533860D03*
D15*
X169320000Y-151496660D03*
%TD*%
D27*
%TO.C,U1*%
X161925000Y-50165000D03*
D24*
X164465000Y-50165000D03*
X167005000Y-50165000D03*
X169545000Y-50165000D03*
X172085000Y-50165000D03*
X174625000Y-50165000D03*
X177165000Y-50165000D03*
X179705000Y-50165000D03*
X182245000Y-50165000D03*
X184785000Y-50165000D03*
X187325000Y-50165000D03*
X189865000Y-50165000D03*
X189865000Y-40005000D03*
X189865000Y-34925000D03*
X187325000Y-34925000D03*
X184785000Y-34925000D03*
X182245000Y-34925000D03*
X179705000Y-34925000D03*
X177165000Y-34925000D03*
X174625000Y-34925000D03*
X172085000Y-34925000D03*
X169545000Y-34925000D03*
X167005000Y-34925000D03*
X164465000Y-34925000D03*
X161925000Y-34925000D03*
%TD*%
D28*
%TO.C,JP1*%
X186130000Y-40255000D03*
X186130000Y-41525000D03*
%TD*%
D29*
%TO.C,SW_RST1*%
X194500000Y-39750000D03*
X194500000Y-43150000D03*
%TD*%
D30*
%TO.C,U2*%
X189865000Y-45085000D03*
X187325000Y-45085000D03*
X184785000Y-45085000D03*
D27*
X161925000Y-37465000D03*
D24*
X164465000Y-37465000D03*
X167005000Y-37465000D03*
X169545000Y-37465000D03*
X172085000Y-37465000D03*
X174625000Y-37465000D03*
X177165000Y-37465000D03*
X179705000Y-37465000D03*
X182245000Y-37465000D03*
X184785000Y-37465000D03*
X187325000Y-37465000D03*
X189865000Y-37465000D03*
X192405000Y-37465000D03*
X194945000Y-37465000D03*
X194945000Y-45085000D03*
X192405000Y-45085000D03*
X182245000Y-45085000D03*
X179705000Y-45085000D03*
X177165000Y-45085000D03*
X174625000Y-45085000D03*
X172085000Y-45085000D03*
X169545000Y-45085000D03*
X167005000Y-45085000D03*
X164465000Y-45085000D03*
X161925000Y-45085000D03*
%TD*%
D14*
%TO.C,J3*%
X93980000Y-40005000D03*
X93980000Y-37465000D03*
X93980000Y-34925000D03*
%TD*%
M02*
