M48
; DRILL file {KiCad (6.0.5)} date Mon May 23 22:22:05 2022
; FORMAT={-:-/ absolute / inch / decimal}
; #@! TF.CreationDate,2022-05-23T22:22:05-06:00
; #@! TF.GenerationSoftware,Kicad,Pcbnew,(6.0.5)
; #@! TF.FileFunction,Plated,1,2,PTH
FMAT,2
INCH
; #@! TA.AperFunction,Plated,PTH,ComponentDrill
T1C0.0197
; #@! TA.AperFunction,Plated,PTH,ViaDrill
T2C0.0200
; #@! TA.AperFunction,Plated,PTH,ComponentDrill
T3C0.0300
; #@! TA.AperFunction,Plated,PTH,ComponentDrill
T4C0.0390
; #@! TA.AperFunction,Plated,PTH,ComponentDrill
T5C0.0429
; #@! TA.AperFunction,Plated,PTH,ComponentDrill
T6C0.0430
; #@! TA.AperFunction,Plated,PTH,ComponentDrill
T7C0.0472
%
G90
G05
T1
X2.3571Y-6.7654
X3.076Y-2.1661
X3.9445Y-2.3043
X3.9957Y-5.0969
X4.722Y-5.2756
X5.4594Y-5.2787
X5.4626Y-2.5354
X6.1142Y-1.4622
X6.2122Y-5.2169
X6.8685Y-2.1429
X6.978Y-5.2201
T2
X3.1614Y-2.0945
X3.1681Y-1.9622
T3
X5.356Y-1.4677
X5.3875Y-1.4205
X5.419Y-1.4677
X5.4505Y-1.4205
X5.482Y-1.4677
T4
X1.3688Y-6.0012
X1.6407Y-5.8744
X1.6857Y-6.6809
X1.9576Y-6.5541
X2.0027Y-7.3607
X2.0485Y-5.6843
X2.2746Y-7.2339
X2.3204Y-5.5575
X2.7Y-2.891
X2.7551Y-6.0686
X2.8819Y-6.3405
X3.0Y-2.891
X3.1Y-1.375
X3.1Y-1.475
X3.1Y-1.575
X3.178Y-3.3504
X3.178Y-3.6504
X3.178Y-4.4754
X3.178Y-4.7754
X3.4348Y-5.7516
X3.45Y-2.891
X3.45Y-3.6409
X3.45Y-4.3909
X3.45Y-5.1409
X3.5616Y-6.0235
X3.7Y-1.375
X3.7Y-1.475
X3.7Y-1.575
X3.75Y-2.891
X3.75Y-3.6409
X3.75Y-4.3909
X3.75Y-5.1409
X3.8836Y-1.4961
X4.0086Y-1.4461
X4.1664Y-1.7789
X4.2Y-2.8409
X4.2Y-3.5909
X4.2Y-4.3409
X4.2Y-5.0909
X4.2Y-5.8409
X4.2914Y-1.7289
X4.5Y-2.8409
X4.5Y-3.5909
X4.5Y-4.3409
X4.5Y-5.0909
X4.5Y-5.8409
X4.7375Y-1.85
X4.95Y-2.778
X4.95Y-3.528
X4.95Y-4.278
X4.95Y-5.028
X4.95Y-5.778
X5.1375Y-1.85
X5.194Y-1.355
X5.25Y-2.778
X5.25Y-3.528
X5.25Y-4.278
X5.25Y-5.028
X5.25Y-5.778
X5.324Y-1.585
X5.419Y-1.585
X5.514Y-1.585
X5.644Y-1.355
X5.6461Y-1.8539
X5.7Y-2.8409
X5.7Y-3.5909
X5.7Y-4.3409
X5.7Y-5.0909
X5.7Y-5.8409
X5.7211Y-1.9289
X5.9289Y-1.5711
X6.0Y-2.8409
X6.0Y-3.5909
X6.0Y-4.3409
X6.0Y-5.0909
X6.0Y-5.8409
X6.0039Y-1.6461
X6.45Y-2.966
X6.45Y-3.7159
X6.45Y-4.4659
X6.45Y-5.2159
X6.45Y-5.9659
X6.75Y-2.966
X6.75Y-3.7159
X6.75Y-4.4659
X6.75Y-5.2159
X6.75Y-5.9659
X7.2Y-5.9659
X7.3875Y-2.966
X7.3875Y-3.7159
X7.3875Y-4.4659
X7.3875Y-5.2159
X7.5Y-5.9659
X7.6875Y-2.966
X7.6875Y-3.7159
X7.6875Y-4.4659
X7.6875Y-5.2159
T5
X7.475Y-1.375
X7.475Y-1.575
T6
X3.256Y-1.511
X3.335Y-1.633
X3.461Y-1.633
X3.54Y-1.511
X6.375Y-1.375
X6.375Y-1.475
X6.375Y-1.775
X6.375Y-1.975
X6.475Y-1.375
X6.475Y-1.475
X6.475Y-1.775
X6.475Y-1.975
X6.575Y-1.375
X6.575Y-1.475
X6.575Y-1.775
X6.575Y-1.975
X6.675Y-1.375
X6.675Y-1.475
X6.675Y-1.775
X6.675Y-1.975
X6.775Y-1.375
X6.775Y-1.475
X6.775Y-1.775
X6.775Y-1.975
X6.875Y-1.375
X6.875Y-1.475
X6.875Y-1.775
X6.875Y-1.975
X6.975Y-1.375
X6.975Y-1.475
X6.975Y-1.775
X6.975Y-1.975
X7.075Y-1.375
X7.075Y-1.475
X7.075Y-1.775
X7.075Y-1.975
X7.175Y-1.375
X7.175Y-1.475
X7.175Y-1.775
X7.175Y-1.975
X7.275Y-1.375
X7.275Y-1.475
X7.275Y-1.975
X7.375Y-1.375
X7.375Y-1.475
X7.375Y-1.975
X7.475Y-1.475
X7.475Y-1.975
X7.575Y-1.475
X7.575Y-1.775
X7.675Y-1.475
X7.675Y-1.775
T7
X1.2509Y-5.8593
X1.4643Y-5.851
X1.5678Y-6.539
X1.6077Y-5.6929
X1.7812Y-6.5307
X1.8848Y-7.2188
X1.9246Y-6.3726
X1.9306Y-5.5424
X2.0982Y-7.2105
X2.144Y-5.5341
X2.2416Y-7.0524
X2.2874Y-5.376
X2.5736Y-6.1016
X2.6531Y-2.7126
X2.7317Y-6.245
X2.74Y-6.4584
X2.85Y-2.7953
X2.9996Y-3.3035
X2.9996Y-3.6973
X2.9996Y-4.4285
X2.9996Y-4.8223
X3.0469Y-2.7126
X3.0823Y-3.5004
X3.0823Y-4.6254
X3.2533Y-5.7846
X3.4031Y-2.7126
X3.4031Y-3.4625
X3.4031Y-4.2125
X3.4031Y-4.9625
X3.4114Y-5.928
X3.4197Y-6.1414
X3.6Y-2.7953
X3.6Y-3.5452
X3.6Y-4.2952
X3.6Y-5.0452
X3.7969Y-2.7126
X3.7969Y-3.4625
X3.7969Y-4.2125
X3.7969Y-4.9625
X4.1531Y-2.6625
X4.1531Y-3.4125
X4.1531Y-4.1625
X4.1531Y-4.9125
X4.1531Y-5.6625
X4.35Y-2.7452
X4.35Y-3.4952
X4.35Y-4.2452
X4.35Y-4.9952
X4.35Y-5.7452
X4.5469Y-2.6625
X4.5469Y-3.4125
X4.5469Y-4.1625
X4.5469Y-4.9125
X4.5469Y-5.6625
X4.9031Y-2.5996
X4.9031Y-3.3496
X4.9031Y-4.0996
X4.9031Y-4.8496
X4.9031Y-5.5996
X5.1Y-2.6823
X5.1Y-3.4323
X5.1Y-4.1823
X5.1Y-4.9323
X5.1Y-5.6823
X5.2969Y-2.5996
X5.2969Y-3.3496
X5.2969Y-4.0996
X5.2969Y-4.8496
X5.2969Y-5.5996
X5.6531Y-2.6625
X5.6531Y-3.4125
X5.6531Y-4.1625
X5.6531Y-4.9125
X5.6531Y-5.6625
X5.85Y-2.7452
X5.85Y-3.4952
X5.85Y-4.2452
X5.85Y-4.9952
X5.85Y-5.7452
X6.0469Y-2.6625
X6.0469Y-3.4125
X6.0469Y-4.1625
X6.0469Y-4.9125
X6.0469Y-5.6625
X6.4031Y-2.7876
X6.4031Y-3.5375
X6.4031Y-4.2875
X6.4031Y-5.0375
X6.4031Y-5.7875
X6.6Y-2.8703
X6.6Y-3.6202
X6.6Y-4.3702
X6.6Y-5.1202
X6.6Y-5.8702
X6.7969Y-2.7876
X6.7969Y-3.5375
X6.7969Y-4.2875
X6.7969Y-5.0375
X6.7969Y-5.7875
X7.1531Y-5.7875
X7.3406Y-2.7876
X7.3406Y-3.5375
X7.3406Y-4.2875
X7.3406Y-5.0375
X7.35Y-5.8702
X7.5375Y-2.8703
X7.5375Y-3.6202
X7.5375Y-4.3702
X7.5375Y-5.1202
X7.5469Y-5.7875
X7.7344Y-2.7876
X7.7344Y-3.5375
X7.7344Y-4.2875
X7.7344Y-5.0375
T3
G00X5.2754Y-1.2464
M15
G01X5.2754Y-1.2914
M16
G05
G00X5.5626Y-1.2464
M15
G01X5.5626Y-1.2914
M16
G05
T6
G00X3.221Y-1.314
M15
G01X3.209Y-1.314
M16
G05
G00X3.587Y-1.314
M15
G01X3.575Y-1.314
M16
G05
T0
M30
