%TF.GenerationSoftware,KiCad,Pcbnew,(6.0.5)*%
%TF.CreationDate,2022-05-23T22:21:51-06:00*%
%TF.ProjectId,ErgoDOX,4572676f-444f-4582-9e6b-696361645f70,rev?*%
%TF.SameCoordinates,Original*%
%TF.FileFunction,Legend,Bot*%
%TF.FilePolarity,Positive*%
%FSLAX46Y46*%
G04 Gerber Fmt 4.6, Leading zero omitted, Abs format (unit mm)*
G04 Created by KiCad (PCBNEW (6.0.5)) date 2022-05-23 22:21:51*
%MOMM*%
%LPD*%
G01*
G04 APERTURE LIST*
%ADD10C,0.304800*%
%ADD11C,2.032000*%
%ADD12C,0.508000*%
%ADD13C,0.457200*%
%ADD14C,0.127000*%
%ADD15C,0.381000*%
%ADD16C,2.540000*%
%ADD17C,1.651000*%
%ADD18R,1.752600X1.752600*%
%ADD19C,1.752600*%
%ADD20C,1.092200*%
G04 APERTURE END LIST*
D10*
X82477714Y-130649238D02*
X82477714Y-128617238D01*
X81897142Y-128617238D01*
X81752000Y-128714000D01*
X81679428Y-128810761D01*
X81606857Y-129004285D01*
X81606857Y-129294571D01*
X81679428Y-129488095D01*
X81752000Y-129584857D01*
X81897142Y-129681619D01*
X82477714Y-129681619D01*
X80953714Y-130649238D02*
X80953714Y-129294571D01*
X80953714Y-129681619D02*
X80881142Y-129488095D01*
X80808571Y-129391333D01*
X80663428Y-129294571D01*
X80518285Y-129294571D01*
X79792571Y-130649238D02*
X79937714Y-130552476D01*
X80010285Y-130455714D01*
X80082857Y-130262190D01*
X80082857Y-129681619D01*
X80010285Y-129488095D01*
X79937714Y-129391333D01*
X79792571Y-129294571D01*
X79574857Y-129294571D01*
X79429714Y-129391333D01*
X79357142Y-129488095D01*
X79284571Y-129681619D01*
X79284571Y-130262190D01*
X79357142Y-130455714D01*
X79429714Y-130552476D01*
X79574857Y-130649238D01*
X79792571Y-130649238D01*
X78849142Y-129294571D02*
X78268571Y-129294571D01*
X78631428Y-130649238D02*
X78631428Y-128907523D01*
X78558857Y-128714000D01*
X78413714Y-128617238D01*
X78268571Y-128617238D01*
X77180000Y-130552476D02*
X77325142Y-130649238D01*
X77615428Y-130649238D01*
X77760571Y-130552476D01*
X77833142Y-130358952D01*
X77833142Y-129584857D01*
X77760571Y-129391333D01*
X77615428Y-129294571D01*
X77325142Y-129294571D01*
X77180000Y-129391333D01*
X77107428Y-129584857D01*
X77107428Y-129778380D01*
X77833142Y-129971904D01*
X76672000Y-129294571D02*
X76091428Y-129294571D01*
X76454285Y-128617238D02*
X76454285Y-130358952D01*
X76381714Y-130552476D01*
X76236571Y-130649238D01*
X76091428Y-130649238D01*
X75583428Y-130649238D02*
X75583428Y-128617238D01*
X74712571Y-130649238D02*
X75365714Y-129488095D01*
X74712571Y-128617238D02*
X75583428Y-129778380D01*
X73478857Y-130552476D02*
X73624000Y-130649238D01*
X73914285Y-130649238D01*
X74059428Y-130552476D01*
X74132000Y-130358952D01*
X74132000Y-129584857D01*
X74059428Y-129391333D01*
X73914285Y-129294571D01*
X73624000Y-129294571D01*
X73478857Y-129391333D01*
X73406285Y-129584857D01*
X73406285Y-129778380D01*
X74132000Y-129971904D01*
X72898285Y-129294571D02*
X72535428Y-130649238D01*
X72172571Y-129294571D02*
X72535428Y-130649238D01*
X72680571Y-131133047D01*
X72753142Y-131229809D01*
X72898285Y-131326571D01*
X71592000Y-130649238D02*
X71592000Y-128617238D01*
X71592000Y-129391333D02*
X71446857Y-129294571D01*
X71156571Y-129294571D01*
X71011428Y-129391333D01*
X70938857Y-129488095D01*
X70866285Y-129681619D01*
X70866285Y-130262190D01*
X70938857Y-130455714D01*
X71011428Y-130552476D01*
X71156571Y-130649238D01*
X71446857Y-130649238D01*
X71592000Y-130552476D01*
X69995428Y-130649238D02*
X70140571Y-130552476D01*
X70213142Y-130455714D01*
X70285714Y-130262190D01*
X70285714Y-129681619D01*
X70213142Y-129488095D01*
X70140571Y-129391333D01*
X69995428Y-129294571D01*
X69777714Y-129294571D01*
X69632571Y-129391333D01*
X69560000Y-129488095D01*
X69487428Y-129681619D01*
X69487428Y-130262190D01*
X69560000Y-130455714D01*
X69632571Y-130552476D01*
X69777714Y-130649238D01*
X69995428Y-130649238D01*
X68181142Y-130649238D02*
X68181142Y-129584857D01*
X68253714Y-129391333D01*
X68398857Y-129294571D01*
X68689142Y-129294571D01*
X68834285Y-129391333D01*
X68181142Y-130552476D02*
X68326285Y-130649238D01*
X68689142Y-130649238D01*
X68834285Y-130552476D01*
X68906857Y-130358952D01*
X68906857Y-130165428D01*
X68834285Y-129971904D01*
X68689142Y-129875142D01*
X68326285Y-129875142D01*
X68181142Y-129778380D01*
X67455428Y-130649238D02*
X67455428Y-129294571D01*
X67455428Y-129681619D02*
X67382857Y-129488095D01*
X67310285Y-129391333D01*
X67165142Y-129294571D01*
X67020000Y-129294571D01*
X65858857Y-130649238D02*
X65858857Y-128617238D01*
X65858857Y-130552476D02*
X66004000Y-130649238D01*
X66294285Y-130649238D01*
X66439428Y-130552476D01*
X66512000Y-130455714D01*
X66584571Y-130262190D01*
X66584571Y-129681619D01*
X66512000Y-129488095D01*
X66439428Y-129391333D01*
X66294285Y-129294571D01*
X66004000Y-129294571D01*
X65858857Y-129391333D01*
X65205714Y-130552476D02*
X65060571Y-130649238D01*
X64770285Y-130649238D01*
X64625142Y-130552476D01*
X64552571Y-130358952D01*
X64552571Y-130262190D01*
X64625142Y-130068666D01*
X64770285Y-129971904D01*
X64988000Y-129971904D01*
X65133142Y-129875142D01*
X65205714Y-129681619D01*
X65205714Y-129584857D01*
X65133142Y-129391333D01*
X64988000Y-129294571D01*
X64770285Y-129294571D01*
X64625142Y-129391333D01*
X63899428Y-130455714D02*
X63826857Y-130552476D01*
X63899428Y-130649238D01*
X63972000Y-130552476D01*
X63899428Y-130455714D01*
X63899428Y-130649238D01*
X62520571Y-130552476D02*
X62665714Y-130649238D01*
X62956000Y-130649238D01*
X63101142Y-130552476D01*
X63173714Y-130455714D01*
X63246285Y-130262190D01*
X63246285Y-129681619D01*
X63173714Y-129488095D01*
X63101142Y-129391333D01*
X62956000Y-129294571D01*
X62665714Y-129294571D01*
X62520571Y-129391333D01*
X61649714Y-130649238D02*
X61794857Y-130552476D01*
X61867428Y-130455714D01*
X61940000Y-130262190D01*
X61940000Y-129681619D01*
X61867428Y-129488095D01*
X61794857Y-129391333D01*
X61649714Y-129294571D01*
X61432000Y-129294571D01*
X61286857Y-129391333D01*
X61214285Y-129488095D01*
X61141714Y-129681619D01*
X61141714Y-130262190D01*
X61214285Y-130455714D01*
X61286857Y-130552476D01*
X61432000Y-130649238D01*
X61649714Y-130649238D01*
X60488571Y-130649238D02*
X60488571Y-129294571D01*
X60488571Y-129488095D02*
X60416000Y-129391333D01*
X60270857Y-129294571D01*
X60053142Y-129294571D01*
X59908000Y-129391333D01*
X59835428Y-129584857D01*
X59835428Y-130649238D01*
X59835428Y-129584857D02*
X59762857Y-129391333D01*
X59617714Y-129294571D01*
X59400000Y-129294571D01*
X59254857Y-129391333D01*
X59182285Y-129584857D01*
X59182285Y-130649238D01*
X201010761Y-132841999D02*
X203042761Y-132841999D01*
X203042761Y-132479142D01*
X202946000Y-132261428D01*
X202752476Y-132116285D01*
X202558952Y-132043714D01*
X202171904Y-131971142D01*
X201881619Y-131971142D01*
X201494571Y-132043714D01*
X201301047Y-132116285D01*
X201107523Y-132261428D01*
X201010761Y-132479142D01*
X201010761Y-132841999D01*
X201107523Y-130737428D02*
X201010761Y-130882571D01*
X201010761Y-131172857D01*
X201107523Y-131317999D01*
X201301047Y-131390571D01*
X202075142Y-131390571D01*
X202268666Y-131317999D01*
X202365428Y-131172857D01*
X202365428Y-130882571D01*
X202268666Y-130737428D01*
X202075142Y-130664857D01*
X201881619Y-130664857D01*
X201688095Y-131390571D01*
X201107523Y-130084285D02*
X201010761Y-129939142D01*
X201010761Y-129648857D01*
X201107523Y-129503714D01*
X201301047Y-129431142D01*
X201397809Y-129431142D01*
X201591333Y-129503714D01*
X201688095Y-129648857D01*
X201688095Y-129866571D01*
X201784857Y-130011714D01*
X201978380Y-130084285D01*
X202075142Y-130084285D01*
X202268666Y-130011714D01*
X202365428Y-129866571D01*
X202365428Y-129648857D01*
X202268666Y-129503714D01*
X201010761Y-128777999D02*
X202365428Y-128777999D01*
X203042761Y-128777999D02*
X202946000Y-128850571D01*
X202849238Y-128777999D01*
X202946000Y-128705428D01*
X203042761Y-128777999D01*
X202849238Y-128777999D01*
X202365428Y-127399142D02*
X200720476Y-127399142D01*
X200526952Y-127471714D01*
X200430190Y-127544285D01*
X200333428Y-127689428D01*
X200333428Y-127907142D01*
X200430190Y-128052285D01*
X201107523Y-127399142D02*
X201010761Y-127544285D01*
X201010761Y-127834571D01*
X201107523Y-127979714D01*
X201204285Y-128052285D01*
X201397809Y-128124857D01*
X201978380Y-128124857D01*
X202171904Y-128052285D01*
X202268666Y-127979714D01*
X202365428Y-127834571D01*
X202365428Y-127544285D01*
X202268666Y-127399142D01*
X202365428Y-126673428D02*
X201010761Y-126673428D01*
X202171904Y-126673428D02*
X202268666Y-126600857D01*
X202365428Y-126455714D01*
X202365428Y-126237999D01*
X202268666Y-126092857D01*
X202075142Y-126020285D01*
X201010761Y-126020285D01*
X201010761Y-124133428D02*
X203042761Y-124133428D01*
X202268666Y-124133428D02*
X202365428Y-123988285D01*
X202365428Y-123697999D01*
X202268666Y-123552857D01*
X202171904Y-123480285D01*
X201978380Y-123407714D01*
X201397809Y-123407714D01*
X201204285Y-123480285D01*
X201107523Y-123552857D01*
X201010761Y-123697999D01*
X201010761Y-123988285D01*
X201107523Y-124133428D01*
X202365428Y-122899714D02*
X201010761Y-122536857D01*
X202365428Y-122173999D02*
X201010761Y-122536857D01*
X200526952Y-122681999D01*
X200430190Y-122754571D01*
X200333428Y-122899714D01*
X201010761Y-120432285D02*
X203042761Y-120432285D01*
X203042761Y-120069428D01*
X202946000Y-119851714D01*
X202752476Y-119706571D01*
X202558952Y-119634000D01*
X202171904Y-119561428D01*
X201881619Y-119561428D01*
X201494571Y-119634000D01*
X201301047Y-119706571D01*
X201107523Y-119851714D01*
X201010761Y-120069428D01*
X201010761Y-120432285D01*
X201010761Y-118690571D02*
X201107523Y-118835714D01*
X201204285Y-118908285D01*
X201397809Y-118980857D01*
X201978380Y-118980857D01*
X202171904Y-118908285D01*
X202268666Y-118835714D01*
X202365428Y-118690571D01*
X202365428Y-118472857D01*
X202268666Y-118327714D01*
X202171904Y-118255142D01*
X201978380Y-118182571D01*
X201397809Y-118182571D01*
X201204285Y-118255142D01*
X201107523Y-118327714D01*
X201010761Y-118472857D01*
X201010761Y-118690571D01*
X201010761Y-117529428D02*
X202365428Y-117529428D01*
X202171904Y-117529428D02*
X202268666Y-117456857D01*
X202365428Y-117311714D01*
X202365428Y-117093999D01*
X202268666Y-116948857D01*
X202075142Y-116876285D01*
X201010761Y-116876285D01*
X202075142Y-116876285D02*
X202268666Y-116803714D01*
X202365428Y-116658571D01*
X202365428Y-116440857D01*
X202268666Y-116295714D01*
X202075142Y-116223142D01*
X201010761Y-116223142D01*
X201010761Y-115497428D02*
X202365428Y-115497428D01*
X203042761Y-115497428D02*
X202946000Y-115569999D01*
X202849238Y-115497428D01*
X202946000Y-115424857D01*
X203042761Y-115497428D01*
X202849238Y-115497428D01*
X202365428Y-114771714D02*
X201010761Y-114771714D01*
X202171904Y-114771714D02*
X202268666Y-114699142D01*
X202365428Y-114553999D01*
X202365428Y-114336285D01*
X202268666Y-114191142D01*
X202075142Y-114118571D01*
X201010761Y-114118571D01*
X201010761Y-113392857D02*
X202365428Y-113392857D01*
X203042761Y-113392857D02*
X202946000Y-113465428D01*
X202849238Y-113392857D01*
X202946000Y-113320285D01*
X203042761Y-113392857D01*
X202849238Y-113392857D01*
X201107523Y-112013999D02*
X201010761Y-112159142D01*
X201010761Y-112449428D01*
X201107523Y-112594571D01*
X201204285Y-112667142D01*
X201397809Y-112739714D01*
X201978380Y-112739714D01*
X202171904Y-112667142D01*
X202268666Y-112594571D01*
X202365428Y-112449428D01*
X202365428Y-112159142D01*
X202268666Y-112013999D01*
X202075142Y-109691714D02*
X201978380Y-109473999D01*
X201881619Y-109401428D01*
X201688095Y-109328857D01*
X201397809Y-109328857D01*
X201204285Y-109401428D01*
X201107523Y-109473999D01*
X201010761Y-109619142D01*
X201010761Y-110199714D01*
X203042761Y-110199714D01*
X203042761Y-109691714D01*
X202946000Y-109546571D01*
X202849238Y-109473999D01*
X202655714Y-109401428D01*
X202462190Y-109401428D01*
X202268666Y-109473999D01*
X202171904Y-109546571D01*
X202075142Y-109691714D01*
X202075142Y-110199714D01*
X201107523Y-108095142D02*
X201010761Y-108240285D01*
X201010761Y-108530571D01*
X201107523Y-108675714D01*
X201301047Y-108748285D01*
X202075142Y-108748285D01*
X202268666Y-108675714D01*
X202365428Y-108530571D01*
X202365428Y-108240285D01*
X202268666Y-108095142D01*
X202075142Y-108022571D01*
X201881619Y-108022571D01*
X201688095Y-108748285D01*
X201010761Y-106716285D02*
X202075142Y-106716285D01*
X202268666Y-106788857D01*
X202365428Y-106933999D01*
X202365428Y-107224285D01*
X202268666Y-107369428D01*
X201107523Y-106716285D02*
X201010761Y-106861428D01*
X201010761Y-107224285D01*
X201107523Y-107369428D01*
X201301047Y-107441999D01*
X201494571Y-107441999D01*
X201688095Y-107369428D01*
X201784857Y-107224285D01*
X201784857Y-106861428D01*
X201881619Y-106716285D01*
X202365428Y-105337428D02*
X201010761Y-105337428D01*
X202365428Y-105990571D02*
X201301047Y-105990571D01*
X201107523Y-105917999D01*
X201010761Y-105772857D01*
X201010761Y-105555142D01*
X201107523Y-105409999D01*
X201204285Y-105337428D01*
X201107523Y-103958571D02*
X201010761Y-104103714D01*
X201010761Y-104393999D01*
X201107523Y-104539142D01*
X201204285Y-104611714D01*
X201397809Y-104684285D01*
X201978380Y-104684285D01*
X202171904Y-104611714D01*
X202268666Y-104539142D01*
X202365428Y-104393999D01*
X202365428Y-104103714D01*
X202268666Y-103958571D01*
X201010761Y-103305428D02*
X203042761Y-103305428D01*
X201010761Y-102652285D02*
X202075142Y-102652285D01*
X202268666Y-102724857D01*
X202365428Y-102869999D01*
X202365428Y-103087714D01*
X202268666Y-103232857D01*
X202171904Y-103305428D01*
X201010761Y-101273428D02*
X202075142Y-101273428D01*
X202268666Y-101345999D01*
X202365428Y-101491142D01*
X202365428Y-101781428D01*
X202268666Y-101926571D01*
X201107523Y-101273428D02*
X201010761Y-101418571D01*
X201010761Y-101781428D01*
X201107523Y-101926571D01*
X201301047Y-101999142D01*
X201494571Y-101999142D01*
X201688095Y-101926571D01*
X201784857Y-101781428D01*
X201784857Y-101418571D01*
X201881619Y-101273428D01*
X201010761Y-100547714D02*
X202365428Y-100547714D01*
X202171904Y-100547714D02*
X202268666Y-100475142D01*
X202365428Y-100329999D01*
X202365428Y-100112285D01*
X202268666Y-99967142D01*
X202075142Y-99894571D01*
X201010761Y-99894571D01*
X202075142Y-99894571D02*
X202268666Y-99821999D01*
X202365428Y-99676857D01*
X202365428Y-99459142D01*
X202268666Y-99313999D01*
X202075142Y-99241428D01*
X201010761Y-99241428D01*
X202365428Y-98515714D02*
X200333428Y-98515714D01*
X202268666Y-98515714D02*
X202365428Y-98370571D01*
X202365428Y-98080285D01*
X202268666Y-97935142D01*
X202171904Y-97862571D01*
X201978380Y-97789999D01*
X201397809Y-97789999D01*
X201204285Y-97862571D01*
X201107523Y-97935142D01*
X201010761Y-98080285D01*
X201010761Y-98370571D01*
X201107523Y-98515714D01*
X201107523Y-97064285D02*
X201010761Y-97064285D01*
X200817238Y-97136857D01*
X200720476Y-97209428D01*
X201010761Y-95249999D02*
X203042761Y-95249999D01*
X202268666Y-95249999D02*
X202365428Y-95104857D01*
X202365428Y-94814571D01*
X202268666Y-94669428D01*
X202171904Y-94596857D01*
X201978380Y-94524285D01*
X201397809Y-94524285D01*
X201204285Y-94596857D01*
X201107523Y-94669428D01*
X201010761Y-94814571D01*
X201010761Y-95104857D01*
X201107523Y-95249999D01*
X201010761Y-93217999D02*
X202075142Y-93217999D01*
X202268666Y-93290571D01*
X202365428Y-93435714D01*
X202365428Y-93725999D01*
X202268666Y-93871142D01*
X201107523Y-93217999D02*
X201010761Y-93363142D01*
X201010761Y-93725999D01*
X201107523Y-93871142D01*
X201301047Y-93943714D01*
X201494571Y-93943714D01*
X201688095Y-93871142D01*
X201784857Y-93725999D01*
X201784857Y-93363142D01*
X201881619Y-93217999D01*
X201107523Y-92564857D02*
X201010761Y-92419714D01*
X201010761Y-92129428D01*
X201107523Y-91984285D01*
X201301047Y-91911714D01*
X201397809Y-91911714D01*
X201591333Y-91984285D01*
X201688095Y-92129428D01*
X201688095Y-92347142D01*
X201784857Y-92492285D01*
X201978380Y-92564857D01*
X202075142Y-92564857D01*
X202268666Y-92492285D01*
X202365428Y-92347142D01*
X202365428Y-92129428D01*
X202268666Y-91984285D01*
X201107523Y-90677999D02*
X201010761Y-90823142D01*
X201010761Y-91113428D01*
X201107523Y-91258571D01*
X201301047Y-91331142D01*
X202075142Y-91331142D01*
X202268666Y-91258571D01*
X202365428Y-91113428D01*
X202365428Y-90823142D01*
X202268666Y-90677999D01*
X202075142Y-90605428D01*
X201881619Y-90605428D01*
X201688095Y-91331142D01*
X201010761Y-89299142D02*
X203042761Y-89299142D01*
X201107523Y-89299142D02*
X201010761Y-89444285D01*
X201010761Y-89734571D01*
X201107523Y-89879714D01*
X201204285Y-89952285D01*
X201397809Y-90024857D01*
X201978380Y-90024857D01*
X202171904Y-89952285D01*
X202268666Y-89879714D01*
X202365428Y-89734571D01*
X202365428Y-89444285D01*
X202268666Y-89299142D01*
X201010761Y-87194571D02*
X201107523Y-87339714D01*
X201204285Y-87412285D01*
X201397809Y-87484857D01*
X201978380Y-87484857D01*
X202171904Y-87412285D01*
X202268666Y-87339714D01*
X202365428Y-87194571D01*
X202365428Y-86976857D01*
X202268666Y-86831714D01*
X202171904Y-86759142D01*
X201978380Y-86686571D01*
X201397809Y-86686571D01*
X201204285Y-86759142D01*
X201107523Y-86831714D01*
X201010761Y-86976857D01*
X201010761Y-87194571D01*
X202365428Y-86033428D02*
X201010761Y-86033428D01*
X202171904Y-86033428D02*
X202268666Y-85960857D01*
X202365428Y-85815714D01*
X202365428Y-85597999D01*
X202268666Y-85452857D01*
X202075142Y-85380285D01*
X201010761Y-85380285D01*
X202365428Y-83711142D02*
X202365428Y-83130571D01*
X203042761Y-83493428D02*
X201301047Y-83493428D01*
X201107523Y-83420857D01*
X201010761Y-83275714D01*
X201010761Y-83130571D01*
X201010761Y-82622571D02*
X203042761Y-82622571D01*
X201010761Y-81969428D02*
X202075142Y-81969428D01*
X202268666Y-82041999D01*
X202365428Y-82187142D01*
X202365428Y-82404857D01*
X202268666Y-82549999D01*
X202171904Y-82622571D01*
X201107523Y-80663142D02*
X201010761Y-80808285D01*
X201010761Y-81098571D01*
X201107523Y-81243714D01*
X201301047Y-81316285D01*
X202075142Y-81316285D01*
X202268666Y-81243714D01*
X202365428Y-81098571D01*
X202365428Y-80808285D01*
X202268666Y-80663142D01*
X202075142Y-80590571D01*
X201881619Y-80590571D01*
X201688095Y-81316285D01*
X201010761Y-78776285D02*
X203042761Y-78776285D01*
X201010761Y-77905428D02*
X202171904Y-78558571D01*
X203042761Y-77905428D02*
X201881619Y-78776285D01*
X201107523Y-76671714D02*
X201010761Y-76816857D01*
X201010761Y-77107142D01*
X201107523Y-77252285D01*
X201301047Y-77324857D01*
X202075142Y-77324857D01*
X202268666Y-77252285D01*
X202365428Y-77107142D01*
X202365428Y-76816857D01*
X202268666Y-76671714D01*
X202075142Y-76599142D01*
X201881619Y-76599142D01*
X201688095Y-77324857D01*
X202365428Y-76091142D02*
X201010761Y-75728285D01*
X202365428Y-75365428D02*
X201010761Y-75728285D01*
X200526952Y-75873428D01*
X200430190Y-75946000D01*
X200333428Y-76091142D01*
X203042761Y-74131714D02*
X203042761Y-74421999D01*
X202946000Y-74567142D01*
X202849238Y-74639714D01*
X202558952Y-74784857D01*
X202171904Y-74857428D01*
X201397809Y-74857428D01*
X201204285Y-74784857D01*
X201107523Y-74712285D01*
X201010761Y-74567142D01*
X201010761Y-74276857D01*
X201107523Y-74131714D01*
X201204285Y-74059142D01*
X201397809Y-73986571D01*
X201881619Y-73986571D01*
X202075142Y-74059142D01*
X202171904Y-74131714D01*
X202268666Y-74276857D01*
X202268666Y-74567142D01*
X202171904Y-74712285D01*
X202075142Y-74784857D01*
X201881619Y-74857428D01*
X202365428Y-72680285D02*
X201010761Y-72680285D01*
X203139523Y-73043142D02*
X201688095Y-73406000D01*
X201688095Y-72462571D01*
X201010761Y-70720857D02*
X203042761Y-70720857D01*
X202268666Y-70720857D02*
X202365428Y-70575714D01*
X202365428Y-70285428D01*
X202268666Y-70140285D01*
X202171904Y-70067714D01*
X201978380Y-69995142D01*
X201397809Y-69995142D01*
X201204285Y-70067714D01*
X201107523Y-70140285D01*
X201010761Y-70285428D01*
X201010761Y-70575714D01*
X201107523Y-70720857D01*
X202365428Y-69487142D02*
X201010761Y-69124285D01*
X202365428Y-68761428D02*
X201010761Y-69124285D01*
X200526952Y-69269428D01*
X200430190Y-69342000D01*
X200333428Y-69487142D01*
X201010761Y-65858571D02*
X203042761Y-65858571D01*
X201010761Y-64987714D01*
X203042761Y-64987714D01*
X201107523Y-63681428D02*
X201010761Y-63826571D01*
X201010761Y-64116857D01*
X201107523Y-64261999D01*
X201301047Y-64334571D01*
X202075142Y-64334571D01*
X202268666Y-64261999D01*
X202365428Y-64116857D01*
X202365428Y-63826571D01*
X202268666Y-63681428D01*
X202075142Y-63608857D01*
X201881619Y-63608857D01*
X201688095Y-64334571D01*
X201107523Y-63028285D02*
X201010761Y-62883142D01*
X201010761Y-62592857D01*
X201107523Y-62447714D01*
X201301047Y-62375142D01*
X201397809Y-62375142D01*
X201591333Y-62447714D01*
X201688095Y-62592857D01*
X201688095Y-62810571D01*
X201784857Y-62955714D01*
X201978380Y-63028285D01*
X202075142Y-63028285D01*
X202268666Y-62955714D01*
X202365428Y-62810571D01*
X202365428Y-62592857D01*
X202268666Y-62447714D01*
X202365428Y-61939714D02*
X202365428Y-61359142D01*
X203042761Y-61721999D02*
X201301047Y-61721999D01*
X201107523Y-61649428D01*
X201010761Y-61504285D01*
X201010761Y-61359142D01*
X201010761Y-60633428D02*
X201107523Y-60778571D01*
X201204285Y-60851142D01*
X201397809Y-60923714D01*
X201978380Y-60923714D01*
X202171904Y-60851142D01*
X202268666Y-60778571D01*
X202365428Y-60633428D01*
X202365428Y-60415714D01*
X202268666Y-60270571D01*
X202171904Y-60197999D01*
X201978380Y-60125428D01*
X201397809Y-60125428D01*
X201204285Y-60197999D01*
X201107523Y-60270571D01*
X201010761Y-60415714D01*
X201010761Y-60633428D01*
X201010761Y-59472285D02*
X202365428Y-59472285D01*
X201978380Y-59472285D02*
X202171904Y-59399714D01*
X202268666Y-59327142D01*
X202365428Y-59181999D01*
X202365428Y-59036857D01*
X201591333Y-57440285D02*
X201591333Y-56714571D01*
X201010761Y-57585428D02*
X203042761Y-57077428D01*
X201010761Y-56569428D01*
X201204285Y-56061428D02*
X201107523Y-55988857D01*
X201010761Y-56061428D01*
X201107523Y-56133999D01*
X201204285Y-56061428D01*
X201010761Y-56061428D01*
X201010761Y-54174571D02*
X203042761Y-54174571D01*
X203042761Y-53811714D01*
X202946000Y-53593999D01*
X202752476Y-53448857D01*
X202558952Y-53376285D01*
X202171904Y-53303714D01*
X201881619Y-53303714D01*
X201494571Y-53376285D01*
X201301047Y-53448857D01*
X201107523Y-53593999D01*
X201010761Y-53811714D01*
X201010761Y-54174571D01*
X201010761Y-52650571D02*
X202365428Y-52650571D01*
X203042761Y-52650571D02*
X202946000Y-52723142D01*
X202849238Y-52650571D01*
X202946000Y-52577999D01*
X203042761Y-52650571D01*
X202849238Y-52650571D01*
X201010761Y-51271714D02*
X202075142Y-51271714D01*
X202268666Y-51344285D01*
X202365428Y-51489428D01*
X202365428Y-51779714D01*
X202268666Y-51924857D01*
X201107523Y-51271714D02*
X201010761Y-51416857D01*
X201010761Y-51779714D01*
X201107523Y-51924857D01*
X201301047Y-51997428D01*
X201494571Y-51997428D01*
X201688095Y-51924857D01*
X201784857Y-51779714D01*
X201784857Y-51416857D01*
X201881619Y-51271714D01*
X202365428Y-50691142D02*
X202365428Y-49892857D01*
X201010761Y-50691142D01*
X201010761Y-49892857D01*
D11*
X146993428Y-48314428D02*
X142929428Y-48314428D01*
X141187714Y-52571952D02*
X146993428Y-52571952D01*
X146993428Y-44443952D01*
X141187714Y-44443952D01*
X135962571Y-52571952D02*
X135962571Y-47153285D01*
X135962571Y-48701476D02*
X135382000Y-47927380D01*
X134801428Y-47540333D01*
X133640285Y-47153285D01*
X132479142Y-47153285D01*
X123190000Y-47153285D02*
X123190000Y-53733095D01*
X123770571Y-54507190D01*
X124351142Y-54894238D01*
X125512285Y-55281285D01*
X127254000Y-55281285D01*
X128415142Y-54894238D01*
X123190000Y-52184904D02*
X124351142Y-52571952D01*
X126673428Y-52571952D01*
X127834571Y-52184904D01*
X128415142Y-51797857D01*
X128995714Y-51023761D01*
X128995714Y-48701476D01*
X128415142Y-47927380D01*
X127834571Y-47540333D01*
X126673428Y-47153285D01*
X124351142Y-47153285D01*
X123190000Y-47540333D01*
X115642571Y-52571952D02*
X116803714Y-52184904D01*
X117384285Y-51797857D01*
X117964857Y-51023761D01*
X117964857Y-48701476D01*
X117384285Y-47927380D01*
X116803714Y-47540333D01*
X115642571Y-47153285D01*
X113900857Y-47153285D01*
X112739714Y-47540333D01*
X112159142Y-47927380D01*
X111578571Y-48701476D01*
X111578571Y-51023761D01*
X112159142Y-51797857D01*
X112739714Y-52184904D01*
X113900857Y-52571952D01*
X115642571Y-52571952D01*
X106353428Y-52571952D02*
X106353428Y-44443952D01*
X103450571Y-44443952D01*
X101708857Y-44831000D01*
X100547714Y-45605095D01*
X99967142Y-46379190D01*
X99386571Y-47927380D01*
X99386571Y-49088523D01*
X99967142Y-50636714D01*
X100547714Y-51410809D01*
X101708857Y-52184904D01*
X103450571Y-52571952D01*
X106353428Y-52571952D01*
X92419714Y-52571952D02*
X93580857Y-52184904D01*
X94161428Y-51797857D01*
X94742000Y-51023761D01*
X94742000Y-48701476D01*
X94161428Y-47927380D01*
X93580857Y-47540333D01*
X92419714Y-47153285D01*
X90678000Y-47153285D01*
X89516857Y-47540333D01*
X88936285Y-47927380D01*
X88355714Y-48701476D01*
X88355714Y-51023761D01*
X88936285Y-51797857D01*
X89516857Y-52184904D01*
X90678000Y-52571952D01*
X92419714Y-52571952D01*
X84291714Y-52571952D02*
X77905428Y-47153285D01*
X84291714Y-47153285D02*
X77905428Y-52571952D01*
D10*
X190701022Y-52829097D02*
X191209022Y-52829097D01*
X191209022Y-53893478D02*
X191209022Y-51861478D01*
X190483308Y-51861478D01*
X189031880Y-53893478D02*
X189539880Y-52925859D01*
X189902737Y-53893478D02*
X189902737Y-51861478D01*
X189322165Y-51861478D01*
X189177022Y-51958240D01*
X189104451Y-52055001D01*
X189031880Y-52248525D01*
X189031880Y-52538811D01*
X189104451Y-52732335D01*
X189177022Y-52829097D01*
X189322165Y-52925859D01*
X189902737Y-52925859D01*
X187725594Y-52538811D02*
X187725594Y-53893478D01*
X188088451Y-51764716D02*
X188451308Y-53216144D01*
X187507880Y-53216144D01*
X185983880Y-51861478D02*
X185113022Y-51861478D01*
X185548451Y-53893478D02*
X185548451Y-51861478D01*
X183951880Y-52538811D02*
X183951880Y-54183763D01*
X184024451Y-54377287D01*
X184097022Y-54474049D01*
X184242165Y-54570811D01*
X184459880Y-54570811D01*
X184605022Y-54474049D01*
X183951880Y-53796716D02*
X184097022Y-53893478D01*
X184387308Y-53893478D01*
X184532451Y-53796716D01*
X184605022Y-53699954D01*
X184677594Y-53506430D01*
X184677594Y-52925859D01*
X184605022Y-52732335D01*
X184532451Y-52635573D01*
X184387308Y-52538811D01*
X184097022Y-52538811D01*
X183951880Y-52635573D01*
X182427880Y-53893478D02*
X183298737Y-53893478D01*
X182863308Y-53893478D02*
X182863308Y-51861478D01*
X183008451Y-52151763D01*
X183153594Y-52345287D01*
X183298737Y-52442049D01*
X181919880Y-51861478D02*
X180903880Y-51861478D01*
X181557022Y-53893478D01*
X180033022Y-51861478D02*
X179887880Y-51861478D01*
X179742737Y-51958240D01*
X179670165Y-52055001D01*
X179597594Y-52248525D01*
X179525022Y-52635573D01*
X179525022Y-53119382D01*
X179597594Y-53506430D01*
X179670165Y-53699954D01*
X179742737Y-53796716D01*
X179887880Y-53893478D01*
X180033022Y-53893478D01*
X180178165Y-53796716D01*
X180250737Y-53699954D01*
X180323308Y-53506430D01*
X180395880Y-53119382D01*
X180395880Y-52635573D01*
X180323308Y-52248525D01*
X180250737Y-52055001D01*
X180178165Y-51958240D01*
X180033022Y-51861478D01*
X178654165Y-51861478D02*
X178799308Y-51958240D01*
X178871880Y-52151763D01*
X178799308Y-52345287D01*
X178654165Y-52442049D01*
X178509022Y-52345287D01*
X178436451Y-52151763D01*
X178509022Y-51958240D01*
X178654165Y-51861478D01*
X175823880Y-53893478D02*
X176549594Y-53893478D01*
X176549594Y-51861478D01*
X174662737Y-53893478D02*
X174662737Y-52829097D01*
X174735308Y-52635573D01*
X174880451Y-52538811D01*
X175170737Y-52538811D01*
X175315880Y-52635573D01*
X174662737Y-53796716D02*
X174807880Y-53893478D01*
X175170737Y-53893478D01*
X175315880Y-53796716D01*
X175388451Y-53603192D01*
X175388451Y-53409668D01*
X175315880Y-53216144D01*
X175170737Y-53119382D01*
X174807880Y-53119382D01*
X174662737Y-53022620D01*
X173937022Y-53893478D02*
X173937022Y-52538811D01*
X173937022Y-52732335D02*
X173864451Y-52635573D01*
X173719308Y-52538811D01*
X173501594Y-52538811D01*
X173356451Y-52635573D01*
X173283880Y-52829097D01*
X173283880Y-53893478D01*
X173283880Y-52829097D02*
X173211308Y-52635573D01*
X173066165Y-52538811D01*
X172848451Y-52538811D01*
X172703308Y-52635573D01*
X172630737Y-52829097D01*
X172630737Y-53893478D01*
X171905022Y-53893478D02*
X171905022Y-52538811D01*
X171905022Y-51861478D02*
X171977594Y-51958240D01*
X171905022Y-52055001D01*
X171832451Y-51958240D01*
X171905022Y-51861478D01*
X171905022Y-52055001D01*
X171179308Y-52538811D02*
X171179308Y-53893478D01*
X171179308Y-52732335D02*
X171106737Y-52635573D01*
X170961594Y-52538811D01*
X170743880Y-52538811D01*
X170598737Y-52635573D01*
X170526165Y-52829097D01*
X170526165Y-53893478D01*
X169147308Y-53893478D02*
X169147308Y-52829097D01*
X169219880Y-52635573D01*
X169365022Y-52538811D01*
X169655308Y-52538811D01*
X169800451Y-52635573D01*
X169147308Y-53796716D02*
X169292451Y-53893478D01*
X169655308Y-53893478D01*
X169800451Y-53796716D01*
X169873022Y-53603192D01*
X169873022Y-53409668D01*
X169800451Y-53216144D01*
X169655308Y-53119382D01*
X169292451Y-53119382D01*
X169147308Y-53022620D01*
X168639308Y-52538811D02*
X168058737Y-52538811D01*
X168421594Y-51861478D02*
X168421594Y-53603192D01*
X168349022Y-53796716D01*
X168203880Y-53893478D01*
X168058737Y-53893478D01*
X166970165Y-53796716D02*
X167115308Y-53893478D01*
X167405594Y-53893478D01*
X167550737Y-53796716D01*
X167623308Y-53603192D01*
X167623308Y-52829097D01*
X167550737Y-52635573D01*
X167405594Y-52538811D01*
X167115308Y-52538811D01*
X166970165Y-52635573D01*
X166897594Y-52829097D01*
X166897594Y-53022620D01*
X167623308Y-53216144D01*
X191281594Y-55326521D02*
X191209022Y-55229760D01*
X191063880Y-55132998D01*
X190701022Y-55132998D01*
X190555880Y-55229760D01*
X190483308Y-55326521D01*
X190410737Y-55520045D01*
X190410737Y-55713569D01*
X190483308Y-56003855D01*
X191354165Y-57164998D01*
X190410737Y-57164998D01*
X189104451Y-55810331D02*
X189104451Y-57164998D01*
X189467308Y-55036236D02*
X189830165Y-56487664D01*
X188886737Y-56487664D01*
X188306165Y-57164998D02*
X188306165Y-55810331D01*
X188306165Y-56003855D02*
X188233594Y-55907093D01*
X188088451Y-55810331D01*
X187870737Y-55810331D01*
X187725594Y-55907093D01*
X187653022Y-56100617D01*
X187653022Y-57164998D01*
X187653022Y-56100617D02*
X187580451Y-55907093D01*
X187435308Y-55810331D01*
X187217594Y-55810331D01*
X187072451Y-55907093D01*
X186999880Y-56100617D01*
X186999880Y-57164998D01*
X186274165Y-57164998D02*
X186274165Y-55810331D01*
X186274165Y-55132998D02*
X186346737Y-55229760D01*
X186274165Y-55326521D01*
X186201594Y-55229760D01*
X186274165Y-55132998D01*
X186274165Y-55326521D01*
X185330737Y-57164998D02*
X185475880Y-57068236D01*
X185548451Y-56874712D01*
X185548451Y-55132998D01*
X183806737Y-55810331D02*
X183226165Y-55810331D01*
X183589022Y-55132998D02*
X183589022Y-56874712D01*
X183516451Y-57068236D01*
X183371308Y-57164998D01*
X183226165Y-57164998D01*
X182718165Y-57164998D02*
X182718165Y-55810331D01*
X182718165Y-56197379D02*
X182645594Y-56003855D01*
X182573022Y-55907093D01*
X182427880Y-55810331D01*
X182282737Y-55810331D01*
X181121594Y-57164998D02*
X181121594Y-56100617D01*
X181194165Y-55907093D01*
X181339308Y-55810331D01*
X181629594Y-55810331D01*
X181774737Y-55907093D01*
X181121594Y-57068236D02*
X181266737Y-57164998D01*
X181629594Y-57164998D01*
X181774737Y-57068236D01*
X181847308Y-56874712D01*
X181847308Y-56681188D01*
X181774737Y-56487664D01*
X181629594Y-56390902D01*
X181266737Y-56390902D01*
X181121594Y-56294140D01*
X179742737Y-57068236D02*
X179887880Y-57164998D01*
X180178165Y-57164998D01*
X180323308Y-57068236D01*
X180395880Y-56971474D01*
X180468451Y-56777950D01*
X180468451Y-56197379D01*
X180395880Y-56003855D01*
X180323308Y-55907093D01*
X180178165Y-55810331D01*
X179887880Y-55810331D01*
X179742737Y-55907093D01*
X178509022Y-57068236D02*
X178654165Y-57164998D01*
X178944451Y-57164998D01*
X179089594Y-57068236D01*
X179162165Y-56874712D01*
X179162165Y-56100617D01*
X179089594Y-55907093D01*
X178944451Y-55810331D01*
X178654165Y-55810331D01*
X178509022Y-55907093D01*
X178436451Y-56100617D01*
X178436451Y-56294140D01*
X179162165Y-56487664D01*
X177855880Y-57068236D02*
X177710737Y-57164998D01*
X177420451Y-57164998D01*
X177275308Y-57068236D01*
X177202737Y-56874712D01*
X177202737Y-56777950D01*
X177275308Y-56584426D01*
X177420451Y-56487664D01*
X177638165Y-56487664D01*
X177783308Y-56390902D01*
X177855880Y-56197379D01*
X177855880Y-56100617D01*
X177783308Y-55907093D01*
X177638165Y-55810331D01*
X177420451Y-55810331D01*
X177275308Y-55907093D01*
X175170737Y-57164998D02*
X175315880Y-57068236D01*
X175388451Y-56971474D01*
X175461022Y-56777950D01*
X175461022Y-56197379D01*
X175388451Y-56003855D01*
X175315880Y-55907093D01*
X175170737Y-55810331D01*
X174953022Y-55810331D01*
X174807880Y-55907093D01*
X174735308Y-56003855D01*
X174662737Y-56197379D01*
X174662737Y-56777950D01*
X174735308Y-56971474D01*
X174807880Y-57068236D01*
X174953022Y-57164998D01*
X175170737Y-57164998D01*
X174009594Y-55810331D02*
X174009594Y-57164998D01*
X174009594Y-56003855D02*
X173937022Y-55907093D01*
X173791880Y-55810331D01*
X173574165Y-55810331D01*
X173429022Y-55907093D01*
X173356451Y-56100617D01*
X173356451Y-57164998D01*
X170671308Y-57164998D02*
X171542165Y-57164998D01*
X171106737Y-57164998D02*
X171106737Y-55132998D01*
X171251880Y-55423283D01*
X171397022Y-55616807D01*
X171542165Y-55713569D01*
X169800451Y-57164998D02*
X169945594Y-57068236D01*
X170018165Y-56971474D01*
X170090737Y-56777950D01*
X170090737Y-56197379D01*
X170018165Y-56003855D01*
X169945594Y-55907093D01*
X169800451Y-55810331D01*
X169582737Y-55810331D01*
X169437594Y-55907093D01*
X169365022Y-56003855D01*
X169292451Y-56197379D01*
X169292451Y-56777950D01*
X169365022Y-56971474D01*
X169437594Y-57068236D01*
X169582737Y-57164998D01*
X169800451Y-57164998D01*
X168784451Y-55810331D02*
X167986165Y-55810331D01*
X168784451Y-57164998D01*
X167986165Y-57164998D01*
X165591308Y-57068236D02*
X165736451Y-57164998D01*
X166026737Y-57164998D01*
X166171880Y-57068236D01*
X166244451Y-56971474D01*
X166317022Y-56777950D01*
X166317022Y-56197379D01*
X166244451Y-56003855D01*
X166171880Y-55907093D01*
X166026737Y-55810331D01*
X165736451Y-55810331D01*
X165591308Y-55907093D01*
X164720451Y-57164998D02*
X164865594Y-57068236D01*
X164938165Y-56971474D01*
X165010737Y-56777950D01*
X165010737Y-56197379D01*
X164938165Y-56003855D01*
X164865594Y-55907093D01*
X164720451Y-55810331D01*
X164502737Y-55810331D01*
X164357594Y-55907093D01*
X164285022Y-56003855D01*
X164212451Y-56197379D01*
X164212451Y-56777950D01*
X164285022Y-56971474D01*
X164357594Y-57068236D01*
X164502737Y-57164998D01*
X164720451Y-57164998D01*
X163559308Y-55810331D02*
X163559308Y-57842331D01*
X163559308Y-55907093D02*
X163414165Y-55810331D01*
X163123880Y-55810331D01*
X162978737Y-55907093D01*
X162906165Y-56003855D01*
X162833594Y-56197379D01*
X162833594Y-56777950D01*
X162906165Y-56971474D01*
X162978737Y-57068236D01*
X163123880Y-57164998D01*
X163414165Y-57164998D01*
X163559308Y-57068236D01*
X162180451Y-55810331D02*
X162180451Y-57842331D01*
X162180451Y-55907093D02*
X162035308Y-55810331D01*
X161745022Y-55810331D01*
X161599880Y-55907093D01*
X161527308Y-56003855D01*
X161454737Y-56197379D01*
X161454737Y-56777950D01*
X161527308Y-56971474D01*
X161599880Y-57068236D01*
X161745022Y-57164998D01*
X162035308Y-57164998D01*
X162180451Y-57068236D01*
X160221022Y-57068236D02*
X160366165Y-57164998D01*
X160656451Y-57164998D01*
X160801594Y-57068236D01*
X160874165Y-56874712D01*
X160874165Y-56100617D01*
X160801594Y-55907093D01*
X160656451Y-55810331D01*
X160366165Y-55810331D01*
X160221022Y-55907093D01*
X160148451Y-56100617D01*
X160148451Y-56294140D01*
X160874165Y-56487664D01*
X159495308Y-57164998D02*
X159495308Y-55810331D01*
X159495308Y-56197379D02*
X159422737Y-56003855D01*
X159350165Y-55907093D01*
X159205022Y-55810331D01*
X159059880Y-55810331D01*
D12*
X75960514Y-99890217D02*
X77170038Y-99890217D01*
X77170038Y-96842217D01*
X75113847Y-98293645D02*
X74267180Y-98293645D01*
X73904323Y-99890217D02*
X75113847Y-99890217D01*
X75113847Y-96842217D01*
X73904323Y-96842217D01*
X71969085Y-98293645D02*
X72815752Y-98293645D01*
X72815752Y-99890217D02*
X72815752Y-96842217D01*
X71606228Y-96842217D01*
X71001466Y-96842217D02*
X69550038Y-96842217D01*
X70275752Y-99890217D02*
X70275752Y-96842217D01*
X77170038Y-104797497D02*
X77170038Y-101749497D01*
X77170038Y-103200925D02*
X75718609Y-103200925D01*
X75718609Y-104797497D02*
X75718609Y-101749497D01*
X74630038Y-103926640D02*
X73420514Y-103926640D01*
X74871942Y-104797497D02*
X74025276Y-101749497D01*
X73178609Y-104797497D01*
X72331942Y-104797497D02*
X72331942Y-101749497D01*
X70880514Y-104797497D01*
X70880514Y-101749497D01*
X69670990Y-104797497D02*
X69670990Y-101749497D01*
X69066228Y-101749497D01*
X68703371Y-101894640D01*
X68461466Y-102184925D01*
X68340514Y-102475211D01*
X68219561Y-103055782D01*
X68219561Y-103491211D01*
X68340514Y-104071782D01*
X68461466Y-104362068D01*
X68703371Y-104652354D01*
X69066228Y-104797497D01*
X69670990Y-104797497D01*
D10*
%TO.C,J2*%
X90542533Y-35360428D02*
X89441866Y-35360428D01*
X90034533Y-35941000D01*
X89780533Y-35941000D01*
X89611200Y-36013571D01*
X89526533Y-36086142D01*
X89441866Y-36231285D01*
X89441866Y-36594142D01*
X89526533Y-36739285D01*
X89611200Y-36811857D01*
X89780533Y-36884428D01*
X90288533Y-36884428D01*
X90457866Y-36811857D01*
X90542533Y-36739285D01*
X88679866Y-36739285D02*
X88595200Y-36811857D01*
X88679866Y-36884428D01*
X88764533Y-36811857D01*
X88679866Y-36739285D01*
X88679866Y-36884428D01*
X86986533Y-35360428D02*
X87833200Y-35360428D01*
X87917866Y-36086142D01*
X87833200Y-36013571D01*
X87663866Y-35941000D01*
X87240533Y-35941000D01*
X87071200Y-36013571D01*
X86986533Y-36086142D01*
X86901866Y-36231285D01*
X86901866Y-36594142D01*
X86986533Y-36739285D01*
X87071200Y-36811857D01*
X87240533Y-36884428D01*
X87663866Y-36884428D01*
X87833200Y-36811857D01*
X87917866Y-36739285D01*
X86139866Y-36884428D02*
X86139866Y-35868428D01*
X86139866Y-36013571D02*
X86055200Y-35941000D01*
X85885866Y-35868428D01*
X85631866Y-35868428D01*
X85462533Y-35941000D01*
X85377866Y-36086142D01*
X85377866Y-36884428D01*
X85377866Y-36086142D02*
X85293200Y-35941000D01*
X85123866Y-35868428D01*
X84869866Y-35868428D01*
X84700533Y-35941000D01*
X84615866Y-36086142D01*
X84615866Y-36884428D01*
X83769200Y-36884428D02*
X83769200Y-35868428D01*
X83769200Y-36013571D02*
X83684533Y-35941000D01*
X83515200Y-35868428D01*
X83261200Y-35868428D01*
X83091866Y-35941000D01*
X83007200Y-36086142D01*
X83007200Y-36884428D01*
X83007200Y-36086142D02*
X82922533Y-35941000D01*
X82753200Y-35868428D01*
X82499200Y-35868428D01*
X82329866Y-35941000D01*
X82245200Y-36086142D01*
X82245200Y-36884428D01*
D13*
%TO.C,U2*%
X187869285Y-42653857D02*
X187869285Y-39605857D01*
X187022619Y-41783000D01*
X186175952Y-39605857D01*
X186175952Y-42653857D01*
X183515000Y-42363571D02*
X183635952Y-42508714D01*
X183998809Y-42653857D01*
X184240714Y-42653857D01*
X184603571Y-42508714D01*
X184845476Y-42218428D01*
X184966428Y-41928142D01*
X185087380Y-41347571D01*
X185087380Y-40912142D01*
X184966428Y-40331571D01*
X184845476Y-40041285D01*
X184603571Y-39751000D01*
X184240714Y-39605857D01*
X183998809Y-39605857D01*
X183635952Y-39751000D01*
X183515000Y-39896142D01*
X182426428Y-42653857D02*
X182426428Y-39605857D01*
X181458809Y-39605857D01*
X181216904Y-39751000D01*
X181095952Y-39896142D01*
X180975000Y-40186428D01*
X180975000Y-40621857D01*
X181095952Y-40912142D01*
X181216904Y-41057285D01*
X181458809Y-41202428D01*
X182426428Y-41202428D01*
X180007380Y-39896142D02*
X179886428Y-39751000D01*
X179644523Y-39605857D01*
X179039761Y-39605857D01*
X178797857Y-39751000D01*
X178676904Y-39896142D01*
X178555952Y-40186428D01*
X178555952Y-40476714D01*
X178676904Y-40912142D01*
X180128333Y-42653857D01*
X178555952Y-42653857D01*
X177709285Y-39605857D02*
X176136904Y-39605857D01*
X176983571Y-40767000D01*
X176620714Y-40767000D01*
X176378809Y-40912142D01*
X176257857Y-41057285D01*
X176136904Y-41347571D01*
X176136904Y-42073285D01*
X176257857Y-42363571D01*
X176378809Y-42508714D01*
X176620714Y-42653857D01*
X177346428Y-42653857D01*
X177588333Y-42508714D01*
X177709285Y-42363571D01*
X174564523Y-39605857D02*
X174322619Y-39605857D01*
X174080714Y-39751000D01*
X173959761Y-39896142D01*
X173838809Y-40186428D01*
X173717857Y-40767000D01*
X173717857Y-41492714D01*
X173838809Y-42073285D01*
X173959761Y-42363571D01*
X174080714Y-42508714D01*
X174322619Y-42653857D01*
X174564523Y-42653857D01*
X174806428Y-42508714D01*
X174927380Y-42363571D01*
X175048333Y-42073285D01*
X175169285Y-41492714D01*
X175169285Y-40767000D01*
X175048333Y-40186428D01*
X174927380Y-39896142D01*
X174806428Y-39751000D01*
X174564523Y-39605857D01*
X171298809Y-42653857D02*
X172750238Y-42653857D01*
X172024523Y-42653857D02*
X172024523Y-39605857D01*
X172266428Y-40041285D01*
X172508333Y-40331571D01*
X172750238Y-40476714D01*
X169847380Y-40912142D02*
X170089285Y-40767000D01*
X170210238Y-40621857D01*
X170331190Y-40331571D01*
X170331190Y-40186428D01*
X170210238Y-39896142D01*
X170089285Y-39751000D01*
X169847380Y-39605857D01*
X169363571Y-39605857D01*
X169121666Y-39751000D01*
X169000714Y-39896142D01*
X168879761Y-40186428D01*
X168879761Y-40331571D01*
X169000714Y-40621857D01*
X169121666Y-40767000D01*
X169363571Y-40912142D01*
X169847380Y-40912142D01*
X170089285Y-41057285D01*
X170210238Y-41202428D01*
X170331190Y-41492714D01*
X170331190Y-42073285D01*
X170210238Y-42363571D01*
X170089285Y-42508714D01*
X169847380Y-42653857D01*
X169363571Y-42653857D01*
X169121666Y-42508714D01*
X169000714Y-42363571D01*
X168879761Y-42073285D01*
X168879761Y-41492714D01*
X169000714Y-41202428D01*
X169121666Y-41057285D01*
X169363571Y-40912142D01*
D14*
%TO.C,SW1:13*%
X185340000Y-152346660D02*
X188040000Y-152346660D01*
X185340000Y-150646660D02*
X188040000Y-150646660D01*
%TO.C,SW1:10*%
X128190000Y-145874000D02*
X130890000Y-145874000D01*
X128190000Y-147574000D02*
X130890000Y-147574000D01*
%TO.C,SW1:9*%
X109140000Y-149171660D02*
X111840000Y-149171660D01*
X109140000Y-147471660D02*
X111840000Y-147471660D01*
%TO.C,SW2:13*%
X190102500Y-133296660D02*
X192802500Y-133296660D01*
X190102500Y-131596660D02*
X192802500Y-131596660D01*
%TO.C,SW2:10*%
X128190000Y-128524000D02*
X130890000Y-128524000D01*
X128190000Y-126824000D02*
X130890000Y-126824000D01*
%TO.C,SW2:9*%
X109140000Y-130121660D02*
X111840000Y-130121660D01*
X109140000Y-128421660D02*
X111840000Y-128421660D01*
%TO.C,SW2:7*%
X81534000Y-118835160D02*
X81534000Y-116135160D01*
X79834000Y-118835160D02*
X79834000Y-116135160D01*
%TO.C,SW3:13*%
X190102500Y-114246660D02*
X192802500Y-114246660D01*
X190102500Y-112546660D02*
X192802500Y-112546660D01*
%TO.C,SW3:11*%
X147240000Y-109371660D02*
X149940000Y-109371660D01*
X147240000Y-111071660D02*
X149940000Y-111071660D01*
%TO.C,SW3:10*%
X128190000Y-107774000D02*
X130890000Y-107774000D01*
X128190000Y-109474000D02*
X130890000Y-109474000D01*
%TO.C,SW3:9*%
X109140000Y-109371660D02*
X111840000Y-109371660D01*
X109140000Y-111071660D02*
X111840000Y-111071660D01*
%TO.C,SW3:8*%
X90090000Y-112341660D02*
X92790000Y-112341660D01*
X90090000Y-110641660D02*
X92790000Y-110641660D01*
%TO.C,SW4:13*%
X190102500Y-93496660D02*
X192802500Y-93496660D01*
X190102500Y-95196660D02*
X192802500Y-95196660D01*
%TO.C,SW4:12*%
X166290000Y-93496660D02*
X168990000Y-93496660D01*
X166290000Y-95196660D02*
X168990000Y-95196660D01*
%TO.C,SW4:11*%
X147240000Y-92021660D02*
X149940000Y-92021660D01*
X147240000Y-90321660D02*
X149940000Y-90321660D01*
%TO.C,SW4:10*%
X128190000Y-90424000D02*
X130890000Y-90424000D01*
X128190000Y-88724000D02*
X130890000Y-88724000D01*
%TO.C,SW4:9*%
X109140000Y-92021660D02*
X111840000Y-92021660D01*
X109140000Y-90321660D02*
X111840000Y-90321660D01*
%TO.C,SW4:8*%
X90090000Y-91591660D02*
X92790000Y-91591660D01*
X90090000Y-93291660D02*
X92790000Y-93291660D01*
%TO.C,SW4:7*%
X81534000Y-90260160D02*
X81534000Y-87560160D01*
X79834000Y-90260160D02*
X79834000Y-87560160D01*
%TO.C,SW0:10*%
X90160673Y-150424574D02*
X89019604Y-147977543D01*
X88619950Y-151143025D02*
X87478881Y-148695994D01*
%TO.C,SW0:12*%
X53440906Y-186657813D02*
X55887937Y-185516744D01*
X52722455Y-185117090D02*
X55169486Y-183976021D01*
%TO.C,SW0:11*%
X71355570Y-159194825D02*
X70214501Y-156747794D01*
X72896293Y-158476374D02*
X71755224Y-156029343D01*
%TO.C,SW0:9*%
X45389106Y-169390893D02*
X47836137Y-168249824D01*
X44670655Y-167850170D02*
X47117686Y-166709101D01*
%TO.C,SW0:7*%
X36621395Y-150585790D02*
X39068426Y-149444721D01*
X37339846Y-152126513D02*
X39786877Y-150985444D01*
%TO.C,SW1:11*%
X147240000Y-149171660D02*
X149940000Y-149171660D01*
X147240000Y-147471660D02*
X149940000Y-147471660D01*
%TO.C,SW0:8*%
X53885775Y-142536530D02*
X56332806Y-141395461D01*
X54604226Y-144077253D02*
X57051257Y-142936184D01*
D15*
%TO.C,J2*%
X91109800Y-42545000D02*
X81508600Y-42545000D01*
X91109800Y-30480000D02*
X91109800Y-42545000D01*
X81508600Y-42545000D02*
X81508600Y-30480000D01*
D16*
%TO.C,J4*%
X78740000Y-37465000D02*
X78740000Y-34925000D01*
D14*
%TO.C,SW5:13*%
X190102500Y-74449200D02*
X192802500Y-74449200D01*
X190102500Y-76149200D02*
X192802500Y-76149200D01*
%TO.C,SW5:9*%
X109140000Y-71271660D02*
X111840000Y-71271660D01*
X109140000Y-72971660D02*
X111840000Y-72971660D01*
%TO.C,SW5:10*%
X128190000Y-69674000D02*
X130890000Y-69674000D01*
X128190000Y-71374000D02*
X130890000Y-71374000D01*
%TO.C,SW5:11*%
X147240000Y-71271660D02*
X149940000Y-71271660D01*
X147240000Y-72971660D02*
X149940000Y-72971660D01*
%TO.C,SW5:12*%
X166290000Y-74449200D02*
X168990000Y-74449200D01*
X166290000Y-76149200D02*
X168990000Y-76149200D01*
%TO.C,SW5:8*%
X90090000Y-74244200D02*
X92790000Y-74244200D01*
X90090000Y-72544200D02*
X92790000Y-72544200D01*
%TO.C,SW5:7*%
X71040000Y-72544200D02*
X73740000Y-72544200D01*
X71040000Y-74244200D02*
X73740000Y-74244200D01*
%TO.C,SW2:11*%
X147240000Y-130121660D02*
X149940000Y-130121660D01*
X147240000Y-128421660D02*
X149940000Y-128421660D01*
%TO.C,SW2:8*%
X90090000Y-129691660D02*
X92790000Y-129691660D01*
X90090000Y-131391660D02*
X92790000Y-131391660D01*
%TO.C,SW3:12*%
X166290000Y-112546660D02*
X168990000Y-112546660D01*
X166290000Y-114246660D02*
X168990000Y-114246660D01*
%TO.C,SW2:12*%
X166290000Y-131596660D02*
X168990000Y-131596660D01*
X166290000Y-133296660D02*
X168990000Y-133296660D01*
%TO.C,SW1:12*%
X166290000Y-150646660D02*
X168990000Y-150646660D01*
X166290000Y-152346660D02*
X168990000Y-152346660D01*
D15*
%TO.C,U2*%
X160655000Y-40005000D02*
X159385000Y-40005000D01*
X197485000Y-38735000D02*
X159385000Y-38735000D01*
X159385000Y-42545000D02*
X160655000Y-42545000D01*
X160655000Y-42545000D02*
X160655000Y-40005000D01*
X159385000Y-38735000D02*
X159385000Y-43815000D01*
X159385000Y-43815000D02*
X197485000Y-43815000D01*
X197485000Y-43815000D02*
X197485000Y-38735000D01*
D16*
%TO.C,J3*%
X93980000Y-40005000D02*
X93980000Y-37465000D01*
%TD*%
D17*
%TO.C,RC1*%
X130492500Y-46990000D03*
X120332500Y-46990000D03*
%TD*%
%TO.C,RA1*%
X152499602Y-41810398D03*
X145315398Y-48994602D03*
%TD*%
%TO.C,RB1*%
X150594602Y-39905398D03*
X143410398Y-47089602D03*
%TD*%
%TO.C,R1*%
X101817898Y-36730398D03*
X109002102Y-43914602D03*
%TD*%
%TO.C,R2*%
X98642898Y-38000398D03*
X105827102Y-45184602D03*
%TD*%
D18*
%TO.C,U1*%
X161925000Y-50165000D03*
D19*
X164465000Y-50165000D03*
X167005000Y-50165000D03*
X169545000Y-50165000D03*
X172085000Y-50165000D03*
X174625000Y-50165000D03*
X177165000Y-50165000D03*
X179705000Y-50165000D03*
X182245000Y-50165000D03*
X184785000Y-50165000D03*
X187325000Y-50165000D03*
X189865000Y-50165000D03*
X189865000Y-34925000D03*
X187325000Y-34925000D03*
X184785000Y-34925000D03*
X182245000Y-34925000D03*
X179705000Y-34925000D03*
X177165000Y-34925000D03*
X174625000Y-34925000D03*
X172085000Y-34925000D03*
X169545000Y-34925000D03*
X167005000Y-34925000D03*
X164465000Y-34925000D03*
X161925000Y-34925000D03*
%TD*%
D20*
%TO.C,U2*%
X189865000Y-45085000D03*
X187325000Y-45085000D03*
X184785000Y-45085000D03*
D18*
X161925000Y-37465000D03*
D19*
X164465000Y-37465000D03*
X167005000Y-37465000D03*
X169545000Y-37465000D03*
X172085000Y-37465000D03*
X174625000Y-37465000D03*
X177165000Y-37465000D03*
X179705000Y-37465000D03*
X182245000Y-37465000D03*
X184785000Y-37465000D03*
X187325000Y-37465000D03*
X189865000Y-37465000D03*
X192405000Y-37465000D03*
X194945000Y-37465000D03*
X194945000Y-45085000D03*
X192405000Y-45085000D03*
X182245000Y-45085000D03*
X179705000Y-45085000D03*
X177165000Y-45085000D03*
X174625000Y-45085000D03*
X172085000Y-45085000D03*
X169545000Y-45085000D03*
X167005000Y-45085000D03*
X164465000Y-45085000D03*
X161925000Y-45085000D03*
%TD*%
D17*
%TO.C,J3*%
X93980000Y-40005000D03*
X93980000Y-37465000D03*
X93980000Y-34925000D03*
%TD*%
M02*
