%TF.GenerationSoftware,KiCad,Pcbnew,(6.0.5)*%
%TF.CreationDate,2022-06-24T19:59:47-07:00*%
%TF.ProjectId,ErgoDOX,4572676f-444f-4582-9e6b-696361645f70,rev?*%
%TF.SameCoordinates,Original*%
%TF.FileFunction,Legend,Top*%
%TF.FilePolarity,Positive*%
%FSLAX46Y46*%
G04 Gerber Fmt 4.6, Leading zero omitted, Abs format (unit mm)*
G04 Created by KiCad (PCBNEW (6.0.5)) date 2022-06-24 19:59:47*
%MOMM*%
%LPD*%
G01*
G04 APERTURE LIST*
%ADD10C,0.508000*%
%ADD11C,0.150000*%
%ADD12C,0.125000*%
%ADD13C,0.120000*%
G04 APERTURE END LIST*
D10*
X69696390Y-99890217D02*
X68849723Y-98438788D01*
X68244961Y-99890217D02*
X68244961Y-96842217D01*
X69212580Y-96842217D01*
X69454485Y-96987360D01*
X69575438Y-97132502D01*
X69696390Y-97422788D01*
X69696390Y-97858217D01*
X69575438Y-98148502D01*
X69454485Y-98293645D01*
X69212580Y-98438788D01*
X68244961Y-98438788D01*
X70784961Y-99890217D02*
X70784961Y-96842217D01*
X73324961Y-96987360D02*
X73083057Y-96842217D01*
X72720200Y-96842217D01*
X72357342Y-96987360D01*
X72115438Y-97277645D01*
X71994485Y-97567931D01*
X71873533Y-98148502D01*
X71873533Y-98583931D01*
X71994485Y-99164502D01*
X72115438Y-99454788D01*
X72357342Y-99745074D01*
X72720200Y-99890217D01*
X72962104Y-99890217D01*
X73324961Y-99745074D01*
X73445914Y-99599931D01*
X73445914Y-98583931D01*
X72962104Y-98583931D01*
X74534485Y-99890217D02*
X74534485Y-96842217D01*
X74534485Y-98293645D02*
X75985914Y-98293645D01*
X75985914Y-99890217D02*
X75985914Y-96842217D01*
X76832580Y-96842217D02*
X78284009Y-96842217D01*
X77558295Y-99890217D02*
X77558295Y-96842217D01*
X68244961Y-104797497D02*
X68244961Y-101749497D01*
X68244961Y-103200925D02*
X69696390Y-103200925D01*
X69696390Y-104797497D02*
X69696390Y-101749497D01*
X70784961Y-103926640D02*
X71994485Y-103926640D01*
X70543057Y-104797497D02*
X71389723Y-101749497D01*
X72236390Y-104797497D01*
X73083057Y-104797497D02*
X73083057Y-101749497D01*
X74534485Y-104797497D01*
X74534485Y-101749497D01*
X75744009Y-104797497D02*
X75744009Y-101749497D01*
X76348771Y-101749497D01*
X76711628Y-101894640D01*
X76953533Y-102184925D01*
X77074485Y-102475211D01*
X77195438Y-103055782D01*
X77195438Y-103491211D01*
X77074485Y-104071782D01*
X76953533Y-104362068D01*
X76711628Y-104652354D01*
X76348771Y-104797497D01*
X75744009Y-104797497D01*
D11*
%TO.C,*%
D12*
%TO.C,U1*%
X37545726Y-61778571D02*
X37617154Y-61814285D01*
X37736202Y-61814285D01*
X37783821Y-61778571D01*
X37807630Y-61742857D01*
X37831440Y-61671428D01*
X37831440Y-61600000D01*
X37807630Y-61528571D01*
X37783821Y-61492857D01*
X37736202Y-61457142D01*
X37640964Y-61421428D01*
X37593345Y-61385714D01*
X37569535Y-61350000D01*
X37545726Y-61278571D01*
X37545726Y-61207142D01*
X37569535Y-61135714D01*
X37593345Y-61100000D01*
X37640964Y-61064285D01*
X37760011Y-61064285D01*
X37831440Y-61100000D01*
X38045726Y-61814285D02*
X38045726Y-61064285D01*
X38164773Y-61064285D01*
X38236202Y-61100000D01*
X38283821Y-61171428D01*
X38307630Y-61242857D01*
X38331440Y-61385714D01*
X38331440Y-61492857D01*
X38307630Y-61635714D01*
X38283821Y-61707142D01*
X38236202Y-61778571D01*
X38164773Y-61814285D01*
X38045726Y-61814285D01*
X38521916Y-61600000D02*
X38760011Y-61600000D01*
X38474297Y-61814285D02*
X38640964Y-61064285D01*
X38807630Y-61814285D01*
X52674297Y-58569785D02*
X52840964Y-59319785D01*
X53007630Y-58569785D01*
X53460011Y-59248357D02*
X53436202Y-59284071D01*
X53364773Y-59319785D01*
X53317154Y-59319785D01*
X53245726Y-59284071D01*
X53198107Y-59212642D01*
X53174297Y-59141214D01*
X53150488Y-58998357D01*
X53150488Y-58891214D01*
X53174297Y-58748357D01*
X53198107Y-58676928D01*
X53245726Y-58605500D01*
X53317154Y-58569785D01*
X53364773Y-58569785D01*
X53436202Y-58605500D01*
X53460011Y-58641214D01*
X53960011Y-59248357D02*
X53936202Y-59284071D01*
X53864773Y-59319785D01*
X53817154Y-59319785D01*
X53745726Y-59284071D01*
X53698107Y-59212642D01*
X53674297Y-59141214D01*
X53650488Y-58998357D01*
X53650488Y-58891214D01*
X53674297Y-58748357D01*
X53698107Y-58676928D01*
X53745726Y-58605500D01*
X53817154Y-58569785D01*
X53864773Y-58569785D01*
X53936202Y-58605500D01*
X53960011Y-58641214D01*
X52555250Y-71892857D02*
X52531440Y-71928571D01*
X52460011Y-71964285D01*
X52412392Y-71964285D01*
X52340964Y-71928571D01*
X52293345Y-71857142D01*
X52269535Y-71785714D01*
X52245726Y-71642857D01*
X52245726Y-71535714D01*
X52269535Y-71392857D01*
X52293345Y-71321428D01*
X52340964Y-71250000D01*
X52412392Y-71214285D01*
X52460011Y-71214285D01*
X52531440Y-71250000D01*
X52555250Y-71285714D01*
X52864773Y-71214285D02*
X52960011Y-71214285D01*
X53007630Y-71250000D01*
X53055250Y-71321428D01*
X53079059Y-71464285D01*
X53079059Y-71714285D01*
X53055250Y-71857142D01*
X53007630Y-71928571D01*
X52960011Y-71964285D01*
X52864773Y-71964285D01*
X52817154Y-71928571D01*
X52769535Y-71857142D01*
X52745726Y-71714285D01*
X52745726Y-71464285D01*
X52769535Y-71321428D01*
X52817154Y-71250000D01*
X52864773Y-71214285D01*
X53531440Y-71964285D02*
X53293345Y-71964285D01*
X53293345Y-71214285D01*
X53912392Y-71464285D02*
X53912392Y-71964285D01*
X53793345Y-71178571D02*
X53674297Y-71714285D01*
X53983821Y-71714285D01*
X37188583Y-66876285D02*
X37021916Y-66519142D01*
X36902869Y-66876285D02*
X36902869Y-66126285D01*
X37093345Y-66126285D01*
X37140964Y-66162000D01*
X37164773Y-66197714D01*
X37188583Y-66269142D01*
X37188583Y-66376285D01*
X37164773Y-66447714D01*
X37140964Y-66483428D01*
X37093345Y-66519142D01*
X36902869Y-66519142D01*
X37498107Y-66126285D02*
X37593345Y-66126285D01*
X37640964Y-66162000D01*
X37688583Y-66233428D01*
X37712392Y-66376285D01*
X37712392Y-66626285D01*
X37688583Y-66769142D01*
X37640964Y-66840571D01*
X37593345Y-66876285D01*
X37498107Y-66876285D01*
X37450488Y-66840571D01*
X37402869Y-66769142D01*
X37379059Y-66626285D01*
X37379059Y-66376285D01*
X37402869Y-66233428D01*
X37450488Y-66162000D01*
X37498107Y-66126285D01*
X37879059Y-66126285D02*
X37998107Y-66876285D01*
X38093345Y-66340571D01*
X38188583Y-66876285D01*
X38307630Y-66126285D01*
X38736202Y-66126285D02*
X38498107Y-66126285D01*
X38474297Y-66483428D01*
X38498107Y-66447714D01*
X38545726Y-66412000D01*
X38664773Y-66412000D01*
X38712392Y-66447714D01*
X38736202Y-66483428D01*
X38760011Y-66554857D01*
X38760011Y-66733428D01*
X38736202Y-66804857D01*
X38712392Y-66840571D01*
X38664773Y-66876285D01*
X38545726Y-66876285D01*
X38498107Y-66840571D01*
X38474297Y-66804857D01*
X37712392Y-58542000D02*
X37664773Y-58506285D01*
X37593345Y-58506285D01*
X37521916Y-58542000D01*
X37474297Y-58613428D01*
X37450488Y-58684857D01*
X37426678Y-58827714D01*
X37426678Y-58934857D01*
X37450488Y-59077714D01*
X37474297Y-59149142D01*
X37521916Y-59220571D01*
X37593345Y-59256285D01*
X37640964Y-59256285D01*
X37712392Y-59220571D01*
X37736202Y-59184857D01*
X37736202Y-58934857D01*
X37640964Y-58934857D01*
X37950488Y-59256285D02*
X37950488Y-58506285D01*
X38236202Y-59256285D01*
X38236202Y-58506285D01*
X38474297Y-59256285D02*
X38474297Y-58506285D01*
X38593345Y-58506285D01*
X38664773Y-58542000D01*
X38712392Y-58613428D01*
X38736202Y-58684857D01*
X38760011Y-58827714D01*
X38760011Y-58934857D01*
X38736202Y-59077714D01*
X38712392Y-59149142D01*
X38664773Y-59220571D01*
X38593345Y-59256285D01*
X38474297Y-59256285D01*
X37188583Y-71964285D02*
X37021916Y-71607142D01*
X36902869Y-71964285D02*
X36902869Y-71214285D01*
X37093345Y-71214285D01*
X37140964Y-71250000D01*
X37164773Y-71285714D01*
X37188583Y-71357142D01*
X37188583Y-71464285D01*
X37164773Y-71535714D01*
X37140964Y-71571428D01*
X37093345Y-71607142D01*
X36902869Y-71607142D01*
X37498107Y-71214285D02*
X37593345Y-71214285D01*
X37640964Y-71250000D01*
X37688583Y-71321428D01*
X37712392Y-71464285D01*
X37712392Y-71714285D01*
X37688583Y-71857142D01*
X37640964Y-71928571D01*
X37593345Y-71964285D01*
X37498107Y-71964285D01*
X37450488Y-71928571D01*
X37402869Y-71857142D01*
X37379059Y-71714285D01*
X37379059Y-71464285D01*
X37402869Y-71321428D01*
X37450488Y-71250000D01*
X37498107Y-71214285D01*
X37879059Y-71214285D02*
X37998107Y-71964285D01*
X38093345Y-71428571D01*
X38188583Y-71964285D01*
X38307630Y-71214285D01*
X38450488Y-71214285D02*
X38760011Y-71214285D01*
X38593345Y-71500000D01*
X38664773Y-71500000D01*
X38712392Y-71535714D01*
X38736202Y-71571428D01*
X38760011Y-71642857D01*
X38760011Y-71821428D01*
X38736202Y-71892857D01*
X38712392Y-71928571D01*
X38664773Y-71964285D01*
X38521916Y-71964285D01*
X38474297Y-71928571D01*
X38450488Y-71892857D01*
X37569535Y-64300571D02*
X37640964Y-64336285D01*
X37760011Y-64336285D01*
X37807630Y-64300571D01*
X37831440Y-64264857D01*
X37855250Y-64193428D01*
X37855250Y-64122000D01*
X37831440Y-64050571D01*
X37807630Y-64014857D01*
X37760011Y-63979142D01*
X37664773Y-63943428D01*
X37617154Y-63907714D01*
X37593345Y-63872000D01*
X37569535Y-63800571D01*
X37569535Y-63729142D01*
X37593345Y-63657714D01*
X37617154Y-63622000D01*
X37664773Y-63586285D01*
X37783821Y-63586285D01*
X37855250Y-63622000D01*
X38355250Y-64264857D02*
X38331440Y-64300571D01*
X38260011Y-64336285D01*
X38212392Y-64336285D01*
X38140964Y-64300571D01*
X38093345Y-64229142D01*
X38069535Y-64157714D01*
X38045726Y-64014857D01*
X38045726Y-63907714D01*
X38069535Y-63764857D01*
X38093345Y-63693428D01*
X38140964Y-63622000D01*
X38212392Y-63586285D01*
X38260011Y-63586285D01*
X38331440Y-63622000D01*
X38355250Y-63657714D01*
X38807630Y-64336285D02*
X38569535Y-64336285D01*
X38569535Y-63586285D01*
X37188583Y-79614285D02*
X37021916Y-79257142D01*
X36902869Y-79614285D02*
X36902869Y-78864285D01*
X37093345Y-78864285D01*
X37140964Y-78900000D01*
X37164773Y-78935714D01*
X37188583Y-79007142D01*
X37188583Y-79114285D01*
X37164773Y-79185714D01*
X37140964Y-79221428D01*
X37093345Y-79257142D01*
X36902869Y-79257142D01*
X37498107Y-78864285D02*
X37593345Y-78864285D01*
X37640964Y-78900000D01*
X37688583Y-78971428D01*
X37712392Y-79114285D01*
X37712392Y-79364285D01*
X37688583Y-79507142D01*
X37640964Y-79578571D01*
X37593345Y-79614285D01*
X37498107Y-79614285D01*
X37450488Y-79578571D01*
X37402869Y-79507142D01*
X37379059Y-79364285D01*
X37379059Y-79114285D01*
X37402869Y-78971428D01*
X37450488Y-78900000D01*
X37498107Y-78864285D01*
X37879059Y-78864285D02*
X37998107Y-79614285D01*
X38093345Y-79078571D01*
X38188583Y-79614285D01*
X38307630Y-78864285D01*
X38593345Y-78864285D02*
X38640964Y-78864285D01*
X38688583Y-78900000D01*
X38712392Y-78935714D01*
X38736202Y-79007142D01*
X38760011Y-79150000D01*
X38760011Y-79328571D01*
X38736202Y-79471428D01*
X38712392Y-79542857D01*
X38688583Y-79578571D01*
X38640964Y-79614285D01*
X38593345Y-79614285D01*
X38545726Y-79578571D01*
X38521916Y-79542857D01*
X38498107Y-79471428D01*
X38474297Y-79328571D01*
X38474297Y-79150000D01*
X38498107Y-79007142D01*
X38521916Y-78935714D01*
X38545726Y-78900000D01*
X38593345Y-78864285D01*
X52555250Y-64264857D02*
X52531440Y-64300571D01*
X52460011Y-64336285D01*
X52412392Y-64336285D01*
X52340964Y-64300571D01*
X52293345Y-64229142D01*
X52269535Y-64157714D01*
X52245726Y-64014857D01*
X52245726Y-63907714D01*
X52269535Y-63764857D01*
X52293345Y-63693428D01*
X52340964Y-63622000D01*
X52412392Y-63586285D01*
X52460011Y-63586285D01*
X52531440Y-63622000D01*
X52555250Y-63657714D01*
X52864773Y-63586285D02*
X52960011Y-63586285D01*
X53007630Y-63622000D01*
X53055250Y-63693428D01*
X53079059Y-63836285D01*
X53079059Y-64086285D01*
X53055250Y-64229142D01*
X53007630Y-64300571D01*
X52960011Y-64336285D01*
X52864773Y-64336285D01*
X52817154Y-64300571D01*
X52769535Y-64229142D01*
X52745726Y-64086285D01*
X52745726Y-63836285D01*
X52769535Y-63693428D01*
X52817154Y-63622000D01*
X52864773Y-63586285D01*
X53531440Y-64336285D02*
X53293345Y-64336285D01*
X53293345Y-63586285D01*
X53960011Y-64336285D02*
X53674297Y-64336285D01*
X53817154Y-64336285D02*
X53817154Y-63586285D01*
X53769535Y-63693428D01*
X53721916Y-63764857D01*
X53674297Y-63800571D01*
X52912392Y-53450000D02*
X52864773Y-53414285D01*
X52793345Y-53414285D01*
X52721916Y-53450000D01*
X52674297Y-53521428D01*
X52650488Y-53592857D01*
X52626678Y-53735714D01*
X52626678Y-53842857D01*
X52650488Y-53985714D01*
X52674297Y-54057142D01*
X52721916Y-54128571D01*
X52793345Y-54164285D01*
X52840964Y-54164285D01*
X52912392Y-54128571D01*
X52936202Y-54092857D01*
X52936202Y-53842857D01*
X52840964Y-53842857D01*
X53150488Y-54164285D02*
X53150488Y-53414285D01*
X53436202Y-54164285D01*
X53436202Y-53414285D01*
X53674297Y-54164285D02*
X53674297Y-53414285D01*
X53793345Y-53414285D01*
X53864773Y-53450000D01*
X53912392Y-53521428D01*
X53936202Y-53592857D01*
X53960011Y-53735714D01*
X53960011Y-53842857D01*
X53936202Y-53985714D01*
X53912392Y-54057142D01*
X53864773Y-54128571D01*
X53793345Y-54164285D01*
X53674297Y-54164285D01*
X53364773Y-79246928D02*
X53436202Y-79282642D01*
X53460011Y-79318357D01*
X53483821Y-79389785D01*
X53483821Y-79496928D01*
X53460011Y-79568357D01*
X53436202Y-79604071D01*
X53388583Y-79639785D01*
X53198107Y-79639785D01*
X53198107Y-78889785D01*
X53364773Y-78889785D01*
X53412392Y-78925500D01*
X53436202Y-78961214D01*
X53460011Y-79032642D01*
X53460011Y-79104071D01*
X53436202Y-79175500D01*
X53412392Y-79211214D01*
X53364773Y-79246928D01*
X53198107Y-79246928D01*
X53912392Y-78889785D02*
X53817154Y-78889785D01*
X53769535Y-78925500D01*
X53745726Y-78961214D01*
X53698107Y-79068357D01*
X53674297Y-79211214D01*
X53674297Y-79496928D01*
X53698107Y-79568357D01*
X53721916Y-79604071D01*
X53769535Y-79639785D01*
X53864773Y-79639785D01*
X53912392Y-79604071D01*
X53936202Y-79568357D01*
X53960011Y-79496928D01*
X53960011Y-79318357D01*
X53936202Y-79246928D01*
X53912392Y-79211214D01*
X53864773Y-79175500D01*
X53769535Y-79175500D01*
X53721916Y-79211214D01*
X53698107Y-79246928D01*
X53674297Y-79318357D01*
X52555250Y-76964857D02*
X52531440Y-77000571D01*
X52460011Y-77036285D01*
X52412392Y-77036285D01*
X52340964Y-77000571D01*
X52293345Y-76929142D01*
X52269535Y-76857714D01*
X52245726Y-76714857D01*
X52245726Y-76607714D01*
X52269535Y-76464857D01*
X52293345Y-76393428D01*
X52340964Y-76322000D01*
X52412392Y-76286285D01*
X52460011Y-76286285D01*
X52531440Y-76322000D01*
X52555250Y-76357714D01*
X52864773Y-76286285D02*
X52960011Y-76286285D01*
X53007630Y-76322000D01*
X53055250Y-76393428D01*
X53079059Y-76536285D01*
X53079059Y-76786285D01*
X53055250Y-76929142D01*
X53007630Y-77000571D01*
X52960011Y-77036285D01*
X52864773Y-77036285D01*
X52817154Y-77000571D01*
X52769535Y-76929142D01*
X52745726Y-76786285D01*
X52745726Y-76536285D01*
X52769535Y-76393428D01*
X52817154Y-76322000D01*
X52864773Y-76286285D01*
X53531440Y-77036285D02*
X53293345Y-77036285D01*
X53293345Y-76286285D01*
X53912392Y-76286285D02*
X53817154Y-76286285D01*
X53769535Y-76322000D01*
X53745726Y-76357714D01*
X53698107Y-76464857D01*
X53674297Y-76607714D01*
X53674297Y-76893428D01*
X53698107Y-76964857D01*
X53721916Y-77000571D01*
X53769535Y-77036285D01*
X53864773Y-77036285D01*
X53912392Y-77000571D01*
X53936202Y-76964857D01*
X53960011Y-76893428D01*
X53960011Y-76714857D01*
X53936202Y-76643428D01*
X53912392Y-76607714D01*
X53864773Y-76572000D01*
X53769535Y-76572000D01*
X53721916Y-76607714D01*
X53698107Y-76643428D01*
X53674297Y-76714857D01*
X37188583Y-69464285D02*
X37021916Y-69107142D01*
X36902869Y-69464285D02*
X36902869Y-68714285D01*
X37093345Y-68714285D01*
X37140964Y-68750000D01*
X37164773Y-68785714D01*
X37188583Y-68857142D01*
X37188583Y-68964285D01*
X37164773Y-69035714D01*
X37140964Y-69071428D01*
X37093345Y-69107142D01*
X36902869Y-69107142D01*
X37498107Y-68714285D02*
X37593345Y-68714285D01*
X37640964Y-68750000D01*
X37688583Y-68821428D01*
X37712392Y-68964285D01*
X37712392Y-69214285D01*
X37688583Y-69357142D01*
X37640964Y-69428571D01*
X37593345Y-69464285D01*
X37498107Y-69464285D01*
X37450488Y-69428571D01*
X37402869Y-69357142D01*
X37379059Y-69214285D01*
X37379059Y-68964285D01*
X37402869Y-68821428D01*
X37450488Y-68750000D01*
X37498107Y-68714285D01*
X37879059Y-68714285D02*
X37998107Y-69464285D01*
X38093345Y-68928571D01*
X38188583Y-69464285D01*
X38307630Y-68714285D01*
X38712392Y-68964285D02*
X38712392Y-69464285D01*
X38593345Y-68678571D02*
X38474297Y-69214285D01*
X38783821Y-69214285D01*
X52555250Y-66842857D02*
X52531440Y-66878571D01*
X52460011Y-66914285D01*
X52412392Y-66914285D01*
X52340964Y-66878571D01*
X52293345Y-66807142D01*
X52269535Y-66735714D01*
X52245726Y-66592857D01*
X52245726Y-66485714D01*
X52269535Y-66342857D01*
X52293345Y-66271428D01*
X52340964Y-66200000D01*
X52412392Y-66164285D01*
X52460011Y-66164285D01*
X52531440Y-66200000D01*
X52555250Y-66235714D01*
X52864773Y-66164285D02*
X52960011Y-66164285D01*
X53007630Y-66200000D01*
X53055250Y-66271428D01*
X53079059Y-66414285D01*
X53079059Y-66664285D01*
X53055250Y-66807142D01*
X53007630Y-66878571D01*
X52960011Y-66914285D01*
X52864773Y-66914285D01*
X52817154Y-66878571D01*
X52769535Y-66807142D01*
X52745726Y-66664285D01*
X52745726Y-66414285D01*
X52769535Y-66271428D01*
X52817154Y-66200000D01*
X52864773Y-66164285D01*
X53531440Y-66914285D02*
X53293345Y-66914285D01*
X53293345Y-66164285D01*
X53674297Y-66235714D02*
X53698107Y-66200000D01*
X53745726Y-66164285D01*
X53864773Y-66164285D01*
X53912392Y-66200000D01*
X53936202Y-66235714D01*
X53960011Y-66307142D01*
X53960011Y-66378571D01*
X53936202Y-66485714D01*
X53650488Y-66914285D01*
X53960011Y-66914285D01*
X53102869Y-56779785D02*
X52936202Y-56422642D01*
X52817154Y-56779785D02*
X52817154Y-56029785D01*
X53007630Y-56029785D01*
X53055250Y-56065500D01*
X53079059Y-56101214D01*
X53102869Y-56172642D01*
X53102869Y-56279785D01*
X53079059Y-56351214D01*
X53055250Y-56386928D01*
X53007630Y-56422642D01*
X52817154Y-56422642D01*
X53293345Y-56744071D02*
X53364773Y-56779785D01*
X53483821Y-56779785D01*
X53531440Y-56744071D01*
X53555250Y-56708357D01*
X53579059Y-56636928D01*
X53579059Y-56565500D01*
X53555250Y-56494071D01*
X53531440Y-56458357D01*
X53483821Y-56422642D01*
X53388583Y-56386928D01*
X53340964Y-56351214D01*
X53317154Y-56315500D01*
X53293345Y-56244071D01*
X53293345Y-56172642D01*
X53317154Y-56101214D01*
X53340964Y-56065500D01*
X53388583Y-56029785D01*
X53507630Y-56029785D01*
X53579059Y-56065500D01*
X53721916Y-56029785D02*
X54007630Y-56029785D01*
X53864773Y-56779785D02*
X53864773Y-56029785D01*
X52555250Y-74488357D02*
X52531440Y-74524071D01*
X52460011Y-74559785D01*
X52412392Y-74559785D01*
X52340964Y-74524071D01*
X52293345Y-74452642D01*
X52269535Y-74381214D01*
X52245726Y-74238357D01*
X52245726Y-74131214D01*
X52269535Y-73988357D01*
X52293345Y-73916928D01*
X52340964Y-73845500D01*
X52412392Y-73809785D01*
X52460011Y-73809785D01*
X52531440Y-73845500D01*
X52555250Y-73881214D01*
X52864773Y-73809785D02*
X52960011Y-73809785D01*
X53007630Y-73845500D01*
X53055250Y-73916928D01*
X53079059Y-74059785D01*
X53079059Y-74309785D01*
X53055250Y-74452642D01*
X53007630Y-74524071D01*
X52960011Y-74559785D01*
X52864773Y-74559785D01*
X52817154Y-74524071D01*
X52769535Y-74452642D01*
X52745726Y-74309785D01*
X52745726Y-74059785D01*
X52769535Y-73916928D01*
X52817154Y-73845500D01*
X52864773Y-73809785D01*
X53531440Y-74559785D02*
X53293345Y-74559785D01*
X53293345Y-73809785D01*
X53936202Y-73809785D02*
X53698107Y-73809785D01*
X53674297Y-74166928D01*
X53698107Y-74131214D01*
X53745726Y-74095500D01*
X53864773Y-74095500D01*
X53912392Y-74131214D01*
X53936202Y-74166928D01*
X53960011Y-74238357D01*
X53960011Y-74416928D01*
X53936202Y-74488357D01*
X53912392Y-74524071D01*
X53864773Y-74559785D01*
X53745726Y-74559785D01*
X53698107Y-74524071D01*
X53674297Y-74488357D01*
X37569535Y-50886285D02*
X37855250Y-50886285D01*
X37712392Y-51636285D02*
X37712392Y-50886285D01*
X37974297Y-50886285D02*
X38307630Y-51636285D01*
X38307630Y-50886285D02*
X37974297Y-51636285D01*
X38593345Y-50886285D02*
X38640964Y-50886285D01*
X38688583Y-50922000D01*
X38712392Y-50957714D01*
X38736202Y-51029142D01*
X38760011Y-51172000D01*
X38760011Y-51350571D01*
X38736202Y-51493428D01*
X38712392Y-51564857D01*
X38688583Y-51600571D01*
X38640964Y-51636285D01*
X38593345Y-51636285D01*
X38545726Y-51600571D01*
X38521916Y-51564857D01*
X38498107Y-51493428D01*
X38474297Y-51350571D01*
X38474297Y-51172000D01*
X38498107Y-51029142D01*
X38521916Y-50957714D01*
X38545726Y-50922000D01*
X38593345Y-50886285D01*
X37712392Y-56065500D02*
X37664773Y-56029785D01*
X37593345Y-56029785D01*
X37521916Y-56065500D01*
X37474297Y-56136928D01*
X37450488Y-56208357D01*
X37426678Y-56351214D01*
X37426678Y-56458357D01*
X37450488Y-56601214D01*
X37474297Y-56672642D01*
X37521916Y-56744071D01*
X37593345Y-56779785D01*
X37640964Y-56779785D01*
X37712392Y-56744071D01*
X37736202Y-56708357D01*
X37736202Y-56458357D01*
X37640964Y-56458357D01*
X37950488Y-56779785D02*
X37950488Y-56029785D01*
X38236202Y-56779785D01*
X38236202Y-56029785D01*
X38474297Y-56779785D02*
X38474297Y-56029785D01*
X38593345Y-56029785D01*
X38664773Y-56065500D01*
X38712392Y-56136928D01*
X38736202Y-56208357D01*
X38760011Y-56351214D01*
X38760011Y-56458357D01*
X38736202Y-56601214D01*
X38712392Y-56672642D01*
X38664773Y-56744071D01*
X38593345Y-56779785D01*
X38474297Y-56779785D01*
X52555250Y-61724857D02*
X52531440Y-61760571D01*
X52460011Y-61796285D01*
X52412392Y-61796285D01*
X52340964Y-61760571D01*
X52293345Y-61689142D01*
X52269535Y-61617714D01*
X52245726Y-61474857D01*
X52245726Y-61367714D01*
X52269535Y-61224857D01*
X52293345Y-61153428D01*
X52340964Y-61082000D01*
X52412392Y-61046285D01*
X52460011Y-61046285D01*
X52531440Y-61082000D01*
X52555250Y-61117714D01*
X52864773Y-61046285D02*
X52960011Y-61046285D01*
X53007630Y-61082000D01*
X53055250Y-61153428D01*
X53079059Y-61296285D01*
X53079059Y-61546285D01*
X53055250Y-61689142D01*
X53007630Y-61760571D01*
X52960011Y-61796285D01*
X52864773Y-61796285D01*
X52817154Y-61760571D01*
X52769535Y-61689142D01*
X52745726Y-61546285D01*
X52745726Y-61296285D01*
X52769535Y-61153428D01*
X52817154Y-61082000D01*
X52864773Y-61046285D01*
X53531440Y-61796285D02*
X53293345Y-61796285D01*
X53293345Y-61046285D01*
X53793345Y-61046285D02*
X53840964Y-61046285D01*
X53888583Y-61082000D01*
X53912392Y-61117714D01*
X53936202Y-61189142D01*
X53960011Y-61332000D01*
X53960011Y-61510571D01*
X53936202Y-61653428D01*
X53912392Y-61724857D01*
X53888583Y-61760571D01*
X53840964Y-61796285D01*
X53793345Y-61796285D01*
X53745726Y-61760571D01*
X53721916Y-61724857D01*
X53698107Y-61653428D01*
X53674297Y-61510571D01*
X53674297Y-61332000D01*
X53698107Y-61189142D01*
X53721916Y-61117714D01*
X53745726Y-61082000D01*
X53793345Y-61046285D01*
X37188583Y-74559785D02*
X37021916Y-74202642D01*
X36902869Y-74559785D02*
X36902869Y-73809785D01*
X37093345Y-73809785D01*
X37140964Y-73845500D01*
X37164773Y-73881214D01*
X37188583Y-73952642D01*
X37188583Y-74059785D01*
X37164773Y-74131214D01*
X37140964Y-74166928D01*
X37093345Y-74202642D01*
X36902869Y-74202642D01*
X37498107Y-73809785D02*
X37593345Y-73809785D01*
X37640964Y-73845500D01*
X37688583Y-73916928D01*
X37712392Y-74059785D01*
X37712392Y-74309785D01*
X37688583Y-74452642D01*
X37640964Y-74524071D01*
X37593345Y-74559785D01*
X37498107Y-74559785D01*
X37450488Y-74524071D01*
X37402869Y-74452642D01*
X37379059Y-74309785D01*
X37379059Y-74059785D01*
X37402869Y-73916928D01*
X37450488Y-73845500D01*
X37498107Y-73809785D01*
X37879059Y-73809785D02*
X37998107Y-74559785D01*
X38093345Y-74024071D01*
X38188583Y-74559785D01*
X38307630Y-73809785D01*
X38474297Y-73881214D02*
X38498107Y-73845500D01*
X38545726Y-73809785D01*
X38664773Y-73809785D01*
X38712392Y-73845500D01*
X38736202Y-73881214D01*
X38760011Y-73952642D01*
X38760011Y-74024071D01*
X38736202Y-74131214D01*
X38450488Y-74559785D01*
X38760011Y-74559785D01*
X52031440Y-51243428D02*
X52102869Y-51279142D01*
X52126678Y-51314857D01*
X52150488Y-51386285D01*
X52150488Y-51493428D01*
X52126678Y-51564857D01*
X52102869Y-51600571D01*
X52055250Y-51636285D01*
X51864773Y-51636285D01*
X51864773Y-50886285D01*
X52031440Y-50886285D01*
X52079059Y-50922000D01*
X52102869Y-50957714D01*
X52126678Y-51029142D01*
X52126678Y-51100571D01*
X52102869Y-51172000D01*
X52079059Y-51207714D01*
X52031440Y-51243428D01*
X51864773Y-51243428D01*
X52340964Y-51422000D02*
X52579059Y-51422000D01*
X52293345Y-51636285D02*
X52460011Y-50886285D01*
X52626678Y-51636285D01*
X52721916Y-50886285D02*
X53007630Y-50886285D01*
X52864773Y-51636285D02*
X52864773Y-50886285D01*
X53102869Y-50886285D02*
X53388583Y-50886285D01*
X53245726Y-51636285D02*
X53245726Y-50886285D01*
X53555250Y-51350571D02*
X53936202Y-51350571D01*
X53745726Y-51636285D02*
X53745726Y-51064857D01*
X37188583Y-77064285D02*
X37021916Y-76707142D01*
X36902869Y-77064285D02*
X36902869Y-76314285D01*
X37093345Y-76314285D01*
X37140964Y-76350000D01*
X37164773Y-76385714D01*
X37188583Y-76457142D01*
X37188583Y-76564285D01*
X37164773Y-76635714D01*
X37140964Y-76671428D01*
X37093345Y-76707142D01*
X36902869Y-76707142D01*
X37498107Y-76314285D02*
X37593345Y-76314285D01*
X37640964Y-76350000D01*
X37688583Y-76421428D01*
X37712392Y-76564285D01*
X37712392Y-76814285D01*
X37688583Y-76957142D01*
X37640964Y-77028571D01*
X37593345Y-77064285D01*
X37498107Y-77064285D01*
X37450488Y-77028571D01*
X37402869Y-76957142D01*
X37379059Y-76814285D01*
X37379059Y-76564285D01*
X37402869Y-76421428D01*
X37450488Y-76350000D01*
X37498107Y-76314285D01*
X37879059Y-76314285D02*
X37998107Y-77064285D01*
X38093345Y-76528571D01*
X38188583Y-77064285D01*
X38307630Y-76314285D01*
X38760011Y-77064285D02*
X38474297Y-77064285D01*
X38617154Y-77064285D02*
X38617154Y-76314285D01*
X38569535Y-76421428D01*
X38521916Y-76492857D01*
X38474297Y-76528571D01*
X37807630Y-54176285D02*
X37640964Y-53819142D01*
X37521916Y-54176285D02*
X37521916Y-53426285D01*
X37712392Y-53426285D01*
X37760011Y-53462000D01*
X37783821Y-53497714D01*
X37807630Y-53569142D01*
X37807630Y-53676285D01*
X37783821Y-53747714D01*
X37760011Y-53783428D01*
X37712392Y-53819142D01*
X37521916Y-53819142D01*
X37974297Y-53426285D02*
X38307630Y-54176285D01*
X38307630Y-53426285D02*
X37974297Y-54176285D01*
X38760011Y-54176285D02*
X38474297Y-54176285D01*
X38617154Y-54176285D02*
X38617154Y-53426285D01*
X38569535Y-53533428D01*
X38521916Y-53604857D01*
X38474297Y-53640571D01*
X52555250Y-69344857D02*
X52531440Y-69380571D01*
X52460011Y-69416285D01*
X52412392Y-69416285D01*
X52340964Y-69380571D01*
X52293345Y-69309142D01*
X52269535Y-69237714D01*
X52245726Y-69094857D01*
X52245726Y-68987714D01*
X52269535Y-68844857D01*
X52293345Y-68773428D01*
X52340964Y-68702000D01*
X52412392Y-68666285D01*
X52460011Y-68666285D01*
X52531440Y-68702000D01*
X52555250Y-68737714D01*
X52864773Y-68666285D02*
X52960011Y-68666285D01*
X53007630Y-68702000D01*
X53055250Y-68773428D01*
X53079059Y-68916285D01*
X53079059Y-69166285D01*
X53055250Y-69309142D01*
X53007630Y-69380571D01*
X52960011Y-69416285D01*
X52864773Y-69416285D01*
X52817154Y-69380571D01*
X52769535Y-69309142D01*
X52745726Y-69166285D01*
X52745726Y-68916285D01*
X52769535Y-68773428D01*
X52817154Y-68702000D01*
X52864773Y-68666285D01*
X53531440Y-69416285D02*
X53293345Y-69416285D01*
X53293345Y-68666285D01*
X53650488Y-68666285D02*
X53960011Y-68666285D01*
X53793345Y-68952000D01*
X53864773Y-68952000D01*
X53912392Y-68987714D01*
X53936202Y-69023428D01*
X53960011Y-69094857D01*
X53960011Y-69273428D01*
X53936202Y-69344857D01*
X53912392Y-69380571D01*
X53864773Y-69416285D01*
X53721916Y-69416285D01*
X53674297Y-69380571D01*
X53650488Y-69344857D01*
D11*
%TO.C,*%
%TO.C,BATTERY*%
X36638171Y-102253419D02*
X36685790Y-102110561D01*
X36733409Y-102062942D01*
X36828647Y-102015323D01*
X36971504Y-102015323D01*
X37066742Y-102062942D01*
X37114361Y-102110561D01*
X37161980Y-102205800D01*
X37161980Y-102586752D01*
X36161980Y-102586752D01*
X36161980Y-102253419D01*
X36209600Y-102158180D01*
X36257219Y-102110561D01*
X36352457Y-102062942D01*
X36447695Y-102062942D01*
X36542933Y-102110561D01*
X36590552Y-102158180D01*
X36638171Y-102253419D01*
X36638171Y-102586752D01*
X36781028Y-101586752D02*
X36781028Y-100824847D01*
X36638171Y-97753419D02*
X36685790Y-97610561D01*
X36733409Y-97562942D01*
X36828647Y-97515323D01*
X36971504Y-97515323D01*
X37066742Y-97562942D01*
X37114361Y-97610561D01*
X37161980Y-97705800D01*
X37161980Y-98086752D01*
X36161980Y-98086752D01*
X36161980Y-97753419D01*
X36209600Y-97658180D01*
X36257219Y-97610561D01*
X36352457Y-97562942D01*
X36447695Y-97562942D01*
X36542933Y-97610561D01*
X36590552Y-97658180D01*
X36638171Y-97753419D01*
X36638171Y-98086752D01*
X36781028Y-97086752D02*
X36781028Y-96324847D01*
X37161980Y-96705800D02*
X36400076Y-96705800D01*
%TO.C,*%
%TO.C,BSW1*%
X41250580Y-85625047D02*
X41250580Y-85434571D01*
X41298200Y-85339333D01*
X41393438Y-85244095D01*
X41583914Y-85196476D01*
X41917247Y-85196476D01*
X42107723Y-85244095D01*
X42202961Y-85339333D01*
X42250580Y-85434571D01*
X42250580Y-85625047D01*
X42202961Y-85720285D01*
X42107723Y-85815523D01*
X41917247Y-85863142D01*
X41583914Y-85863142D01*
X41393438Y-85815523D01*
X41298200Y-85720285D01*
X41250580Y-85625047D01*
X42250580Y-84767904D02*
X41250580Y-84767904D01*
X42250580Y-84196476D01*
X41250580Y-84196476D01*
X41250580Y-92434380D02*
X41250580Y-92243904D01*
X41298200Y-92148666D01*
X41393438Y-92053428D01*
X41583914Y-92005809D01*
X41917247Y-92005809D01*
X42107723Y-92053428D01*
X42202961Y-92148666D01*
X42250580Y-92243904D01*
X42250580Y-92434380D01*
X42202961Y-92529619D01*
X42107723Y-92624857D01*
X41917247Y-92672476D01*
X41583914Y-92672476D01*
X41393438Y-92624857D01*
X41298200Y-92529619D01*
X41250580Y-92434380D01*
X41726771Y-91243904D02*
X41726771Y-91577238D01*
X42250580Y-91577238D02*
X41250580Y-91577238D01*
X41250580Y-91101047D01*
X41726771Y-90386761D02*
X41726771Y-90720095D01*
X42250580Y-90720095D02*
X41250580Y-90720095D01*
X41250580Y-90243904D01*
%TO.C,*%
%TO.C,RSW1*%
X46626780Y-89717380D02*
X46150590Y-90050714D01*
X46626780Y-90288809D02*
X45626780Y-90288809D01*
X45626780Y-89907857D01*
X45674400Y-89812619D01*
X45722019Y-89765000D01*
X45817257Y-89717380D01*
X45960114Y-89717380D01*
X46055352Y-89765000D01*
X46102971Y-89812619D01*
X46150590Y-89907857D01*
X46150590Y-90288809D01*
X46102971Y-89288809D02*
X46102971Y-88955476D01*
X46626780Y-88812619D02*
X46626780Y-89288809D01*
X45626780Y-89288809D01*
X45626780Y-88812619D01*
X46579161Y-88431666D02*
X46626780Y-88288809D01*
X46626780Y-88050714D01*
X46579161Y-87955476D01*
X46531542Y-87907857D01*
X46436304Y-87860238D01*
X46341066Y-87860238D01*
X46245828Y-87907857D01*
X46198209Y-87955476D01*
X46150590Y-88050714D01*
X46102971Y-88241190D01*
X46055352Y-88336428D01*
X46007733Y-88384047D01*
X45912495Y-88431666D01*
X45817257Y-88431666D01*
X45722019Y-88384047D01*
X45674400Y-88336428D01*
X45626780Y-88241190D01*
X45626780Y-88003095D01*
X45674400Y-87860238D01*
X46102971Y-87431666D02*
X46102971Y-87098333D01*
X46626780Y-86955476D02*
X46626780Y-87431666D01*
X45626780Y-87431666D01*
X45626780Y-86955476D01*
X45626780Y-86669761D02*
X45626780Y-86098333D01*
X46626780Y-86384047D02*
X45626780Y-86384047D01*
%TO.C,*%
%TO.C,SW1:13*%
X192152500Y-146777660D02*
X190177500Y-146777660D01*
X194452500Y-145002660D02*
X194452500Y-149402660D01*
X196352500Y-144602660D02*
X196352500Y-149202660D01*
X195902500Y-144602660D02*
X195902500Y-149202660D01*
X197752500Y-144577660D02*
X195152500Y-144577660D01*
X192602500Y-146752660D02*
X192602500Y-151402660D01*
X190202500Y-146802660D02*
X190202500Y-151402660D01*
X194252500Y-145402660D02*
X194252500Y-149552660D01*
X195602500Y-144602660D02*
X195602500Y-149202660D01*
X196202500Y-144602660D02*
X196202500Y-149202660D01*
X195752500Y-144602660D02*
X195752500Y-149202660D01*
X192727500Y-151427660D02*
X194002500Y-150402660D01*
X197702500Y-144602660D02*
X197702500Y-149202660D01*
X198152500Y-144702660D02*
X198152500Y-149102660D01*
X192452500Y-146752660D02*
X192452500Y-151402660D01*
X193502500Y-146352660D02*
X193502500Y-150752660D01*
X193802500Y-146102660D02*
X193802500Y-150552660D01*
X189152500Y-147802660D02*
X190177500Y-146777660D01*
X192902500Y-146702660D02*
X192902500Y-151252660D01*
X196502500Y-144602660D02*
X196502500Y-149202660D01*
X190352500Y-146802660D02*
X190352500Y-151402660D01*
X198302500Y-144802660D02*
X198302500Y-149002660D01*
X192727500Y-151427660D02*
X190177500Y-151427660D01*
X189152500Y-150402660D02*
X190177500Y-151427660D01*
X190052500Y-146952660D02*
X190052500Y-151302660D01*
X198402500Y-144902660D02*
X198402500Y-148852660D01*
X195152500Y-144602660D02*
X195152500Y-149202660D01*
X197552500Y-144602660D02*
X197552500Y-149202660D01*
X197852500Y-144602660D02*
X197852500Y-149152660D01*
X191552500Y-146802660D02*
X191552500Y-151402660D01*
X196052500Y-144602660D02*
X196052500Y-149202660D01*
X190802500Y-146802660D02*
X190802500Y-151402660D01*
X193352500Y-146452660D02*
X193352500Y-150902660D01*
X192302500Y-146802660D02*
X192302500Y-151352660D01*
X194552500Y-144852660D02*
X194552500Y-149352660D01*
X196802500Y-144602660D02*
X196802500Y-149202660D01*
X190652500Y-146802660D02*
X190652500Y-151402660D01*
X194852500Y-144652660D02*
X194852500Y-149202660D01*
X189452500Y-147552660D02*
X189452500Y-150702660D01*
X192002500Y-146802660D02*
X192002500Y-151402660D01*
X197252500Y-144602660D02*
X197252500Y-149202660D01*
X195302500Y-144602660D02*
X195302500Y-149152660D01*
X189152500Y-150402660D02*
X189152500Y-147802660D01*
X189752500Y-147202660D02*
X189752500Y-151002660D01*
X197752500Y-149227660D02*
X195177500Y-149227660D01*
X189902500Y-147052660D02*
X189902500Y-151152660D01*
X189602500Y-147352660D02*
X189602500Y-150852660D01*
X194702500Y-144752660D02*
X194702500Y-149302660D01*
X196652500Y-144602660D02*
X196652500Y-149202660D01*
X193202500Y-146552660D02*
X193202500Y-151002660D01*
X191702500Y-146802660D02*
X191702500Y-151402660D01*
X192752500Y-146752660D02*
X192752500Y-151352660D01*
X196952500Y-144602660D02*
X196952500Y-149202660D01*
X194152500Y-145602660D02*
X194152500Y-149752660D01*
X195002500Y-144602660D02*
X195002500Y-149202660D01*
X194352500Y-145252660D02*
X194352500Y-149452660D01*
X190502500Y-146802660D02*
X190502500Y-151402660D01*
X193052500Y-146602660D02*
X193052500Y-151152660D01*
X193952500Y-145952660D02*
X193952500Y-150402660D01*
X198502500Y-145002660D02*
X198502500Y-148752660D01*
X192152500Y-146802660D02*
X192152500Y-151402660D01*
X197102500Y-144602660D02*
X197102500Y-149202660D01*
X190952500Y-146802660D02*
X190952500Y-151402660D01*
X198002500Y-144652660D02*
X198002500Y-149152660D01*
X191852500Y-146802660D02*
X191852500Y-151402660D01*
X189302500Y-147652660D02*
X189302500Y-150552660D01*
X195452500Y-144602660D02*
X195452500Y-149202660D01*
X198752500Y-148227660D02*
X198752500Y-145577660D01*
X194052500Y-145752660D02*
X194052500Y-149902660D01*
X198602500Y-145152660D02*
X198602500Y-148702660D01*
X197402500Y-144602660D02*
X197402500Y-149202660D01*
X191252500Y-146802660D02*
X191252500Y-151402660D01*
X191102500Y-146802660D02*
X191102500Y-151402660D01*
X191402500Y-146802660D02*
X191402500Y-151402660D01*
X193652500Y-146252660D02*
X193652500Y-150652660D01*
X192152500Y-146777660D02*
G75*
G03*
X194290301Y-145280756I0J2275000D01*
G01*
X195177500Y-149227660D02*
G75*
G03*
X194002500Y-150402660I0J-1175000D01*
G01*
X198752500Y-145577660D02*
G75*
G03*
X197752500Y-144577660I-1000000J0D01*
G01*
X195151505Y-144578873D02*
G75*
G03*
X194290301Y-145280756I38795J-926887D01*
G01*
X197752500Y-149227660D02*
G75*
G03*
X198752500Y-148227660I0J1000000D01*
G01*
%TO.C,SW1:10*%
X133090000Y-139830000D02*
X133090000Y-144430000D01*
X136690000Y-140380000D02*
X136690000Y-143930000D01*
X127240000Y-143030000D02*
X128265000Y-142005000D01*
X135840000Y-139805000D02*
X133240000Y-139805000D01*
X127990000Y-142280000D02*
X127990000Y-146380000D01*
X132140000Y-140980000D02*
X132140000Y-145130000D01*
X132790000Y-139980000D02*
X132790000Y-144530000D01*
X135840000Y-144455000D02*
X133265000Y-144455000D01*
X130690000Y-141980000D02*
X130690000Y-146630000D01*
X134890000Y-139830000D02*
X134890000Y-144430000D01*
X129040000Y-142030000D02*
X129040000Y-146630000D01*
X130815000Y-146655000D02*
X128265000Y-146655000D01*
X130815000Y-146655000D02*
X132090000Y-145630000D01*
X133690000Y-139830000D02*
X133690000Y-144430000D01*
X131140000Y-141830000D02*
X131140000Y-146380000D01*
X132440000Y-140480000D02*
X132440000Y-144680000D01*
X132940000Y-139880000D02*
X132940000Y-144430000D01*
X128590000Y-142030000D02*
X128590000Y-146630000D01*
X127840000Y-142430000D02*
X127840000Y-146230000D01*
X127540000Y-142780000D02*
X127540000Y-145930000D01*
X131440000Y-141680000D02*
X131440000Y-146130000D01*
X134740000Y-139830000D02*
X134740000Y-144430000D01*
X135040000Y-139830000D02*
X135040000Y-144430000D01*
X136490000Y-140130000D02*
X136490000Y-144080000D01*
X132340000Y-140630000D02*
X132340000Y-144780000D01*
X134590000Y-139830000D02*
X134590000Y-144430000D01*
X132640000Y-140080000D02*
X132640000Y-144580000D01*
X135790000Y-139830000D02*
X135790000Y-144430000D01*
X133840000Y-139830000D02*
X133840000Y-144430000D01*
X128290000Y-142030000D02*
X128290000Y-146630000D01*
X128890000Y-142030000D02*
X128890000Y-146630000D01*
X134140000Y-139830000D02*
X134140000Y-144430000D01*
X130390000Y-142030000D02*
X130390000Y-146580000D01*
X130840000Y-141980000D02*
X130840000Y-146580000D01*
X128740000Y-142030000D02*
X128740000Y-146630000D01*
X131740000Y-141480000D02*
X131740000Y-145880000D01*
X135190000Y-139830000D02*
X135190000Y-144430000D01*
X129790000Y-142030000D02*
X129790000Y-146630000D01*
X135490000Y-139830000D02*
X135490000Y-144430000D01*
X133240000Y-139830000D02*
X133240000Y-144430000D01*
X131590000Y-141580000D02*
X131590000Y-145980000D01*
X130090000Y-142030000D02*
X130090000Y-146630000D01*
X131890000Y-141330000D02*
X131890000Y-145780000D01*
X133540000Y-139830000D02*
X133540000Y-144430000D01*
X130540000Y-141980000D02*
X130540000Y-146630000D01*
X136240000Y-139930000D02*
X136240000Y-144330000D01*
X130240000Y-142005000D02*
X128265000Y-142005000D01*
X134440000Y-139830000D02*
X134440000Y-144430000D01*
X129940000Y-142030000D02*
X129940000Y-146630000D01*
X135640000Y-139830000D02*
X135640000Y-144430000D01*
X130240000Y-142030000D02*
X130240000Y-146630000D01*
X128440000Y-142030000D02*
X128440000Y-146630000D01*
X127240000Y-145630000D02*
X127240000Y-143030000D01*
X128140000Y-142180000D02*
X128140000Y-146530000D01*
X129340000Y-142030000D02*
X129340000Y-146630000D01*
X135340000Y-139830000D02*
X135340000Y-144430000D01*
X136590000Y-140230000D02*
X136590000Y-143980000D01*
X129490000Y-142030000D02*
X129490000Y-146630000D01*
X134290000Y-139830000D02*
X134290000Y-144430000D01*
X136090000Y-139880000D02*
X136090000Y-144380000D01*
X132040000Y-141180000D02*
X132040000Y-145630000D01*
X135940000Y-139830000D02*
X135940000Y-144380000D01*
X130990000Y-141930000D02*
X130990000Y-146480000D01*
X133390000Y-139830000D02*
X133390000Y-144380000D01*
X131290000Y-141780000D02*
X131290000Y-146230000D01*
X132540000Y-140230000D02*
X132540000Y-144630000D01*
X129190000Y-142030000D02*
X129190000Y-146630000D01*
X136840000Y-143455000D02*
X136840000Y-140805000D01*
X127390000Y-142880000D02*
X127390000Y-145780000D01*
X136390000Y-140030000D02*
X136390000Y-144230000D01*
X127240000Y-145630000D02*
X128265000Y-146655000D01*
X129640000Y-142030000D02*
X129640000Y-146630000D01*
X133990000Y-139830000D02*
X133990000Y-144430000D01*
X132240000Y-140830000D02*
X132240000Y-144980000D01*
X127690000Y-142580000D02*
X127690000Y-146080000D01*
X136840000Y-140805000D02*
G75*
G03*
X135840000Y-139805000I-1000000J0D01*
G01*
X133239005Y-139806213D02*
G75*
G03*
X132377801Y-140508096I38795J-926887D01*
G01*
X135840000Y-144455000D02*
G75*
G03*
X136840000Y-143455000I0J1000000D01*
G01*
X133265000Y-144455000D02*
G75*
G03*
X132090000Y-145630000I0J-1175000D01*
G01*
X130240000Y-142005000D02*
G75*
G03*
X132377801Y-140508096I0J2275000D01*
G01*
%TO.C,SW1:9*%
X113890000Y-141477660D02*
X113890000Y-146027660D01*
X113740000Y-141577660D02*
X113740000Y-146127660D01*
X108190000Y-147227660D02*
X108190000Y-144627660D01*
X115240000Y-141427660D02*
X115240000Y-146027660D01*
X112240000Y-143377660D02*
X112240000Y-147827660D01*
X117640000Y-141977660D02*
X117640000Y-145527660D01*
X113290000Y-142227660D02*
X113290000Y-146377660D01*
X116790000Y-141402660D02*
X114190000Y-141402660D01*
X113490000Y-141827660D02*
X113490000Y-146227660D01*
X109240000Y-143627660D02*
X109240000Y-148227660D01*
X114190000Y-141427660D02*
X114190000Y-146027660D01*
X112840000Y-142927660D02*
X112840000Y-147377660D01*
X110290000Y-143627660D02*
X110290000Y-148227660D01*
X109840000Y-143627660D02*
X109840000Y-148227660D01*
X114340000Y-141427660D02*
X114340000Y-145977660D01*
X108190000Y-144627660D02*
X109215000Y-143602660D01*
X116440000Y-141427660D02*
X116440000Y-146027660D01*
X111790000Y-143577660D02*
X111790000Y-148177660D01*
X116590000Y-141427660D02*
X116590000Y-146027660D01*
X112690000Y-143077660D02*
X112690000Y-147477660D01*
X108640000Y-144177660D02*
X108640000Y-147677660D01*
X115540000Y-141427660D02*
X115540000Y-146027660D01*
X113090000Y-142577660D02*
X113090000Y-146727660D01*
X109090000Y-143777660D02*
X109090000Y-148127660D01*
X114940000Y-141427660D02*
X114940000Y-146027660D01*
X113590000Y-141677660D02*
X113590000Y-146177660D01*
X111340000Y-143627660D02*
X111340000Y-148177660D01*
X110890000Y-143627660D02*
X110890000Y-148227660D01*
X111640000Y-143577660D02*
X111640000Y-148227660D01*
X114490000Y-141427660D02*
X114490000Y-146027660D01*
X112390000Y-143277660D02*
X112390000Y-147727660D01*
X117440000Y-141727660D02*
X117440000Y-145677660D01*
X115090000Y-141427660D02*
X115090000Y-146027660D01*
X115840000Y-141427660D02*
X115840000Y-146027660D01*
X114640000Y-141427660D02*
X114640000Y-146027660D01*
X111040000Y-143627660D02*
X111040000Y-148227660D01*
X112090000Y-143427660D02*
X112090000Y-147977660D01*
X117040000Y-141477660D02*
X117040000Y-145977660D01*
X115690000Y-141427660D02*
X115690000Y-146027660D01*
X109390000Y-143627660D02*
X109390000Y-148227660D01*
X117190000Y-141527660D02*
X117190000Y-145927660D01*
X116890000Y-141427660D02*
X116890000Y-145977660D01*
X108790000Y-144027660D02*
X108790000Y-147827660D01*
X113390000Y-142077660D02*
X113390000Y-146277660D01*
X110140000Y-143627660D02*
X110140000Y-148227660D01*
X109540000Y-143627660D02*
X109540000Y-148227660D01*
X117540000Y-141827660D02*
X117540000Y-145577660D01*
X114790000Y-141427660D02*
X114790000Y-146027660D01*
X108940000Y-143877660D02*
X108940000Y-147977660D01*
X116740000Y-141427660D02*
X116740000Y-146027660D01*
X111940000Y-143527660D02*
X111940000Y-148077660D01*
X112540000Y-143177660D02*
X112540000Y-147577660D01*
X110740000Y-143627660D02*
X110740000Y-148227660D01*
X116140000Y-141427660D02*
X116140000Y-146027660D01*
X113190000Y-142427660D02*
X113190000Y-146577660D01*
X116790000Y-146052660D02*
X114215000Y-146052660D01*
X109690000Y-143627660D02*
X109690000Y-148227660D01*
X109990000Y-143627660D02*
X109990000Y-148227660D01*
X115990000Y-141427660D02*
X115990000Y-146027660D01*
X111190000Y-143602660D02*
X109215000Y-143602660D01*
X111765000Y-148252660D02*
X113040000Y-147227660D01*
X111490000Y-143577660D02*
X111490000Y-148227660D01*
X108190000Y-147227660D02*
X109215000Y-148252660D01*
X115390000Y-141427660D02*
X115390000Y-146027660D01*
X114040000Y-141427660D02*
X114040000Y-146027660D01*
X110440000Y-143627660D02*
X110440000Y-148227660D01*
X108490000Y-144377660D02*
X108490000Y-147527660D01*
X117790000Y-145052660D02*
X117790000Y-142402660D01*
X112990000Y-142777660D02*
X112990000Y-147227660D01*
X117340000Y-141627660D02*
X117340000Y-145827660D01*
X111190000Y-143627660D02*
X111190000Y-148227660D01*
X108340000Y-144477660D02*
X108340000Y-147377660D01*
X110590000Y-143627660D02*
X110590000Y-148227660D01*
X116290000Y-141427660D02*
X116290000Y-146027660D01*
X111765000Y-148252660D02*
X109215000Y-148252660D01*
X116790000Y-146052660D02*
G75*
G03*
X117790000Y-145052660I0J1000000D01*
G01*
X114215000Y-146052660D02*
G75*
G03*
X113040000Y-147227660I0J-1175000D01*
G01*
X111190000Y-143602660D02*
G75*
G03*
X113327801Y-142105756I0J2275000D01*
G01*
X114189005Y-141403873D02*
G75*
G03*
X113327801Y-142105756I38795J-926887D01*
G01*
X117790000Y-142402660D02*
G75*
G03*
X116790000Y-141402660I-1000000J0D01*
G01*
%TO.C,SW2:13*%
X189302500Y-128602660D02*
X189302500Y-131502660D01*
X192727500Y-132377660D02*
X194002500Y-131352660D01*
X193052500Y-127552660D02*
X193052500Y-132102660D01*
X191102500Y-127752660D02*
X191102500Y-132352660D01*
X198152500Y-125652660D02*
X198152500Y-130052660D01*
X189152500Y-131352660D02*
X189152500Y-128752660D01*
X195002500Y-125552660D02*
X195002500Y-130152660D01*
X195602500Y-125552660D02*
X195602500Y-130152660D01*
X198002500Y-125602660D02*
X198002500Y-130102660D01*
X194452500Y-125952660D02*
X194452500Y-130352660D01*
X196502500Y-125552660D02*
X196502500Y-130152660D01*
X194552500Y-125802660D02*
X194552500Y-130302660D01*
X197102500Y-125552660D02*
X197102500Y-130152660D01*
X192302500Y-127752660D02*
X192302500Y-132302660D01*
X193202500Y-127502660D02*
X193202500Y-131952660D01*
X189902500Y-128002660D02*
X189902500Y-132102660D01*
X196802500Y-125552660D02*
X196802500Y-130152660D01*
X192727500Y-132377660D02*
X190177500Y-132377660D01*
X191552500Y-127752660D02*
X191552500Y-132352660D01*
X190652500Y-127752660D02*
X190652500Y-132352660D01*
X194352500Y-126202660D02*
X194352500Y-130402660D01*
X193652500Y-127202660D02*
X193652500Y-131602660D01*
X192602500Y-127702660D02*
X192602500Y-132352660D01*
X191252500Y-127752660D02*
X191252500Y-132352660D01*
X189452500Y-128502660D02*
X189452500Y-131652660D01*
X192752500Y-127702660D02*
X192752500Y-132302660D01*
X192152500Y-127727660D02*
X190177500Y-127727660D01*
X192902500Y-127652660D02*
X192902500Y-132202660D01*
X194852500Y-125602660D02*
X194852500Y-130152660D01*
X196202500Y-125552660D02*
X196202500Y-130152660D01*
X193802500Y-127052660D02*
X193802500Y-131502660D01*
X189152500Y-128752660D02*
X190177500Y-127727660D01*
X190802500Y-127752660D02*
X190802500Y-132352660D01*
X198752500Y-129177660D02*
X198752500Y-126527660D01*
X195452500Y-125552660D02*
X195452500Y-130152660D01*
X191402500Y-127752660D02*
X191402500Y-132352660D01*
X195752500Y-125552660D02*
X195752500Y-130152660D01*
X194702500Y-125702660D02*
X194702500Y-130252660D01*
X198402500Y-125852660D02*
X198402500Y-129802660D01*
X190202500Y-127752660D02*
X190202500Y-132352660D01*
X195302500Y-125552660D02*
X195302500Y-130102660D01*
X194252500Y-126352660D02*
X194252500Y-130502660D01*
X192002500Y-127752660D02*
X192002500Y-132352660D01*
X198302500Y-125752660D02*
X198302500Y-129952660D01*
X191702500Y-127752660D02*
X191702500Y-132352660D01*
X197852500Y-125552660D02*
X197852500Y-130102660D01*
X190352500Y-127752660D02*
X190352500Y-132352660D01*
X196652500Y-125552660D02*
X196652500Y-130152660D01*
X197752500Y-130177660D02*
X195177500Y-130177660D01*
X193352500Y-127402660D02*
X193352500Y-131852660D01*
X198602500Y-126102660D02*
X198602500Y-129652660D01*
X196952500Y-125552660D02*
X196952500Y-130152660D01*
X194052500Y-126702660D02*
X194052500Y-130852660D01*
X196052500Y-125552660D02*
X196052500Y-130152660D01*
X189602500Y-128302660D02*
X189602500Y-131802660D01*
X198502500Y-125952660D02*
X198502500Y-129702660D01*
X197402500Y-125552660D02*
X197402500Y-130152660D01*
X192452500Y-127702660D02*
X192452500Y-132352660D01*
X197552500Y-125552660D02*
X197552500Y-130152660D01*
X189152500Y-131352660D02*
X190177500Y-132377660D01*
X193952500Y-126902660D02*
X193952500Y-131352660D01*
X190052500Y-127902660D02*
X190052500Y-132252660D01*
X193502500Y-127302660D02*
X193502500Y-131702660D01*
X196352500Y-125552660D02*
X196352500Y-130152660D01*
X194152500Y-126552660D02*
X194152500Y-130702660D01*
X192152500Y-127752660D02*
X192152500Y-132352660D01*
X191852500Y-127752660D02*
X191852500Y-132352660D01*
X189752500Y-128152660D02*
X189752500Y-131952660D01*
X195902500Y-125552660D02*
X195902500Y-130152660D01*
X197702500Y-125552660D02*
X197702500Y-130152660D01*
X195152500Y-125552660D02*
X195152500Y-130152660D01*
X190502500Y-127752660D02*
X190502500Y-132352660D01*
X197252500Y-125552660D02*
X197252500Y-130152660D01*
X197752500Y-125527660D02*
X195152500Y-125527660D01*
X190952500Y-127752660D02*
X190952500Y-132352660D01*
X195177500Y-130177660D02*
G75*
G03*
X194002500Y-131352660I0J-1175000D01*
G01*
X197752500Y-130177660D02*
G75*
G03*
X198752500Y-129177660I0J1000000D01*
G01*
X198752500Y-126527660D02*
G75*
G03*
X197752500Y-125527660I-1000000J0D01*
G01*
X195151505Y-125528873D02*
G75*
G03*
X194290301Y-126230756I38795J-926887D01*
G01*
X192152500Y-127727660D02*
G75*
G03*
X194290301Y-126230756I0J2275000D01*
G01*
%TO.C,SW2:10*%
X135840000Y-125405000D02*
X133265000Y-125405000D01*
X135490000Y-120780000D02*
X135490000Y-125380000D01*
X133690000Y-120780000D02*
X133690000Y-125380000D01*
X127390000Y-123830000D02*
X127390000Y-126730000D01*
X130815000Y-127605000D02*
X128265000Y-127605000D01*
X129940000Y-122980000D02*
X129940000Y-127580000D01*
X128590000Y-122980000D02*
X128590000Y-127580000D01*
X134140000Y-120780000D02*
X134140000Y-125380000D01*
X134440000Y-120780000D02*
X134440000Y-125380000D01*
X130990000Y-122880000D02*
X130990000Y-127430000D01*
X135640000Y-120780000D02*
X135640000Y-125380000D01*
X128740000Y-122980000D02*
X128740000Y-127580000D01*
X127690000Y-123530000D02*
X127690000Y-127030000D01*
X136840000Y-124405000D02*
X136840000Y-121755000D01*
X131590000Y-122530000D02*
X131590000Y-126930000D01*
X128140000Y-123130000D02*
X128140000Y-127480000D01*
X129190000Y-122980000D02*
X129190000Y-127580000D01*
X135040000Y-120780000D02*
X135040000Y-125380000D01*
X134740000Y-120780000D02*
X134740000Y-125380000D01*
X133540000Y-120780000D02*
X133540000Y-125380000D01*
X127540000Y-123730000D02*
X127540000Y-126880000D01*
X136390000Y-120980000D02*
X136390000Y-125180000D01*
X132790000Y-120930000D02*
X132790000Y-125480000D01*
X130090000Y-122980000D02*
X130090000Y-127580000D01*
X129640000Y-122980000D02*
X129640000Y-127580000D01*
X128290000Y-122980000D02*
X128290000Y-127580000D01*
X130240000Y-122980000D02*
X130240000Y-127580000D01*
X128440000Y-122980000D02*
X128440000Y-127580000D01*
X133090000Y-120780000D02*
X133090000Y-125380000D01*
X130540000Y-122930000D02*
X130540000Y-127580000D01*
X127240000Y-123980000D02*
X128265000Y-122955000D01*
X129790000Y-122980000D02*
X129790000Y-127580000D01*
X132040000Y-122130000D02*
X132040000Y-126580000D01*
X130240000Y-122955000D02*
X128265000Y-122955000D01*
X132340000Y-121580000D02*
X132340000Y-125730000D01*
X135790000Y-120780000D02*
X135790000Y-125380000D01*
X133240000Y-120780000D02*
X133240000Y-125380000D01*
X136240000Y-120880000D02*
X136240000Y-125280000D01*
X131740000Y-122430000D02*
X131740000Y-126830000D01*
X132540000Y-121180000D02*
X132540000Y-125580000D01*
X135340000Y-120780000D02*
X135340000Y-125380000D01*
X132240000Y-121780000D02*
X132240000Y-125930000D01*
X133390000Y-120780000D02*
X133390000Y-125330000D01*
X129490000Y-122980000D02*
X129490000Y-127580000D01*
X127240000Y-126580000D02*
X127240000Y-123980000D01*
X131440000Y-122630000D02*
X131440000Y-127080000D01*
X135190000Y-120780000D02*
X135190000Y-125380000D01*
X136090000Y-120830000D02*
X136090000Y-125330000D01*
X135940000Y-120780000D02*
X135940000Y-125330000D01*
X131140000Y-122780000D02*
X131140000Y-127330000D01*
X133990000Y-120780000D02*
X133990000Y-125380000D01*
X132940000Y-120830000D02*
X132940000Y-125380000D01*
X127240000Y-126580000D02*
X128265000Y-127605000D01*
X131890000Y-122280000D02*
X131890000Y-126730000D01*
X136590000Y-121180000D02*
X136590000Y-124930000D01*
X127840000Y-123380000D02*
X127840000Y-127180000D01*
X136690000Y-121330000D02*
X136690000Y-124880000D01*
X136490000Y-121080000D02*
X136490000Y-125030000D01*
X132640000Y-121030000D02*
X132640000Y-125530000D01*
X135840000Y-120755000D02*
X133240000Y-120755000D01*
X130390000Y-122980000D02*
X130390000Y-127530000D01*
X134890000Y-120780000D02*
X134890000Y-125380000D01*
X130690000Y-122930000D02*
X130690000Y-127580000D01*
X128890000Y-122980000D02*
X128890000Y-127580000D01*
X131290000Y-122730000D02*
X131290000Y-127180000D01*
X129340000Y-122980000D02*
X129340000Y-127580000D01*
X133840000Y-120780000D02*
X133840000Y-125380000D01*
X130815000Y-127605000D02*
X132090000Y-126580000D01*
X132140000Y-121930000D02*
X132140000Y-126080000D01*
X129040000Y-122980000D02*
X129040000Y-127580000D01*
X134590000Y-120780000D02*
X134590000Y-125380000D01*
X127990000Y-123230000D02*
X127990000Y-127330000D01*
X134290000Y-120780000D02*
X134290000Y-125380000D01*
X132440000Y-121430000D02*
X132440000Y-125630000D01*
X130840000Y-122930000D02*
X130840000Y-127530000D01*
X136840000Y-121755000D02*
G75*
G03*
X135840000Y-120755000I-1000000J0D01*
G01*
X133265000Y-125405000D02*
G75*
G03*
X132090000Y-126580000I0J-1175000D01*
G01*
X135840000Y-125405000D02*
G75*
G03*
X136840000Y-124405000I0J1000000D01*
G01*
X130240000Y-122955000D02*
G75*
G03*
X132377801Y-121458096I0J2275000D01*
G01*
X133239005Y-120756213D02*
G75*
G03*
X132377801Y-121458096I38795J-926887D01*
G01*
%TO.C,SW2:9*%
X112090000Y-124377660D02*
X112090000Y-128927660D01*
X113390000Y-123027660D02*
X113390000Y-127227660D01*
X109690000Y-124577660D02*
X109690000Y-129177660D01*
X108190000Y-128177660D02*
X108190000Y-125577660D01*
X111790000Y-124527660D02*
X111790000Y-129127660D01*
X115240000Y-122377660D02*
X115240000Y-126977660D01*
X114640000Y-122377660D02*
X114640000Y-126977660D01*
X113590000Y-122627660D02*
X113590000Y-127127660D01*
X111340000Y-124577660D02*
X111340000Y-129127660D01*
X112690000Y-124027660D02*
X112690000Y-128427660D01*
X111190000Y-124552660D02*
X109215000Y-124552660D01*
X113290000Y-123177660D02*
X113290000Y-127327660D01*
X112840000Y-123877660D02*
X112840000Y-128327660D01*
X111765000Y-129202660D02*
X113040000Y-128177660D01*
X109540000Y-124577660D02*
X109540000Y-129177660D01*
X115390000Y-122377660D02*
X115390000Y-126977660D01*
X115690000Y-122377660D02*
X115690000Y-126977660D01*
X113740000Y-122527660D02*
X113740000Y-127077660D01*
X116140000Y-122377660D02*
X116140000Y-126977660D01*
X112990000Y-123727660D02*
X112990000Y-128177660D01*
X113890000Y-122427660D02*
X113890000Y-126977660D01*
X113490000Y-122777660D02*
X113490000Y-127177660D01*
X116790000Y-122352660D02*
X114190000Y-122352660D01*
X111040000Y-124577660D02*
X111040000Y-129177660D01*
X115990000Y-122377660D02*
X115990000Y-126977660D01*
X114490000Y-122377660D02*
X114490000Y-126977660D01*
X113090000Y-123527660D02*
X113090000Y-127677660D01*
X109090000Y-124727660D02*
X109090000Y-129077660D01*
X116440000Y-122377660D02*
X116440000Y-126977660D01*
X110890000Y-124577660D02*
X110890000Y-129177660D01*
X108490000Y-125327660D02*
X108490000Y-128477660D01*
X116590000Y-122377660D02*
X116590000Y-126977660D01*
X111765000Y-129202660D02*
X109215000Y-129202660D01*
X115090000Y-122377660D02*
X115090000Y-126977660D01*
X110440000Y-124577660D02*
X110440000Y-129177660D01*
X114190000Y-122377660D02*
X114190000Y-126977660D01*
X109390000Y-124577660D02*
X109390000Y-129177660D01*
X112240000Y-124327660D02*
X112240000Y-128777660D01*
X112390000Y-124227660D02*
X112390000Y-128677660D01*
X117040000Y-122427660D02*
X117040000Y-126927660D01*
X108640000Y-125127660D02*
X108640000Y-128627660D01*
X109990000Y-124577660D02*
X109990000Y-129177660D01*
X117190000Y-122477660D02*
X117190000Y-126877660D01*
X114340000Y-122377660D02*
X114340000Y-126927660D01*
X109840000Y-124577660D02*
X109840000Y-129177660D01*
X111490000Y-124527660D02*
X111490000Y-129177660D01*
X117640000Y-122927660D02*
X117640000Y-126477660D01*
X115540000Y-122377660D02*
X115540000Y-126977660D01*
X108190000Y-128177660D02*
X109215000Y-129202660D01*
X110590000Y-124577660D02*
X110590000Y-129177660D01*
X108340000Y-125427660D02*
X108340000Y-128327660D01*
X114040000Y-122377660D02*
X114040000Y-126977660D01*
X108190000Y-125577660D02*
X109215000Y-124552660D01*
X117790000Y-126002660D02*
X117790000Y-123352660D01*
X116290000Y-122377660D02*
X116290000Y-126977660D01*
X115840000Y-122377660D02*
X115840000Y-126977660D01*
X116890000Y-122377660D02*
X116890000Y-126927660D01*
X116740000Y-122377660D02*
X116740000Y-126977660D01*
X117440000Y-122677660D02*
X117440000Y-126627660D01*
X111640000Y-124527660D02*
X111640000Y-129177660D01*
X108790000Y-124977660D02*
X108790000Y-128777660D01*
X111190000Y-124577660D02*
X111190000Y-129177660D01*
X112540000Y-124127660D02*
X112540000Y-128527660D01*
X114790000Y-122377660D02*
X114790000Y-126977660D01*
X108940000Y-124827660D02*
X108940000Y-128927660D01*
X110290000Y-124577660D02*
X110290000Y-129177660D01*
X110740000Y-124577660D02*
X110740000Y-129177660D01*
X109240000Y-124577660D02*
X109240000Y-129177660D01*
X111940000Y-124477660D02*
X111940000Y-129027660D01*
X113190000Y-123377660D02*
X113190000Y-127527660D01*
X110140000Y-124577660D02*
X110140000Y-129177660D01*
X114940000Y-122377660D02*
X114940000Y-126977660D01*
X117540000Y-122777660D02*
X117540000Y-126527660D01*
X117340000Y-122577660D02*
X117340000Y-126777660D01*
X116790000Y-127002660D02*
X114215000Y-127002660D01*
X117790000Y-123352660D02*
G75*
G03*
X116790000Y-122352660I-1000000J0D01*
G01*
X116790000Y-127002660D02*
G75*
G03*
X117790000Y-126002660I0J1000000D01*
G01*
X114215000Y-127002660D02*
G75*
G03*
X113040000Y-128177660I0J-1175000D01*
G01*
X114189005Y-122353873D02*
G75*
G03*
X113327801Y-123055756I38795J-926887D01*
G01*
X111190000Y-124552660D02*
G75*
G03*
X113327801Y-123055756I0J2275000D01*
G01*
%TO.C,SW2:7*%
X73790000Y-111685160D02*
X78390000Y-111685160D01*
X75990000Y-117235160D02*
X80590000Y-117235160D01*
X73790000Y-113935160D02*
X78390000Y-113935160D01*
X73790000Y-113335160D02*
X78390000Y-113335160D01*
X73765000Y-111185160D02*
X73765000Y-113785160D01*
X73990000Y-110635160D02*
X78190000Y-110635160D01*
X75940000Y-116485160D02*
X80590000Y-116485160D01*
X78415000Y-111185160D02*
X78415000Y-113760160D01*
X73790000Y-113185160D02*
X78390000Y-113185160D01*
X74790000Y-114785160D02*
X78940000Y-114785160D01*
X75965000Y-116785160D02*
X75965000Y-118760160D01*
X76990000Y-119785160D02*
X75965000Y-118760160D01*
X75990000Y-118735160D02*
X80590000Y-118735160D01*
X73790000Y-112135160D02*
X78390000Y-112135160D01*
X75990000Y-117985160D02*
X80590000Y-117985160D01*
X74340000Y-110335160D02*
X77890000Y-110335160D01*
X75990000Y-118135160D02*
X80590000Y-118135160D01*
X73790000Y-112885160D02*
X78390000Y-112885160D01*
X73790000Y-113485160D02*
X78390000Y-113485160D01*
X74040000Y-114385160D02*
X78540000Y-114385160D01*
X75990000Y-116635160D02*
X80540000Y-116635160D01*
X73790000Y-111085160D02*
X78340000Y-111085160D01*
X73840000Y-114085160D02*
X78390000Y-114085160D01*
X75990000Y-116935160D02*
X80590000Y-116935160D01*
X80615000Y-116210160D02*
X79590000Y-114935160D01*
X75290000Y-115135160D02*
X79740000Y-115135160D01*
X74940000Y-114885160D02*
X79090000Y-114885160D01*
X73790000Y-113035160D02*
X78390000Y-113035160D01*
X73790000Y-111985160D02*
X78390000Y-111985160D01*
X76390000Y-119185160D02*
X80190000Y-119185160D01*
X75140000Y-114985160D02*
X79590000Y-114985160D01*
X73790000Y-112735160D02*
X78390000Y-112735160D01*
X75440000Y-115285160D02*
X79840000Y-115285160D01*
X75990000Y-117385160D02*
X80590000Y-117385160D01*
X75990000Y-117835160D02*
X80590000Y-117835160D01*
X73790000Y-113635160D02*
X78340000Y-113635160D01*
X75990000Y-118285160D02*
X80590000Y-118285160D01*
X75890000Y-116035160D02*
X80440000Y-116035160D01*
X79590000Y-119785160D02*
X76990000Y-119785160D01*
X75990000Y-117685160D02*
X80590000Y-117685160D01*
X75990000Y-116785160D02*
X80590000Y-116785160D01*
X75940000Y-116335160D02*
X80590000Y-116335160D01*
X76240000Y-119035160D02*
X80340000Y-119035160D01*
X74190000Y-110435160D02*
X77940000Y-110435160D01*
X80615000Y-116210160D02*
X80615000Y-118760160D01*
X73840000Y-110935160D02*
X78340000Y-110935160D01*
X76540000Y-119335160D02*
X80040000Y-119335160D01*
X76140000Y-118885160D02*
X80490000Y-118885160D01*
X73790000Y-111535160D02*
X78390000Y-111535160D01*
X79590000Y-119785160D02*
X80615000Y-118760160D01*
X75990000Y-118585160D02*
X80590000Y-118585160D01*
X76840000Y-119635160D02*
X79740000Y-119635160D01*
X75990000Y-117085160D02*
X80590000Y-117085160D01*
X74440000Y-114585160D02*
X78640000Y-114585160D01*
X75940000Y-116185160D02*
X80540000Y-116185160D01*
X75540000Y-115435160D02*
X79940000Y-115435160D01*
X73890000Y-110785160D02*
X78290000Y-110785160D01*
X76740000Y-119485160D02*
X79890000Y-119485160D01*
X73940000Y-114235160D02*
X78490000Y-114235160D01*
X73790000Y-112435160D02*
X78390000Y-112435160D01*
X75640000Y-115585160D02*
X80090000Y-115585160D01*
X73790000Y-112585160D02*
X78390000Y-112585160D01*
X73790000Y-111835160D02*
X78390000Y-111835160D01*
X75990000Y-118435160D02*
X80590000Y-118435160D01*
X74190000Y-114485160D02*
X78590000Y-114485160D01*
X75740000Y-115735160D02*
X80190000Y-115735160D01*
X73790000Y-113785160D02*
X78390000Y-113785160D01*
X75790000Y-115885160D02*
X80340000Y-115885160D01*
X73790000Y-111235160D02*
X78390000Y-111235160D01*
X75990000Y-117535160D02*
X80590000Y-117535160D01*
X77415000Y-110185160D02*
X74765000Y-110185160D01*
X73790000Y-112285160D02*
X78390000Y-112285160D01*
X73790000Y-111385160D02*
X78390000Y-111385160D01*
X74590000Y-114685160D02*
X78740000Y-114685160D01*
X74090000Y-110535160D02*
X78040000Y-110535160D01*
X78415000Y-113760160D02*
G75*
G03*
X79590000Y-114935160I1175000J0D01*
G01*
X75965000Y-116785160D02*
G75*
G03*
X74468096Y-114647359I-2275000J0D01*
G01*
X74765000Y-110185160D02*
G75*
G03*
X73765000Y-111185160I0J-1000000D01*
G01*
X73766213Y-113786155D02*
G75*
G03*
X74468096Y-114647359I926887J38795D01*
G01*
X78415000Y-111185160D02*
G75*
G03*
X77415000Y-110185160I-1000000J0D01*
G01*
%TO.C,SW3:13*%
X189152500Y-112302660D02*
X190177500Y-113327660D01*
X189452500Y-109452660D02*
X189452500Y-112602660D01*
X194152500Y-107502660D02*
X194152500Y-111652660D01*
X191102500Y-108702660D02*
X191102500Y-113302660D01*
X190652500Y-108702660D02*
X190652500Y-113302660D01*
X195602500Y-106502660D02*
X195602500Y-111102660D01*
X195152500Y-106502660D02*
X195152500Y-111102660D01*
X194252500Y-107302660D02*
X194252500Y-111452660D01*
X195002500Y-106502660D02*
X195002500Y-111102660D01*
X189902500Y-108952660D02*
X189902500Y-113052660D01*
X191702500Y-108702660D02*
X191702500Y-113302660D01*
X197852500Y-106502660D02*
X197852500Y-111052660D01*
X193202500Y-108452660D02*
X193202500Y-112902660D01*
X191402500Y-108702660D02*
X191402500Y-113302660D01*
X192727500Y-113327660D02*
X194002500Y-112302660D01*
X198402500Y-106802660D02*
X198402500Y-110752660D01*
X196202500Y-106502660D02*
X196202500Y-111102660D01*
X192727500Y-113327660D02*
X190177500Y-113327660D01*
X191552500Y-108702660D02*
X191552500Y-113302660D01*
X197752500Y-111127660D02*
X195177500Y-111127660D01*
X196502500Y-106502660D02*
X196502500Y-111102660D01*
X194052500Y-107652660D02*
X194052500Y-111802660D01*
X189752500Y-109102660D02*
X189752500Y-112902660D01*
X193802500Y-108002660D02*
X193802500Y-112452660D01*
X192002500Y-108702660D02*
X192002500Y-113302660D01*
X193502500Y-108252660D02*
X193502500Y-112652660D01*
X196652500Y-106502660D02*
X196652500Y-111102660D01*
X197552500Y-106502660D02*
X197552500Y-111102660D01*
X198002500Y-106552660D02*
X198002500Y-111052660D01*
X193652500Y-108152660D02*
X193652500Y-112552660D01*
X198302500Y-106702660D02*
X198302500Y-110902660D01*
X192752500Y-108652660D02*
X192752500Y-113252660D01*
X198152500Y-106602660D02*
X198152500Y-111002660D01*
X194552500Y-106752660D02*
X194552500Y-111252660D01*
X189152500Y-109702660D02*
X190177500Y-108677660D01*
X193052500Y-108502660D02*
X193052500Y-113052660D01*
X198752500Y-110127660D02*
X198752500Y-107477660D01*
X194452500Y-106902660D02*
X194452500Y-111302660D01*
X190202500Y-108702660D02*
X190202500Y-113302660D01*
X195752500Y-106502660D02*
X195752500Y-111102660D01*
X192602500Y-108652660D02*
X192602500Y-113302660D01*
X191852500Y-108702660D02*
X191852500Y-113302660D01*
X196952500Y-106502660D02*
X196952500Y-111102660D01*
X192302500Y-108702660D02*
X192302500Y-113252660D01*
X197702500Y-106502660D02*
X197702500Y-111102660D01*
X197252500Y-106502660D02*
X197252500Y-111102660D01*
X192152500Y-108702660D02*
X192152500Y-113302660D01*
X197102500Y-106502660D02*
X197102500Y-111102660D01*
X196352500Y-106502660D02*
X196352500Y-111102660D01*
X195452500Y-106502660D02*
X195452500Y-111102660D01*
X197402500Y-106502660D02*
X197402500Y-111102660D01*
X189152500Y-112302660D02*
X189152500Y-109702660D01*
X194852500Y-106552660D02*
X194852500Y-111102660D01*
X195902500Y-106502660D02*
X195902500Y-111102660D01*
X194702500Y-106652660D02*
X194702500Y-111202660D01*
X193952500Y-107852660D02*
X193952500Y-112302660D01*
X192152500Y-108677660D02*
X190177500Y-108677660D01*
X190952500Y-108702660D02*
X190952500Y-113302660D01*
X190052500Y-108852660D02*
X190052500Y-113202660D01*
X197752500Y-106477660D02*
X195152500Y-106477660D01*
X191252500Y-108702660D02*
X191252500Y-113302660D01*
X195302500Y-106502660D02*
X195302500Y-111052660D01*
X196052500Y-106502660D02*
X196052500Y-111102660D01*
X192452500Y-108652660D02*
X192452500Y-113302660D01*
X190502500Y-108702660D02*
X190502500Y-113302660D01*
X190802500Y-108702660D02*
X190802500Y-113302660D01*
X193352500Y-108352660D02*
X193352500Y-112802660D01*
X192902500Y-108602660D02*
X192902500Y-113152660D01*
X189302500Y-109552660D02*
X189302500Y-112452660D01*
X194352500Y-107152660D02*
X194352500Y-111352660D01*
X189602500Y-109252660D02*
X189602500Y-112752660D01*
X198502500Y-106902660D02*
X198502500Y-110652660D01*
X190352500Y-108702660D02*
X190352500Y-113302660D01*
X196802500Y-106502660D02*
X196802500Y-111102660D01*
X198602500Y-107052660D02*
X198602500Y-110602660D01*
X198752500Y-107477660D02*
G75*
G03*
X197752500Y-106477660I-1000000J0D01*
G01*
X192152500Y-108677660D02*
G75*
G03*
X194290301Y-107180756I0J2275000D01*
G01*
X195177500Y-111127660D02*
G75*
G03*
X194002500Y-112302660I0J-1175000D01*
G01*
X195151505Y-106478873D02*
G75*
G03*
X194290301Y-107180756I38795J-926887D01*
G01*
X197752500Y-111127660D02*
G75*
G03*
X198752500Y-110127660I0J1000000D01*
G01*
%TO.C,SW3:11*%
X147340000Y-105527660D02*
X147340000Y-110127660D01*
X154840000Y-103327660D02*
X154840000Y-107927660D01*
X153940000Y-103327660D02*
X153940000Y-107927660D01*
X151690000Y-103577660D02*
X151690000Y-108077660D01*
X149440000Y-105527660D02*
X149440000Y-110077660D01*
X149590000Y-105477660D02*
X149590000Y-110127660D01*
X154690000Y-103327660D02*
X154690000Y-107927660D01*
X151190000Y-104477660D02*
X151190000Y-108627660D01*
X150340000Y-105277660D02*
X150340000Y-109727660D01*
X147790000Y-105527660D02*
X147790000Y-110127660D01*
X151840000Y-103477660D02*
X151840000Y-108027660D01*
X153340000Y-103327660D02*
X153340000Y-107927660D01*
X148090000Y-105527660D02*
X148090000Y-110127660D01*
X150640000Y-105077660D02*
X150640000Y-109477660D01*
X148840000Y-105527660D02*
X148840000Y-110127660D01*
X151290000Y-104327660D02*
X151290000Y-108477660D01*
X148990000Y-105527660D02*
X148990000Y-110127660D01*
X152440000Y-103327660D02*
X152440000Y-107877660D01*
X155540000Y-103627660D02*
X155540000Y-107577660D01*
X147040000Y-105777660D02*
X147040000Y-109877660D01*
X155740000Y-103877660D02*
X155740000Y-107427660D01*
X154240000Y-103327660D02*
X154240000Y-107927660D01*
X153490000Y-103327660D02*
X153490000Y-107927660D01*
X146290000Y-106527660D02*
X147315000Y-105502660D01*
X149140000Y-105527660D02*
X149140000Y-110127660D01*
X148240000Y-105527660D02*
X148240000Y-110127660D01*
X153040000Y-103327660D02*
X153040000Y-107927660D01*
X154890000Y-107952660D02*
X152315000Y-107952660D01*
X152140000Y-103327660D02*
X152140000Y-107927660D01*
X146890000Y-105927660D02*
X146890000Y-109727660D01*
X155140000Y-103377660D02*
X155140000Y-107877660D01*
X150040000Y-105427660D02*
X150040000Y-109977660D01*
X151490000Y-103977660D02*
X151490000Y-108177660D01*
X147640000Y-105527660D02*
X147640000Y-110127660D01*
X151390000Y-104127660D02*
X151390000Y-108277660D01*
X152890000Y-103327660D02*
X152890000Y-107927660D01*
X146740000Y-106077660D02*
X146740000Y-109577660D01*
X149740000Y-105477660D02*
X149740000Y-110127660D01*
X154890000Y-103302660D02*
X152290000Y-103302660D01*
X149290000Y-105502660D02*
X147315000Y-105502660D01*
X147190000Y-105677660D02*
X147190000Y-110027660D01*
X149865000Y-110152660D02*
X147315000Y-110152660D01*
X147490000Y-105527660D02*
X147490000Y-110127660D01*
X151090000Y-104677660D02*
X151090000Y-109127660D01*
X146290000Y-109127660D02*
X146290000Y-106527660D01*
X154990000Y-103327660D02*
X154990000Y-107877660D01*
X146290000Y-109127660D02*
X147315000Y-110152660D01*
X147940000Y-105527660D02*
X147940000Y-110127660D01*
X148690000Y-105527660D02*
X148690000Y-110127660D01*
X146590000Y-106277660D02*
X146590000Y-109427660D01*
X154540000Y-103327660D02*
X154540000Y-107927660D01*
X146440000Y-106377660D02*
X146440000Y-109277660D01*
X155890000Y-106952660D02*
X155890000Y-104302660D01*
X150790000Y-104977660D02*
X150790000Y-109377660D01*
X150940000Y-104827660D02*
X150940000Y-109277660D01*
X153640000Y-103327660D02*
X153640000Y-107927660D01*
X155290000Y-103427660D02*
X155290000Y-107827660D01*
X151990000Y-103377660D02*
X151990000Y-107927660D01*
X152290000Y-103327660D02*
X152290000Y-107927660D01*
X153790000Y-103327660D02*
X153790000Y-107927660D01*
X148540000Y-105527660D02*
X148540000Y-110127660D01*
X149290000Y-105527660D02*
X149290000Y-110127660D01*
X154090000Y-103327660D02*
X154090000Y-107927660D01*
X153190000Y-103327660D02*
X153190000Y-107927660D01*
X149865000Y-110152660D02*
X151140000Y-109127660D01*
X152590000Y-103327660D02*
X152590000Y-107927660D01*
X154390000Y-103327660D02*
X154390000Y-107927660D01*
X150490000Y-105177660D02*
X150490000Y-109627660D01*
X148390000Y-105527660D02*
X148390000Y-110127660D01*
X151590000Y-103727660D02*
X151590000Y-108127660D01*
X149890000Y-105477660D02*
X149890000Y-110077660D01*
X150190000Y-105327660D02*
X150190000Y-109877660D01*
X155440000Y-103527660D02*
X155440000Y-107727660D01*
X152740000Y-103327660D02*
X152740000Y-107927660D01*
X155640000Y-103727660D02*
X155640000Y-107477660D01*
X149290000Y-105502660D02*
G75*
G03*
X151427801Y-104005756I0J2275000D01*
G01*
X152289005Y-103303873D02*
G75*
G03*
X151427801Y-104005756I38795J-926887D01*
G01*
X152315000Y-107952660D02*
G75*
G03*
X151140000Y-109127660I0J-1175000D01*
G01*
X154890000Y-107952660D02*
G75*
G03*
X155890000Y-106952660I0J1000000D01*
G01*
X155890000Y-104302660D02*
G75*
G03*
X154890000Y-103302660I-1000000J0D01*
G01*
%TO.C,SW3:10*%
X129340000Y-103930000D02*
X129340000Y-108530000D01*
X136240000Y-101830000D02*
X136240000Y-106230000D01*
X130840000Y-103880000D02*
X130840000Y-108480000D01*
X131890000Y-103230000D02*
X131890000Y-107680000D01*
X132640000Y-101980000D02*
X132640000Y-106480000D01*
X132240000Y-102730000D02*
X132240000Y-106880000D01*
X128140000Y-104080000D02*
X128140000Y-108430000D01*
X128290000Y-103930000D02*
X128290000Y-108530000D01*
X133240000Y-101730000D02*
X133240000Y-106330000D01*
X134740000Y-101730000D02*
X134740000Y-106330000D01*
X129640000Y-103930000D02*
X129640000Y-108530000D01*
X136690000Y-102280000D02*
X136690000Y-105830000D01*
X135040000Y-101730000D02*
X135040000Y-106330000D01*
X128890000Y-103930000D02*
X128890000Y-108530000D01*
X135790000Y-101730000D02*
X135790000Y-106330000D01*
X133090000Y-101730000D02*
X133090000Y-106330000D01*
X136590000Y-102130000D02*
X136590000Y-105880000D01*
X133690000Y-101730000D02*
X133690000Y-106330000D01*
X127240000Y-104930000D02*
X128265000Y-103905000D01*
X135190000Y-101730000D02*
X135190000Y-106330000D01*
X133840000Y-101730000D02*
X133840000Y-106330000D01*
X136390000Y-101930000D02*
X136390000Y-106130000D01*
X136490000Y-102030000D02*
X136490000Y-105980000D01*
X130090000Y-103930000D02*
X130090000Y-108530000D01*
X127840000Y-104330000D02*
X127840000Y-108130000D01*
X128440000Y-103930000D02*
X128440000Y-108530000D01*
X129190000Y-103930000D02*
X129190000Y-108530000D01*
X131590000Y-103480000D02*
X131590000Y-107880000D01*
X131740000Y-103380000D02*
X131740000Y-107780000D01*
X130240000Y-103930000D02*
X130240000Y-108530000D01*
X134290000Y-101730000D02*
X134290000Y-106330000D01*
X128590000Y-103930000D02*
X128590000Y-108530000D01*
X131290000Y-103680000D02*
X131290000Y-108130000D01*
X132040000Y-103080000D02*
X132040000Y-107530000D01*
X130815000Y-108555000D02*
X132090000Y-107530000D01*
X135490000Y-101730000D02*
X135490000Y-106330000D01*
X135840000Y-101705000D02*
X133240000Y-101705000D01*
X134590000Y-101730000D02*
X134590000Y-106330000D01*
X135640000Y-101730000D02*
X135640000Y-106330000D01*
X127690000Y-104480000D02*
X127690000Y-107980000D01*
X133540000Y-101730000D02*
X133540000Y-106330000D01*
X131140000Y-103730000D02*
X131140000Y-108280000D01*
X132440000Y-102380000D02*
X132440000Y-106580000D01*
X132340000Y-102530000D02*
X132340000Y-106680000D01*
X130690000Y-103880000D02*
X130690000Y-108530000D01*
X127540000Y-104680000D02*
X127540000Y-107830000D01*
X130390000Y-103930000D02*
X130390000Y-108480000D01*
X136840000Y-105355000D02*
X136840000Y-102705000D01*
X132940000Y-101780000D02*
X132940000Y-106330000D01*
X135940000Y-101730000D02*
X135940000Y-106280000D01*
X129490000Y-103930000D02*
X129490000Y-108530000D01*
X132540000Y-102130000D02*
X132540000Y-106530000D01*
X134140000Y-101730000D02*
X134140000Y-106330000D01*
X127240000Y-107530000D02*
X128265000Y-108555000D01*
X129040000Y-103930000D02*
X129040000Y-108530000D01*
X130990000Y-103830000D02*
X130990000Y-108380000D01*
X129940000Y-103930000D02*
X129940000Y-108530000D01*
X130815000Y-108555000D02*
X128265000Y-108555000D01*
X127390000Y-104780000D02*
X127390000Y-107680000D01*
X135840000Y-106355000D02*
X133265000Y-106355000D01*
X131440000Y-103580000D02*
X131440000Y-108030000D01*
X134440000Y-101730000D02*
X134440000Y-106330000D01*
X127990000Y-104180000D02*
X127990000Y-108280000D01*
X133990000Y-101730000D02*
X133990000Y-106330000D01*
X130240000Y-103905000D02*
X128265000Y-103905000D01*
X129790000Y-103930000D02*
X129790000Y-108530000D01*
X134890000Y-101730000D02*
X134890000Y-106330000D01*
X132140000Y-102880000D02*
X132140000Y-107030000D01*
X136090000Y-101780000D02*
X136090000Y-106280000D01*
X130540000Y-103880000D02*
X130540000Y-108530000D01*
X127240000Y-107530000D02*
X127240000Y-104930000D01*
X132790000Y-101880000D02*
X132790000Y-106430000D01*
X128740000Y-103930000D02*
X128740000Y-108530000D01*
X133390000Y-101730000D02*
X133390000Y-106280000D01*
X135340000Y-101730000D02*
X135340000Y-106330000D01*
X130240000Y-103905000D02*
G75*
G03*
X132377801Y-102408096I0J2275000D01*
G01*
X133265000Y-106355000D02*
G75*
G03*
X132090000Y-107530000I0J-1175000D01*
G01*
X133239005Y-101706213D02*
G75*
G03*
X132377801Y-102408096I38795J-926887D01*
G01*
X136840000Y-102705000D02*
G75*
G03*
X135840000Y-101705000I-1000000J0D01*
G01*
X135840000Y-106355000D02*
G75*
G03*
X136840000Y-105355000I0J1000000D01*
G01*
%TO.C,SW3:9*%
X109840000Y-105527660D02*
X109840000Y-110127660D01*
X115840000Y-103327660D02*
X115840000Y-107927660D01*
X109090000Y-105677660D02*
X109090000Y-110027660D01*
X108190000Y-109127660D02*
X109215000Y-110152660D01*
X115240000Y-103327660D02*
X115240000Y-107927660D01*
X110140000Y-105527660D02*
X110140000Y-110127660D01*
X109240000Y-105527660D02*
X109240000Y-110127660D01*
X112840000Y-104827660D02*
X112840000Y-109277660D01*
X117340000Y-103527660D02*
X117340000Y-107727660D01*
X111940000Y-105427660D02*
X111940000Y-109977660D01*
X111190000Y-105502660D02*
X109215000Y-105502660D01*
X116790000Y-107952660D02*
X114215000Y-107952660D01*
X117440000Y-103627660D02*
X117440000Y-107577660D01*
X116590000Y-103327660D02*
X116590000Y-107927660D01*
X108640000Y-106077660D02*
X108640000Y-109577660D01*
X113890000Y-103377660D02*
X113890000Y-107927660D01*
X114940000Y-103327660D02*
X114940000Y-107927660D01*
X112990000Y-104677660D02*
X112990000Y-109127660D01*
X115690000Y-103327660D02*
X115690000Y-107927660D01*
X109390000Y-105527660D02*
X109390000Y-110127660D01*
X117640000Y-103877660D02*
X117640000Y-107427660D01*
X112540000Y-105077660D02*
X112540000Y-109477660D01*
X116140000Y-103327660D02*
X116140000Y-107927660D01*
X113390000Y-103977660D02*
X113390000Y-108177660D01*
X114490000Y-103327660D02*
X114490000Y-107927660D01*
X111340000Y-105527660D02*
X111340000Y-110077660D01*
X115390000Y-103327660D02*
X115390000Y-107927660D01*
X114190000Y-103327660D02*
X114190000Y-107927660D01*
X110740000Y-105527660D02*
X110740000Y-110127660D01*
X113190000Y-104327660D02*
X113190000Y-108477660D01*
X113490000Y-103727660D02*
X113490000Y-108127660D01*
X117040000Y-103377660D02*
X117040000Y-107877660D01*
X116890000Y-103327660D02*
X116890000Y-107877660D01*
X114790000Y-103327660D02*
X114790000Y-107927660D01*
X111490000Y-105477660D02*
X111490000Y-110127660D01*
X117540000Y-103727660D02*
X117540000Y-107477660D01*
X110890000Y-105527660D02*
X110890000Y-110127660D01*
X111190000Y-105527660D02*
X111190000Y-110127660D01*
X110290000Y-105527660D02*
X110290000Y-110127660D01*
X111640000Y-105477660D02*
X111640000Y-110127660D01*
X115540000Y-103327660D02*
X115540000Y-107927660D01*
X108340000Y-106377660D02*
X108340000Y-109277660D01*
X112090000Y-105327660D02*
X112090000Y-109877660D01*
X114640000Y-103327660D02*
X114640000Y-107927660D01*
X116740000Y-103327660D02*
X116740000Y-107927660D01*
X111765000Y-110152660D02*
X113040000Y-109127660D01*
X111790000Y-105477660D02*
X111790000Y-110077660D01*
X108790000Y-105927660D02*
X108790000Y-109727660D01*
X113740000Y-103477660D02*
X113740000Y-108027660D01*
X112690000Y-104977660D02*
X112690000Y-109377660D01*
X114040000Y-103327660D02*
X114040000Y-107927660D01*
X113290000Y-104127660D02*
X113290000Y-108277660D01*
X114340000Y-103327660D02*
X114340000Y-107877660D01*
X117190000Y-103427660D02*
X117190000Y-107827660D01*
X109690000Y-105527660D02*
X109690000Y-110127660D01*
X112240000Y-105277660D02*
X112240000Y-109727660D01*
X111040000Y-105527660D02*
X111040000Y-110127660D01*
X109540000Y-105527660D02*
X109540000Y-110127660D01*
X109990000Y-105527660D02*
X109990000Y-110127660D01*
X116790000Y-103302660D02*
X114190000Y-103302660D01*
X116440000Y-103327660D02*
X116440000Y-107927660D01*
X108190000Y-109127660D02*
X108190000Y-106527660D01*
X111765000Y-110152660D02*
X109215000Y-110152660D01*
X110440000Y-105527660D02*
X110440000Y-110127660D01*
X108190000Y-106527660D02*
X109215000Y-105502660D01*
X115990000Y-103327660D02*
X115990000Y-107927660D01*
X108490000Y-106277660D02*
X108490000Y-109427660D01*
X113090000Y-104477660D02*
X113090000Y-108627660D01*
X116290000Y-103327660D02*
X116290000Y-107927660D01*
X112390000Y-105177660D02*
X112390000Y-109627660D01*
X115090000Y-103327660D02*
X115090000Y-107927660D01*
X113590000Y-103577660D02*
X113590000Y-108077660D01*
X117790000Y-106952660D02*
X117790000Y-104302660D01*
X108940000Y-105777660D02*
X108940000Y-109877660D01*
X110590000Y-105527660D02*
X110590000Y-110127660D01*
X117790000Y-104302660D02*
G75*
G03*
X116790000Y-103302660I-1000000J0D01*
G01*
X116790000Y-107952660D02*
G75*
G03*
X117790000Y-106952660I0J1000000D01*
G01*
X114215000Y-107952660D02*
G75*
G03*
X113040000Y-109127660I0J-1175000D01*
G01*
X114189005Y-103303873D02*
G75*
G03*
X113327801Y-104005756I38795J-926887D01*
G01*
X111190000Y-105502660D02*
G75*
G03*
X113327801Y-104005756I0J2275000D01*
G01*
%TO.C,SW3:8*%
X92715000Y-111422660D02*
X93990000Y-110397660D01*
X97740000Y-104572660D02*
X95140000Y-104572660D01*
X95290000Y-104597660D02*
X95290000Y-109147660D01*
X98740000Y-108222660D02*
X98740000Y-105572660D01*
X93640000Y-106247660D02*
X93640000Y-110647660D01*
X96640000Y-104597660D02*
X96640000Y-109197660D01*
X92715000Y-111422660D02*
X90165000Y-111422660D01*
X89140000Y-110397660D02*
X90165000Y-111422660D01*
X92740000Y-106747660D02*
X92740000Y-111347660D01*
X89440000Y-107547660D02*
X89440000Y-110697660D01*
X97540000Y-104597660D02*
X97540000Y-109197660D01*
X92290000Y-106797660D02*
X92290000Y-111347660D01*
X93790000Y-106097660D02*
X93790000Y-110547660D01*
X94340000Y-105247660D02*
X94340000Y-109447660D01*
X91990000Y-106797660D02*
X91990000Y-111397660D01*
X94840000Y-104647660D02*
X94840000Y-109197660D01*
X94240000Y-105397660D02*
X94240000Y-109547660D01*
X93190000Y-106547660D02*
X93190000Y-110997660D01*
X97840000Y-104597660D02*
X97840000Y-109147660D01*
X92140000Y-106797660D02*
X92140000Y-111397660D01*
X90940000Y-106797660D02*
X90940000Y-111397660D01*
X89740000Y-107197660D02*
X89740000Y-110997660D01*
X98140000Y-104697660D02*
X98140000Y-109097660D01*
X96940000Y-104597660D02*
X96940000Y-109197660D01*
X94540000Y-104847660D02*
X94540000Y-109347660D01*
X90790000Y-106797660D02*
X90790000Y-111397660D01*
X92590000Y-106747660D02*
X92590000Y-111397660D01*
X95440000Y-104597660D02*
X95440000Y-109197660D01*
X98390000Y-104897660D02*
X98390000Y-108847660D01*
X89890000Y-107047660D02*
X89890000Y-111147660D01*
X97090000Y-104597660D02*
X97090000Y-109197660D01*
X90190000Y-106797660D02*
X90190000Y-111397660D01*
X89140000Y-107797660D02*
X90165000Y-106772660D01*
X89140000Y-110397660D02*
X89140000Y-107797660D01*
X94140000Y-105597660D02*
X94140000Y-109747660D01*
X93490000Y-106347660D02*
X93490000Y-110747660D01*
X96040000Y-104597660D02*
X96040000Y-109197660D01*
X94990000Y-104597660D02*
X94990000Y-109197660D01*
X90640000Y-106797660D02*
X90640000Y-111397660D01*
X92890000Y-106697660D02*
X92890000Y-111247660D01*
X95140000Y-104597660D02*
X95140000Y-109197660D01*
X92140000Y-106772660D02*
X90165000Y-106772660D01*
X97390000Y-104597660D02*
X97390000Y-109197660D01*
X94690000Y-104747660D02*
X94690000Y-109297660D01*
X95890000Y-104597660D02*
X95890000Y-109197660D01*
X97690000Y-104597660D02*
X97690000Y-109197660D01*
X89590000Y-107347660D02*
X89590000Y-110847660D01*
X93940000Y-105947660D02*
X93940000Y-110397660D01*
X96790000Y-104597660D02*
X96790000Y-109197660D01*
X93040000Y-106597660D02*
X93040000Y-111147660D01*
X90340000Y-106797660D02*
X90340000Y-111397660D01*
X92440000Y-106747660D02*
X92440000Y-111397660D01*
X95740000Y-104597660D02*
X95740000Y-109197660D01*
X91840000Y-106797660D02*
X91840000Y-111397660D01*
X97990000Y-104647660D02*
X97990000Y-109147660D01*
X91390000Y-106797660D02*
X91390000Y-111397660D01*
X97740000Y-109222660D02*
X95165000Y-109222660D01*
X90490000Y-106797660D02*
X90490000Y-111397660D01*
X91690000Y-106797660D02*
X91690000Y-111397660D01*
X98490000Y-104997660D02*
X98490000Y-108747660D01*
X95590000Y-104597660D02*
X95590000Y-109197660D01*
X91090000Y-106797660D02*
X91090000Y-111397660D01*
X93340000Y-106447660D02*
X93340000Y-110897660D01*
X89290000Y-107647660D02*
X89290000Y-110547660D01*
X94040000Y-105747660D02*
X94040000Y-109897660D01*
X96490000Y-104597660D02*
X96490000Y-109197660D01*
X98590000Y-105147660D02*
X98590000Y-108697660D01*
X96340000Y-104597660D02*
X96340000Y-109197660D01*
X97240000Y-104597660D02*
X97240000Y-109197660D01*
X90040000Y-106947660D02*
X90040000Y-111297660D01*
X94440000Y-104997660D02*
X94440000Y-109397660D01*
X98290000Y-104797660D02*
X98290000Y-108997660D01*
X91540000Y-106797660D02*
X91540000Y-111397660D01*
X91240000Y-106797660D02*
X91240000Y-111397660D01*
X96190000Y-104597660D02*
X96190000Y-109197660D01*
X98740000Y-105572660D02*
G75*
G03*
X97740000Y-104572660I-1000000J0D01*
G01*
X95139005Y-104573873D02*
G75*
G03*
X94277801Y-105275756I38795J-926887D01*
G01*
X95165000Y-109222660D02*
G75*
G03*
X93990000Y-110397660I0J-1175000D01*
G01*
X92140000Y-106772660D02*
G75*
G03*
X94277801Y-105275756I0J2275000D01*
G01*
X97740000Y-109222660D02*
G75*
G03*
X98740000Y-108222660I0J1000000D01*
G01*
%TO.C,SW4:13*%
X198502500Y-87852660D02*
X198502500Y-91602660D01*
X193952500Y-88802660D02*
X193952500Y-93252660D01*
X195602500Y-87452660D02*
X195602500Y-92052660D01*
X195452500Y-87452660D02*
X195452500Y-92052660D01*
X193502500Y-89202660D02*
X193502500Y-93602660D01*
X192602500Y-89602660D02*
X192602500Y-94252660D01*
X194452500Y-87852660D02*
X194452500Y-92252660D01*
X192452500Y-89602660D02*
X192452500Y-94252660D01*
X197552500Y-87452660D02*
X197552500Y-92052660D01*
X191252500Y-89652660D02*
X191252500Y-94252660D01*
X192727500Y-94277660D02*
X190177500Y-94277660D01*
X198002500Y-87502660D02*
X198002500Y-92002660D01*
X193052500Y-89452660D02*
X193052500Y-94002660D01*
X192002500Y-89652660D02*
X192002500Y-94252660D01*
X197402500Y-87452660D02*
X197402500Y-92052660D01*
X189602500Y-90202660D02*
X189602500Y-93702660D01*
X196202500Y-87452660D02*
X196202500Y-92052660D01*
X193202500Y-89402660D02*
X193202500Y-93852660D01*
X195152500Y-87452660D02*
X195152500Y-92052660D01*
X196652500Y-87452660D02*
X196652500Y-92052660D01*
X195302500Y-87452660D02*
X195302500Y-92002660D01*
X189752500Y-90052660D02*
X189752500Y-93852660D01*
X196352500Y-87452660D02*
X196352500Y-92052660D01*
X196952500Y-87452660D02*
X196952500Y-92052660D01*
X194352500Y-88102660D02*
X194352500Y-92302660D01*
X197702500Y-87452660D02*
X197702500Y-92052660D01*
X190202500Y-89652660D02*
X190202500Y-94252660D01*
X197752500Y-92077660D02*
X195177500Y-92077660D01*
X198752500Y-91077660D02*
X198752500Y-88427660D01*
X196502500Y-87452660D02*
X196502500Y-92052660D01*
X192302500Y-89652660D02*
X192302500Y-94202660D01*
X197852500Y-87452660D02*
X197852500Y-92002660D01*
X196052500Y-87452660D02*
X196052500Y-92052660D01*
X190952500Y-89652660D02*
X190952500Y-94252660D01*
X195902500Y-87452660D02*
X195902500Y-92052660D01*
X194252500Y-88252660D02*
X194252500Y-92402660D01*
X190802500Y-89652660D02*
X190802500Y-94252660D01*
X189152500Y-93252660D02*
X189152500Y-90652660D01*
X197752500Y-87427660D02*
X195152500Y-87427660D01*
X198402500Y-87752660D02*
X198402500Y-91702660D01*
X190652500Y-89652660D02*
X190652500Y-94252660D01*
X195752500Y-87452660D02*
X195752500Y-92052660D01*
X189152500Y-90652660D02*
X190177500Y-89627660D01*
X194552500Y-87702660D02*
X194552500Y-92202660D01*
X190502500Y-89652660D02*
X190502500Y-94252660D01*
X192727500Y-94277660D02*
X194002500Y-93252660D01*
X198602500Y-88002660D02*
X198602500Y-91552660D01*
X194852500Y-87502660D02*
X194852500Y-92052660D01*
X192902500Y-89552660D02*
X192902500Y-94102660D01*
X193352500Y-89302660D02*
X193352500Y-93752660D01*
X194702500Y-87602660D02*
X194702500Y-92152660D01*
X192152500Y-89652660D02*
X192152500Y-94252660D01*
X193802500Y-88952660D02*
X193802500Y-93402660D01*
X189152500Y-93252660D02*
X190177500Y-94277660D01*
X191552500Y-89652660D02*
X191552500Y-94252660D01*
X192752500Y-89602660D02*
X192752500Y-94202660D01*
X191102500Y-89652660D02*
X191102500Y-94252660D01*
X190352500Y-89652660D02*
X190352500Y-94252660D01*
X191702500Y-89652660D02*
X191702500Y-94252660D01*
X193652500Y-89102660D02*
X193652500Y-93502660D01*
X190052500Y-89802660D02*
X190052500Y-94152660D01*
X197102500Y-87452660D02*
X197102500Y-92052660D01*
X195002500Y-87452660D02*
X195002500Y-92052660D01*
X198302500Y-87652660D02*
X198302500Y-91852660D01*
X196802500Y-87452660D02*
X196802500Y-92052660D01*
X191402500Y-89652660D02*
X191402500Y-94252660D01*
X189302500Y-90502660D02*
X189302500Y-93402660D01*
X194152500Y-88452660D02*
X194152500Y-92602660D01*
X197252500Y-87452660D02*
X197252500Y-92052660D01*
X191852500Y-89652660D02*
X191852500Y-94252660D01*
X194052500Y-88602660D02*
X194052500Y-92752660D01*
X192152500Y-89627660D02*
X190177500Y-89627660D01*
X189902500Y-89902660D02*
X189902500Y-94002660D01*
X189452500Y-90402660D02*
X189452500Y-93552660D01*
X198152500Y-87552660D02*
X198152500Y-91952660D01*
X195151505Y-87428873D02*
G75*
G03*
X194290301Y-88130756I38795J-926887D01*
G01*
X195177500Y-92077660D02*
G75*
G03*
X194002500Y-93252660I0J-1175000D01*
G01*
X192152500Y-89627660D02*
G75*
G03*
X194290301Y-88130756I0J2275000D01*
G01*
X197752500Y-92077660D02*
G75*
G03*
X198752500Y-91077660I0J1000000D01*
G01*
X198752500Y-88427660D02*
G75*
G03*
X197752500Y-87427660I-1000000J0D01*
G01*
%TO.C,SW4:12*%
X173140000Y-87452660D02*
X173140000Y-92052660D01*
X172090000Y-87452660D02*
X172090000Y-92052660D01*
X168040000Y-89652660D02*
X168040000Y-94252660D01*
X168190000Y-89652660D02*
X168190000Y-94252660D01*
X173890000Y-87452660D02*
X173890000Y-92052660D01*
X169240000Y-89452660D02*
X169240000Y-94002660D01*
X169090000Y-89552660D02*
X169090000Y-94102660D01*
X169540000Y-89302660D02*
X169540000Y-93752660D01*
X172840000Y-87452660D02*
X172840000Y-92052660D01*
X167890000Y-89652660D02*
X167890000Y-94252660D01*
X168915000Y-94277660D02*
X170190000Y-93252660D01*
X174590000Y-87752660D02*
X174590000Y-91702660D01*
X166390000Y-89652660D02*
X166390000Y-94252660D01*
X171040000Y-87502660D02*
X171040000Y-92052660D01*
X165340000Y-93252660D02*
X165340000Y-90652660D01*
X168915000Y-94277660D02*
X166365000Y-94277660D01*
X168340000Y-89652660D02*
X168340000Y-94252660D01*
X170340000Y-88452660D02*
X170340000Y-92602660D01*
X168940000Y-89602660D02*
X168940000Y-94202660D01*
X167440000Y-89652660D02*
X167440000Y-94252660D01*
X167290000Y-89652660D02*
X167290000Y-94252660D01*
X171490000Y-87452660D02*
X171490000Y-92002660D01*
X167740000Y-89652660D02*
X167740000Y-94252660D01*
X170540000Y-88102660D02*
X170540000Y-92302660D01*
X174190000Y-87502660D02*
X174190000Y-92002660D01*
X165940000Y-90052660D02*
X165940000Y-93852660D01*
X170440000Y-88252660D02*
X170440000Y-92402660D01*
X167140000Y-89652660D02*
X167140000Y-94252660D01*
X169840000Y-89102660D02*
X169840000Y-93502660D01*
X170890000Y-87602660D02*
X170890000Y-92152660D01*
X168490000Y-89652660D02*
X168490000Y-94202660D01*
X172540000Y-87452660D02*
X172540000Y-92052660D01*
X168340000Y-89627660D02*
X166365000Y-89627660D01*
X165790000Y-90202660D02*
X165790000Y-93702660D01*
X165340000Y-93252660D02*
X166365000Y-94277660D01*
X171640000Y-87452660D02*
X171640000Y-92052660D01*
X174040000Y-87452660D02*
X174040000Y-92002660D01*
X166540000Y-89652660D02*
X166540000Y-94252660D01*
X170740000Y-87702660D02*
X170740000Y-92202660D01*
X166690000Y-89652660D02*
X166690000Y-94252660D01*
X169390000Y-89402660D02*
X169390000Y-93852660D01*
X170240000Y-88602660D02*
X170240000Y-92752660D01*
X167590000Y-89652660D02*
X167590000Y-94252660D01*
X171940000Y-87452660D02*
X171940000Y-92052660D01*
X173440000Y-87452660D02*
X173440000Y-92052660D01*
X173590000Y-87452660D02*
X173590000Y-92052660D01*
X172990000Y-87452660D02*
X172990000Y-92052660D01*
X169690000Y-89202660D02*
X169690000Y-93602660D01*
X166840000Y-89652660D02*
X166840000Y-94252660D01*
X165640000Y-90402660D02*
X165640000Y-93552660D01*
X165340000Y-90652660D02*
X166365000Y-89627660D01*
X172240000Y-87452660D02*
X172240000Y-92052660D01*
X168640000Y-89602660D02*
X168640000Y-94252660D01*
X166990000Y-89652660D02*
X166990000Y-94252660D01*
X170140000Y-88802660D02*
X170140000Y-93252660D01*
X173290000Y-87452660D02*
X173290000Y-92052660D01*
X173940000Y-92077660D02*
X171365000Y-92077660D01*
X169990000Y-88952660D02*
X169990000Y-93402660D01*
X173740000Y-87452660D02*
X173740000Y-92052660D01*
X172690000Y-87452660D02*
X172690000Y-92052660D01*
X174340000Y-87552660D02*
X174340000Y-91952660D01*
X170640000Y-87852660D02*
X170640000Y-92252660D01*
X171190000Y-87452660D02*
X171190000Y-92052660D01*
X171790000Y-87452660D02*
X171790000Y-92052660D01*
X173940000Y-87427660D02*
X171340000Y-87427660D01*
X174490000Y-87652660D02*
X174490000Y-91852660D01*
X166090000Y-89902660D02*
X166090000Y-94002660D01*
X171340000Y-87452660D02*
X171340000Y-92052660D01*
X168790000Y-89602660D02*
X168790000Y-94252660D01*
X174790000Y-88002660D02*
X174790000Y-91552660D01*
X166240000Y-89802660D02*
X166240000Y-94152660D01*
X165490000Y-90502660D02*
X165490000Y-93402660D01*
X172390000Y-87452660D02*
X172390000Y-92052660D01*
X174940000Y-91077660D02*
X174940000Y-88427660D01*
X174690000Y-87852660D02*
X174690000Y-91602660D01*
X171365000Y-92077660D02*
G75*
G03*
X170190000Y-93252660I0J-1175000D01*
G01*
X168340000Y-89627660D02*
G75*
G03*
X170477801Y-88130756I0J2275000D01*
G01*
X171339005Y-87428873D02*
G75*
G03*
X170477801Y-88130756I38795J-926887D01*
G01*
X174940000Y-88427660D02*
G75*
G03*
X173940000Y-87427660I-1000000J0D01*
G01*
X173940000Y-92077660D02*
G75*
G03*
X174940000Y-91077660I0J1000000D01*
G01*
%TO.C,SW4:11*%
X148840000Y-86477660D02*
X148840000Y-91077660D01*
X149865000Y-91102660D02*
X147315000Y-91102660D01*
X154390000Y-84277660D02*
X154390000Y-88877660D01*
X153040000Y-84277660D02*
X153040000Y-88877660D01*
X154890000Y-84252660D02*
X152290000Y-84252660D01*
X153340000Y-84277660D02*
X153340000Y-88877660D01*
X151090000Y-85627660D02*
X151090000Y-90077660D01*
X155740000Y-84827660D02*
X155740000Y-88377660D01*
X151590000Y-84677660D02*
X151590000Y-89077660D01*
X147040000Y-86727660D02*
X147040000Y-90827660D01*
X155140000Y-84327660D02*
X155140000Y-88827660D01*
X155440000Y-84477660D02*
X155440000Y-88677660D01*
X146440000Y-87327660D02*
X146440000Y-90227660D01*
X154240000Y-84277660D02*
X154240000Y-88877660D01*
X150940000Y-85777660D02*
X150940000Y-90227660D01*
X149890000Y-86427660D02*
X149890000Y-91027660D01*
X152740000Y-84277660D02*
X152740000Y-88877660D01*
X152590000Y-84277660D02*
X152590000Y-88877660D01*
X154990000Y-84277660D02*
X154990000Y-88827660D01*
X151490000Y-84927660D02*
X151490000Y-89127660D01*
X155540000Y-84577660D02*
X155540000Y-88527660D01*
X149590000Y-86427660D02*
X149590000Y-91077660D01*
X151690000Y-84527660D02*
X151690000Y-89027660D01*
X147790000Y-86477660D02*
X147790000Y-91077660D01*
X150640000Y-86027660D02*
X150640000Y-90427660D01*
X151190000Y-85427660D02*
X151190000Y-89577660D01*
X148090000Y-86477660D02*
X148090000Y-91077660D01*
X150040000Y-86377660D02*
X150040000Y-90927660D01*
X148390000Y-86477660D02*
X148390000Y-91077660D01*
X153790000Y-84277660D02*
X153790000Y-88877660D01*
X149290000Y-86477660D02*
X149290000Y-91077660D01*
X148990000Y-86477660D02*
X148990000Y-91077660D01*
X146290000Y-90077660D02*
X147315000Y-91102660D01*
X153190000Y-84277660D02*
X153190000Y-88877660D01*
X154090000Y-84277660D02*
X154090000Y-88877660D01*
X146740000Y-87027660D02*
X146740000Y-90527660D01*
X147340000Y-86477660D02*
X147340000Y-91077660D01*
X154690000Y-84277660D02*
X154690000Y-88877660D01*
X149865000Y-91102660D02*
X151140000Y-90077660D01*
X150340000Y-86227660D02*
X150340000Y-90677660D01*
X147190000Y-86627660D02*
X147190000Y-90977660D01*
X151990000Y-84327660D02*
X151990000Y-88877660D01*
X151290000Y-85277660D02*
X151290000Y-89427660D01*
X155640000Y-84677660D02*
X155640000Y-88427660D01*
X149440000Y-86477660D02*
X149440000Y-91027660D01*
X154890000Y-88902660D02*
X152315000Y-88902660D01*
X149740000Y-86427660D02*
X149740000Y-91077660D01*
X146290000Y-87477660D02*
X147315000Y-86452660D01*
X146890000Y-86877660D02*
X146890000Y-90677660D01*
X152890000Y-84277660D02*
X152890000Y-88877660D01*
X154540000Y-84277660D02*
X154540000Y-88877660D01*
X147940000Y-86477660D02*
X147940000Y-91077660D01*
X153940000Y-84277660D02*
X153940000Y-88877660D01*
X152290000Y-84277660D02*
X152290000Y-88877660D01*
X148690000Y-86477660D02*
X148690000Y-91077660D01*
X148240000Y-86477660D02*
X148240000Y-91077660D01*
X150190000Y-86277660D02*
X150190000Y-90827660D01*
X149140000Y-86477660D02*
X149140000Y-91077660D01*
X151840000Y-84427660D02*
X151840000Y-88977660D01*
X148540000Y-86477660D02*
X148540000Y-91077660D01*
X152140000Y-84277660D02*
X152140000Y-88877660D01*
X153490000Y-84277660D02*
X153490000Y-88877660D01*
X147640000Y-86477660D02*
X147640000Y-91077660D01*
X152440000Y-84277660D02*
X152440000Y-88827660D01*
X147490000Y-86477660D02*
X147490000Y-91077660D01*
X149290000Y-86452660D02*
X147315000Y-86452660D01*
X153640000Y-84277660D02*
X153640000Y-88877660D01*
X150490000Y-86127660D02*
X150490000Y-90577660D01*
X155890000Y-87902660D02*
X155890000Y-85252660D01*
X146590000Y-87227660D02*
X146590000Y-90377660D01*
X150790000Y-85927660D02*
X150790000Y-90327660D01*
X154840000Y-84277660D02*
X154840000Y-88877660D01*
X146290000Y-90077660D02*
X146290000Y-87477660D01*
X155290000Y-84377660D02*
X155290000Y-88777660D01*
X151390000Y-85077660D02*
X151390000Y-89227660D01*
X152289005Y-84253873D02*
G75*
G03*
X151427801Y-84955756I38795J-926887D01*
G01*
X155890000Y-85252660D02*
G75*
G03*
X154890000Y-84252660I-1000000J0D01*
G01*
X149290000Y-86452660D02*
G75*
G03*
X151427801Y-84955756I0J2275000D01*
G01*
X152315000Y-88902660D02*
G75*
G03*
X151140000Y-90077660I0J-1175000D01*
G01*
X154890000Y-88902660D02*
G75*
G03*
X155890000Y-87902660I0J1000000D01*
G01*
%TO.C,SW4:10*%
X131290000Y-84630000D02*
X131290000Y-89080000D01*
X130990000Y-84780000D02*
X130990000Y-89330000D01*
X133390000Y-82680000D02*
X133390000Y-87230000D01*
X136390000Y-82880000D02*
X136390000Y-87080000D01*
X127390000Y-85730000D02*
X127390000Y-88630000D01*
X136490000Y-82980000D02*
X136490000Y-86930000D01*
X133240000Y-82680000D02*
X133240000Y-87280000D01*
X135940000Y-82680000D02*
X135940000Y-87230000D01*
X127240000Y-88480000D02*
X128265000Y-89505000D01*
X132340000Y-83480000D02*
X132340000Y-87630000D01*
X134740000Y-82680000D02*
X134740000Y-87280000D01*
X131740000Y-84330000D02*
X131740000Y-88730000D01*
X128590000Y-84880000D02*
X128590000Y-89480000D01*
X132940000Y-82730000D02*
X132940000Y-87280000D01*
X131890000Y-84180000D02*
X131890000Y-88630000D01*
X132140000Y-83830000D02*
X132140000Y-87980000D01*
X131440000Y-84530000D02*
X131440000Y-88980000D01*
X133840000Y-82680000D02*
X133840000Y-87280000D01*
X129490000Y-84880000D02*
X129490000Y-89480000D01*
X130815000Y-89505000D02*
X128265000Y-89505000D01*
X133540000Y-82680000D02*
X133540000Y-87280000D01*
X131590000Y-84430000D02*
X131590000Y-88830000D01*
X130815000Y-89505000D02*
X132090000Y-88480000D01*
X130840000Y-84830000D02*
X130840000Y-89430000D01*
X132540000Y-83080000D02*
X132540000Y-87480000D01*
X127990000Y-85130000D02*
X127990000Y-89230000D01*
X133990000Y-82680000D02*
X133990000Y-87280000D01*
X128740000Y-84880000D02*
X128740000Y-89480000D01*
X127690000Y-85430000D02*
X127690000Y-88930000D01*
X135190000Y-82680000D02*
X135190000Y-87280000D01*
X135040000Y-82680000D02*
X135040000Y-87280000D01*
X134140000Y-82680000D02*
X134140000Y-87280000D01*
X132240000Y-83680000D02*
X132240000Y-87830000D01*
X127240000Y-88480000D02*
X127240000Y-85880000D01*
X132640000Y-82930000D02*
X132640000Y-87430000D01*
X135340000Y-82680000D02*
X135340000Y-87280000D01*
X134440000Y-82680000D02*
X134440000Y-87280000D01*
X127840000Y-85280000D02*
X127840000Y-89080000D01*
X133090000Y-82680000D02*
X133090000Y-87280000D01*
X136090000Y-82730000D02*
X136090000Y-87230000D01*
X129640000Y-84880000D02*
X129640000Y-89480000D01*
X127540000Y-85630000D02*
X127540000Y-88780000D01*
X129040000Y-84880000D02*
X129040000Y-89480000D01*
X134590000Y-82680000D02*
X134590000Y-87280000D01*
X130090000Y-84880000D02*
X130090000Y-89480000D01*
X135840000Y-82655000D02*
X133240000Y-82655000D01*
X129940000Y-84880000D02*
X129940000Y-89480000D01*
X135490000Y-82680000D02*
X135490000Y-87280000D01*
X136240000Y-82780000D02*
X136240000Y-87180000D01*
X135790000Y-82680000D02*
X135790000Y-87280000D01*
X132440000Y-83330000D02*
X132440000Y-87530000D01*
X131140000Y-84680000D02*
X131140000Y-89230000D01*
X128440000Y-84880000D02*
X128440000Y-89480000D01*
X136840000Y-86305000D02*
X136840000Y-83655000D01*
X128890000Y-84880000D02*
X128890000Y-89480000D01*
X130240000Y-84855000D02*
X128265000Y-84855000D01*
X136590000Y-83080000D02*
X136590000Y-86830000D01*
X129340000Y-84880000D02*
X129340000Y-89480000D01*
X133690000Y-82680000D02*
X133690000Y-87280000D01*
X130390000Y-84880000D02*
X130390000Y-89430000D01*
X130240000Y-84880000D02*
X130240000Y-89480000D01*
X135840000Y-87305000D02*
X133265000Y-87305000D01*
X135640000Y-82680000D02*
X135640000Y-87280000D01*
X134890000Y-82680000D02*
X134890000Y-87280000D01*
X129190000Y-84880000D02*
X129190000Y-89480000D01*
X130540000Y-84830000D02*
X130540000Y-89480000D01*
X136690000Y-83230000D02*
X136690000Y-86780000D01*
X132040000Y-84030000D02*
X132040000Y-88480000D01*
X129790000Y-84880000D02*
X129790000Y-89480000D01*
X134290000Y-82680000D02*
X134290000Y-87280000D01*
X128140000Y-85030000D02*
X128140000Y-89380000D01*
X128290000Y-84880000D02*
X128290000Y-89480000D01*
X127240000Y-85880000D02*
X128265000Y-84855000D01*
X132790000Y-82830000D02*
X132790000Y-87380000D01*
X130690000Y-84830000D02*
X130690000Y-89480000D01*
X136840000Y-83655000D02*
G75*
G03*
X135840000Y-82655000I-1000000J0D01*
G01*
X135840000Y-87305000D02*
G75*
G03*
X136840000Y-86305000I0J1000000D01*
G01*
X130240000Y-84855000D02*
G75*
G03*
X132377801Y-83358096I0J2275000D01*
G01*
X133265000Y-87305000D02*
G75*
G03*
X132090000Y-88480000I0J-1175000D01*
G01*
X133239005Y-82656213D02*
G75*
G03*
X132377801Y-83358096I38795J-926887D01*
G01*
%TO.C,SW4:9*%
X115390000Y-84277660D02*
X115390000Y-88877660D01*
X111190000Y-86452660D02*
X109215000Y-86452660D01*
X112090000Y-86277660D02*
X112090000Y-90827660D01*
X117640000Y-84827660D02*
X117640000Y-88377660D01*
X116740000Y-84277660D02*
X116740000Y-88877660D01*
X113190000Y-85277660D02*
X113190000Y-89427660D01*
X108190000Y-87477660D02*
X109215000Y-86452660D01*
X113890000Y-84327660D02*
X113890000Y-88877660D01*
X108190000Y-90077660D02*
X109215000Y-91102660D01*
X112690000Y-85927660D02*
X112690000Y-90327660D01*
X112840000Y-85777660D02*
X112840000Y-90227660D01*
X117540000Y-84677660D02*
X117540000Y-88427660D01*
X111765000Y-91102660D02*
X113040000Y-90077660D01*
X111340000Y-86477660D02*
X111340000Y-91027660D01*
X112990000Y-85627660D02*
X112990000Y-90077660D01*
X111940000Y-86377660D02*
X111940000Y-90927660D01*
X116790000Y-88902660D02*
X114215000Y-88902660D01*
X116440000Y-84277660D02*
X116440000Y-88877660D01*
X109090000Y-86627660D02*
X109090000Y-90977660D01*
X117040000Y-84327660D02*
X117040000Y-88827660D01*
X114190000Y-84277660D02*
X114190000Y-88877660D01*
X116140000Y-84277660D02*
X116140000Y-88877660D01*
X117440000Y-84577660D02*
X117440000Y-88527660D01*
X114490000Y-84277660D02*
X114490000Y-88877660D01*
X113290000Y-85077660D02*
X113290000Y-89227660D01*
X116590000Y-84277660D02*
X116590000Y-88877660D01*
X116790000Y-84252660D02*
X114190000Y-84252660D01*
X110290000Y-86477660D02*
X110290000Y-91077660D01*
X112540000Y-86027660D02*
X112540000Y-90427660D01*
X109690000Y-86477660D02*
X109690000Y-91077660D01*
X114790000Y-84277660D02*
X114790000Y-88877660D01*
X109540000Y-86477660D02*
X109540000Y-91077660D01*
X113390000Y-84927660D02*
X113390000Y-89127660D01*
X108190000Y-90077660D02*
X108190000Y-87477660D01*
X114640000Y-84277660D02*
X114640000Y-88877660D01*
X109390000Y-86477660D02*
X109390000Y-91077660D01*
X108490000Y-87227660D02*
X108490000Y-90377660D01*
X114340000Y-84277660D02*
X114340000Y-88827660D01*
X111640000Y-86427660D02*
X111640000Y-91077660D01*
X113090000Y-85427660D02*
X113090000Y-89577660D01*
X115240000Y-84277660D02*
X115240000Y-88877660D01*
X111790000Y-86427660D02*
X111790000Y-91027660D01*
X115540000Y-84277660D02*
X115540000Y-88877660D01*
X112390000Y-86127660D02*
X112390000Y-90577660D01*
X113740000Y-84427660D02*
X113740000Y-88977660D01*
X110440000Y-86477660D02*
X110440000Y-91077660D01*
X109990000Y-86477660D02*
X109990000Y-91077660D01*
X108790000Y-86877660D02*
X108790000Y-90677660D01*
X114040000Y-84277660D02*
X114040000Y-88877660D01*
X111190000Y-86477660D02*
X111190000Y-91077660D01*
X110890000Y-86477660D02*
X110890000Y-91077660D01*
X113490000Y-84677660D02*
X113490000Y-89077660D01*
X110590000Y-86477660D02*
X110590000Y-91077660D01*
X117190000Y-84377660D02*
X117190000Y-88777660D01*
X115990000Y-84277660D02*
X115990000Y-88877660D01*
X117790000Y-87902660D02*
X117790000Y-85252660D01*
X110740000Y-86477660D02*
X110740000Y-91077660D01*
X113590000Y-84527660D02*
X113590000Y-89027660D01*
X111040000Y-86477660D02*
X111040000Y-91077660D01*
X109840000Y-86477660D02*
X109840000Y-91077660D01*
X116890000Y-84277660D02*
X116890000Y-88827660D01*
X115090000Y-84277660D02*
X115090000Y-88877660D01*
X111765000Y-91102660D02*
X109215000Y-91102660D01*
X112240000Y-86227660D02*
X112240000Y-90677660D01*
X108640000Y-87027660D02*
X108640000Y-90527660D01*
X109240000Y-86477660D02*
X109240000Y-91077660D01*
X117340000Y-84477660D02*
X117340000Y-88677660D01*
X116290000Y-84277660D02*
X116290000Y-88877660D01*
X110140000Y-86477660D02*
X110140000Y-91077660D01*
X108340000Y-87327660D02*
X108340000Y-90227660D01*
X111490000Y-86427660D02*
X111490000Y-91077660D01*
X115690000Y-84277660D02*
X115690000Y-88877660D01*
X114940000Y-84277660D02*
X114940000Y-88877660D01*
X108940000Y-86727660D02*
X108940000Y-90827660D01*
X115840000Y-84277660D02*
X115840000Y-88877660D01*
X116790000Y-88902660D02*
G75*
G03*
X117790000Y-87902660I0J1000000D01*
G01*
X111190000Y-86452660D02*
G75*
G03*
X113327801Y-84955756I0J2275000D01*
G01*
X114215000Y-88902660D02*
G75*
G03*
X113040000Y-90077660I0J-1175000D01*
G01*
X114189005Y-84253873D02*
G75*
G03*
X113327801Y-84955756I38795J-926887D01*
G01*
X117790000Y-85252660D02*
G75*
G03*
X116790000Y-84252660I-1000000J0D01*
G01*
%TO.C,SW4:8*%
X94040000Y-86697660D02*
X94040000Y-90847660D01*
X97990000Y-85597660D02*
X97990000Y-90097660D01*
X92715000Y-92372660D02*
X93990000Y-91347660D01*
X89140000Y-88747660D02*
X90165000Y-87722660D01*
X92140000Y-87747660D02*
X92140000Y-92347660D01*
X94540000Y-85797660D02*
X94540000Y-90297660D01*
X90490000Y-87747660D02*
X90490000Y-92347660D01*
X93190000Y-87497660D02*
X93190000Y-91947660D01*
X92590000Y-87697660D02*
X92590000Y-92347660D01*
X95140000Y-85547660D02*
X95140000Y-90147660D01*
X98590000Y-86097660D02*
X98590000Y-89647660D01*
X92140000Y-87722660D02*
X90165000Y-87722660D01*
X92440000Y-87697660D02*
X92440000Y-92347660D01*
X91990000Y-87747660D02*
X91990000Y-92347660D01*
X96790000Y-85547660D02*
X96790000Y-90147660D01*
X89440000Y-88497660D02*
X89440000Y-91647660D01*
X91390000Y-87747660D02*
X91390000Y-92347660D01*
X97090000Y-85547660D02*
X97090000Y-90147660D01*
X89140000Y-91347660D02*
X89140000Y-88747660D01*
X89290000Y-88597660D02*
X89290000Y-91497660D01*
X96640000Y-85547660D02*
X96640000Y-90147660D01*
X91090000Y-87747660D02*
X91090000Y-92347660D01*
X97390000Y-85547660D02*
X97390000Y-90147660D01*
X90340000Y-87747660D02*
X90340000Y-92347660D01*
X95740000Y-85547660D02*
X95740000Y-90147660D01*
X96040000Y-85547660D02*
X96040000Y-90147660D01*
X98290000Y-85747660D02*
X98290000Y-89947660D01*
X93340000Y-87397660D02*
X93340000Y-91847660D01*
X94340000Y-86197660D02*
X94340000Y-90397660D01*
X90640000Y-87747660D02*
X90640000Y-92347660D01*
X91690000Y-87747660D02*
X91690000Y-92347660D01*
X94990000Y-85547660D02*
X94990000Y-90147660D01*
X97740000Y-85522660D02*
X95140000Y-85522660D01*
X95590000Y-85547660D02*
X95590000Y-90147660D01*
X94690000Y-85697660D02*
X94690000Y-90247660D01*
X96340000Y-85547660D02*
X96340000Y-90147660D01*
X91240000Y-87747660D02*
X91240000Y-92347660D01*
X97690000Y-85547660D02*
X97690000Y-90147660D01*
X98490000Y-85947660D02*
X98490000Y-89697660D01*
X93790000Y-87047660D02*
X93790000Y-91497660D01*
X94240000Y-86347660D02*
X94240000Y-90497660D01*
X90790000Y-87747660D02*
X90790000Y-92347660D01*
X90040000Y-87897660D02*
X90040000Y-92247660D01*
X95440000Y-85547660D02*
X95440000Y-90147660D01*
X98740000Y-89172660D02*
X98740000Y-86522660D01*
X92740000Y-87697660D02*
X92740000Y-92297660D01*
X89590000Y-88297660D02*
X89590000Y-91797660D01*
X98140000Y-85647660D02*
X98140000Y-90047660D01*
X90190000Y-87747660D02*
X90190000Y-92347660D01*
X97840000Y-85547660D02*
X97840000Y-90097660D01*
X89740000Y-88147660D02*
X89740000Y-91947660D01*
X93040000Y-87547660D02*
X93040000Y-92097660D01*
X93490000Y-87297660D02*
X93490000Y-91697660D01*
X97240000Y-85547660D02*
X97240000Y-90147660D01*
X91540000Y-87747660D02*
X91540000Y-92347660D01*
X98390000Y-85847660D02*
X98390000Y-89797660D01*
X92715000Y-92372660D02*
X90165000Y-92372660D01*
X97740000Y-90172660D02*
X95165000Y-90172660D01*
X91840000Y-87747660D02*
X91840000Y-92347660D01*
X95290000Y-85547660D02*
X95290000Y-90097660D01*
X94840000Y-85597660D02*
X94840000Y-90147660D01*
X95890000Y-85547660D02*
X95890000Y-90147660D01*
X94140000Y-86547660D02*
X94140000Y-90697660D01*
X92890000Y-87647660D02*
X92890000Y-92197660D01*
X92290000Y-87747660D02*
X92290000Y-92297660D01*
X89890000Y-87997660D02*
X89890000Y-92097660D01*
X90940000Y-87747660D02*
X90940000Y-92347660D01*
X93940000Y-86897660D02*
X93940000Y-91347660D01*
X97540000Y-85547660D02*
X97540000Y-90147660D01*
X96490000Y-85547660D02*
X96490000Y-90147660D01*
X96190000Y-85547660D02*
X96190000Y-90147660D01*
X96940000Y-85547660D02*
X96940000Y-90147660D01*
X89140000Y-91347660D02*
X90165000Y-92372660D01*
X93640000Y-87197660D02*
X93640000Y-91597660D01*
X94440000Y-85947660D02*
X94440000Y-90347660D01*
X97740000Y-90172660D02*
G75*
G03*
X98740000Y-89172660I0J1000000D01*
G01*
X95139005Y-85523873D02*
G75*
G03*
X94277801Y-86225756I38795J-926887D01*
G01*
X95165000Y-90172660D02*
G75*
G03*
X93990000Y-91347660I0J-1175000D01*
G01*
X92140000Y-87722660D02*
G75*
G03*
X94277801Y-86225756I0J2275000D01*
G01*
X98740000Y-86522660D02*
G75*
G03*
X97740000Y-85522660I-1000000J0D01*
G01*
%TO.C,SW4:7*%
X75990000Y-89710160D02*
X80590000Y-89710160D01*
X73840000Y-82360160D02*
X78340000Y-82360160D01*
X76740000Y-90910160D02*
X79890000Y-90910160D01*
X75440000Y-86710160D02*
X79840000Y-86710160D01*
X75990000Y-88060160D02*
X80540000Y-88060160D01*
X73790000Y-84610160D02*
X78390000Y-84610160D01*
X75990000Y-89860160D02*
X80590000Y-89860160D01*
X75940000Y-87610160D02*
X80540000Y-87610160D01*
X73790000Y-84760160D02*
X78390000Y-84760160D01*
X75790000Y-87310160D02*
X80340000Y-87310160D01*
X75540000Y-86860160D02*
X79940000Y-86860160D01*
X76840000Y-91060160D02*
X79740000Y-91060160D01*
X75990000Y-89560160D02*
X80590000Y-89560160D01*
X75990000Y-89410160D02*
X80590000Y-89410160D01*
X74190000Y-81860160D02*
X77940000Y-81860160D01*
X75890000Y-87460160D02*
X80440000Y-87460160D01*
X75990000Y-89110160D02*
X80590000Y-89110160D01*
X75990000Y-90010160D02*
X80590000Y-90010160D01*
X76240000Y-90460160D02*
X80340000Y-90460160D01*
X73790000Y-83710160D02*
X78390000Y-83710160D01*
X74590000Y-86110160D02*
X78740000Y-86110160D01*
X77415000Y-81610160D02*
X74765000Y-81610160D01*
X78415000Y-82610160D02*
X78415000Y-85185160D01*
X73790000Y-83860160D02*
X78390000Y-83860160D01*
X73790000Y-84310160D02*
X78390000Y-84310160D01*
X75940000Y-87760160D02*
X80590000Y-87760160D01*
X73790000Y-84160160D02*
X78390000Y-84160160D01*
X73790000Y-85060160D02*
X78340000Y-85060160D01*
X75990000Y-88660160D02*
X80590000Y-88660160D01*
X73940000Y-85660160D02*
X78490000Y-85660160D01*
X73790000Y-83260160D02*
X78390000Y-83260160D01*
X73840000Y-85510160D02*
X78390000Y-85510160D01*
X74040000Y-85810160D02*
X78540000Y-85810160D01*
X75740000Y-87160160D02*
X80190000Y-87160160D01*
X74190000Y-85910160D02*
X78590000Y-85910160D01*
X79590000Y-91210160D02*
X76990000Y-91210160D01*
X73790000Y-84460160D02*
X78390000Y-84460160D01*
X73890000Y-82210160D02*
X78290000Y-82210160D01*
X79590000Y-91210160D02*
X80615000Y-90185160D01*
X76140000Y-90310160D02*
X80490000Y-90310160D01*
X73790000Y-85210160D02*
X78390000Y-85210160D01*
X74090000Y-81960160D02*
X78040000Y-81960160D01*
X80615000Y-87635160D02*
X79590000Y-86360160D01*
X75640000Y-87010160D02*
X80090000Y-87010160D01*
X73790000Y-82660160D02*
X78390000Y-82660160D01*
X73790000Y-84010160D02*
X78390000Y-84010160D01*
X73790000Y-83410160D02*
X78390000Y-83410160D01*
X73790000Y-82960160D02*
X78390000Y-82960160D01*
X75940000Y-87910160D02*
X80590000Y-87910160D01*
X76990000Y-91210160D02*
X75965000Y-90185160D01*
X73765000Y-82610160D02*
X73765000Y-85210160D01*
X74340000Y-81760160D02*
X77890000Y-81760160D01*
X75990000Y-90160160D02*
X80590000Y-90160160D01*
X73790000Y-85360160D02*
X78390000Y-85360160D01*
X73790000Y-82810160D02*
X78390000Y-82810160D01*
X75990000Y-88360160D02*
X80590000Y-88360160D01*
X73790000Y-82510160D02*
X78340000Y-82510160D01*
X80615000Y-87635160D02*
X80615000Y-90185160D01*
X73790000Y-83110160D02*
X78390000Y-83110160D01*
X73790000Y-84910160D02*
X78390000Y-84910160D01*
X75990000Y-88810160D02*
X80590000Y-88810160D01*
X75990000Y-88960160D02*
X80590000Y-88960160D01*
X76540000Y-90760160D02*
X80040000Y-90760160D01*
X76390000Y-90610160D02*
X80190000Y-90610160D01*
X75965000Y-88210160D02*
X75965000Y-90185160D01*
X74790000Y-86210160D02*
X78940000Y-86210160D01*
X75290000Y-86560160D02*
X79740000Y-86560160D01*
X75990000Y-88210160D02*
X80590000Y-88210160D01*
X74940000Y-86310160D02*
X79090000Y-86310160D01*
X74440000Y-86010160D02*
X78640000Y-86010160D01*
X73990000Y-82060160D02*
X78190000Y-82060160D01*
X75990000Y-89260160D02*
X80590000Y-89260160D01*
X75990000Y-88510160D02*
X80590000Y-88510160D01*
X73790000Y-83560160D02*
X78390000Y-83560160D01*
X75140000Y-86410160D02*
X79590000Y-86410160D01*
X78415000Y-82610160D02*
G75*
G03*
X77415000Y-81610160I-1000000J0D01*
G01*
X75965000Y-88210160D02*
G75*
G03*
X74468096Y-86072359I-2275000J0D01*
G01*
X74765000Y-81610160D02*
G75*
G03*
X73765000Y-82610160I0J-1000000D01*
G01*
X73766213Y-85211155D02*
G75*
G03*
X74468096Y-86072359I926887J38795D01*
G01*
X78415000Y-85185160D02*
G75*
G03*
X79590000Y-86360160I1175000J0D01*
G01*
%TO.C,SW0:10*%
X84523306Y-151453423D02*
X88692322Y-149509379D01*
X85293180Y-152749492D02*
X89235619Y-150911103D01*
X82515137Y-149631403D02*
X86276315Y-147877537D01*
X83137339Y-149782617D02*
X87125093Y-147923097D01*
X80564254Y-148168852D02*
X84733270Y-146224808D01*
X88800298Y-152107136D02*
X89296080Y-150744987D01*
X88800298Y-152107136D02*
X86443898Y-153205944D01*
X80500861Y-148032906D02*
X84669877Y-146088862D01*
X83708117Y-150178485D02*
X87831818Y-148255572D01*
X83970849Y-150386985D02*
X88139865Y-148442941D01*
X80817825Y-148712637D02*
X84986841Y-146768593D01*
X80627647Y-148304799D02*
X84796663Y-146360755D01*
X79930327Y-146809391D02*
X84099343Y-144865347D01*
X84097634Y-150658877D02*
X88311966Y-148693702D01*
X80183898Y-147353175D02*
X84352914Y-145409131D01*
X86443898Y-153205944D02*
X85081749Y-152710162D01*
X83599409Y-150063670D02*
X87632479Y-148183019D01*
X82738661Y-149637510D02*
X86771730Y-147756859D01*
X81666359Y-149585844D02*
X85654113Y-147726323D01*
X82938000Y-149710064D02*
X86971069Y-147829412D01*
X79954755Y-145915297D02*
X83353409Y-144330479D01*
X79886538Y-146774641D02*
X80985346Y-149131041D01*
X84396521Y-151181531D02*
X88565537Y-149237487D01*
X81008003Y-149120476D02*
X85177019Y-147176432D01*
X84967055Y-152405047D02*
X89136071Y-150461003D01*
X80048440Y-145761274D02*
X83265832Y-144260979D01*
X79830779Y-146359290D02*
X83818534Y-144499770D01*
X80944611Y-148984529D02*
X85068311Y-147061616D01*
X80120505Y-147217229D02*
X84289521Y-145273185D01*
X86244559Y-153133390D02*
X88872851Y-151907798D01*
X84034242Y-150522931D02*
X88248573Y-148557756D01*
X81334128Y-149464921D02*
X85457828Y-147542008D01*
X83445386Y-149969986D02*
X87478455Y-148089335D01*
X84100869Y-144809466D02*
X85189111Y-147143208D01*
X85093841Y-152676939D02*
X89262857Y-150732895D01*
X80691040Y-148440745D02*
X84860055Y-146496701D01*
X84713484Y-151861262D02*
X88882500Y-149917218D01*
X85030448Y-152540993D02*
X89199464Y-150596949D01*
X80881218Y-148848583D02*
X85050234Y-146904539D01*
X84586699Y-151589370D02*
X88755715Y-149645326D01*
X85447203Y-152843177D02*
X89163065Y-151110442D01*
X85646542Y-152915730D02*
X89090512Y-151309781D01*
X84247078Y-150920204D02*
X85081749Y-152710162D01*
X84903663Y-152269100D02*
X89072678Y-150325056D01*
X82113406Y-149598058D02*
X85874583Y-147844192D01*
X84776877Y-151997208D02*
X88945893Y-150053164D01*
X79993720Y-146945337D02*
X84162735Y-145001293D01*
X81180104Y-149371237D02*
X85303805Y-147448324D01*
X86090535Y-153039706D02*
X88945405Y-151708459D01*
X84459913Y-151317477D02*
X88628929Y-149373433D01*
X84840270Y-152133154D02*
X89009286Y-150189110D01*
X82771943Y-144325776D02*
X80370228Y-145445715D01*
X79906386Y-146048190D02*
X83486302Y-144378848D01*
X88218403Y-148433902D02*
X89296080Y-150744987D01*
X81935198Y-149570820D02*
X85741691Y-147795823D01*
X79866934Y-146673445D02*
X83990634Y-144750532D01*
X85845881Y-152988284D02*
X89017958Y-151509120D01*
X88218403Y-148433902D02*
X86750599Y-147711544D01*
X84333128Y-151045585D02*
X88502144Y-149101541D01*
X83291362Y-149876302D02*
X87279116Y-148016781D01*
X81488151Y-149558606D02*
X85566536Y-147656824D01*
X80437469Y-147896960D02*
X84606485Y-145952916D01*
X82336929Y-149604165D02*
X86098107Y-147850299D01*
X80247290Y-147489122D02*
X84416306Y-145545078D01*
X79858017Y-146181082D02*
X83664510Y-144406086D01*
X80057112Y-147081283D02*
X84226128Y-145137239D01*
X84269735Y-150909639D02*
X88438751Y-148965595D01*
X79848857Y-146516368D02*
X83927242Y-144614585D01*
X80310683Y-147625068D02*
X84479699Y-145681024D01*
X80374076Y-147761014D02*
X84543092Y-145816970D01*
X80754432Y-148576691D02*
X84923448Y-146632647D01*
X84206343Y-150773693D02*
X88330043Y-148850780D01*
X84650092Y-151725316D02*
X88819108Y-149781272D01*
X81071396Y-149256422D02*
X85240412Y-147312378D01*
X83862141Y-150272170D02*
X87985841Y-148349257D01*
X84100871Y-144809465D02*
G75*
G03*
X82771943Y-144325776I-906309J-422619D01*
G01*
X80370228Y-145445715D02*
G75*
G03*
X79886538Y-146774641I422618J-906308D01*
G01*
X85189111Y-147143208D02*
G75*
G03*
X86750599Y-147711544I1064912J496576D01*
G01*
X84247077Y-150920204D02*
G75*
G03*
X81986948Y-149615318I-2061850J-961457D01*
G01*
X80986865Y-149131430D02*
G75*
G03*
X81986948Y-149615318I823650J426879D01*
G01*
%TO.C,SW0:12*%
X57506190Y-176327919D02*
X59365710Y-180315674D01*
X58104206Y-176545580D02*
X59604501Y-179762972D01*
X52819895Y-180830268D02*
X54763939Y-184999284D01*
X54227970Y-179235801D02*
X56108621Y-183268870D01*
X53686995Y-180205257D02*
X55609908Y-184328958D01*
X55424735Y-177188180D02*
X57368779Y-181357195D01*
X55968520Y-176934609D02*
X57912564Y-181103625D01*
X57192035Y-176364074D02*
X59114948Y-180487774D01*
X59056014Y-180598009D02*
X56722272Y-181686251D01*
X57090839Y-176383678D02*
X54734439Y-177482486D01*
X56240412Y-176807823D02*
X58184456Y-180976839D01*
X51758344Y-185297438D02*
X50659536Y-182941038D01*
X54261315Y-178834069D02*
X56015181Y-182595247D01*
X54609058Y-177568536D02*
X56553102Y-181737552D01*
X50732090Y-182741699D02*
X51957682Y-185369991D01*
X52548003Y-180957053D02*
X54492047Y-185126069D01*
X51188541Y-181590981D02*
X53132585Y-185759997D01*
X57349112Y-176345997D02*
X59250895Y-180424382D01*
X55431578Y-184715543D02*
X56153936Y-183247739D01*
X53478495Y-180467989D02*
X55422539Y-184637005D01*
X54494243Y-177677244D02*
X56417156Y-181800945D01*
X50825774Y-182587675D02*
X52157021Y-185442545D01*
X55431578Y-184715543D02*
X53120493Y-185793220D01*
X57684398Y-176355157D02*
X59459394Y-180161650D01*
X51324487Y-181527588D02*
X53268531Y-185696604D01*
X56104466Y-176871216D02*
X58048510Y-181040232D01*
X56648251Y-176617645D02*
X58592295Y-180786661D01*
X56512305Y-176681038D02*
X58456349Y-180850054D01*
X56920143Y-176490860D02*
X58864187Y-180659875D01*
X51460433Y-181464195D02*
X53404477Y-185633211D01*
X51868272Y-181274017D02*
X53812316Y-185443033D01*
X51115988Y-181790320D02*
X52954377Y-185732759D01*
X52955841Y-180766875D02*
X54899885Y-184935891D01*
X54155416Y-179435140D02*
X56036068Y-183468209D01*
X55560681Y-177124787D02*
X57504725Y-181293803D01*
X57056089Y-176427467D02*
X59000133Y-180596483D01*
X53342549Y-180531382D02*
X55307724Y-184745713D01*
X51596380Y-181400803D02*
X53540424Y-185569818D01*
X54745004Y-177505143D02*
X56689048Y-181674159D01*
X52945276Y-180744218D02*
X51155318Y-181578889D01*
X50659536Y-182941038D02*
X51155318Y-181578889D01*
X55016897Y-177378358D02*
X56960941Y-181547374D01*
X54279636Y-178163499D02*
X56139157Y-182151253D01*
X54880951Y-177441751D02*
X56803864Y-181565451D01*
X53895494Y-179942526D02*
X55776145Y-183975595D01*
X55696628Y-177061394D02*
X57640672Y-181230410D01*
X54306874Y-177985291D02*
X56208656Y-182063676D01*
X54082863Y-179634479D02*
X55942383Y-183622233D01*
X56376358Y-176744430D02*
X58320402Y-180913446D01*
X57817290Y-176403526D02*
X59486632Y-179983442D01*
X55152843Y-177314965D02*
X57096887Y-181483981D01*
X57950183Y-176451895D02*
X59535001Y-179850549D01*
X59539704Y-179269083D02*
X58419765Y-176867368D01*
X52412057Y-181020446D02*
X54356101Y-185189462D01*
X53593310Y-180359281D02*
X55516223Y-184482981D01*
X54234077Y-179012277D02*
X55987943Y-182773455D01*
X52140164Y-181147232D02*
X54084208Y-185316248D01*
X51022303Y-181944343D02*
X52755038Y-185660205D01*
X52276110Y-181083839D02*
X54220154Y-185252855D01*
X51758344Y-185297438D02*
X53120493Y-185793220D01*
X54294660Y-178432338D02*
X56069657Y-182238831D01*
X52683949Y-180893661D02*
X54627993Y-185062677D01*
X50949750Y-182143682D02*
X52555699Y-185587652D01*
X55288789Y-177251572D02*
X57232833Y-181420588D01*
X52004218Y-181210624D02*
X53948262Y-185379640D01*
X56784197Y-176554252D02*
X58728241Y-180723268D01*
X53801810Y-180096549D02*
X55682461Y-184129619D01*
X54400559Y-177831268D02*
X56323472Y-181954968D01*
X55832574Y-176998001D02*
X57776618Y-181167017D01*
X53206603Y-180594774D02*
X55171778Y-184809106D01*
X50877196Y-182343021D02*
X52356360Y-185515098D01*
X53091787Y-180703483D02*
X55014700Y-184827183D01*
X54267422Y-178610546D02*
X56021288Y-182371723D01*
X51732326Y-181337410D02*
X53676370Y-185506426D01*
X53989178Y-179788502D02*
X55848699Y-183776256D01*
X54734050Y-177484005D02*
G75*
G03*
X54250162Y-178484088I426879J-823650D01*
G01*
X58419765Y-176867368D02*
G75*
G03*
X57090839Y-176383678I-906308J-422618D01*
G01*
X56722272Y-181686251D02*
G75*
G03*
X56153936Y-183247739I496576J-1064912D01*
G01*
X59056015Y-180598011D02*
G75*
G03*
X59539704Y-179269083I-422619J906309D01*
G01*
X52945276Y-180744217D02*
G75*
G03*
X54250162Y-178484088I-961457J2061850D01*
G01*
%TO.C,SW0:11*%
X62584477Y-154568168D02*
X66662862Y-152666385D01*
X63363267Y-156356599D02*
X67532283Y-154412555D01*
X63173089Y-155948760D02*
X67342105Y-154004716D01*
X67068748Y-159097385D02*
X71237764Y-157153341D01*
X68382162Y-160967530D02*
X71826132Y-159361581D01*
X66335029Y-158115470D02*
X70368099Y-156234819D01*
X68581501Y-161040084D02*
X71753578Y-159560920D01*
X66833254Y-158710677D02*
X71047586Y-156745502D01*
X63807016Y-157308222D02*
X67976032Y-155364178D01*
X67195533Y-159369277D02*
X71364549Y-157425233D01*
X66597761Y-158323970D02*
X70721461Y-156401057D01*
X63426660Y-156492545D02*
X67595675Y-154548501D01*
X65474281Y-157689310D02*
X69507350Y-155808659D01*
X66026982Y-157928102D02*
X70014736Y-156068581D01*
X65507563Y-152377576D02*
X63105848Y-153497515D01*
X67766068Y-160592793D02*
X71935084Y-158648749D01*
X63236481Y-156084706D02*
X67405497Y-154140662D01*
X64849026Y-157649858D02*
X68610203Y-155895992D01*
X71535918Y-160158936D02*
X72031700Y-158796787D01*
X63680231Y-157036329D02*
X67803931Y-155113416D01*
X70954023Y-156485702D02*
X69486219Y-155763344D01*
X67132141Y-159233331D02*
X71301157Y-157289287D01*
X63915724Y-157423037D02*
X68039425Y-155500124D01*
X67449104Y-159913062D02*
X71618120Y-157969018D01*
X67702675Y-160456847D02*
X71871691Y-158512803D01*
X63109696Y-155812814D02*
X67278712Y-153868770D01*
X67639283Y-160320900D02*
X71808298Y-158376856D01*
X62784060Y-153813074D02*
X66001452Y-152312779D01*
X66836489Y-152861266D02*
X67924731Y-155195008D01*
X71535918Y-160158936D02*
X69179518Y-161257744D01*
X67385712Y-159777116D02*
X71554728Y-157833072D01*
X62665947Y-154861191D02*
X66834963Y-152917147D01*
X66982698Y-158972004D02*
X67817369Y-160761962D01*
X66941963Y-158825493D02*
X71065663Y-156902580D01*
X64401979Y-157637644D02*
X68389733Y-155778123D01*
X65673620Y-157761864D02*
X69706689Y-155881212D01*
X66443737Y-158230285D02*
X70567438Y-156307372D01*
X62856125Y-155269029D02*
X67025141Y-153324985D01*
X67005355Y-158961439D02*
X71174371Y-157017395D01*
X62729340Y-154997137D02*
X66898355Y-153053093D01*
X62622158Y-154826441D02*
X63720966Y-157182841D01*
X68980179Y-161185190D02*
X71608471Y-159959598D01*
X68028800Y-160801292D02*
X71971239Y-158962903D01*
X63046303Y-155676868D02*
X67215319Y-153732824D01*
X66769862Y-158574731D02*
X70984193Y-156609556D01*
X66181006Y-158021786D02*
X70214075Y-156141135D01*
X62566399Y-154411090D02*
X66554154Y-152551570D01*
X63490052Y-156628491D02*
X67659068Y-154684447D01*
X67322319Y-159641170D02*
X71491335Y-157697126D01*
X63743623Y-157172276D02*
X67912639Y-155228232D01*
X64069748Y-157516721D02*
X68193448Y-155593808D01*
X67258926Y-159505223D02*
X71427942Y-157561179D01*
X63299874Y-156220652D02*
X67468890Y-154276608D01*
X63553445Y-156764437D02*
X67722461Y-154820393D01*
X70954023Y-156485702D02*
X72031700Y-158796787D01*
X67829461Y-160728739D02*
X71998477Y-158784695D01*
X62690375Y-153967097D02*
X66089029Y-152382279D01*
X69179518Y-161257744D02*
X67817369Y-160761962D01*
X68182823Y-160894977D02*
X71898685Y-159162242D01*
X66706469Y-158438785D02*
X70875485Y-156494741D01*
X67575890Y-160184954D02*
X71744906Y-158240910D01*
X62642006Y-154099990D02*
X66221922Y-152430648D01*
X65072549Y-157655965D02*
X68833727Y-155902099D01*
X62602554Y-154725245D02*
X66726254Y-152802332D01*
X62982910Y-155540922D02*
X67151926Y-153596878D01*
X63616838Y-156900383D02*
X67785854Y-154956339D01*
X62593637Y-154232882D02*
X66400130Y-152457886D01*
X62919518Y-155404975D02*
X67088534Y-153460931D01*
X64670818Y-157622620D02*
X68477311Y-155847623D01*
X64223771Y-157610406D02*
X68302156Y-155708624D01*
X67512497Y-160049008D02*
X71681513Y-158104964D01*
X65872959Y-157834417D02*
X69860713Y-155974897D01*
X68826155Y-161091506D02*
X71681025Y-159760259D01*
X62792732Y-155133083D02*
X66961748Y-153189039D01*
X65250757Y-157683203D02*
X69011935Y-155929337D01*
X66836491Y-152861265D02*
G75*
G03*
X65507563Y-152377576I-906309J-422619D01*
G01*
X66982697Y-158972004D02*
G75*
G03*
X64722568Y-157667118I-2061850J-961457D01*
G01*
X63105848Y-153497515D02*
G75*
G03*
X62622158Y-154826441I422618J-906308D01*
G01*
X67924731Y-155195008D02*
G75*
G03*
X69486219Y-155763344I1064912J496576D01*
G01*
X63722485Y-157183230D02*
G75*
G03*
X64722568Y-157667118I823650J426879D01*
G01*
%TO.C,SW0:9*%
X46557258Y-160301616D02*
X48501302Y-164470632D01*
X49297312Y-159079077D02*
X51199095Y-163157462D01*
X48460505Y-159414118D02*
X50404549Y-163583134D01*
X43136741Y-164324061D02*
X45080785Y-168493077D01*
X47508881Y-159857867D02*
X49452925Y-164026883D01*
X43816472Y-164007097D02*
X45760516Y-168176113D01*
X45541510Y-163092361D02*
X47464423Y-167216061D01*
X42897950Y-164876762D02*
X44503899Y-168320732D01*
X45426695Y-163201069D02*
X47370739Y-167370085D01*
X48868343Y-159223940D02*
X50812387Y-163392955D01*
X45154803Y-163327854D02*
X47119978Y-167542186D01*
X51487904Y-162002163D02*
X50367965Y-159600448D01*
X43064188Y-164523400D02*
X44902577Y-168465839D01*
X43408633Y-164197275D02*
X45352677Y-168366291D01*
X46182277Y-161745357D02*
X47936143Y-165506535D01*
X48596451Y-159350725D02*
X50540495Y-163519741D01*
X48052666Y-159604296D02*
X49996710Y-163773312D01*
X46031063Y-162367559D02*
X47890583Y-166355313D01*
X46227836Y-160896579D02*
X48087357Y-164884333D01*
X44224310Y-163816919D02*
X46168354Y-167985935D01*
X48732397Y-159287332D02*
X50676441Y-163456348D01*
X42773974Y-165320755D02*
X44105221Y-168175625D01*
X49039039Y-159116758D02*
X46682639Y-160215566D01*
X49140235Y-159097154D02*
X51063148Y-163220854D01*
X50052406Y-159278660D02*
X51552701Y-162496052D01*
X42970503Y-164677423D02*
X44703238Y-168393285D01*
X44360257Y-163753526D02*
X46304301Y-167922542D01*
X47379778Y-167448623D02*
X45068693Y-168526300D01*
X43544580Y-164133883D02*
X45488624Y-168302898D01*
X46255074Y-160718371D02*
X48156856Y-164796756D01*
X45039987Y-163436563D02*
X46962900Y-167560263D01*
X47644828Y-159794474D02*
X49588872Y-163963490D01*
X44768095Y-163563348D02*
X46712139Y-167732364D01*
X43952418Y-163943704D02*
X45896462Y-168112720D01*
X46442443Y-160410324D02*
X48365356Y-164534025D01*
X46242860Y-161165418D02*
X48017857Y-164971911D01*
X45843694Y-162675606D02*
X47724345Y-166708675D01*
X46209515Y-161567149D02*
X47963381Y-165328327D01*
X42607736Y-165674118D02*
X43103518Y-164311969D01*
X51004214Y-163331089D02*
X48670472Y-164419331D01*
X43272687Y-164260668D02*
X45216731Y-168429684D01*
X42680290Y-165474779D02*
X43905882Y-168103071D01*
X45937378Y-162521582D02*
X47796899Y-166509336D01*
X47379778Y-167448623D02*
X48102136Y-165980819D01*
X47916720Y-159667689D02*
X49860764Y-163836705D01*
X47101043Y-160048045D02*
X49045087Y-164217061D01*
X46965097Y-160111438D02*
X48909141Y-164280454D01*
X44496203Y-163690133D02*
X46440247Y-167859149D01*
X46348759Y-160564348D02*
X48271672Y-164688048D01*
X47236989Y-159984652D02*
X49181033Y-164153668D01*
X46215622Y-161343626D02*
X47969488Y-165104803D01*
X48324558Y-159477510D02*
X50268602Y-163646526D01*
X44893476Y-163477298D02*
X43103518Y-164311969D01*
X44088364Y-163880312D02*
X46032408Y-168049328D01*
X47372935Y-159921260D02*
X49316979Y-164090275D01*
X44632149Y-163626741D02*
X46576193Y-167795757D01*
X43706544Y-168030518D02*
X45068693Y-168526300D01*
X46829151Y-160174831D02*
X48752064Y-164298531D01*
X47780774Y-159731081D02*
X49724818Y-163900097D01*
X49632598Y-159088237D02*
X51407594Y-162894730D01*
X48188612Y-159540903D02*
X50132656Y-163709919D01*
X45290749Y-163264462D02*
X47255924Y-167478793D01*
X42825396Y-165076101D02*
X44304560Y-168248178D01*
X43680526Y-164070490D02*
X45624570Y-168239506D01*
X46693204Y-160238223D02*
X48637248Y-164407239D01*
X44904041Y-163499955D02*
X46848085Y-167668971D01*
X45750010Y-162829629D02*
X47630661Y-166862699D01*
X49454390Y-159060999D02*
X51313910Y-163048754D01*
X46176170Y-161968881D02*
X48056821Y-166001950D01*
X49765490Y-159136606D02*
X51434832Y-162716522D01*
X46103616Y-162168220D02*
X47984268Y-166201289D01*
X49004289Y-159160547D02*
X50948333Y-163329563D01*
X49898383Y-159184975D02*
X51483201Y-162583629D01*
X43706544Y-168030518D02*
X42607736Y-165674118D01*
X45635195Y-162938337D02*
X47558108Y-167062038D01*
X46682250Y-160217085D02*
G75*
G03*
X46198362Y-161217168I426879J-823650D01*
G01*
X44893476Y-163477297D02*
G75*
G03*
X46198362Y-161217168I-961457J2061850D01*
G01*
X48670472Y-164419331D02*
G75*
G03*
X48102136Y-165980819I496576J-1064912D01*
G01*
X51004215Y-163331091D02*
G75*
G03*
X51487904Y-162002163I-422619J906309D01*
G01*
X50367965Y-159600448D02*
G75*
G03*
X49039039Y-159116758I-906308J-422618D01*
G01*
%TO.C,SW0:7*%
X37105543Y-146063474D02*
X39070718Y-150277806D01*
X38160255Y-144302769D02*
X39914121Y-148063947D01*
X43438644Y-144737783D02*
X42318705Y-142336068D01*
X37241489Y-146000082D02*
X39206664Y-150214413D01*
X36844216Y-146212918D02*
X35054258Y-147047589D01*
X41405130Y-141796619D02*
X43264650Y-145784374D01*
X37700750Y-145565249D02*
X39581401Y-149598319D01*
X38779891Y-142910451D02*
X40702804Y-147034151D01*
X35495320Y-146869503D02*
X37439364Y-151038518D01*
X38054356Y-144903840D02*
X39935008Y-148936909D01*
X38393183Y-143145944D02*
X40316096Y-147269645D01*
X39731514Y-142466701D02*
X41675558Y-146635717D01*
X36310997Y-146489146D02*
X38255041Y-150658162D01*
X36990727Y-146172183D02*
X38913640Y-150295883D01*
X37981803Y-145103179D02*
X39841323Y-149090933D01*
X39595568Y-142530094D02*
X41539612Y-146699110D01*
X39323675Y-142656880D02*
X41267719Y-146825895D01*
X42003146Y-142014280D02*
X43503441Y-145231672D01*
X36582889Y-146362361D02*
X38526933Y-150531377D01*
X36718835Y-146298968D02*
X38662879Y-150467984D01*
X40989779Y-141852378D02*
X38633379Y-142951186D01*
X40819083Y-141959560D02*
X42763127Y-146128575D01*
X37888118Y-145257202D02*
X39747639Y-149244956D01*
X38915837Y-142847058D02*
X40859881Y-147016074D01*
X39459621Y-142593487D02*
X41403665Y-146762503D01*
X38126910Y-144704501D02*
X40007561Y-148737570D01*
X42954954Y-146066709D02*
X40621212Y-147154951D01*
X39330518Y-150184243D02*
X37019433Y-151261920D01*
X40955029Y-141896167D02*
X42899073Y-146065183D01*
X41849123Y-141920595D02*
X43433941Y-145319249D01*
X38299499Y-143299968D02*
X40222412Y-147423668D01*
X34724714Y-148056375D02*
X36055961Y-150911245D01*
X37377435Y-145936689D02*
X39321479Y-150105705D01*
X35657284Y-150766138D02*
X37019433Y-151261920D01*
X36039104Y-146615932D02*
X37983148Y-150784948D01*
X36446943Y-146425753D02*
X38390987Y-150594769D01*
X37492250Y-145827981D02*
X39415163Y-149951681D01*
X35767212Y-146742717D02*
X37711256Y-150911733D01*
X38178576Y-143632199D02*
X40038097Y-147619953D01*
X40139352Y-142276523D02*
X42083396Y-146445539D01*
X38205814Y-143453991D02*
X40107596Y-147532376D01*
X36175050Y-146552539D02*
X38119094Y-150721555D01*
X36854781Y-146235575D02*
X38798825Y-150404591D01*
X38507998Y-143037236D02*
X40452042Y-147206252D01*
X38193600Y-143901038D02*
X39968597Y-147707531D01*
X39051783Y-142783665D02*
X40995827Y-146952681D01*
X41090975Y-141832774D02*
X43013888Y-145956474D01*
X40275298Y-142213130D02*
X42219342Y-146382146D01*
X35903158Y-146679324D02*
X37847202Y-150848340D01*
X37794434Y-145411226D02*
X39675085Y-149444295D01*
X41716230Y-141872226D02*
X43385572Y-145452142D01*
X35223427Y-146996288D02*
X37167471Y-151165304D01*
X34921243Y-147413043D02*
X36653978Y-151128905D01*
X40411245Y-142149738D02*
X42355289Y-146318754D01*
X38643944Y-142973843D02*
X40587988Y-147142859D01*
X35631266Y-146806110D02*
X37575310Y-150975126D01*
X39187729Y-142720272D02*
X41131773Y-146889288D01*
X40683137Y-142022952D02*
X42627181Y-146191968D01*
X40003406Y-142339916D02*
X41947450Y-146508932D01*
X39330518Y-150184243D02*
X40052876Y-148716439D01*
X41583338Y-141823857D02*
X43358334Y-145630350D01*
X39867460Y-142403309D02*
X41811504Y-146572325D01*
X34848690Y-147612382D02*
X36454639Y-151056352D01*
X34631030Y-148210399D02*
X35856622Y-150838691D01*
X34776136Y-147811721D02*
X36255300Y-150983798D01*
X35087481Y-147059681D02*
X37031525Y-151228697D01*
X38133017Y-144480977D02*
X39886883Y-148242155D01*
X38166362Y-144079246D02*
X39920228Y-147840423D01*
X37585935Y-145673957D02*
X39508848Y-149797658D01*
X35359373Y-146932895D02*
X37303417Y-151101911D01*
X41248052Y-141814697D02*
X43149835Y-145893082D01*
X35014928Y-147259020D02*
X36853317Y-151201459D01*
X35657284Y-150766138D02*
X34558476Y-148409738D01*
X40547191Y-142086345D02*
X42491235Y-146255361D01*
X34558476Y-148409738D02*
X35054258Y-147047589D01*
X42318705Y-142336068D02*
G75*
G03*
X40989779Y-141852378I-906308J-422618D01*
G01*
X40621212Y-147154951D02*
G75*
G03*
X40052876Y-148716439I496576J-1064912D01*
G01*
X38632990Y-142952705D02*
G75*
G03*
X38149102Y-143952788I426879J-823650D01*
G01*
X36844216Y-146212917D02*
G75*
G03*
X38149102Y-143952788I-961457J2061850D01*
G01*
X42954955Y-146066711D02*
G75*
G03*
X43438644Y-144737783I-422619J906309D01*
G01*
%TO.C,SW1:11*%
X153340000Y-141427660D02*
X153340000Y-146027660D01*
X153790000Y-141427660D02*
X153790000Y-146027660D01*
X148540000Y-143627660D02*
X148540000Y-148227660D01*
X151690000Y-141677660D02*
X151690000Y-146177660D01*
X148840000Y-143627660D02*
X148840000Y-148227660D01*
X146290000Y-147227660D02*
X147315000Y-148252660D01*
X148690000Y-143627660D02*
X148690000Y-148227660D01*
X150640000Y-143177660D02*
X150640000Y-147577660D01*
X147040000Y-143877660D02*
X147040000Y-147977660D01*
X154690000Y-141427660D02*
X154690000Y-146027660D01*
X148240000Y-143627660D02*
X148240000Y-148227660D01*
X152590000Y-141427660D02*
X152590000Y-146027660D01*
X155290000Y-141527660D02*
X155290000Y-145927660D01*
X148090000Y-143627660D02*
X148090000Y-148227660D01*
X151190000Y-142577660D02*
X151190000Y-146727660D01*
X153490000Y-141427660D02*
X153490000Y-146027660D01*
X147190000Y-143777660D02*
X147190000Y-148127660D01*
X152440000Y-141427660D02*
X152440000Y-145977660D01*
X149290000Y-143627660D02*
X149290000Y-148227660D01*
X151090000Y-142777660D02*
X151090000Y-147227660D01*
X151990000Y-141477660D02*
X151990000Y-146027660D01*
X146290000Y-144627660D02*
X147315000Y-143602660D01*
X154890000Y-146052660D02*
X152315000Y-146052660D01*
X154390000Y-141427660D02*
X154390000Y-146027660D01*
X149865000Y-148252660D02*
X151140000Y-147227660D01*
X150190000Y-143427660D02*
X150190000Y-147977660D01*
X148990000Y-143627660D02*
X148990000Y-148227660D01*
X149140000Y-143627660D02*
X149140000Y-148227660D01*
X154240000Y-141427660D02*
X154240000Y-146027660D01*
X154090000Y-141427660D02*
X154090000Y-146027660D01*
X155640000Y-141827660D02*
X155640000Y-145577660D01*
X155890000Y-145052660D02*
X155890000Y-142402660D01*
X153190000Y-141427660D02*
X153190000Y-146027660D01*
X152890000Y-141427660D02*
X152890000Y-146027660D01*
X153940000Y-141427660D02*
X153940000Y-146027660D01*
X153040000Y-141427660D02*
X153040000Y-146027660D01*
X147940000Y-143627660D02*
X147940000Y-148227660D01*
X152140000Y-141427660D02*
X152140000Y-146027660D01*
X155740000Y-141977660D02*
X155740000Y-145527660D01*
X146890000Y-144027660D02*
X146890000Y-147827660D01*
X147640000Y-143627660D02*
X147640000Y-148227660D01*
X148390000Y-143627660D02*
X148390000Y-148227660D01*
X151290000Y-142427660D02*
X151290000Y-146577660D01*
X151490000Y-142077660D02*
X151490000Y-146277660D01*
X146290000Y-147227660D02*
X146290000Y-144627660D01*
X150940000Y-142927660D02*
X150940000Y-147377660D01*
X150340000Y-143377660D02*
X150340000Y-147827660D01*
X152740000Y-141427660D02*
X152740000Y-146027660D01*
X146590000Y-144377660D02*
X146590000Y-147527660D01*
X149740000Y-143577660D02*
X149740000Y-148227660D01*
X154890000Y-141402660D02*
X152290000Y-141402660D01*
X146440000Y-144477660D02*
X146440000Y-147377660D01*
X155140000Y-141477660D02*
X155140000Y-145977660D01*
X150490000Y-143277660D02*
X150490000Y-147727660D01*
X149590000Y-143577660D02*
X149590000Y-148227660D01*
X147340000Y-143627660D02*
X147340000Y-148227660D01*
X155540000Y-141727660D02*
X155540000Y-145677660D01*
X150040000Y-143527660D02*
X150040000Y-148077660D01*
X154990000Y-141427660D02*
X154990000Y-145977660D01*
X153640000Y-141427660D02*
X153640000Y-146027660D01*
X155440000Y-141627660D02*
X155440000Y-145827660D01*
X151590000Y-141827660D02*
X151590000Y-146227660D01*
X149890000Y-143577660D02*
X149890000Y-148177660D01*
X149290000Y-143602660D02*
X147315000Y-143602660D01*
X146740000Y-144177660D02*
X146740000Y-147677660D01*
X149865000Y-148252660D02*
X147315000Y-148252660D01*
X147790000Y-143627660D02*
X147790000Y-148227660D01*
X154540000Y-141427660D02*
X154540000Y-146027660D01*
X149440000Y-143627660D02*
X149440000Y-148177660D01*
X154840000Y-141427660D02*
X154840000Y-146027660D01*
X150790000Y-143077660D02*
X150790000Y-147477660D01*
X151840000Y-141577660D02*
X151840000Y-146127660D01*
X147490000Y-143627660D02*
X147490000Y-148227660D01*
X152290000Y-141427660D02*
X152290000Y-146027660D01*
X151390000Y-142227660D02*
X151390000Y-146377660D01*
X154890000Y-146052660D02*
G75*
G03*
X155890000Y-145052660I0J1000000D01*
G01*
X149290000Y-143602660D02*
G75*
G03*
X151427801Y-142105756I0J2275000D01*
G01*
X152315000Y-146052660D02*
G75*
G03*
X151140000Y-147227660I0J-1175000D01*
G01*
X155890000Y-142402660D02*
G75*
G03*
X154890000Y-141402660I-1000000J0D01*
G01*
X152289005Y-141403873D02*
G75*
G03*
X151427801Y-142105756I38795J-926887D01*
G01*
%TO.C,SW0:8*%
X56180217Y-134797798D02*
X58124261Y-138966814D01*
X52487807Y-138947028D02*
X54431851Y-143116044D01*
X57131840Y-134354049D02*
X59075884Y-138523065D01*
X56316163Y-134734405D02*
X58260207Y-138903421D01*
X58083463Y-133910300D02*
X60027507Y-138079315D01*
X52113070Y-139563122D02*
X53719019Y-143007092D01*
X52759700Y-138820243D02*
X54703744Y-142989258D01*
X51895410Y-140161139D02*
X53121002Y-142789431D01*
X57267786Y-134290656D02*
X59211830Y-138459672D01*
X51822856Y-140360478D02*
X52318638Y-138998329D01*
X55470194Y-135404731D02*
X57371976Y-139483116D01*
X52351861Y-139010421D02*
X54295905Y-143179437D01*
X60703024Y-136688523D02*
X59583085Y-134286808D01*
X58219409Y-133846907D02*
X60163453Y-138015923D01*
X56594898Y-142134983D02*
X54283813Y-143212660D01*
X60219334Y-138017449D02*
X57885592Y-139105691D01*
X58355355Y-133783514D02*
X60278268Y-137907214D01*
X51989094Y-140007115D02*
X53320341Y-142861985D01*
X56594898Y-142134983D02*
X57317256Y-140667179D01*
X53711323Y-138376493D02*
X55655367Y-142545509D01*
X55397397Y-136431717D02*
X57151263Y-140192895D01*
X53575377Y-138439886D02*
X55519421Y-142608902D01*
X55563879Y-135250708D02*
X57486792Y-139374408D01*
X56588055Y-134607620D02*
X58532099Y-138776635D01*
X55908324Y-134924583D02*
X57852368Y-139093599D01*
X58254159Y-133803118D02*
X55897759Y-134901926D01*
X53303484Y-138566672D02*
X55247528Y-142735688D01*
X56044271Y-134861191D02*
X57967184Y-138984891D01*
X56859948Y-134480834D02*
X58803992Y-138649850D01*
X55152498Y-137207942D02*
X57012019Y-141195696D01*
X57675625Y-134100478D02*
X59619669Y-138269494D01*
X54505869Y-137950822D02*
X56471044Y-142165153D01*
X52040516Y-139762461D02*
X53519680Y-142934538D01*
X52921664Y-142716878D02*
X54283813Y-143212660D01*
X55657563Y-135096684D02*
X57580476Y-139220385D01*
X58669510Y-133747359D02*
X60529030Y-137735114D01*
X52921664Y-142716878D02*
X51822856Y-140360478D01*
X57811571Y-134037085D02*
X59755615Y-138206101D01*
X52185623Y-139363783D02*
X53918358Y-143079645D01*
X54850315Y-137624697D02*
X56773228Y-141748398D01*
X55442956Y-135582939D02*
X57302477Y-139570693D01*
X54641815Y-137887429D02*
X56585859Y-142056445D01*
X54108596Y-138163658D02*
X52318638Y-138998329D01*
X57539678Y-134163870D02*
X59483722Y-138332886D01*
X54369923Y-138014214D02*
X56335098Y-142228546D01*
X52279308Y-139209760D02*
X54117697Y-143152199D01*
X54255107Y-138122923D02*
X56178020Y-142246623D01*
X53847269Y-138313101D02*
X55791313Y-142482117D01*
X53031592Y-138693457D02*
X54975636Y-142862473D01*
X57403732Y-134227263D02*
X59347776Y-138396279D01*
X52895646Y-138756850D02*
X54839690Y-142925866D01*
X54756630Y-137778721D02*
X56679543Y-141902421D01*
X58980610Y-133822966D02*
X60649952Y-137402882D01*
X58847718Y-133774597D02*
X60622714Y-137581090D01*
X55457980Y-135851778D02*
X57232977Y-139658271D01*
X55772378Y-134987976D02*
X57716422Y-139156992D01*
X59113503Y-133871335D02*
X60698321Y-137269989D01*
X59267526Y-133965020D02*
X60767821Y-137182412D01*
X56452109Y-134671012D02*
X58396153Y-138840028D01*
X57947517Y-133973692D02*
X59891561Y-138142708D01*
X55318736Y-136854580D02*
X57199388Y-140887649D01*
X55391290Y-136655241D02*
X57271941Y-140688310D01*
X54965130Y-137515989D02*
X56845781Y-141549059D01*
X55058814Y-137361966D02*
X56939465Y-141395035D01*
X53439430Y-138503279D02*
X55383474Y-142672295D01*
X54119161Y-138186315D02*
X56063205Y-142355331D01*
X56724001Y-134544227D02*
X58668045Y-138713243D01*
X55430742Y-136029986D02*
X57184608Y-139791163D01*
X58512432Y-133765437D02*
X60414215Y-137843822D01*
X52623753Y-138883635D02*
X54567797Y-143052651D01*
X53983215Y-138249708D02*
X55927259Y-142418724D01*
X55246183Y-137053919D02*
X57105703Y-141041673D01*
X53167538Y-138630064D02*
X55111582Y-142799080D01*
X56995894Y-134417441D02*
X58939938Y-138586457D01*
X55424635Y-136253509D02*
X57178501Y-140014687D01*
X54108596Y-138163657D02*
G75*
G03*
X55413482Y-135903528I-961457J2061850D01*
G01*
X57885592Y-139105691D02*
G75*
G03*
X57317256Y-140667179I496576J-1064912D01*
G01*
X55897370Y-134903445D02*
G75*
G03*
X55413482Y-135903528I426879J-823650D01*
G01*
X60219335Y-138017451D02*
G75*
G03*
X60703024Y-136688523I-422619J906309D01*
G01*
X59583085Y-134286808D02*
G75*
G03*
X58254159Y-133803118I-906308J-422618D01*
G01*
%TO.C,SW5:13*%
X197702500Y-68405200D02*
X197702500Y-73005200D01*
X197852500Y-68405200D02*
X197852500Y-72955200D01*
X194052500Y-69555200D02*
X194052500Y-73705200D01*
X192902500Y-70505200D02*
X192902500Y-75055200D01*
X198302500Y-68605200D02*
X198302500Y-72805200D01*
X195302500Y-68405200D02*
X195302500Y-72955200D01*
X193202500Y-70355200D02*
X193202500Y-74805200D01*
X195602500Y-68405200D02*
X195602500Y-73005200D01*
X196802500Y-68405200D02*
X196802500Y-73005200D01*
X196952500Y-68405200D02*
X196952500Y-73005200D01*
X196652500Y-68405200D02*
X196652500Y-73005200D01*
X195002500Y-68405200D02*
X195002500Y-73005200D01*
X197252500Y-68405200D02*
X197252500Y-73005200D01*
X193802500Y-69905200D02*
X193802500Y-74355200D01*
X189902500Y-70855200D02*
X189902500Y-74955200D01*
X192727500Y-75230200D02*
X190177500Y-75230200D01*
X198402500Y-68705200D02*
X198402500Y-72655200D01*
X196502500Y-68405200D02*
X196502500Y-73005200D01*
X192727500Y-75230200D02*
X194002500Y-74205200D01*
X195452500Y-68405200D02*
X195452500Y-73005200D01*
X197102500Y-68405200D02*
X197102500Y-73005200D01*
X189452500Y-71355200D02*
X189452500Y-74505200D01*
X189752500Y-71005200D02*
X189752500Y-74805200D01*
X192302500Y-70605200D02*
X192302500Y-75155200D01*
X192152500Y-70580200D02*
X190177500Y-70580200D01*
X195752500Y-68405200D02*
X195752500Y-73005200D01*
X196352500Y-68405200D02*
X196352500Y-73005200D01*
X190202500Y-70605200D02*
X190202500Y-75205200D01*
X192452500Y-70555200D02*
X192452500Y-75205200D01*
X190352500Y-70605200D02*
X190352500Y-75205200D01*
X193952500Y-69755200D02*
X193952500Y-74205200D01*
X191252500Y-70605200D02*
X191252500Y-75205200D01*
X189152500Y-71605200D02*
X190177500Y-70580200D01*
X191702500Y-70605200D02*
X191702500Y-75205200D01*
X198002500Y-68455200D02*
X198002500Y-72955200D01*
X197752500Y-73030200D02*
X195177500Y-73030200D01*
X192152500Y-70605200D02*
X192152500Y-75205200D01*
X196202500Y-68405200D02*
X196202500Y-73005200D01*
X189302500Y-71455200D02*
X189302500Y-74355200D01*
X194352500Y-69055200D02*
X194352500Y-73255200D01*
X192752500Y-70555200D02*
X192752500Y-75155200D01*
X191102500Y-70605200D02*
X191102500Y-75205200D01*
X194552500Y-68655200D02*
X194552500Y-73155200D01*
X195902500Y-68405200D02*
X195902500Y-73005200D01*
X193352500Y-70255200D02*
X193352500Y-74705200D01*
X195152500Y-68405200D02*
X195152500Y-73005200D01*
X197402500Y-68405200D02*
X197402500Y-73005200D01*
X194152500Y-69405200D02*
X194152500Y-73555200D01*
X189602500Y-71155200D02*
X189602500Y-74655200D01*
X189152500Y-74205200D02*
X190177500Y-75230200D01*
X194852500Y-68455200D02*
X194852500Y-73005200D01*
X189152500Y-74205200D02*
X189152500Y-71605200D01*
X190502500Y-70605200D02*
X190502500Y-75205200D01*
X196052500Y-68405200D02*
X196052500Y-73005200D01*
X191552500Y-70605200D02*
X191552500Y-75205200D01*
X197752500Y-68380200D02*
X195152500Y-68380200D01*
X191402500Y-70605200D02*
X191402500Y-75205200D01*
X198502500Y-68805200D02*
X198502500Y-72555200D01*
X194702500Y-68555200D02*
X194702500Y-73105200D01*
X194252500Y-69205200D02*
X194252500Y-73355200D01*
X190052500Y-70755200D02*
X190052500Y-75105200D01*
X198152500Y-68505200D02*
X198152500Y-72905200D01*
X192002500Y-70605200D02*
X192002500Y-75205200D01*
X192602500Y-70555200D02*
X192602500Y-75205200D01*
X193502500Y-70155200D02*
X193502500Y-74555200D01*
X193652500Y-70055200D02*
X193652500Y-74455200D01*
X197552500Y-68405200D02*
X197552500Y-73005200D01*
X191852500Y-70605200D02*
X191852500Y-75205200D01*
X190952500Y-70605200D02*
X190952500Y-75205200D01*
X194452500Y-68805200D02*
X194452500Y-73205200D01*
X190652500Y-70605200D02*
X190652500Y-75205200D01*
X198752500Y-72030200D02*
X198752500Y-69380200D01*
X193052500Y-70405200D02*
X193052500Y-74955200D01*
X190802500Y-70605200D02*
X190802500Y-75205200D01*
X198602500Y-68955200D02*
X198602500Y-72505200D01*
X195177500Y-73030200D02*
G75*
G03*
X194002500Y-74205200I0J-1175000D01*
G01*
X197752500Y-73030200D02*
G75*
G03*
X198752500Y-72030200I0J1000000D01*
G01*
X195151505Y-68381413D02*
G75*
G03*
X194290301Y-69083296I38795J-926887D01*
G01*
X192152500Y-70580200D02*
G75*
G03*
X194290301Y-69083296I0J2275000D01*
G01*
X198752500Y-69380200D02*
G75*
G03*
X197752500Y-68380200I-1000000J0D01*
G01*
%TO.C,SW5:9*%
X112990000Y-66577660D02*
X112990000Y-71027660D01*
X113190000Y-66227660D02*
X113190000Y-70377660D01*
X109540000Y-67427660D02*
X109540000Y-72027660D01*
X113390000Y-65877660D02*
X113390000Y-70077660D01*
X108790000Y-67827660D02*
X108790000Y-71627660D01*
X113290000Y-66027660D02*
X113290000Y-70177660D01*
X116890000Y-65227660D02*
X116890000Y-69777660D01*
X111340000Y-67427660D02*
X111340000Y-71977660D01*
X114190000Y-65227660D02*
X114190000Y-69827660D01*
X111640000Y-67377660D02*
X111640000Y-72027660D01*
X111765000Y-72052660D02*
X113040000Y-71027660D01*
X109690000Y-67427660D02*
X109690000Y-72027660D01*
X111190000Y-67402660D02*
X109215000Y-67402660D01*
X110740000Y-67427660D02*
X110740000Y-72027660D01*
X112840000Y-66727660D02*
X112840000Y-71177660D01*
X112540000Y-66977660D02*
X112540000Y-71377660D01*
X108940000Y-67677660D02*
X108940000Y-71777660D01*
X110890000Y-67427660D02*
X110890000Y-72027660D01*
X109840000Y-67427660D02*
X109840000Y-72027660D01*
X109990000Y-67427660D02*
X109990000Y-72027660D01*
X108490000Y-68177660D02*
X108490000Y-71327660D01*
X113590000Y-65477660D02*
X113590000Y-69977660D01*
X116140000Y-65227660D02*
X116140000Y-69827660D01*
X117040000Y-65277660D02*
X117040000Y-69777660D01*
X115840000Y-65227660D02*
X115840000Y-69827660D01*
X114640000Y-65227660D02*
X114640000Y-69827660D01*
X108640000Y-67977660D02*
X108640000Y-71477660D01*
X115690000Y-65227660D02*
X115690000Y-69827660D01*
X111940000Y-67327660D02*
X111940000Y-71877660D01*
X111490000Y-67377660D02*
X111490000Y-72027660D01*
X117190000Y-65327660D02*
X117190000Y-69727660D01*
X115240000Y-65227660D02*
X115240000Y-69827660D01*
X113890000Y-65277660D02*
X113890000Y-69827660D01*
X109090000Y-67577660D02*
X109090000Y-71927660D01*
X111040000Y-67427660D02*
X111040000Y-72027660D01*
X112390000Y-67077660D02*
X112390000Y-71527660D01*
X112240000Y-67177660D02*
X112240000Y-71627660D01*
X114940000Y-65227660D02*
X114940000Y-69827660D01*
X116590000Y-65227660D02*
X116590000Y-69827660D01*
X117540000Y-65627660D02*
X117540000Y-69377660D01*
X117790000Y-68852660D02*
X117790000Y-66202660D01*
X116440000Y-65227660D02*
X116440000Y-69827660D01*
X113490000Y-65627660D02*
X113490000Y-70027660D01*
X109240000Y-67427660D02*
X109240000Y-72027660D01*
X108340000Y-68277660D02*
X108340000Y-71177660D01*
X114790000Y-65227660D02*
X114790000Y-69827660D01*
X117340000Y-65427660D02*
X117340000Y-69627660D01*
X110290000Y-67427660D02*
X110290000Y-72027660D01*
X115090000Y-65227660D02*
X115090000Y-69827660D01*
X109390000Y-67427660D02*
X109390000Y-72027660D01*
X116790000Y-69852660D02*
X114215000Y-69852660D01*
X110140000Y-67427660D02*
X110140000Y-72027660D01*
X111190000Y-67427660D02*
X111190000Y-72027660D01*
X108190000Y-68427660D02*
X109215000Y-67402660D01*
X117640000Y-65777660D02*
X117640000Y-69327660D01*
X114340000Y-65227660D02*
X114340000Y-69777660D01*
X115990000Y-65227660D02*
X115990000Y-69827660D01*
X117440000Y-65527660D02*
X117440000Y-69477660D01*
X112690000Y-66877660D02*
X112690000Y-71277660D01*
X110440000Y-67427660D02*
X110440000Y-72027660D01*
X108190000Y-71027660D02*
X108190000Y-68427660D01*
X114490000Y-65227660D02*
X114490000Y-69827660D01*
X112090000Y-67227660D02*
X112090000Y-71777660D01*
X115540000Y-65227660D02*
X115540000Y-69827660D01*
X115390000Y-65227660D02*
X115390000Y-69827660D01*
X116790000Y-65202660D02*
X114190000Y-65202660D01*
X113740000Y-65377660D02*
X113740000Y-69927660D01*
X111765000Y-72052660D02*
X109215000Y-72052660D01*
X111790000Y-67377660D02*
X111790000Y-71977660D01*
X116290000Y-65227660D02*
X116290000Y-69827660D01*
X110590000Y-67427660D02*
X110590000Y-72027660D01*
X116740000Y-65227660D02*
X116740000Y-69827660D01*
X108190000Y-71027660D02*
X109215000Y-72052660D01*
X113090000Y-66377660D02*
X113090000Y-70527660D01*
X114040000Y-65227660D02*
X114040000Y-69827660D01*
X114215000Y-69852660D02*
G75*
G03*
X113040000Y-71027660I0J-1175000D01*
G01*
X114189005Y-65203873D02*
G75*
G03*
X113327801Y-65905756I38795J-926887D01*
G01*
X116790000Y-69852660D02*
G75*
G03*
X117790000Y-68852660I0J1000000D01*
G01*
X111190000Y-67402660D02*
G75*
G03*
X113327801Y-65905756I0J2275000D01*
G01*
X117790000Y-66202660D02*
G75*
G03*
X116790000Y-65202660I-1000000J0D01*
G01*
%TO.C,SW5:10*%
X131740000Y-65280000D02*
X131740000Y-69680000D01*
X134290000Y-63630000D02*
X134290000Y-68230000D01*
X127240000Y-69430000D02*
X127240000Y-66830000D01*
X130240000Y-65805000D02*
X128265000Y-65805000D01*
X128440000Y-65830000D02*
X128440000Y-70430000D01*
X132140000Y-64780000D02*
X132140000Y-68930000D01*
X136240000Y-63730000D02*
X136240000Y-68130000D01*
X129790000Y-65830000D02*
X129790000Y-70430000D01*
X135340000Y-63630000D02*
X135340000Y-68230000D01*
X135640000Y-63630000D02*
X135640000Y-68230000D01*
X130390000Y-65830000D02*
X130390000Y-70380000D01*
X132540000Y-64030000D02*
X132540000Y-68430000D01*
X133840000Y-63630000D02*
X133840000Y-68230000D01*
X130815000Y-70455000D02*
X128265000Y-70455000D01*
X132040000Y-64980000D02*
X132040000Y-69430000D01*
X128290000Y-65830000D02*
X128290000Y-70430000D01*
X135490000Y-63630000D02*
X135490000Y-68230000D01*
X130815000Y-70455000D02*
X132090000Y-69430000D01*
X133240000Y-63630000D02*
X133240000Y-68230000D01*
X127390000Y-66680000D02*
X127390000Y-69580000D01*
X134590000Y-63630000D02*
X134590000Y-68230000D01*
X131590000Y-65380000D02*
X131590000Y-69780000D01*
X133390000Y-63630000D02*
X133390000Y-68180000D01*
X133090000Y-63630000D02*
X133090000Y-68230000D01*
X129340000Y-65830000D02*
X129340000Y-70430000D01*
X131890000Y-65130000D02*
X131890000Y-69580000D01*
X135840000Y-63605000D02*
X133240000Y-63605000D01*
X131440000Y-65480000D02*
X131440000Y-69930000D01*
X133540000Y-63630000D02*
X133540000Y-68230000D01*
X135190000Y-63630000D02*
X135190000Y-68230000D01*
X127240000Y-69430000D02*
X128265000Y-70455000D01*
X127240000Y-66830000D02*
X128265000Y-65805000D01*
X132640000Y-63880000D02*
X132640000Y-68380000D01*
X134140000Y-63630000D02*
X134140000Y-68230000D01*
X130690000Y-65780000D02*
X130690000Y-70430000D01*
X135840000Y-68255000D02*
X133265000Y-68255000D01*
X135940000Y-63630000D02*
X135940000Y-68180000D01*
X132790000Y-63780000D02*
X132790000Y-68330000D01*
X134740000Y-63630000D02*
X134740000Y-68230000D01*
X128740000Y-65830000D02*
X128740000Y-70430000D01*
X130240000Y-65830000D02*
X130240000Y-70430000D01*
X131140000Y-65630000D02*
X131140000Y-70180000D01*
X136490000Y-63930000D02*
X136490000Y-67880000D01*
X130840000Y-65780000D02*
X130840000Y-70380000D01*
X129190000Y-65830000D02*
X129190000Y-70430000D01*
X129640000Y-65830000D02*
X129640000Y-70430000D01*
X132340000Y-64430000D02*
X132340000Y-68580000D01*
X128890000Y-65830000D02*
X128890000Y-70430000D01*
X129940000Y-65830000D02*
X129940000Y-70430000D01*
X130540000Y-65780000D02*
X130540000Y-70430000D01*
X128590000Y-65830000D02*
X128590000Y-70430000D01*
X130090000Y-65830000D02*
X130090000Y-70430000D01*
X129040000Y-65830000D02*
X129040000Y-70430000D01*
X136590000Y-64030000D02*
X136590000Y-67780000D01*
X127990000Y-66080000D02*
X127990000Y-70180000D01*
X132440000Y-64280000D02*
X132440000Y-68480000D01*
X136840000Y-67255000D02*
X136840000Y-64605000D01*
X127540000Y-66580000D02*
X127540000Y-69730000D01*
X136690000Y-64180000D02*
X136690000Y-67730000D01*
X135790000Y-63630000D02*
X135790000Y-68230000D01*
X132940000Y-63680000D02*
X132940000Y-68230000D01*
X136390000Y-63830000D02*
X136390000Y-68030000D01*
X134890000Y-63630000D02*
X134890000Y-68230000D01*
X135040000Y-63630000D02*
X135040000Y-68230000D01*
X127840000Y-66230000D02*
X127840000Y-70030000D01*
X127690000Y-66380000D02*
X127690000Y-69880000D01*
X128140000Y-65980000D02*
X128140000Y-70330000D01*
X132240000Y-64630000D02*
X132240000Y-68780000D01*
X136090000Y-63680000D02*
X136090000Y-68180000D01*
X130990000Y-65730000D02*
X130990000Y-70280000D01*
X133990000Y-63630000D02*
X133990000Y-68230000D01*
X133690000Y-63630000D02*
X133690000Y-68230000D01*
X134440000Y-63630000D02*
X134440000Y-68230000D01*
X131290000Y-65580000D02*
X131290000Y-70030000D01*
X129490000Y-65830000D02*
X129490000Y-70430000D01*
X133265000Y-68255000D02*
G75*
G03*
X132090000Y-69430000I0J-1175000D01*
G01*
X130240000Y-65805000D02*
G75*
G03*
X132377801Y-64308096I0J2275000D01*
G01*
X133239005Y-63606213D02*
G75*
G03*
X132377801Y-64308096I38795J-926887D01*
G01*
X135840000Y-68255000D02*
G75*
G03*
X136840000Y-67255000I0J1000000D01*
G01*
X136840000Y-64605000D02*
G75*
G03*
X135840000Y-63605000I-1000000J0D01*
G01*
%TO.C,SW5:11*%
X153790000Y-65227660D02*
X153790000Y-69827660D01*
X155540000Y-65527660D02*
X155540000Y-69477660D01*
X151390000Y-66027660D02*
X151390000Y-70177660D01*
X151590000Y-65627660D02*
X151590000Y-70027660D01*
X151840000Y-65377660D02*
X151840000Y-69927660D01*
X147940000Y-67427660D02*
X147940000Y-72027660D01*
X154890000Y-65202660D02*
X152290000Y-65202660D01*
X155640000Y-65627660D02*
X155640000Y-69377660D01*
X154990000Y-65227660D02*
X154990000Y-69777660D01*
X149865000Y-72052660D02*
X151140000Y-71027660D01*
X154890000Y-69852660D02*
X152315000Y-69852660D01*
X152290000Y-65227660D02*
X152290000Y-69827660D01*
X153940000Y-65227660D02*
X153940000Y-69827660D01*
X152890000Y-65227660D02*
X152890000Y-69827660D01*
X151990000Y-65277660D02*
X151990000Y-69827660D01*
X153040000Y-65227660D02*
X153040000Y-69827660D01*
X150340000Y-67177660D02*
X150340000Y-71627660D01*
X154540000Y-65227660D02*
X154540000Y-69827660D01*
X147190000Y-67577660D02*
X147190000Y-71927660D01*
X151690000Y-65477660D02*
X151690000Y-69977660D01*
X151490000Y-65877660D02*
X151490000Y-70077660D01*
X155440000Y-65427660D02*
X155440000Y-69627660D01*
X152590000Y-65227660D02*
X152590000Y-69827660D01*
X155740000Y-65777660D02*
X155740000Y-69327660D01*
X148990000Y-67427660D02*
X148990000Y-72027660D01*
X149740000Y-67377660D02*
X149740000Y-72027660D01*
X153640000Y-65227660D02*
X153640000Y-69827660D01*
X153190000Y-65227660D02*
X153190000Y-69827660D01*
X147340000Y-67427660D02*
X147340000Y-72027660D01*
X146590000Y-68177660D02*
X146590000Y-71327660D01*
X148390000Y-67427660D02*
X148390000Y-72027660D01*
X146890000Y-67827660D02*
X146890000Y-71627660D01*
X149440000Y-67427660D02*
X149440000Y-71977660D01*
X149290000Y-67402660D02*
X147315000Y-67402660D01*
X148090000Y-67427660D02*
X148090000Y-72027660D01*
X146740000Y-67977660D02*
X146740000Y-71477660D01*
X152140000Y-65227660D02*
X152140000Y-69827660D01*
X149290000Y-67427660D02*
X149290000Y-72027660D01*
X152440000Y-65227660D02*
X152440000Y-69777660D01*
X149140000Y-67427660D02*
X149140000Y-72027660D01*
X155140000Y-65277660D02*
X155140000Y-69777660D01*
X154690000Y-65227660D02*
X154690000Y-69827660D01*
X147490000Y-67427660D02*
X147490000Y-72027660D01*
X146290000Y-71027660D02*
X147315000Y-72052660D01*
X154390000Y-65227660D02*
X154390000Y-69827660D01*
X149865000Y-72052660D02*
X147315000Y-72052660D01*
X146440000Y-68277660D02*
X146440000Y-71177660D01*
X151290000Y-66227660D02*
X151290000Y-70377660D01*
X153490000Y-65227660D02*
X153490000Y-69827660D01*
X146290000Y-71027660D02*
X146290000Y-68427660D01*
X153340000Y-65227660D02*
X153340000Y-69827660D01*
X155290000Y-65327660D02*
X155290000Y-69727660D01*
X154240000Y-65227660D02*
X154240000Y-69827660D01*
X154840000Y-65227660D02*
X154840000Y-69827660D01*
X152740000Y-65227660D02*
X152740000Y-69827660D01*
X148690000Y-67427660D02*
X148690000Y-72027660D01*
X151190000Y-66377660D02*
X151190000Y-70527660D01*
X149890000Y-67377660D02*
X149890000Y-71977660D01*
X147790000Y-67427660D02*
X147790000Y-72027660D01*
X154090000Y-65227660D02*
X154090000Y-69827660D01*
X155890000Y-68852660D02*
X155890000Y-66202660D01*
X148240000Y-67427660D02*
X148240000Y-72027660D01*
X150190000Y-67227660D02*
X150190000Y-71777660D01*
X146290000Y-68427660D02*
X147315000Y-67402660D01*
X150940000Y-66727660D02*
X150940000Y-71177660D01*
X150490000Y-67077660D02*
X150490000Y-71527660D01*
X151090000Y-66577660D02*
X151090000Y-71027660D01*
X147040000Y-67677660D02*
X147040000Y-71777660D01*
X150640000Y-66977660D02*
X150640000Y-71377660D01*
X148840000Y-67427660D02*
X148840000Y-72027660D01*
X147640000Y-67427660D02*
X147640000Y-72027660D01*
X150040000Y-67327660D02*
X150040000Y-71877660D01*
X150790000Y-66877660D02*
X150790000Y-71277660D01*
X149590000Y-67377660D02*
X149590000Y-72027660D01*
X148540000Y-67427660D02*
X148540000Y-72027660D01*
X154890000Y-69852660D02*
G75*
G03*
X155890000Y-68852660I0J1000000D01*
G01*
X152289005Y-65203873D02*
G75*
G03*
X151427801Y-65905756I38795J-926887D01*
G01*
X152315000Y-69852660D02*
G75*
G03*
X151140000Y-71027660I0J-1175000D01*
G01*
X149290000Y-67402660D02*
G75*
G03*
X151427801Y-65905756I0J2275000D01*
G01*
X155890000Y-66202660D02*
G75*
G03*
X154890000Y-65202660I-1000000J0D01*
G01*
%TO.C,SW5:12*%
X170540000Y-69055200D02*
X170540000Y-73255200D01*
X174340000Y-68505200D02*
X174340000Y-72905200D01*
X174790000Y-68955200D02*
X174790000Y-72505200D01*
X166090000Y-70855200D02*
X166090000Y-74955200D01*
X168640000Y-70555200D02*
X168640000Y-75205200D01*
X165340000Y-71605200D02*
X166365000Y-70580200D01*
X170740000Y-68655200D02*
X170740000Y-73155200D01*
X166540000Y-70605200D02*
X166540000Y-75205200D01*
X166840000Y-70605200D02*
X166840000Y-75205200D01*
X165940000Y-71005200D02*
X165940000Y-74805200D01*
X170440000Y-69205200D02*
X170440000Y-73355200D01*
X167140000Y-70605200D02*
X167140000Y-75205200D01*
X165640000Y-71355200D02*
X165640000Y-74505200D01*
X167740000Y-70605200D02*
X167740000Y-75205200D01*
X173590000Y-68405200D02*
X173590000Y-73005200D01*
X167290000Y-70605200D02*
X167290000Y-75205200D01*
X167890000Y-70605200D02*
X167890000Y-75205200D01*
X172540000Y-68405200D02*
X172540000Y-73005200D01*
X173290000Y-68405200D02*
X173290000Y-73005200D01*
X169390000Y-70355200D02*
X169390000Y-74805200D01*
X165340000Y-74205200D02*
X166365000Y-75230200D01*
X169990000Y-69905200D02*
X169990000Y-74355200D01*
X174590000Y-68705200D02*
X174590000Y-72655200D01*
X172690000Y-68405200D02*
X172690000Y-73005200D01*
X172090000Y-68405200D02*
X172090000Y-73005200D01*
X172390000Y-68405200D02*
X172390000Y-73005200D01*
X170140000Y-69755200D02*
X170140000Y-74205200D01*
X169690000Y-70155200D02*
X169690000Y-74555200D01*
X165340000Y-74205200D02*
X165340000Y-71605200D01*
X171640000Y-68405200D02*
X171640000Y-73005200D01*
X166390000Y-70605200D02*
X166390000Y-75205200D01*
X172840000Y-68405200D02*
X172840000Y-73005200D01*
X171490000Y-68405200D02*
X171490000Y-72955200D01*
X174490000Y-68605200D02*
X174490000Y-72805200D01*
X173940000Y-73030200D02*
X171365000Y-73030200D01*
X166690000Y-70605200D02*
X166690000Y-75205200D01*
X169540000Y-70255200D02*
X169540000Y-74705200D01*
X168915000Y-75230200D02*
X166365000Y-75230200D01*
X173440000Y-68405200D02*
X173440000Y-73005200D01*
X173890000Y-68405200D02*
X173890000Y-73005200D01*
X170340000Y-69405200D02*
X170340000Y-73555200D01*
X166990000Y-70605200D02*
X166990000Y-75205200D01*
X169240000Y-70405200D02*
X169240000Y-74955200D01*
X172990000Y-68405200D02*
X172990000Y-73005200D01*
X174040000Y-68405200D02*
X174040000Y-72955200D01*
X171340000Y-68405200D02*
X171340000Y-73005200D01*
X168190000Y-70605200D02*
X168190000Y-75205200D01*
X168790000Y-70555200D02*
X168790000Y-75205200D01*
X170890000Y-68555200D02*
X170890000Y-73105200D01*
X172240000Y-68405200D02*
X172240000Y-73005200D01*
X170640000Y-68805200D02*
X170640000Y-73205200D01*
X168040000Y-70605200D02*
X168040000Y-75205200D01*
X168940000Y-70555200D02*
X168940000Y-75155200D01*
X165790000Y-71155200D02*
X165790000Y-74655200D01*
X174690000Y-68805200D02*
X174690000Y-72555200D01*
X173140000Y-68405200D02*
X173140000Y-73005200D01*
X173940000Y-68380200D02*
X171340000Y-68380200D01*
X174940000Y-72030200D02*
X174940000Y-69380200D01*
X170240000Y-69555200D02*
X170240000Y-73705200D01*
X167440000Y-70605200D02*
X167440000Y-75205200D01*
X173740000Y-68405200D02*
X173740000Y-73005200D01*
X168915000Y-75230200D02*
X170190000Y-74205200D01*
X169090000Y-70505200D02*
X169090000Y-75055200D01*
X168340000Y-70580200D02*
X166365000Y-70580200D01*
X165490000Y-71455200D02*
X165490000Y-74355200D01*
X167590000Y-70605200D02*
X167590000Y-75205200D01*
X166240000Y-70755200D02*
X166240000Y-75105200D01*
X174190000Y-68455200D02*
X174190000Y-72955200D01*
X171790000Y-68405200D02*
X171790000Y-73005200D01*
X171190000Y-68405200D02*
X171190000Y-73005200D01*
X168340000Y-70605200D02*
X168340000Y-75205200D01*
X169840000Y-70055200D02*
X169840000Y-74455200D01*
X171040000Y-68455200D02*
X171040000Y-73005200D01*
X168490000Y-70605200D02*
X168490000Y-75155200D01*
X171940000Y-68405200D02*
X171940000Y-73005200D01*
X168340000Y-70580200D02*
G75*
G03*
X170477801Y-69083296I0J2275000D01*
G01*
X171339005Y-68381413D02*
G75*
G03*
X170477801Y-69083296I38795J-926887D01*
G01*
X174940000Y-69380200D02*
G75*
G03*
X173940000Y-68380200I-1000000J0D01*
G01*
X173940000Y-73030200D02*
G75*
G03*
X174940000Y-72030200I0J1000000D01*
G01*
X171365000Y-73030200D02*
G75*
G03*
X170190000Y-74205200I0J-1175000D01*
G01*
%TO.C,SW5:8*%
X96340000Y-66500200D02*
X96340000Y-71100200D01*
X89740000Y-69100200D02*
X89740000Y-72900200D01*
X94340000Y-67150200D02*
X94340000Y-71350200D01*
X92740000Y-68650200D02*
X92740000Y-73250200D01*
X89140000Y-72300200D02*
X90165000Y-73325200D01*
X97690000Y-66500200D02*
X97690000Y-71100200D01*
X94440000Y-66900200D02*
X94440000Y-71300200D01*
X91390000Y-68700200D02*
X91390000Y-73300200D01*
X94140000Y-67500200D02*
X94140000Y-71650200D01*
X95890000Y-66500200D02*
X95890000Y-71100200D01*
X92140000Y-68675200D02*
X90165000Y-68675200D01*
X91690000Y-68700200D02*
X91690000Y-73300200D01*
X89590000Y-69250200D02*
X89590000Y-72750200D01*
X97090000Y-66500200D02*
X97090000Y-71100200D01*
X93640000Y-68150200D02*
X93640000Y-72550200D01*
X89290000Y-69550200D02*
X89290000Y-72450200D01*
X93190000Y-68450200D02*
X93190000Y-72900200D01*
X98290000Y-66700200D02*
X98290000Y-70900200D01*
X91240000Y-68700200D02*
X91240000Y-73300200D01*
X92590000Y-68650200D02*
X92590000Y-73300200D01*
X92715000Y-73325200D02*
X93990000Y-72300200D01*
X93040000Y-68500200D02*
X93040000Y-73050200D01*
X92290000Y-68700200D02*
X92290000Y-73250200D01*
X94690000Y-66650200D02*
X94690000Y-71200200D01*
X90040000Y-68850200D02*
X90040000Y-73200200D01*
X96040000Y-66500200D02*
X96040000Y-71100200D01*
X95740000Y-66500200D02*
X95740000Y-71100200D01*
X94840000Y-66550200D02*
X94840000Y-71100200D01*
X96490000Y-66500200D02*
X96490000Y-71100200D01*
X90490000Y-68700200D02*
X90490000Y-73300200D01*
X95590000Y-66500200D02*
X95590000Y-71100200D01*
X91090000Y-68700200D02*
X91090000Y-73300200D01*
X91840000Y-68700200D02*
X91840000Y-73300200D01*
X96640000Y-66500200D02*
X96640000Y-71100200D01*
X93490000Y-68250200D02*
X93490000Y-72650200D01*
X97740000Y-71125200D02*
X95165000Y-71125200D01*
X94540000Y-66750200D02*
X94540000Y-71250200D01*
X95140000Y-66500200D02*
X95140000Y-71100200D01*
X93790000Y-68000200D02*
X93790000Y-72450200D01*
X89440000Y-69450200D02*
X89440000Y-72600200D01*
X97840000Y-66500200D02*
X97840000Y-71050200D01*
X89140000Y-69700200D02*
X90165000Y-68675200D01*
X89890000Y-68950200D02*
X89890000Y-73050200D01*
X89140000Y-72300200D02*
X89140000Y-69700200D01*
X94040000Y-67650200D02*
X94040000Y-71800200D01*
X92140000Y-68700200D02*
X92140000Y-73300200D01*
X97540000Y-66500200D02*
X97540000Y-71100200D01*
X93340000Y-68350200D02*
X93340000Y-72800200D01*
X92890000Y-68600200D02*
X92890000Y-73150200D01*
X97390000Y-66500200D02*
X97390000Y-71100200D01*
X90340000Y-68700200D02*
X90340000Y-73300200D01*
X97990000Y-66550200D02*
X97990000Y-71050200D01*
X90940000Y-68700200D02*
X90940000Y-73300200D01*
X94990000Y-66500200D02*
X94990000Y-71100200D01*
X96790000Y-66500200D02*
X96790000Y-71100200D01*
X95440000Y-66500200D02*
X95440000Y-71100200D01*
X97240000Y-66500200D02*
X97240000Y-71100200D01*
X98740000Y-70125200D02*
X98740000Y-67475200D01*
X91540000Y-68700200D02*
X91540000Y-73300200D01*
X92715000Y-73325200D02*
X90165000Y-73325200D01*
X91990000Y-68700200D02*
X91990000Y-73300200D01*
X98390000Y-66800200D02*
X98390000Y-70750200D01*
X90190000Y-68700200D02*
X90190000Y-73300200D01*
X94240000Y-67300200D02*
X94240000Y-71450200D01*
X96190000Y-66500200D02*
X96190000Y-71100200D01*
X92440000Y-68650200D02*
X92440000Y-73300200D01*
X98590000Y-67050200D02*
X98590000Y-70600200D01*
X90640000Y-68700200D02*
X90640000Y-73300200D01*
X97740000Y-66475200D02*
X95140000Y-66475200D01*
X98140000Y-66600200D02*
X98140000Y-71000200D01*
X90790000Y-68700200D02*
X90790000Y-73300200D01*
X96940000Y-66500200D02*
X96940000Y-71100200D01*
X95290000Y-66500200D02*
X95290000Y-71050200D01*
X93940000Y-67850200D02*
X93940000Y-72300200D01*
X98490000Y-66900200D02*
X98490000Y-70650200D01*
X95139005Y-66476413D02*
G75*
G03*
X94277801Y-67178296I38795J-926887D01*
G01*
X95165000Y-71125200D02*
G75*
G03*
X93990000Y-72300200I0J-1175000D01*
G01*
X98740000Y-67475200D02*
G75*
G03*
X97740000Y-66475200I-1000000J0D01*
G01*
X92140000Y-68675200D02*
G75*
G03*
X94277801Y-67178296I0J2275000D01*
G01*
X97740000Y-71125200D02*
G75*
G03*
X98740000Y-70125200I0J1000000D01*
G01*
%TO.C,SW5:7*%
X78790000Y-66500200D02*
X78790000Y-71050200D01*
X72790000Y-68700200D02*
X72790000Y-73300200D01*
X77140000Y-66500200D02*
X77140000Y-71100200D01*
X76690000Y-66500200D02*
X76690000Y-71100200D01*
X75940000Y-66500200D02*
X75940000Y-71100200D01*
X74440000Y-68250200D02*
X74440000Y-72650200D01*
X71140000Y-68700200D02*
X71140000Y-73300200D01*
X70540000Y-69250200D02*
X70540000Y-72750200D01*
X71590000Y-68700200D02*
X71590000Y-73300200D01*
X74290000Y-68350200D02*
X74290000Y-72800200D01*
X70990000Y-68850200D02*
X70990000Y-73200200D01*
X77740000Y-66500200D02*
X77740000Y-71100200D01*
X77290000Y-66500200D02*
X77290000Y-71100200D01*
X78190000Y-66500200D02*
X78190000Y-71100200D01*
X72190000Y-68700200D02*
X72190000Y-73300200D01*
X75190000Y-67300200D02*
X75190000Y-71450200D01*
X79240000Y-66700200D02*
X79240000Y-70900200D01*
X78940000Y-66550200D02*
X78940000Y-71050200D01*
X74990000Y-67650200D02*
X74990000Y-71800200D01*
X72490000Y-68700200D02*
X72490000Y-73300200D01*
X73240000Y-68700200D02*
X73240000Y-73250200D01*
X74590000Y-68150200D02*
X74590000Y-72550200D01*
X79090000Y-66600200D02*
X79090000Y-71000200D01*
X75290000Y-67150200D02*
X75290000Y-71350200D01*
X78690000Y-71125200D02*
X76115000Y-71125200D01*
X73665000Y-73325200D02*
X74940000Y-72300200D01*
X70840000Y-68950200D02*
X70840000Y-73050200D01*
X76390000Y-66500200D02*
X76390000Y-71100200D01*
X72340000Y-68700200D02*
X72340000Y-73300200D01*
X79540000Y-67050200D02*
X79540000Y-70600200D01*
X74890000Y-67850200D02*
X74890000Y-72300200D01*
X72940000Y-68700200D02*
X72940000Y-73300200D01*
X73665000Y-73325200D02*
X71115000Y-73325200D01*
X77440000Y-66500200D02*
X77440000Y-71100200D01*
X78690000Y-66475200D02*
X76090000Y-66475200D01*
X78040000Y-66500200D02*
X78040000Y-71100200D01*
X73540000Y-68650200D02*
X73540000Y-73300200D01*
X70090000Y-69700200D02*
X71115000Y-68675200D01*
X76840000Y-66500200D02*
X76840000Y-71100200D01*
X70090000Y-72300200D02*
X71115000Y-73325200D01*
X75490000Y-66750200D02*
X75490000Y-71250200D01*
X70390000Y-69450200D02*
X70390000Y-72600200D01*
X77890000Y-66500200D02*
X77890000Y-71100200D01*
X73990000Y-68500200D02*
X73990000Y-73050200D01*
X73840000Y-68600200D02*
X73840000Y-73150200D01*
X74740000Y-68000200D02*
X74740000Y-72450200D01*
X71890000Y-68700200D02*
X71890000Y-73300200D01*
X71440000Y-68700200D02*
X71440000Y-73300200D01*
X78640000Y-66500200D02*
X78640000Y-71100200D01*
X70690000Y-69100200D02*
X70690000Y-72900200D01*
X78340000Y-66500200D02*
X78340000Y-71100200D01*
X70240000Y-69550200D02*
X70240000Y-72450200D01*
X77590000Y-66500200D02*
X77590000Y-71100200D01*
X75390000Y-66900200D02*
X75390000Y-71300200D01*
X78490000Y-66500200D02*
X78490000Y-71100200D01*
X76540000Y-66500200D02*
X76540000Y-71100200D01*
X72640000Y-68700200D02*
X72640000Y-73300200D01*
X73690000Y-68650200D02*
X73690000Y-73250200D01*
X73090000Y-68700200D02*
X73090000Y-73300200D01*
X75640000Y-66650200D02*
X75640000Y-71200200D01*
X76990000Y-66500200D02*
X76990000Y-71100200D01*
X79340000Y-66800200D02*
X79340000Y-70750200D01*
X73390000Y-68650200D02*
X73390000Y-73300200D01*
X71290000Y-68700200D02*
X71290000Y-73300200D01*
X79690000Y-70125200D02*
X79690000Y-67475200D01*
X70090000Y-72300200D02*
X70090000Y-69700200D01*
X73090000Y-68675200D02*
X71115000Y-68675200D01*
X79440000Y-66900200D02*
X79440000Y-70650200D01*
X75790000Y-66550200D02*
X75790000Y-71100200D01*
X76240000Y-66500200D02*
X76240000Y-71050200D01*
X72040000Y-68700200D02*
X72040000Y-73300200D01*
X75090000Y-67500200D02*
X75090000Y-71650200D01*
X74140000Y-68450200D02*
X74140000Y-72900200D01*
X76090000Y-66500200D02*
X76090000Y-71100200D01*
X71740000Y-68700200D02*
X71740000Y-73300200D01*
X79690000Y-67475200D02*
G75*
G03*
X78690000Y-66475200I-1000000J0D01*
G01*
X76089005Y-66476413D02*
G75*
G03*
X75227801Y-67178296I38795J-926887D01*
G01*
X73090000Y-68675200D02*
G75*
G03*
X75227801Y-67178296I0J2275000D01*
G01*
X76115000Y-71125200D02*
G75*
G03*
X74940000Y-72300200I0J-1175000D01*
G01*
X78690000Y-71125200D02*
G75*
G03*
X79690000Y-70125200I0J1000000D01*
G01*
%TO.C,SW2:11*%
X150490000Y-124227660D02*
X150490000Y-128677660D01*
X146890000Y-124977660D02*
X146890000Y-128777660D01*
X154840000Y-122377660D02*
X154840000Y-126977660D01*
X155540000Y-122677660D02*
X155540000Y-126627660D01*
X146290000Y-128177660D02*
X147315000Y-129202660D01*
X151590000Y-122777660D02*
X151590000Y-127177660D01*
X152740000Y-122377660D02*
X152740000Y-126977660D01*
X148690000Y-124577660D02*
X148690000Y-129177660D01*
X150790000Y-124027660D02*
X150790000Y-128427660D01*
X150040000Y-124477660D02*
X150040000Y-129027660D01*
X152140000Y-122377660D02*
X152140000Y-126977660D01*
X147190000Y-124727660D02*
X147190000Y-129077660D01*
X155440000Y-122577660D02*
X155440000Y-126777660D01*
X153040000Y-122377660D02*
X153040000Y-126977660D01*
X154090000Y-122377660D02*
X154090000Y-126977660D01*
X150340000Y-124327660D02*
X150340000Y-128777660D01*
X147940000Y-124577660D02*
X147940000Y-129177660D01*
X153640000Y-122377660D02*
X153640000Y-126977660D01*
X149440000Y-124577660D02*
X149440000Y-129127660D01*
X149865000Y-129202660D02*
X147315000Y-129202660D01*
X149865000Y-129202660D02*
X151140000Y-128177660D01*
X153490000Y-122377660D02*
X153490000Y-126977660D01*
X153790000Y-122377660D02*
X153790000Y-126977660D01*
X147790000Y-124577660D02*
X147790000Y-129177660D01*
X151490000Y-123027660D02*
X151490000Y-127227660D01*
X151690000Y-122627660D02*
X151690000Y-127127660D01*
X146440000Y-125427660D02*
X146440000Y-128327660D01*
X154690000Y-122377660D02*
X154690000Y-126977660D01*
X146590000Y-125327660D02*
X146590000Y-128477660D01*
X152290000Y-122377660D02*
X152290000Y-126977660D01*
X148540000Y-124577660D02*
X148540000Y-129177660D01*
X148240000Y-124577660D02*
X148240000Y-129177660D01*
X153190000Y-122377660D02*
X153190000Y-126977660D01*
X149890000Y-124527660D02*
X149890000Y-129127660D01*
X154390000Y-122377660D02*
X154390000Y-126977660D01*
X153340000Y-122377660D02*
X153340000Y-126977660D01*
X149140000Y-124577660D02*
X149140000Y-129177660D01*
X146290000Y-128177660D02*
X146290000Y-125577660D01*
X155640000Y-122777660D02*
X155640000Y-126527660D01*
X147040000Y-124827660D02*
X147040000Y-128927660D01*
X154990000Y-122377660D02*
X154990000Y-126927660D01*
X152440000Y-122377660D02*
X152440000Y-126927660D01*
X151090000Y-123727660D02*
X151090000Y-128177660D01*
X150190000Y-124377660D02*
X150190000Y-128927660D01*
X151390000Y-123177660D02*
X151390000Y-127327660D01*
X152890000Y-122377660D02*
X152890000Y-126977660D01*
X154890000Y-127002660D02*
X152315000Y-127002660D01*
X149290000Y-124577660D02*
X149290000Y-129177660D01*
X155740000Y-122927660D02*
X155740000Y-126477660D01*
X155890000Y-126002660D02*
X155890000Y-123352660D01*
X146740000Y-125127660D02*
X146740000Y-128627660D01*
X147340000Y-124577660D02*
X147340000Y-129177660D01*
X151290000Y-123377660D02*
X151290000Y-127527660D01*
X154540000Y-122377660D02*
X154540000Y-126977660D01*
X146290000Y-125577660D02*
X147315000Y-124552660D01*
X148990000Y-124577660D02*
X148990000Y-129177660D01*
X149290000Y-124552660D02*
X147315000Y-124552660D01*
X149590000Y-124527660D02*
X149590000Y-129177660D01*
X148840000Y-124577660D02*
X148840000Y-129177660D01*
X155290000Y-122477660D02*
X155290000Y-126877660D01*
X147640000Y-124577660D02*
X147640000Y-129177660D01*
X154890000Y-122352660D02*
X152290000Y-122352660D01*
X147490000Y-124577660D02*
X147490000Y-129177660D01*
X148390000Y-124577660D02*
X148390000Y-129177660D01*
X151840000Y-122527660D02*
X151840000Y-127077660D01*
X153940000Y-122377660D02*
X153940000Y-126977660D01*
X149740000Y-124527660D02*
X149740000Y-129177660D01*
X150640000Y-124127660D02*
X150640000Y-128527660D01*
X152590000Y-122377660D02*
X152590000Y-126977660D01*
X154240000Y-122377660D02*
X154240000Y-126977660D01*
X148090000Y-124577660D02*
X148090000Y-129177660D01*
X150940000Y-123877660D02*
X150940000Y-128327660D01*
X151990000Y-122427660D02*
X151990000Y-126977660D01*
X155140000Y-122427660D02*
X155140000Y-126927660D01*
X151190000Y-123527660D02*
X151190000Y-127677660D01*
X152315000Y-127002660D02*
G75*
G03*
X151140000Y-128177660I0J-1175000D01*
G01*
X155890000Y-123352660D02*
G75*
G03*
X154890000Y-122352660I-1000000J0D01*
G01*
X152289005Y-122353873D02*
G75*
G03*
X151427801Y-123055756I38795J-926887D01*
G01*
X154890000Y-127002660D02*
G75*
G03*
X155890000Y-126002660I0J1000000D01*
G01*
X149290000Y-124552660D02*
G75*
G03*
X151427801Y-123055756I0J2275000D01*
G01*
%TO.C,SW2:8*%
X98590000Y-124197660D02*
X98590000Y-127747660D01*
X91840000Y-125847660D02*
X91840000Y-130447660D01*
X89140000Y-129447660D02*
X89140000Y-126847660D01*
X97390000Y-123647660D02*
X97390000Y-128247660D01*
X89590000Y-126397660D02*
X89590000Y-129897660D01*
X90190000Y-125847660D02*
X90190000Y-130447660D01*
X93790000Y-125147660D02*
X93790000Y-129597660D01*
X97090000Y-123647660D02*
X97090000Y-128247660D01*
X95740000Y-123647660D02*
X95740000Y-128247660D01*
X97240000Y-123647660D02*
X97240000Y-128247660D01*
X98740000Y-127272660D02*
X98740000Y-124622660D01*
X94990000Y-123647660D02*
X94990000Y-128247660D01*
X92890000Y-125747660D02*
X92890000Y-130297660D01*
X90790000Y-125847660D02*
X90790000Y-130447660D01*
X93940000Y-124997660D02*
X93940000Y-129447660D01*
X91090000Y-125847660D02*
X91090000Y-130447660D01*
X94540000Y-123897660D02*
X94540000Y-128397660D01*
X95290000Y-123647660D02*
X95290000Y-128197660D01*
X89440000Y-126597660D02*
X89440000Y-129747660D01*
X92740000Y-125797660D02*
X92740000Y-130397660D01*
X96190000Y-123647660D02*
X96190000Y-128247660D01*
X98290000Y-123847660D02*
X98290000Y-128047660D01*
X97740000Y-123622660D02*
X95140000Y-123622660D01*
X89140000Y-129447660D02*
X90165000Y-130472660D01*
X95890000Y-123647660D02*
X95890000Y-128247660D01*
X95440000Y-123647660D02*
X95440000Y-128247660D01*
X91390000Y-125847660D02*
X91390000Y-130447660D01*
X92440000Y-125797660D02*
X92440000Y-130447660D01*
X94140000Y-124647660D02*
X94140000Y-128797660D01*
X93340000Y-125497660D02*
X93340000Y-129947660D01*
X92715000Y-130472660D02*
X93990000Y-129447660D01*
X94840000Y-123697660D02*
X94840000Y-128247660D01*
X96040000Y-123647660D02*
X96040000Y-128247660D01*
X93040000Y-125647660D02*
X93040000Y-130197660D01*
X90340000Y-125847660D02*
X90340000Y-130447660D01*
X90640000Y-125847660D02*
X90640000Y-130447660D01*
X89740000Y-126247660D02*
X89740000Y-130047660D01*
X96490000Y-123647660D02*
X96490000Y-128247660D01*
X89140000Y-126847660D02*
X90165000Y-125822660D01*
X96790000Y-123647660D02*
X96790000Y-128247660D01*
X98140000Y-123747660D02*
X98140000Y-128147660D01*
X92140000Y-125822660D02*
X90165000Y-125822660D01*
X91690000Y-125847660D02*
X91690000Y-130447660D01*
X92715000Y-130472660D02*
X90165000Y-130472660D01*
X97840000Y-123647660D02*
X97840000Y-128197660D01*
X94040000Y-124797660D02*
X94040000Y-128947660D01*
X97990000Y-123697660D02*
X97990000Y-128197660D01*
X93190000Y-125597660D02*
X93190000Y-130047660D01*
X95590000Y-123647660D02*
X95590000Y-128247660D01*
X94340000Y-124297660D02*
X94340000Y-128497660D01*
X92590000Y-125797660D02*
X92590000Y-130447660D01*
X94690000Y-123797660D02*
X94690000Y-128347660D01*
X98490000Y-124047660D02*
X98490000Y-127797660D01*
X89290000Y-126697660D02*
X89290000Y-129597660D01*
X91540000Y-125847660D02*
X91540000Y-130447660D01*
X89890000Y-126097660D02*
X89890000Y-130197660D01*
X91990000Y-125847660D02*
X91990000Y-130447660D01*
X97540000Y-123647660D02*
X97540000Y-128247660D01*
X90040000Y-125997660D02*
X90040000Y-130347660D01*
X92140000Y-125847660D02*
X92140000Y-130447660D01*
X91240000Y-125847660D02*
X91240000Y-130447660D01*
X96940000Y-123647660D02*
X96940000Y-128247660D01*
X96640000Y-123647660D02*
X96640000Y-128247660D01*
X94240000Y-124447660D02*
X94240000Y-128597660D01*
X93640000Y-125297660D02*
X93640000Y-129697660D01*
X92290000Y-125847660D02*
X92290000Y-130397660D01*
X90490000Y-125847660D02*
X90490000Y-130447660D01*
X98390000Y-123947660D02*
X98390000Y-127897660D01*
X94440000Y-124047660D02*
X94440000Y-128447660D01*
X97740000Y-128272660D02*
X95165000Y-128272660D01*
X97690000Y-123647660D02*
X97690000Y-128247660D01*
X95140000Y-123647660D02*
X95140000Y-128247660D01*
X93490000Y-125397660D02*
X93490000Y-129797660D01*
X90940000Y-125847660D02*
X90940000Y-130447660D01*
X96340000Y-123647660D02*
X96340000Y-128247660D01*
X95139005Y-123623873D02*
G75*
G03*
X94277801Y-124325756I38795J-926887D01*
G01*
X92140000Y-125822660D02*
G75*
G03*
X94277801Y-124325756I0J2275000D01*
G01*
X95165000Y-128272660D02*
G75*
G03*
X93990000Y-129447660I0J-1175000D01*
G01*
X97740000Y-128272660D02*
G75*
G03*
X98740000Y-127272660I0J1000000D01*
G01*
X98740000Y-124622660D02*
G75*
G03*
X97740000Y-123622660I-1000000J0D01*
G01*
%TO.C,SW3:12*%
X166990000Y-108702660D02*
X166990000Y-113302660D01*
X174040000Y-106502660D02*
X174040000Y-111052660D01*
X167290000Y-108702660D02*
X167290000Y-113302660D01*
X172540000Y-106502660D02*
X172540000Y-111102660D01*
X172390000Y-106502660D02*
X172390000Y-111102660D01*
X173440000Y-106502660D02*
X173440000Y-111102660D01*
X166690000Y-108702660D02*
X166690000Y-113302660D01*
X170640000Y-106902660D02*
X170640000Y-111302660D01*
X166090000Y-108952660D02*
X166090000Y-113052660D01*
X172240000Y-106502660D02*
X172240000Y-111102660D01*
X170240000Y-107652660D02*
X170240000Y-111802660D01*
X168340000Y-108702660D02*
X168340000Y-113302660D01*
X171040000Y-106552660D02*
X171040000Y-111102660D01*
X167440000Y-108702660D02*
X167440000Y-113302660D01*
X172990000Y-106502660D02*
X172990000Y-111102660D01*
X173590000Y-106502660D02*
X173590000Y-111102660D01*
X172090000Y-106502660D02*
X172090000Y-111102660D01*
X168640000Y-108652660D02*
X168640000Y-113302660D01*
X168940000Y-108652660D02*
X168940000Y-113252660D01*
X166840000Y-108702660D02*
X166840000Y-113302660D01*
X174190000Y-106552660D02*
X174190000Y-111052660D01*
X167590000Y-108702660D02*
X167590000Y-113302660D01*
X170340000Y-107502660D02*
X170340000Y-111652660D01*
X165640000Y-109452660D02*
X165640000Y-112602660D01*
X170140000Y-107852660D02*
X170140000Y-112302660D01*
X171340000Y-106502660D02*
X171340000Y-111102660D01*
X165490000Y-109552660D02*
X165490000Y-112452660D01*
X171940000Y-106502660D02*
X171940000Y-111102660D01*
X168490000Y-108702660D02*
X168490000Y-113252660D01*
X169090000Y-108602660D02*
X169090000Y-113152660D01*
X168340000Y-108677660D02*
X166365000Y-108677660D01*
X172840000Y-106502660D02*
X172840000Y-111102660D01*
X174940000Y-110127660D02*
X174940000Y-107477660D01*
X171490000Y-106502660D02*
X171490000Y-111052660D01*
X169990000Y-108002660D02*
X169990000Y-112452660D01*
X171790000Y-106502660D02*
X171790000Y-111102660D01*
X165940000Y-109102660D02*
X165940000Y-112902660D01*
X170440000Y-107302660D02*
X170440000Y-111452660D01*
X165340000Y-109702660D02*
X166365000Y-108677660D01*
X169840000Y-108152660D02*
X169840000Y-112552660D01*
X168040000Y-108702660D02*
X168040000Y-113302660D01*
X170740000Y-106752660D02*
X170740000Y-111252660D01*
X166540000Y-108702660D02*
X166540000Y-113302660D01*
X166240000Y-108852660D02*
X166240000Y-113202660D01*
X167140000Y-108702660D02*
X167140000Y-113302660D01*
X174590000Y-106802660D02*
X174590000Y-110752660D01*
X167890000Y-108702660D02*
X167890000Y-113302660D01*
X169390000Y-108452660D02*
X169390000Y-112902660D01*
X168190000Y-108702660D02*
X168190000Y-113302660D01*
X167740000Y-108702660D02*
X167740000Y-113302660D01*
X173740000Y-106502660D02*
X173740000Y-111102660D01*
X173290000Y-106502660D02*
X173290000Y-111102660D01*
X172690000Y-106502660D02*
X172690000Y-111102660D01*
X165340000Y-112302660D02*
X166365000Y-113327660D01*
X166390000Y-108702660D02*
X166390000Y-113302660D01*
X173890000Y-106502660D02*
X173890000Y-111102660D01*
X169540000Y-108352660D02*
X169540000Y-112802660D01*
X165340000Y-112302660D02*
X165340000Y-109702660D01*
X173940000Y-111127660D02*
X171365000Y-111127660D01*
X165790000Y-109252660D02*
X165790000Y-112752660D01*
X170540000Y-107152660D02*
X170540000Y-111352660D01*
X173940000Y-106477660D02*
X171340000Y-106477660D01*
X174340000Y-106602660D02*
X174340000Y-111002660D01*
X168915000Y-113327660D02*
X166365000Y-113327660D01*
X171190000Y-106502660D02*
X171190000Y-111102660D01*
X169240000Y-108502660D02*
X169240000Y-113052660D01*
X174490000Y-106702660D02*
X174490000Y-110902660D01*
X168790000Y-108652660D02*
X168790000Y-113302660D01*
X169690000Y-108252660D02*
X169690000Y-112652660D01*
X173140000Y-106502660D02*
X173140000Y-111102660D01*
X170890000Y-106652660D02*
X170890000Y-111202660D01*
X174690000Y-106902660D02*
X174690000Y-110652660D01*
X174790000Y-107052660D02*
X174790000Y-110602660D01*
X168915000Y-113327660D02*
X170190000Y-112302660D01*
X171640000Y-106502660D02*
X171640000Y-111102660D01*
X171339005Y-106478873D02*
G75*
G03*
X170477801Y-107180756I38795J-926887D01*
G01*
X174940000Y-107477660D02*
G75*
G03*
X173940000Y-106477660I-1000000J0D01*
G01*
X173940000Y-111127660D02*
G75*
G03*
X174940000Y-110127660I0J1000000D01*
G01*
X171365000Y-111127660D02*
G75*
G03*
X170190000Y-112302660I0J-1175000D01*
G01*
X168340000Y-108677660D02*
G75*
G03*
X170477801Y-107180756I0J2275000D01*
G01*
%TO.C,SW2:12*%
X173940000Y-130177660D02*
X171365000Y-130177660D01*
X170240000Y-126702660D02*
X170240000Y-130852660D01*
X174940000Y-129177660D02*
X174940000Y-126527660D01*
X169990000Y-127052660D02*
X169990000Y-131502660D01*
X169240000Y-127552660D02*
X169240000Y-132102660D01*
X168340000Y-127727660D02*
X166365000Y-127727660D01*
X172090000Y-125552660D02*
X172090000Y-130152660D01*
X167740000Y-127752660D02*
X167740000Y-132352660D01*
X170740000Y-125802660D02*
X170740000Y-130302660D01*
X169840000Y-127202660D02*
X169840000Y-131602660D01*
X169090000Y-127652660D02*
X169090000Y-132202660D01*
X167440000Y-127752660D02*
X167440000Y-132352660D01*
X172540000Y-125552660D02*
X172540000Y-130152660D01*
X170890000Y-125702660D02*
X170890000Y-130252660D01*
X172840000Y-125552660D02*
X172840000Y-130152660D01*
X170640000Y-125952660D02*
X170640000Y-130352660D01*
X170540000Y-126202660D02*
X170540000Y-130402660D01*
X173290000Y-125552660D02*
X173290000Y-130152660D01*
X171190000Y-125552660D02*
X171190000Y-130152660D01*
X174190000Y-125602660D02*
X174190000Y-130102660D01*
X173440000Y-125552660D02*
X173440000Y-130152660D01*
X171940000Y-125552660D02*
X171940000Y-130152660D01*
X166840000Y-127752660D02*
X166840000Y-132352660D01*
X171640000Y-125552660D02*
X171640000Y-130152660D01*
X172390000Y-125552660D02*
X172390000Y-130152660D01*
X169540000Y-127402660D02*
X169540000Y-131852660D01*
X165640000Y-128502660D02*
X165640000Y-131652660D01*
X174790000Y-126102660D02*
X174790000Y-129652660D01*
X166990000Y-127752660D02*
X166990000Y-132352660D01*
X168640000Y-127702660D02*
X168640000Y-132352660D01*
X172690000Y-125552660D02*
X172690000Y-130152660D01*
X168915000Y-132377660D02*
X170190000Y-131352660D01*
X167290000Y-127752660D02*
X167290000Y-132352660D01*
X168190000Y-127752660D02*
X168190000Y-132352660D01*
X168790000Y-127702660D02*
X168790000Y-132352660D01*
X168490000Y-127752660D02*
X168490000Y-132302660D01*
X171490000Y-125552660D02*
X171490000Y-130102660D01*
X169390000Y-127502660D02*
X169390000Y-131952660D01*
X166540000Y-127752660D02*
X166540000Y-132352660D01*
X166690000Y-127752660D02*
X166690000Y-132352660D01*
X167890000Y-127752660D02*
X167890000Y-132352660D01*
X173940000Y-125527660D02*
X171340000Y-125527660D01*
X170340000Y-126552660D02*
X170340000Y-130702660D01*
X169690000Y-127302660D02*
X169690000Y-131702660D01*
X168340000Y-127752660D02*
X168340000Y-132352660D01*
X171040000Y-125602660D02*
X171040000Y-130152660D01*
X173740000Y-125552660D02*
X173740000Y-130152660D01*
X165940000Y-128152660D02*
X165940000Y-131952660D01*
X173590000Y-125552660D02*
X173590000Y-130152660D01*
X173140000Y-125552660D02*
X173140000Y-130152660D01*
X165490000Y-128602660D02*
X165490000Y-131502660D01*
X165340000Y-131352660D02*
X165340000Y-128752660D01*
X170440000Y-126352660D02*
X170440000Y-130502660D01*
X173890000Y-125552660D02*
X173890000Y-130152660D01*
X166090000Y-128002660D02*
X166090000Y-132102660D01*
X174590000Y-125852660D02*
X174590000Y-129802660D01*
X165790000Y-128302660D02*
X165790000Y-131802660D01*
X168040000Y-127752660D02*
X168040000Y-132352660D01*
X172990000Y-125552660D02*
X172990000Y-130152660D01*
X172240000Y-125552660D02*
X172240000Y-130152660D01*
X170140000Y-126902660D02*
X170140000Y-131352660D01*
X174340000Y-125652660D02*
X174340000Y-130052660D01*
X174490000Y-125752660D02*
X174490000Y-129952660D01*
X174690000Y-125952660D02*
X174690000Y-129702660D01*
X167590000Y-127752660D02*
X167590000Y-132352660D01*
X171340000Y-125552660D02*
X171340000Y-130152660D01*
X166240000Y-127902660D02*
X166240000Y-132252660D01*
X168940000Y-127702660D02*
X168940000Y-132302660D01*
X166390000Y-127752660D02*
X166390000Y-132352660D01*
X167140000Y-127752660D02*
X167140000Y-132352660D01*
X168915000Y-132377660D02*
X166365000Y-132377660D01*
X165340000Y-131352660D02*
X166365000Y-132377660D01*
X174040000Y-125552660D02*
X174040000Y-130102660D01*
X171790000Y-125552660D02*
X171790000Y-130152660D01*
X165340000Y-128752660D02*
X166365000Y-127727660D01*
X171339005Y-125528873D02*
G75*
G03*
X170477801Y-126230756I38795J-926887D01*
G01*
X168340000Y-127727660D02*
G75*
G03*
X170477801Y-126230756I0J2275000D01*
G01*
X171365000Y-130177660D02*
G75*
G03*
X170190000Y-131352660I0J-1175000D01*
G01*
X174940000Y-126527660D02*
G75*
G03*
X173940000Y-125527660I-1000000J0D01*
G01*
X173940000Y-130177660D02*
G75*
G03*
X174940000Y-129177660I0J1000000D01*
G01*
%TO.C,SW1:12*%
X171940000Y-144602660D02*
X171940000Y-149202660D01*
X170140000Y-145952660D02*
X170140000Y-150402660D01*
X170540000Y-145252660D02*
X170540000Y-149452660D01*
X165790000Y-147352660D02*
X165790000Y-150852660D01*
X166840000Y-146802660D02*
X166840000Y-151402660D01*
X168915000Y-151427660D02*
X170190000Y-150402660D01*
X165340000Y-150402660D02*
X166365000Y-151427660D01*
X165940000Y-147202660D02*
X165940000Y-151002660D01*
X171190000Y-144602660D02*
X171190000Y-149202660D01*
X167290000Y-146802660D02*
X167290000Y-151402660D01*
X167440000Y-146802660D02*
X167440000Y-151402660D01*
X172690000Y-144602660D02*
X172690000Y-149202660D01*
X167890000Y-146802660D02*
X167890000Y-151402660D01*
X165490000Y-147652660D02*
X165490000Y-150552660D01*
X173940000Y-149227660D02*
X171365000Y-149227660D01*
X173940000Y-144577660D02*
X171340000Y-144577660D01*
X169990000Y-146102660D02*
X169990000Y-150552660D01*
X172840000Y-144602660D02*
X172840000Y-149202660D01*
X174790000Y-145152660D02*
X174790000Y-148702660D01*
X167740000Y-146802660D02*
X167740000Y-151402660D01*
X173890000Y-144602660D02*
X173890000Y-149202660D01*
X173140000Y-144602660D02*
X173140000Y-149202660D01*
X169540000Y-146452660D02*
X169540000Y-150902660D01*
X173440000Y-144602660D02*
X173440000Y-149202660D01*
X165640000Y-147552660D02*
X165640000Y-150702660D01*
X168190000Y-146802660D02*
X168190000Y-151402660D01*
X168340000Y-146777660D02*
X166365000Y-146777660D01*
X168790000Y-146752660D02*
X168790000Y-151402660D01*
X173590000Y-144602660D02*
X173590000Y-149202660D01*
X172990000Y-144602660D02*
X172990000Y-149202660D01*
X174490000Y-144802660D02*
X174490000Y-149002660D01*
X165340000Y-147802660D02*
X166365000Y-146777660D01*
X174590000Y-144902660D02*
X174590000Y-148852660D01*
X174190000Y-144652660D02*
X174190000Y-149152660D01*
X171340000Y-144602660D02*
X171340000Y-149202660D01*
X174340000Y-144702660D02*
X174340000Y-149102660D01*
X168640000Y-146752660D02*
X168640000Y-151402660D01*
X170740000Y-144852660D02*
X170740000Y-149352660D01*
X169090000Y-146702660D02*
X169090000Y-151252660D01*
X171040000Y-144652660D02*
X171040000Y-149202660D01*
X174690000Y-145002660D02*
X174690000Y-148752660D01*
X169690000Y-146352660D02*
X169690000Y-150752660D01*
X171790000Y-144602660D02*
X171790000Y-149202660D01*
X169390000Y-146552660D02*
X169390000Y-151002660D01*
X168940000Y-146752660D02*
X168940000Y-151352660D01*
X167140000Y-146802660D02*
X167140000Y-151402660D01*
X166090000Y-147052660D02*
X166090000Y-151152660D01*
X170640000Y-145002660D02*
X170640000Y-149402660D01*
X166690000Y-146802660D02*
X166690000Y-151402660D01*
X169240000Y-146602660D02*
X169240000Y-151152660D01*
X168340000Y-146802660D02*
X168340000Y-151402660D01*
X173290000Y-144602660D02*
X173290000Y-149202660D01*
X170240000Y-145752660D02*
X170240000Y-149902660D01*
X174940000Y-148227660D02*
X174940000Y-145577660D01*
X174040000Y-144602660D02*
X174040000Y-149152660D01*
X168915000Y-151427660D02*
X166365000Y-151427660D01*
X172240000Y-144602660D02*
X172240000Y-149202660D01*
X169840000Y-146252660D02*
X169840000Y-150652660D01*
X170440000Y-145402660D02*
X170440000Y-149552660D01*
X172390000Y-144602660D02*
X172390000Y-149202660D01*
X172540000Y-144602660D02*
X172540000Y-149202660D01*
X166390000Y-146802660D02*
X166390000Y-151402660D01*
X171490000Y-144602660D02*
X171490000Y-149152660D01*
X166240000Y-146952660D02*
X166240000Y-151302660D01*
X168040000Y-146802660D02*
X168040000Y-151402660D01*
X172090000Y-144602660D02*
X172090000Y-149202660D01*
X166990000Y-146802660D02*
X166990000Y-151402660D01*
X167590000Y-146802660D02*
X167590000Y-151402660D01*
X168490000Y-146802660D02*
X168490000Y-151352660D01*
X170340000Y-145602660D02*
X170340000Y-149752660D01*
X171640000Y-144602660D02*
X171640000Y-149202660D01*
X165340000Y-150402660D02*
X165340000Y-147802660D01*
X170890000Y-144752660D02*
X170890000Y-149302660D01*
X166540000Y-146802660D02*
X166540000Y-151402660D01*
X173740000Y-144602660D02*
X173740000Y-149202660D01*
X171365000Y-149227660D02*
G75*
G03*
X170190000Y-150402660I0J-1175000D01*
G01*
X171339005Y-144578873D02*
G75*
G03*
X170477801Y-145280756I38795J-926887D01*
G01*
X168340000Y-146777660D02*
G75*
G03*
X170477801Y-145280756I0J2275000D01*
G01*
X173940000Y-149227660D02*
G75*
G03*
X174940000Y-148227660I0J1000000D01*
G01*
X174940000Y-145577660D02*
G75*
G03*
X173940000Y-144577660I-1000000J0D01*
G01*
%TO.C,U1*%
X54322900Y-50027000D02*
X56862900Y-50027000D01*
X41642900Y-80507000D02*
X39102900Y-80507000D01*
X39102900Y-80507000D02*
X39102900Y-50027000D01*
X39102900Y-50027000D02*
X41642900Y-50027000D01*
X54322900Y-80507000D02*
X54322900Y-50027000D01*
X56862900Y-80507000D02*
X54322900Y-80507000D01*
X41642900Y-50027000D02*
X41642900Y-80507000D01*
X56862900Y-50027000D02*
X56862900Y-80507000D01*
D13*
%TO.C,BSW1*%
X40469200Y-84124000D02*
X40469200Y-92669000D01*
X36906200Y-92669000D02*
X36906200Y-84119000D01*
X36914200Y-84115000D02*
X40469200Y-84115000D01*
X40460200Y-92669000D02*
X36906200Y-92669000D01*
D11*
%TO.C,RSW1*%
X47424400Y-85265000D02*
X47674400Y-85265000D01*
X47424400Y-91265000D02*
X47674400Y-91265000D01*
X50924400Y-91265000D02*
X50924400Y-85265000D01*
X50924400Y-91265000D02*
X50674400Y-91265000D01*
X50924400Y-85265000D02*
X50674400Y-85265000D01*
X47424400Y-91265000D02*
X47424400Y-85265000D01*
%TD*%
M02*
