M48
; DRILL file {KiCad (6.0.5)} date Mon May 23 22:22:05 2022
; FORMAT={-:-/ absolute / inch / decimal}
; #@! TF.CreationDate,2022-05-23T22:22:05-06:00
; #@! TF.GenerationSoftware,Kicad,Pcbnew,(6.0.5)
; #@! TF.FileFunction,NonPlated,1,2,NPTH
FMAT,2
INCH
; #@! TA.AperFunction,NonPlated,NPTH,ComponentDrill
T1C0.0390
; #@! TA.AperFunction,NonPlated,NPTH,ComponentDrill
T2C0.0430
; #@! TA.AperFunction,NonPlated,NPTH,ComponentDrill
T3C0.0669
; #@! TA.AperFunction,NonPlated,NPTH,ComponentDrill
T4C0.1339
; #@! TA.AperFunction,NonPlated,NPTH,ComponentDrill
T5C0.2510
%
G90
G05
T1
X3.398Y-1.314
X3.398Y-1.511
T2
X7.275Y-1.775
X7.375Y-1.775
X7.475Y-1.775
T3
X1.1699Y-5.732
X1.4868Y-6.4117
X1.5623Y-5.549
X1.8038Y-7.0915
X1.8496Y-5.4151
X1.8792Y-6.2287
X2.1962Y-6.9085
X2.242Y-5.2321
X2.4297Y-6.147
X2.6127Y-6.5394
X2.6335Y-2.563
X2.85Y-3.2839
X2.85Y-3.7169
X2.85Y-4.4089
X2.85Y-4.8419
X3.0665Y-2.563
X3.1094Y-5.83
X3.2924Y-6.2224
X3.3835Y-2.563
X3.3835Y-3.3129
X3.3835Y-4.0629
X3.3835Y-4.8129
X3.8165Y-2.563
X3.8165Y-3.3129
X3.8165Y-4.0629
X3.8165Y-4.8129
X4.1335Y-2.5129
X4.1335Y-3.2629
X4.1335Y-4.0129
X4.1335Y-4.7629
X4.1335Y-5.5129
X4.5665Y-2.5129
X4.5665Y-3.2629
X4.5665Y-4.0129
X4.5665Y-4.7629
X4.5665Y-5.5129
X4.8835Y-2.45
X4.8835Y-3.2
X4.8835Y-3.95
X4.8835Y-4.7
X4.8835Y-5.45
X5.3165Y-2.45
X5.3165Y-3.2
X5.3165Y-3.95
X5.3165Y-4.7
X5.3165Y-5.45
X5.6335Y-2.5129
X5.6335Y-3.2629
X5.6335Y-4.0129
X5.6335Y-4.7629
X5.6335Y-5.5129
X6.0665Y-2.5129
X6.0665Y-3.2629
X6.0665Y-4.0129
X6.0665Y-4.7629
X6.0665Y-5.5129
X6.3835Y-2.638
X6.3835Y-3.3879
X6.3835Y-4.1379
X6.3835Y-4.8879
X6.3835Y-5.6379
X6.8165Y-2.638
X6.8165Y-3.3879
X6.8165Y-4.1379
X6.8165Y-4.8879
X6.8165Y-5.6379
X7.1335Y-5.6379
X7.321Y-2.638
X7.321Y-3.3879
X7.321Y-4.1379
X7.321Y-4.8879
X7.5665Y-5.6379
X7.754Y-2.638
X7.754Y-3.3879
X7.754Y-4.1379
X7.754Y-4.8879
T4
X1.3661Y-5.6405
X1.683Y-6.3202
X2.0Y-7.0
X2.0458Y-5.3236
X2.5212Y-6.3432
X2.85Y-2.563
X2.85Y-3.5004
X2.85Y-4.6254
X3.2009Y-6.0262
X3.6Y-2.563
X3.6Y-3.3129
X3.6Y-4.0629
X3.6Y-4.8129
X4.35Y-2.5129
X4.35Y-3.2629
X4.35Y-4.0129
X4.35Y-4.7629
X4.35Y-5.5129
X5.1Y-2.45
X5.1Y-3.2
X5.1Y-3.95
X5.1Y-4.7
X5.1Y-5.45
X5.85Y-2.5129
X5.85Y-3.2629
X5.85Y-4.0129
X5.85Y-4.7629
X5.85Y-5.5129
X6.6Y-2.638
X6.6Y-3.3879
X6.6Y-4.1379
X6.6Y-4.8879
X6.6Y-5.6379
X7.35Y-5.6379
X7.5375Y-2.638
X7.5375Y-3.3879
X7.5375Y-4.1379
X7.5375Y-4.8879
T5
X2.122Y-6.529
X2.349Y-4.79
X2.654Y-1.462
X4.151Y-6.211
X4.654Y-1.462
X5.474Y-3.606
X7.919Y-1.462
X7.944Y-5.514
T0
M30
