%TF.GenerationSoftware,KiCad,Pcbnew,(6.0.5)*%
%TF.CreationDate,2022-06-12T17:08:15-07:00*%
%TF.ProjectId,ErgoDOX,4572676f-444f-4582-9e6b-696361645f70,rev?*%
%TF.SameCoordinates,Original*%
%TF.FileFunction,Soldermask,Bot*%
%TF.FilePolarity,Negative*%
%FSLAX46Y46*%
G04 Gerber Fmt 4.6, Leading zero omitted, Abs format (unit mm)*
G04 Created by KiCad (PCBNEW (6.0.5)) date 2022-06-12 17:08:15*
%MOMM*%
%LPD*%
G01*
G04 APERTURE LIST*
G04 Aperture macros list*
%AMRoundRect*
0 Rectangle with rounded corners*
0 $1 Rounding radius*
0 $2 $3 $4 $5 $6 $7 $8 $9 X,Y pos of 4 corners*
0 Add a 4 corners polygon primitive as box body*
4,1,4,$2,$3,$4,$5,$6,$7,$8,$9,$2,$3,0*
0 Add four circle primitives for the rounded corners*
1,1,$1+$1,$2,$3*
1,1,$1+$1,$4,$5*
1,1,$1+$1,$6,$7*
1,1,$1+$1,$8,$9*
0 Add four rect primitives between the rounded corners*
20,1,$1+$1,$2,$3,$4,$5,0*
20,1,$1+$1,$4,$5,$6,$7,0*
20,1,$1+$1,$6,$7,$8,$9,0*
20,1,$1+$1,$8,$9,$2,$3,0*%
%AMRotRect*
0 Rectangle, with rotation*
0 The origin of the aperture is its center*
0 $1 length*
0 $2 width*
0 $3 Rotation angle, in degrees counterclockwise*
0 Add horizontal line*
21,1,$1,$2,0,0,$3*%
G04 Aperture macros list end*
%ADD10C,1.500000*%
%ADD11RoundRect,0.250000X-0.750000X0.750000X-0.750000X-0.750000X0.750000X-0.750000X0.750000X0.750000X0*%
%ADD12C,2.000000*%
%ADD13C,3.000000*%
%ADD14C,3.400000*%
%ADD15C,1.000000*%
%ADD16C,1.800000*%
%ADD17R,1.600000X2.200000*%
%ADD18C,0.800000*%
%ADD19C,1.651000*%
%ADD20RoundRect,0.051100X0.553900X0.313900X-0.553900X0.313900X-0.553900X-0.313900X0.553900X-0.313900X0*%
%ADD21R,1.651000X1.651000*%
%ADD22RotRect,1.600000X2.200000X205.000000*%
%ADD23RoundRect,0.051100X0.369344X0.518578X-0.634664X0.050402X-0.369344X-0.518578X0.634664X-0.050402X0*%
%ADD24RotRect,1.651000X1.651000X205.000000*%
%ADD25R,2.200000X1.600000*%
%ADD26RoundRect,0.051100X-0.313900X0.553900X-0.313900X-0.553900X0.313900X-0.553900X0.313900X0.553900X0*%
%ADD27RotRect,1.600000X2.200000X295.000000*%
%ADD28RoundRect,0.051100X-0.518578X0.369344X-0.050402X-0.634664X0.518578X-0.369344X0.050402X0.634664X0*%
%ADD29RotRect,1.651000X1.651000X295.000000*%
%ADD30C,1.524000*%
G04 APERTURE END LIST*
D10*
%TO.C,BSW1*%
X38695200Y-85897000D03*
X38695200Y-88397000D03*
X38695200Y-90897000D03*
%TD*%
D11*
%TO.C,BATTERY*%
X38709600Y-97205800D03*
D12*
X38709600Y-101705800D03*
%TD*%
%TO.C,RSW1*%
X49174400Y-85015000D03*
X49174400Y-91515000D03*
%TD*%
D13*
%TO.C,SW5:10*%
X129540000Y-68130000D03*
D14*
X129540000Y-62230000D03*
D15*
X134760000Y-58030000D03*
D13*
X124540000Y-65930000D03*
D16*
X124040000Y-62230000D03*
D15*
X124320000Y-58030000D03*
D13*
X134540000Y-65930000D03*
D16*
X135040000Y-62230000D03*
D17*
X121740000Y-65930000D03*
D18*
X129540000Y-64770000D03*
X129540000Y-70358000D03*
D17*
X132340000Y-68130000D03*
D19*
X133350000Y-53898800D03*
D20*
X131220000Y-53936000D03*
D21*
X125730000Y-53898800D03*
D20*
X127860000Y-53936000D03*
%TD*%
D13*
%TO.C,SW1:10*%
X129540000Y-144330000D03*
D14*
X129540000Y-138430000D03*
D15*
X134760000Y-134230000D03*
D13*
X124540000Y-142130000D03*
D16*
X124040000Y-138430000D03*
D15*
X124320000Y-134230000D03*
D13*
X134540000Y-142130000D03*
D16*
X135040000Y-138430000D03*
D17*
X121740000Y-142130000D03*
D18*
X129540000Y-140970000D03*
X129540000Y-146558000D03*
D17*
X132340000Y-144330000D03*
D19*
X133350000Y-130098800D03*
D20*
X131220000Y-130136000D03*
D21*
X125730000Y-130098800D03*
D20*
X127860000Y-130136000D03*
%TD*%
D13*
%TO.C,SW2:10*%
X129540000Y-125280000D03*
D14*
X129540000Y-119380000D03*
D15*
X134760000Y-115180000D03*
D13*
X124540000Y-123080000D03*
D16*
X124040000Y-119380000D03*
D15*
X124320000Y-115180000D03*
D13*
X134540000Y-123080000D03*
D16*
X135040000Y-119380000D03*
D17*
X121740000Y-123080000D03*
D18*
X129540000Y-121920000D03*
X129540000Y-127508000D03*
D17*
X132340000Y-125280000D03*
D19*
X133350000Y-111048800D03*
D20*
X131220000Y-111086000D03*
D21*
X125730000Y-111048800D03*
D20*
X127860000Y-111086000D03*
%TD*%
D13*
%TO.C,SW0:12*%
X53293448Y-183147216D03*
D14*
X50800000Y-177800000D03*
D15*
X53755930Y-171787440D03*
D13*
X47832149Y-183266430D03*
D16*
X45815307Y-180124400D03*
D15*
X44294077Y-176199575D03*
D13*
X56895227Y-179040248D03*
D16*
X55784693Y-175475600D03*
D22*
X45294487Y-184449761D03*
D18*
X51873450Y-180102022D03*
X54235041Y-185166470D03*
D22*
X55831110Y-181963885D03*
D19*
X50732115Y-168639193D03*
D23*
X48817401Y-169573085D03*
D24*
X43826050Y-171859544D03*
D23*
X45772207Y-170993082D03*
%TD*%
D13*
%TO.C,SW0:9*%
X45241648Y-165880296D03*
D14*
X42748200Y-160533080D03*
D15*
X45704130Y-154520520D03*
D13*
X39780349Y-165999510D03*
D16*
X37763507Y-162857480D03*
D15*
X36242277Y-158932655D03*
D13*
X48843427Y-161773328D03*
D16*
X47732893Y-158208680D03*
D22*
X37242687Y-167182841D03*
D18*
X43821650Y-162835102D03*
X46183241Y-167899550D03*
D22*
X47779310Y-164696965D03*
D19*
X42680315Y-151372273D03*
D23*
X40765601Y-152306165D03*
D24*
X35774250Y-154592624D03*
D23*
X37720407Y-153726162D03*
%TD*%
D13*
%TO.C,SW0:7*%
X37192388Y-148615916D03*
D14*
X34698940Y-143268700D03*
D15*
X37654870Y-137256140D03*
D13*
X31731089Y-148735130D03*
D16*
X29714247Y-145593100D03*
D15*
X28193017Y-141668275D03*
D13*
X40794167Y-144508948D03*
D16*
X39683633Y-140944300D03*
D22*
X29193427Y-149918461D03*
D18*
X35772390Y-145570722D03*
X38133981Y-150635170D03*
D22*
X39730050Y-147432585D03*
D19*
X34631055Y-134107893D03*
D23*
X32716341Y-135041785D03*
D24*
X27724990Y-137328244D03*
D23*
X29671147Y-136461782D03*
%TD*%
D13*
%TO.C,SW2:7*%
X78290000Y-117485160D03*
D14*
X72390000Y-117485160D03*
D15*
X68190000Y-112265160D03*
D13*
X76090000Y-122485160D03*
D16*
X72390000Y-122985160D03*
D15*
X68190000Y-122705160D03*
D13*
X76090000Y-112485160D03*
D16*
X72390000Y-111985160D03*
D25*
X76090000Y-125285160D03*
D18*
X74930000Y-117485160D03*
X80518000Y-117485160D03*
D25*
X78290000Y-114685160D03*
D19*
X64058800Y-113675160D03*
D26*
X64096000Y-115805160D03*
D21*
X64058800Y-121295160D03*
D26*
X64096000Y-119165160D03*
%TD*%
D13*
%TO.C,SW4:7*%
X78290000Y-88910160D03*
D14*
X72390000Y-88910160D03*
D15*
X68190000Y-83690160D03*
D13*
X76090000Y-93910160D03*
D16*
X72390000Y-94410160D03*
D15*
X68190000Y-94130160D03*
D13*
X76090000Y-83910160D03*
D16*
X72390000Y-83410160D03*
D25*
X76090000Y-96710160D03*
D18*
X74930000Y-88910160D03*
X80518000Y-88910160D03*
D25*
X78290000Y-86110160D03*
D19*
X64058800Y-85100160D03*
D26*
X64096000Y-87230160D03*
D21*
X64058800Y-92720160D03*
D26*
X64096000Y-90590160D03*
%TD*%
D13*
%TO.C,SW0:8*%
X54456768Y-140566656D03*
D14*
X51963320Y-135219440D03*
D15*
X54919250Y-129206880D03*
D13*
X48995469Y-140685870D03*
D16*
X46978627Y-137543840D03*
D15*
X45457397Y-133619015D03*
D13*
X58058547Y-136459688D03*
D16*
X56948013Y-132895040D03*
D22*
X46457807Y-141869201D03*
D18*
X53036770Y-137521462D03*
X55398361Y-142585910D03*
D22*
X56994430Y-139383325D03*
D19*
X51895435Y-126058633D03*
D23*
X49980721Y-126992525D03*
D24*
X44989370Y-129278984D03*
D23*
X46935527Y-128412522D03*
%TD*%
D13*
%TO.C,SW2:8*%
X91440000Y-128147660D03*
D14*
X91440000Y-122247660D03*
D15*
X96660000Y-118047660D03*
D13*
X86440000Y-125947660D03*
D16*
X85940000Y-122247660D03*
D15*
X86220000Y-118047660D03*
D13*
X96440000Y-125947660D03*
D16*
X96940000Y-122247660D03*
D17*
X83640000Y-125947660D03*
D18*
X91440000Y-124787660D03*
X91440000Y-130375660D03*
D17*
X94240000Y-128147660D03*
D19*
X95250000Y-113916460D03*
D20*
X93120000Y-113953660D03*
D21*
X87630000Y-113916460D03*
D20*
X89760000Y-113953660D03*
%TD*%
D13*
%TO.C,SW4:8*%
X91440000Y-90047660D03*
D14*
X91440000Y-84147660D03*
D15*
X96660000Y-79947660D03*
D13*
X86440000Y-87847660D03*
D16*
X85940000Y-84147660D03*
D15*
X86220000Y-79947660D03*
D13*
X96440000Y-87847660D03*
D16*
X96940000Y-84147660D03*
D17*
X83640000Y-87847660D03*
D18*
X91440000Y-86687660D03*
X91440000Y-92275660D03*
D17*
X94240000Y-90047660D03*
D19*
X95250000Y-75816460D03*
D20*
X93120000Y-75853660D03*
D21*
X87630000Y-75816460D03*
D20*
X89760000Y-75853660D03*
%TD*%
D13*
%TO.C,SW3:8*%
X91440000Y-109097660D03*
D14*
X91440000Y-103197660D03*
D15*
X96660000Y-98997660D03*
D13*
X86440000Y-106897660D03*
D16*
X85940000Y-103197660D03*
D15*
X86220000Y-98997660D03*
D13*
X96440000Y-106897660D03*
D16*
X96940000Y-103197660D03*
D17*
X83640000Y-106897660D03*
D18*
X91440000Y-105737660D03*
X91440000Y-111325660D03*
D17*
X94240000Y-109097660D03*
D19*
X95250000Y-94866460D03*
D20*
X93120000Y-94903660D03*
D21*
X87630000Y-94866460D03*
D20*
X89760000Y-94903660D03*
%TD*%
D13*
%TO.C,SW1:9*%
X110490000Y-145927660D03*
D14*
X110490000Y-140027660D03*
D15*
X115710000Y-135827660D03*
D13*
X105490000Y-143727660D03*
D16*
X104990000Y-140027660D03*
D15*
X105270000Y-135827660D03*
D13*
X115490000Y-143727660D03*
D16*
X115990000Y-140027660D03*
D17*
X102690000Y-143727660D03*
D18*
X110490000Y-142567660D03*
X110490000Y-148155660D03*
D17*
X113290000Y-145927660D03*
D19*
X114300000Y-131696460D03*
D20*
X112170000Y-131733660D03*
D21*
X106680000Y-131696460D03*
D20*
X108810000Y-131733660D03*
%TD*%
D13*
%TO.C,SW2:9*%
X110490000Y-126877660D03*
D14*
X110490000Y-120977660D03*
D15*
X115710000Y-116777660D03*
D13*
X105490000Y-124677660D03*
D16*
X104990000Y-120977660D03*
D15*
X105270000Y-116777660D03*
D13*
X115490000Y-124677660D03*
D16*
X115990000Y-120977660D03*
D17*
X102690000Y-124677660D03*
D18*
X110490000Y-123517660D03*
X110490000Y-129105660D03*
D17*
X113290000Y-126877660D03*
D19*
X114300000Y-112646460D03*
D20*
X112170000Y-112683660D03*
D21*
X106680000Y-112646460D03*
D20*
X108810000Y-112683660D03*
%TD*%
D13*
%TO.C,SW3:9*%
X110490000Y-107827660D03*
D14*
X110490000Y-101927660D03*
D15*
X115710000Y-97727660D03*
D13*
X105490000Y-105627660D03*
D16*
X104990000Y-101927660D03*
D15*
X105270000Y-97727660D03*
D13*
X115490000Y-105627660D03*
D16*
X115990000Y-101927660D03*
D17*
X102690000Y-105627660D03*
D18*
X110490000Y-104467660D03*
X110490000Y-110055660D03*
D17*
X113290000Y-107827660D03*
D19*
X114300000Y-93596460D03*
D20*
X112170000Y-93633660D03*
D21*
X106680000Y-93596460D03*
D20*
X108810000Y-93633660D03*
%TD*%
D13*
%TO.C,SW4:9*%
X110490000Y-88777660D03*
D14*
X110490000Y-82877660D03*
D15*
X115710000Y-78677660D03*
D13*
X105490000Y-86577660D03*
D16*
X104990000Y-82877660D03*
D15*
X105270000Y-78677660D03*
D13*
X115490000Y-86577660D03*
D16*
X115990000Y-82877660D03*
D17*
X102690000Y-86577660D03*
D18*
X110490000Y-85417660D03*
X110490000Y-91005660D03*
D17*
X113290000Y-88777660D03*
D19*
X114300000Y-74546460D03*
D20*
X112170000Y-74583660D03*
D21*
X106680000Y-74546460D03*
D20*
X108810000Y-74583660D03*
%TD*%
D13*
%TO.C,SW5:9*%
X110490000Y-69727660D03*
D14*
X110490000Y-63827660D03*
D15*
X115710000Y-59627660D03*
D13*
X105490000Y-67527660D03*
D16*
X104990000Y-63827660D03*
D15*
X105270000Y-59627660D03*
D13*
X115490000Y-67527660D03*
D16*
X115990000Y-63827660D03*
D17*
X102690000Y-67527660D03*
D18*
X110490000Y-66367660D03*
X110490000Y-71955660D03*
D17*
X113290000Y-69727660D03*
D19*
X114300000Y-55496460D03*
D20*
X112170000Y-55533660D03*
D21*
X106680000Y-55496460D03*
D20*
X108810000Y-55533660D03*
%TD*%
D13*
%TO.C,SW0:11*%
X69385696Y-158623832D03*
D14*
X64038480Y-161117280D03*
D15*
X58025920Y-158161350D03*
D13*
X69504910Y-164085131D03*
D16*
X66362880Y-166101973D03*
D15*
X62438055Y-167623203D03*
D13*
X65278728Y-155022053D03*
D16*
X61714080Y-156132587D03*
D27*
X70688241Y-166622793D03*
D18*
X66340502Y-160043830D03*
X71404950Y-157682239D03*
D27*
X68202365Y-156086170D03*
D19*
X54877673Y-161185165D03*
D28*
X55811565Y-163099879D03*
D29*
X58098024Y-168091230D03*
D28*
X57231562Y-166145073D03*
%TD*%
D13*
%TO.C,SW0:10*%
X86650076Y-150572032D03*
D14*
X81302860Y-153065480D03*
D15*
X75290300Y-150109550D03*
D13*
X86769290Y-156033331D03*
D16*
X83627260Y-158050173D03*
D15*
X79702435Y-159571403D03*
D13*
X82543108Y-146970253D03*
D16*
X78978460Y-148080787D03*
D27*
X87952621Y-158570993D03*
D18*
X83604882Y-151992030D03*
X88669330Y-149630439D03*
D27*
X85466745Y-148034370D03*
D19*
X72142053Y-153133365D03*
D28*
X73075945Y-155048079D03*
D29*
X75362404Y-160039430D03*
D28*
X74495942Y-158093273D03*
%TD*%
D13*
%TO.C,SW3:10*%
X129540000Y-106230000D03*
D14*
X129540000Y-100330000D03*
D15*
X134760000Y-96130000D03*
D13*
X124540000Y-104030000D03*
D16*
X124040000Y-100330000D03*
D15*
X124320000Y-96130000D03*
D13*
X134540000Y-104030000D03*
D16*
X135040000Y-100330000D03*
D17*
X121740000Y-104030000D03*
D18*
X129540000Y-102870000D03*
X129540000Y-108458000D03*
D17*
X132340000Y-106230000D03*
D19*
X133350000Y-91998800D03*
D20*
X131220000Y-92036000D03*
D21*
X125730000Y-91998800D03*
D20*
X127860000Y-92036000D03*
%TD*%
D13*
%TO.C,SW4:10*%
X129540000Y-87180000D03*
D14*
X129540000Y-81280000D03*
D15*
X134760000Y-77080000D03*
D13*
X124540000Y-84980000D03*
D16*
X124040000Y-81280000D03*
D15*
X124320000Y-77080000D03*
D13*
X134540000Y-84980000D03*
D16*
X135040000Y-81280000D03*
D17*
X121740000Y-84980000D03*
D18*
X129540000Y-83820000D03*
X129540000Y-89408000D03*
D17*
X132340000Y-87180000D03*
D19*
X133350000Y-72948800D03*
D20*
X131220000Y-72986000D03*
D21*
X125730000Y-72948800D03*
D20*
X127860000Y-72986000D03*
%TD*%
D13*
%TO.C,SW1:11*%
X148590000Y-145927660D03*
D14*
X148590000Y-140027660D03*
D15*
X153810000Y-135827660D03*
D13*
X143590000Y-143727660D03*
D16*
X143090000Y-140027660D03*
D15*
X143370000Y-135827660D03*
D13*
X153590000Y-143727660D03*
D16*
X154090000Y-140027660D03*
D17*
X140790000Y-143727660D03*
D18*
X148590000Y-142567660D03*
X148590000Y-148155660D03*
D17*
X151390000Y-145927660D03*
D19*
X152400000Y-131696460D03*
D20*
X150270000Y-131733660D03*
D21*
X144780000Y-131696460D03*
D20*
X146910000Y-131733660D03*
%TD*%
D13*
%TO.C,SW2:11*%
X148590000Y-126877660D03*
D14*
X148590000Y-120977660D03*
D15*
X153810000Y-116777660D03*
D13*
X143590000Y-124677660D03*
D16*
X143090000Y-120977660D03*
D15*
X143370000Y-116777660D03*
D13*
X153590000Y-124677660D03*
D16*
X154090000Y-120977660D03*
D17*
X140790000Y-124677660D03*
D18*
X148590000Y-123517660D03*
X148590000Y-129105660D03*
D17*
X151390000Y-126877660D03*
D19*
X152400000Y-112646460D03*
D20*
X150270000Y-112683660D03*
D21*
X144780000Y-112646460D03*
D20*
X146910000Y-112683660D03*
%TD*%
D13*
%TO.C,SW3:11*%
X148590000Y-107827660D03*
D14*
X148590000Y-101927660D03*
D15*
X153810000Y-97727660D03*
D13*
X143590000Y-105627660D03*
D16*
X143090000Y-101927660D03*
D15*
X143370000Y-97727660D03*
D13*
X153590000Y-105627660D03*
D16*
X154090000Y-101927660D03*
D17*
X140790000Y-105627660D03*
D18*
X148590000Y-104467660D03*
X148590000Y-110055660D03*
D17*
X151390000Y-107827660D03*
D19*
X152400000Y-93596460D03*
D20*
X150270000Y-93633660D03*
D21*
X144780000Y-93596460D03*
D20*
X146910000Y-93633660D03*
%TD*%
%TO.C,SW4:11*%
X146910000Y-74583660D03*
D21*
X144780000Y-74546460D03*
D20*
X150270000Y-74583660D03*
D19*
X152400000Y-74546460D03*
D17*
X151390000Y-88777660D03*
D18*
X148590000Y-91005660D03*
X148590000Y-85417660D03*
D17*
X140790000Y-86577660D03*
D16*
X154090000Y-82877660D03*
D13*
X153590000Y-86577660D03*
D15*
X143370000Y-78677660D03*
D16*
X143090000Y-82877660D03*
D13*
X143590000Y-86577660D03*
D15*
X153810000Y-78677660D03*
D14*
X148590000Y-82877660D03*
D13*
X148590000Y-88777660D03*
%TD*%
%TO.C,SW5:11*%
X148590000Y-69727660D03*
D14*
X148590000Y-63827660D03*
D15*
X153810000Y-59627660D03*
D13*
X143590000Y-67527660D03*
D16*
X143090000Y-63827660D03*
D15*
X143370000Y-59627660D03*
D13*
X153590000Y-67527660D03*
D16*
X154090000Y-63827660D03*
D17*
X140790000Y-67527660D03*
D18*
X148590000Y-66367660D03*
X148590000Y-71955660D03*
D17*
X151390000Y-69727660D03*
D19*
X152400000Y-55496460D03*
D20*
X150270000Y-55533660D03*
D21*
X144780000Y-55496460D03*
D20*
X146910000Y-55533660D03*
%TD*%
D13*
%TO.C,SW1:12*%
X167640000Y-149102660D03*
D14*
X167640000Y-143202660D03*
D15*
X172860000Y-139002660D03*
D13*
X162640000Y-146902660D03*
D16*
X162140000Y-143202660D03*
D15*
X162420000Y-139002660D03*
D13*
X172640000Y-146902660D03*
D16*
X173140000Y-143202660D03*
D17*
X159840000Y-146902660D03*
D18*
X167640000Y-145742660D03*
X167640000Y-151330660D03*
D17*
X170440000Y-149102660D03*
D19*
X171450000Y-134871460D03*
D20*
X169320000Y-134908660D03*
D21*
X163830000Y-134871460D03*
D20*
X165960000Y-134908660D03*
%TD*%
D13*
%TO.C,SW2:12*%
X167640000Y-130052660D03*
D14*
X167640000Y-124152660D03*
D15*
X172860000Y-119952660D03*
D13*
X162640000Y-127852660D03*
D16*
X162140000Y-124152660D03*
D15*
X162420000Y-119952660D03*
D13*
X172640000Y-127852660D03*
D16*
X173140000Y-124152660D03*
D17*
X159840000Y-127852660D03*
D18*
X167640000Y-126692660D03*
X167640000Y-132280660D03*
D17*
X170440000Y-130052660D03*
D19*
X171450000Y-115821460D03*
D20*
X169320000Y-115858660D03*
D21*
X163830000Y-115821460D03*
D20*
X165960000Y-115858660D03*
%TD*%
D13*
%TO.C,SW3:12*%
X167640000Y-111002660D03*
D14*
X167640000Y-105102660D03*
D15*
X172860000Y-100902660D03*
D13*
X162640000Y-108802660D03*
D16*
X162140000Y-105102660D03*
D15*
X162420000Y-100902660D03*
D13*
X172640000Y-108802660D03*
D16*
X173140000Y-105102660D03*
D17*
X159840000Y-108802660D03*
D18*
X167640000Y-107642660D03*
X167640000Y-113230660D03*
D17*
X170440000Y-111002660D03*
D19*
X171450000Y-96771460D03*
D20*
X169320000Y-96808660D03*
D21*
X163830000Y-96771460D03*
D20*
X165960000Y-96808660D03*
%TD*%
D13*
%TO.C,SW4:12*%
X167640000Y-91952660D03*
D14*
X167640000Y-86052660D03*
D15*
X172860000Y-81852660D03*
D13*
X162640000Y-89752660D03*
D16*
X162140000Y-86052660D03*
D15*
X162420000Y-81852660D03*
D13*
X172640000Y-89752660D03*
D16*
X173140000Y-86052660D03*
D17*
X159840000Y-89752660D03*
D18*
X167640000Y-88592660D03*
X167640000Y-94180660D03*
D17*
X170440000Y-91952660D03*
D19*
X171450000Y-77721460D03*
D20*
X169320000Y-77758660D03*
D21*
X163830000Y-77721460D03*
D20*
X165960000Y-77758660D03*
%TD*%
D13*
%TO.C,SW5:12*%
X167640000Y-72905200D03*
D14*
X167640000Y-67005200D03*
D15*
X172860000Y-62805200D03*
D13*
X162640000Y-70705200D03*
D16*
X162140000Y-67005200D03*
D15*
X162420000Y-62805200D03*
D13*
X172640000Y-70705200D03*
D16*
X173140000Y-67005200D03*
D17*
X159840000Y-70705200D03*
D18*
X167640000Y-69545200D03*
X167640000Y-75133200D03*
D17*
X170440000Y-72905200D03*
D19*
X171450000Y-58674000D03*
D20*
X169320000Y-58711200D03*
D21*
X163830000Y-58674000D03*
D20*
X165960000Y-58711200D03*
%TD*%
%TO.C,SW5:13*%
X189772500Y-58711200D03*
D21*
X187642500Y-58674000D03*
D20*
X193132500Y-58711200D03*
D19*
X195262500Y-58674000D03*
D17*
X194252500Y-72905200D03*
D18*
X191452500Y-75133200D03*
X191452500Y-69545200D03*
D17*
X183652500Y-70705200D03*
D16*
X196952500Y-67005200D03*
D13*
X196452500Y-70705200D03*
D15*
X186232500Y-62805200D03*
D16*
X185952500Y-67005200D03*
D13*
X186452500Y-70705200D03*
D15*
X196672500Y-62805200D03*
D14*
X191452500Y-67005200D03*
D13*
X191452500Y-72905200D03*
%TD*%
%TO.C,SW4:13*%
X191452500Y-91952660D03*
D14*
X191452500Y-86052660D03*
D15*
X196672500Y-81852660D03*
D13*
X186452500Y-89752660D03*
D16*
X185952500Y-86052660D03*
D15*
X186232500Y-81852660D03*
D13*
X196452500Y-89752660D03*
D16*
X196952500Y-86052660D03*
D17*
X183652500Y-89752660D03*
D18*
X191452500Y-88592660D03*
X191452500Y-94180660D03*
D17*
X194252500Y-91952660D03*
D19*
X195262500Y-77721460D03*
D20*
X193132500Y-77758660D03*
D21*
X187642500Y-77721460D03*
D20*
X189772500Y-77758660D03*
%TD*%
D13*
%TO.C,SW3:13*%
X191452500Y-111002660D03*
D14*
X191452500Y-105102660D03*
D15*
X196672500Y-100902660D03*
D13*
X186452500Y-108802660D03*
D16*
X185952500Y-105102660D03*
D15*
X186232500Y-100902660D03*
D13*
X196452500Y-108802660D03*
D16*
X196952500Y-105102660D03*
D17*
X183652500Y-108802660D03*
D18*
X191452500Y-107642660D03*
X191452500Y-113230660D03*
D17*
X194252500Y-111002660D03*
D19*
X195262500Y-96771460D03*
D20*
X193132500Y-96808660D03*
D21*
X187642500Y-96771460D03*
D20*
X189772500Y-96808660D03*
%TD*%
D13*
%TO.C,SW2:13*%
X191452500Y-130052660D03*
D14*
X191452500Y-124152660D03*
D15*
X196672500Y-119952660D03*
D13*
X186452500Y-127852660D03*
D16*
X185952500Y-124152660D03*
D15*
X186232500Y-119952660D03*
D13*
X196452500Y-127852660D03*
D16*
X196952500Y-124152660D03*
D17*
X183652500Y-127852660D03*
D18*
X191452500Y-126692660D03*
X191452500Y-132280660D03*
D17*
X194252500Y-130052660D03*
D19*
X195262500Y-115821460D03*
D20*
X193132500Y-115858660D03*
D21*
X187642500Y-115821460D03*
D20*
X189772500Y-115858660D03*
%TD*%
D13*
%TO.C,SW1:13*%
X191452500Y-149102660D03*
D14*
X191452500Y-143202660D03*
D15*
X196672500Y-139002660D03*
D13*
X186452500Y-146902660D03*
D16*
X185952500Y-143202660D03*
D15*
X186232500Y-139002660D03*
D13*
X196452500Y-146902660D03*
D16*
X196952500Y-143202660D03*
D17*
X183652500Y-146902660D03*
D18*
X191452500Y-145742660D03*
X191452500Y-151330660D03*
D17*
X194252500Y-149102660D03*
D19*
X195262500Y-134871460D03*
D20*
X193132500Y-134908660D03*
D21*
X187642500Y-134871460D03*
D20*
X189772500Y-134908660D03*
%TD*%
D16*
%TO.C,SW5:8*%
X96940000Y-65100200D03*
D14*
X91440000Y-65100200D03*
D16*
X85940000Y-65100200D03*
D13*
X96440000Y-68800200D03*
D15*
X96660000Y-60900200D03*
D13*
X86440000Y-68800200D03*
X91440000Y-71000200D03*
D15*
X86220000Y-60900200D03*
D17*
X83640000Y-68800200D03*
D18*
X91440000Y-67640200D03*
D17*
X94240000Y-71000200D03*
D18*
X91440000Y-73228200D03*
D19*
X95250000Y-56769000D03*
D20*
X93120000Y-56806200D03*
D21*
X87630000Y-56769000D03*
D20*
X89760000Y-56806200D03*
%TD*%
D13*
%TO.C,SW5:7*%
X72390000Y-71000200D03*
X77390000Y-68800200D03*
D16*
X77890000Y-65100200D03*
D13*
X67390000Y-68800200D03*
D15*
X67170000Y-60900200D03*
X77610000Y-60900200D03*
D14*
X72390000Y-65100200D03*
D16*
X66890000Y-65100200D03*
D17*
X64590000Y-68800200D03*
D18*
X72390000Y-67640200D03*
D17*
X75190000Y-71000200D03*
D18*
X72390000Y-73228200D03*
D19*
X76200000Y-56769000D03*
D20*
X74070000Y-56806200D03*
X70710000Y-56806200D03*
D21*
X68580000Y-56769000D03*
%TD*%
D30*
%TO.C,U1*%
X40372900Y-51297000D03*
X54286500Y-52567000D03*
X40372900Y-53837000D03*
X54286500Y-55107000D03*
X40372900Y-56377000D03*
X54286500Y-57647000D03*
X40372900Y-58917000D03*
X54286500Y-60187000D03*
X40372900Y-61457000D03*
X54286500Y-62727000D03*
X54286500Y-65267000D03*
X40372900Y-63997000D03*
X40372900Y-66537000D03*
X54286500Y-67807000D03*
X54286500Y-70347000D03*
X40372900Y-69077000D03*
X54286500Y-72887000D03*
X40372900Y-71617000D03*
X40372900Y-74157000D03*
X54286500Y-75427000D03*
X54286500Y-77967000D03*
X40372900Y-76697000D03*
X40372900Y-79237000D03*
X54286500Y-80507000D03*
X55592900Y-79237000D03*
X39046500Y-80507000D03*
X55592900Y-76697000D03*
X39046500Y-77967000D03*
X39046500Y-75427000D03*
X55592900Y-74157000D03*
X55592900Y-71617000D03*
X39046500Y-72887000D03*
X39046500Y-70347000D03*
X55592900Y-69077000D03*
X39046500Y-67807000D03*
X55592900Y-66537000D03*
X55592900Y-63997000D03*
X39046500Y-65267000D03*
X55592900Y-61457000D03*
X39046500Y-62727000D03*
X55592900Y-58917000D03*
X39046500Y-60187000D03*
X55592900Y-56377000D03*
X39046500Y-57647000D03*
X55592900Y-53837000D03*
X39046500Y-55107000D03*
X55592900Y-51297000D03*
X39046500Y-52567000D03*
%TD*%
M02*
