%TF.GenerationSoftware,KiCad,Pcbnew,(6.0.5)*%
%TF.CreationDate,2022-05-23T22:21:51-06:00*%
%TF.ProjectId,ErgoDOX,4572676f-444f-4582-9e6b-696361645f70,rev?*%
%TF.SameCoordinates,Original*%
%TF.FileFunction,Other,ECO2*%
%FSLAX46Y46*%
G04 Gerber Fmt 4.6, Leading zero omitted, Abs format (unit mm)*
G04 Created by KiCad (PCBNEW (6.0.5)) date 2022-05-23 22:21:51*
%MOMM*%
%LPD*%
G01*
G04 APERTURE LIST*
%ADD10C,0.050000*%
G04 APERTURE END LIST*
D10*
%TO.C,SW1:13*%
X193640000Y-136752660D02*
X193640000Y-149652660D01*
X180240000Y-136252660D02*
X193140000Y-136252660D01*
X193140000Y-150152660D02*
X180240000Y-150152660D01*
X179740000Y-149652660D02*
X179740000Y-136752660D01*
X193640000Y-136752660D02*
G75*
G03*
X193140000Y-136252660I-500000J0D01*
G01*
X180240000Y-136252660D02*
G75*
G03*
X179740000Y-136752660I1J-500001D01*
G01*
X179740000Y-149652660D02*
G75*
G03*
X180240000Y-150152660I500001J1D01*
G01*
X193140000Y-150152660D02*
G75*
G03*
X193640000Y-149652660I0J500000D01*
G01*
%TO.C,SW1:10*%
X135990000Y-145380000D02*
X123090000Y-145380000D01*
X122590000Y-144880000D02*
X122590000Y-131980000D01*
X123090000Y-131480000D02*
X135990000Y-131480000D01*
X136490000Y-131980000D02*
X136490000Y-144880000D01*
X135990000Y-145380000D02*
G75*
G03*
X136490000Y-144880000I0J500000D01*
G01*
X122590000Y-144880000D02*
G75*
G03*
X123090000Y-145380000I500001J1D01*
G01*
X136490000Y-131980000D02*
G75*
G03*
X135990000Y-131480000I-500000J0D01*
G01*
X123090000Y-131480000D02*
G75*
G03*
X122590000Y-131980000I1J-500001D01*
G01*
%TO.C,SW1:9*%
X103540000Y-146477660D02*
X103540000Y-133577660D01*
X116940000Y-146977660D02*
X104040000Y-146977660D01*
X117440000Y-133577660D02*
X117440000Y-146477660D01*
X104040000Y-133077660D02*
X116940000Y-133077660D01*
X104040000Y-133077660D02*
G75*
G03*
X103540000Y-133577660I1J-500001D01*
G01*
X103540000Y-146477660D02*
G75*
G03*
X104040000Y-146977660I500001J1D01*
G01*
X116940000Y-146977660D02*
G75*
G03*
X117440000Y-146477660I0J500000D01*
G01*
X117440000Y-133577660D02*
G75*
G03*
X116940000Y-133077660I-500000J0D01*
G01*
%TO.C,SW2:13*%
X185002500Y-117202660D02*
X197902500Y-117202660D01*
X198402500Y-117702660D02*
X198402500Y-130602660D01*
X184502500Y-130602660D02*
X184502500Y-117702660D01*
X197902500Y-131102660D02*
X185002500Y-131102660D01*
X198402500Y-117702660D02*
G75*
G03*
X197902500Y-117202660I-500000J0D01*
G01*
X185002500Y-117202660D02*
G75*
G03*
X184502500Y-117702660I1J-500001D01*
G01*
X184502500Y-130602660D02*
G75*
G03*
X185002500Y-131102660I500001J1D01*
G01*
X197902500Y-131102660D02*
G75*
G03*
X198402500Y-130602660I0J500000D01*
G01*
%TO.C,SW2:10*%
X136490000Y-112930000D02*
X136490000Y-125830000D01*
X122590000Y-125830000D02*
X122590000Y-112930000D01*
X123090000Y-112430000D02*
X135990000Y-112430000D01*
X135990000Y-126330000D02*
X123090000Y-126330000D01*
X123090000Y-112430000D02*
G75*
G03*
X122590000Y-112930000I1J-500001D01*
G01*
X122590000Y-125830000D02*
G75*
G03*
X123090000Y-126330000I500001J1D01*
G01*
X135990000Y-126330000D02*
G75*
G03*
X136490000Y-125830000I0J500000D01*
G01*
X136490000Y-112930000D02*
G75*
G03*
X135990000Y-112430000I-500000J0D01*
G01*
%TO.C,SW2:9*%
X104040000Y-114027660D02*
X116940000Y-114027660D01*
X117440000Y-114527660D02*
X117440000Y-127427660D01*
X116940000Y-127927660D02*
X104040000Y-127927660D01*
X103540000Y-127427660D02*
X103540000Y-114527660D01*
X117440000Y-114527660D02*
G75*
G03*
X116940000Y-114027660I-500000J0D01*
G01*
X116940000Y-127927660D02*
G75*
G03*
X117440000Y-127427660I0J500000D01*
G01*
X104040000Y-114027660D02*
G75*
G03*
X103540000Y-114527660I1J-500001D01*
G01*
X103540000Y-127427660D02*
G75*
G03*
X104040000Y-127927660I500001J1D01*
G01*
%TO.C,SW2:7*%
X65440000Y-123935160D02*
X65440000Y-111035160D01*
X78840000Y-124435160D02*
X65940000Y-124435160D01*
X65940000Y-110535160D02*
X78840000Y-110535160D01*
X79340000Y-111035160D02*
X79340000Y-123935160D01*
X65440000Y-123935160D02*
G75*
G03*
X65940000Y-124435160I500001J1D01*
G01*
X79340000Y-111035160D02*
G75*
G03*
X78840000Y-110535160I-500000J0D01*
G01*
X78840000Y-124435160D02*
G75*
G03*
X79340000Y-123935160I-1J500001D01*
G01*
X65940000Y-110535160D02*
G75*
G03*
X65440000Y-111035160I0J-500000D01*
G01*
%TO.C,SW3:13*%
X185002500Y-98152660D02*
X197902500Y-98152660D01*
X198402500Y-98652660D02*
X198402500Y-111552660D01*
X197902500Y-112052660D02*
X185002500Y-112052660D01*
X184502500Y-111552660D02*
X184502500Y-98652660D01*
X185002500Y-98152660D02*
G75*
G03*
X184502500Y-98652660I1J-500001D01*
G01*
X184502500Y-111552660D02*
G75*
G03*
X185002500Y-112052660I500001J1D01*
G01*
X198402500Y-98652660D02*
G75*
G03*
X197902500Y-98152660I-500000J0D01*
G01*
X197902500Y-112052660D02*
G75*
G03*
X198402500Y-111552660I0J500000D01*
G01*
%TO.C,SW3:11*%
X155540000Y-95477660D02*
X155540000Y-108377660D01*
X141640000Y-108377660D02*
X141640000Y-95477660D01*
X155040000Y-108877660D02*
X142140000Y-108877660D01*
X142140000Y-94977660D02*
X155040000Y-94977660D01*
X155040000Y-108877660D02*
G75*
G03*
X155540000Y-108377660I0J500000D01*
G01*
X142140000Y-94977660D02*
G75*
G03*
X141640000Y-95477660I1J-500001D01*
G01*
X155540000Y-95477660D02*
G75*
G03*
X155040000Y-94977660I-500000J0D01*
G01*
X141640000Y-108377660D02*
G75*
G03*
X142140000Y-108877660I500001J1D01*
G01*
%TO.C,SW3:10*%
X136490000Y-93880000D02*
X136490000Y-106780000D01*
X123090000Y-93380000D02*
X135990000Y-93380000D01*
X135990000Y-107280000D02*
X123090000Y-107280000D01*
X122590000Y-106780000D02*
X122590000Y-93880000D01*
X136490000Y-93880000D02*
G75*
G03*
X135990000Y-93380000I-500000J0D01*
G01*
X135990000Y-107280000D02*
G75*
G03*
X136490000Y-106780000I0J500000D01*
G01*
X123090000Y-93380000D02*
G75*
G03*
X122590000Y-93880000I1J-500001D01*
G01*
X122590000Y-106780000D02*
G75*
G03*
X123090000Y-107280000I500001J1D01*
G01*
%TO.C,SW3:9*%
X103540000Y-108377660D02*
X103540000Y-95477660D01*
X116940000Y-108877660D02*
X104040000Y-108877660D01*
X104040000Y-94977660D02*
X116940000Y-94977660D01*
X117440000Y-95477660D02*
X117440000Y-108377660D01*
X116940000Y-108877660D02*
G75*
G03*
X117440000Y-108377660I0J500000D01*
G01*
X104040000Y-94977660D02*
G75*
G03*
X103540000Y-95477660I1J-500001D01*
G01*
X103540000Y-108377660D02*
G75*
G03*
X104040000Y-108877660I500001J1D01*
G01*
X117440000Y-95477660D02*
G75*
G03*
X116940000Y-94977660I-500000J0D01*
G01*
%TO.C,SW3:8*%
X97890000Y-110147660D02*
X84990000Y-110147660D01*
X84990000Y-96247660D02*
X97890000Y-96247660D01*
X98390000Y-96747660D02*
X98390000Y-109647660D01*
X84490000Y-109647660D02*
X84490000Y-96747660D01*
X98390000Y-96747660D02*
G75*
G03*
X97890000Y-96247660I-500000J0D01*
G01*
X84990000Y-96247660D02*
G75*
G03*
X84490000Y-96747660I1J-500001D01*
G01*
X97890000Y-110147660D02*
G75*
G03*
X98390000Y-109647660I0J500000D01*
G01*
X84490000Y-109647660D02*
G75*
G03*
X84990000Y-110147660I500001J1D01*
G01*
%TO.C,SW4:13*%
X185002500Y-79102660D02*
X197902500Y-79102660D01*
X184502500Y-92502660D02*
X184502500Y-79602660D01*
X198402500Y-79602660D02*
X198402500Y-92502660D01*
X197902500Y-93002660D02*
X185002500Y-93002660D01*
X198402500Y-79602660D02*
G75*
G03*
X197902500Y-79102660I-500000J0D01*
G01*
X184502500Y-92502660D02*
G75*
G03*
X185002500Y-93002660I500001J1D01*
G01*
X185002500Y-79102660D02*
G75*
G03*
X184502500Y-79602660I1J-500001D01*
G01*
X197902500Y-93002660D02*
G75*
G03*
X198402500Y-92502660I0J500000D01*
G01*
%TO.C,SW4:12*%
X174590000Y-79602660D02*
X174590000Y-92502660D01*
X161190000Y-79102660D02*
X174090000Y-79102660D01*
X160690000Y-92502660D02*
X160690000Y-79602660D01*
X174090000Y-93002660D02*
X161190000Y-93002660D01*
X174590000Y-79602660D02*
G75*
G03*
X174090000Y-79102660I-500000J0D01*
G01*
X160690000Y-92502660D02*
G75*
G03*
X161190000Y-93002660I500001J1D01*
G01*
X161190000Y-79102660D02*
G75*
G03*
X160690000Y-79602660I1J-500001D01*
G01*
X174090000Y-93002660D02*
G75*
G03*
X174590000Y-92502660I0J500000D01*
G01*
%TO.C,SW4:11*%
X142140000Y-75927660D02*
X155040000Y-75927660D01*
X155540000Y-76427660D02*
X155540000Y-89327660D01*
X141640000Y-89327660D02*
X141640000Y-76427660D01*
X155040000Y-89827660D02*
X142140000Y-89827660D01*
X141640000Y-89327660D02*
G75*
G03*
X142140000Y-89827660I500001J1D01*
G01*
X155540000Y-76427660D02*
G75*
G03*
X155040000Y-75927660I-500000J0D01*
G01*
X155040000Y-89827660D02*
G75*
G03*
X155540000Y-89327660I0J500000D01*
G01*
X142140000Y-75927660D02*
G75*
G03*
X141640000Y-76427660I1J-500001D01*
G01*
%TO.C,SW4:10*%
X136490000Y-74830000D02*
X136490000Y-87730000D01*
X123090000Y-74330000D02*
X135990000Y-74330000D01*
X122590000Y-87730000D02*
X122590000Y-74830000D01*
X135990000Y-88230000D02*
X123090000Y-88230000D01*
X123090000Y-74330000D02*
G75*
G03*
X122590000Y-74830000I1J-500001D01*
G01*
X136490000Y-74830000D02*
G75*
G03*
X135990000Y-74330000I-500000J0D01*
G01*
X122590000Y-87730000D02*
G75*
G03*
X123090000Y-88230000I500001J1D01*
G01*
X135990000Y-88230000D02*
G75*
G03*
X136490000Y-87730000I0J500000D01*
G01*
%TO.C,SW4:9*%
X103540000Y-89327660D02*
X103540000Y-76427660D01*
X117440000Y-76427660D02*
X117440000Y-89327660D01*
X116940000Y-89827660D02*
X104040000Y-89827660D01*
X104040000Y-75927660D02*
X116940000Y-75927660D01*
X117440000Y-76427660D02*
G75*
G03*
X116940000Y-75927660I-500000J0D01*
G01*
X103540000Y-89327660D02*
G75*
G03*
X104040000Y-89827660I500001J1D01*
G01*
X116940000Y-89827660D02*
G75*
G03*
X117440000Y-89327660I0J500000D01*
G01*
X104040000Y-75927660D02*
G75*
G03*
X103540000Y-76427660I1J-500001D01*
G01*
%TO.C,SW4:8*%
X84490000Y-90597660D02*
X84490000Y-77697660D01*
X98390000Y-77697660D02*
X98390000Y-90597660D01*
X84990000Y-77197660D02*
X97890000Y-77197660D01*
X97890000Y-91097660D02*
X84990000Y-91097660D01*
X84990000Y-77197660D02*
G75*
G03*
X84490000Y-77697660I1J-500001D01*
G01*
X98390000Y-77697660D02*
G75*
G03*
X97890000Y-77197660I-500000J0D01*
G01*
X97890000Y-91097660D02*
G75*
G03*
X98390000Y-90597660I0J500000D01*
G01*
X84490000Y-90597660D02*
G75*
G03*
X84990000Y-91097660I500001J1D01*
G01*
%TO.C,SW4:7*%
X78840000Y-95860160D02*
X65940000Y-95860160D01*
X65940000Y-81960160D02*
X78840000Y-81960160D01*
X65440000Y-95360160D02*
X65440000Y-82460160D01*
X79340000Y-82460160D02*
X79340000Y-95360160D01*
X65940000Y-81960160D02*
G75*
G03*
X65440000Y-82460160I0J-500000D01*
G01*
X78840000Y-95860160D02*
G75*
G03*
X79340000Y-95360160I-1J500001D01*
G01*
X65440000Y-95360160D02*
G75*
G03*
X65940000Y-95860160I500001J1D01*
G01*
X79340000Y-82460160D02*
G75*
G03*
X78840000Y-81960160I-500000J0D01*
G01*
%TO.C,SW0:10*%
X90085742Y-156638431D02*
X78394372Y-162090207D01*
X77729909Y-161848362D02*
X72278133Y-150156992D01*
X84875811Y-144282598D02*
X90327587Y-155973968D01*
X72519978Y-149492529D02*
X84211348Y-144040753D01*
X72519978Y-149492529D02*
G75*
G03*
X72278133Y-150156992I211309J-453154D01*
G01*
X90085742Y-156638431D02*
G75*
G03*
X90327587Y-155973968I-211310J453154D01*
G01*
X77729909Y-161848362D02*
G75*
G03*
X78394372Y-162090207I453154J211310D01*
G01*
X84875811Y-144282598D02*
G75*
G03*
X84211348Y-144040753I-453154J-211309D01*
G01*
%TO.C,SW0:12*%
X42017118Y-174227049D02*
X53708488Y-168775273D01*
X59582882Y-181372951D02*
X47891512Y-186824727D01*
X47227049Y-186582882D02*
X41775273Y-174891512D01*
X54372951Y-169017118D02*
X59824727Y-180708488D01*
X59582882Y-181372951D02*
G75*
G03*
X59824727Y-180708488I-211309J453154D01*
G01*
X47227049Y-186582882D02*
G75*
G03*
X47891512Y-186824727I453154J211310D01*
G01*
X54372951Y-169017118D02*
G75*
G03*
X53708488Y-168775273I-453154J-211309D01*
G01*
X42017118Y-174227049D02*
G75*
G03*
X41775273Y-174891512I211310J-453154D01*
G01*
%TO.C,SW0:11*%
X55255598Y-157544329D02*
X66946968Y-152092553D01*
X60465529Y-169900162D02*
X55013753Y-158208792D01*
X67611431Y-152334398D02*
X73063207Y-164025768D01*
X72821362Y-164690231D02*
X61129992Y-170142007D01*
X60465529Y-169900162D02*
G75*
G03*
X61129992Y-170142007I453154J211310D01*
G01*
X55255598Y-157544329D02*
G75*
G03*
X55013753Y-158208792I211309J-453154D01*
G01*
X72821362Y-164690231D02*
G75*
G03*
X73063207Y-164025768I-211310J453154D01*
G01*
X67611431Y-152334398D02*
G75*
G03*
X66946968Y-152092553I-453154J-211309D01*
G01*
%TO.C,SW0:9*%
X46321151Y-151750198D02*
X51772927Y-163441568D01*
X51531082Y-164106031D02*
X39839712Y-169557807D01*
X33965318Y-156960129D02*
X45656688Y-151508353D01*
X39175249Y-169315962D02*
X33723473Y-157624592D01*
X46321151Y-151750198D02*
G75*
G03*
X45656688Y-151508353I-453154J-211309D01*
G01*
X33965318Y-156960129D02*
G75*
G03*
X33723473Y-157624592I211310J-453154D01*
G01*
X51531082Y-164106031D02*
G75*
G03*
X51772927Y-163441568I-211309J453154D01*
G01*
X39175249Y-169315962D02*
G75*
G03*
X39839712Y-169557807I453154J211310D01*
G01*
%TO.C,SW0:7*%
X31125989Y-152051582D02*
X25674213Y-140360212D01*
X38271891Y-134485818D02*
X43723667Y-146177188D01*
X25916058Y-139695749D02*
X37607428Y-134243973D01*
X43481822Y-146841651D02*
X31790452Y-152293427D01*
X25916058Y-139695749D02*
G75*
G03*
X25674213Y-140360212I211310J-453154D01*
G01*
X38271891Y-134485818D02*
G75*
G03*
X37607428Y-134243973I-453154J-211309D01*
G01*
X31125989Y-152051582D02*
G75*
G03*
X31790452Y-152293427I453154J211310D01*
G01*
X43481822Y-146841651D02*
G75*
G03*
X43723667Y-146177188I-211309J453154D01*
G01*
%TO.C,SW1:11*%
X155540000Y-133577660D02*
X155540000Y-146477660D01*
X141640000Y-146477660D02*
X141640000Y-133577660D01*
X155040000Y-146977660D02*
X142140000Y-146977660D01*
X142140000Y-133077660D02*
X155040000Y-133077660D01*
X155040000Y-146977660D02*
G75*
G03*
X155540000Y-146477660I0J500000D01*
G01*
X141640000Y-146477660D02*
G75*
G03*
X142140000Y-146977660I500001J1D01*
G01*
X155540000Y-133577660D02*
G75*
G03*
X155040000Y-133077660I-500000J0D01*
G01*
X142140000Y-133077660D02*
G75*
G03*
X141640000Y-133577660I1J-500001D01*
G01*
%TO.C,SW0:8*%
X43180438Y-131646489D02*
X54871808Y-126194713D01*
X55536271Y-126436558D02*
X60988047Y-138127928D01*
X60746202Y-138792391D02*
X49054832Y-144244167D01*
X48390369Y-144002322D02*
X42938593Y-132310952D01*
X60746202Y-138792391D02*
G75*
G03*
X60988047Y-138127928I-211309J453154D01*
G01*
X48390369Y-144002322D02*
G75*
G03*
X49054832Y-144244167I453154J211310D01*
G01*
X43180438Y-131646489D02*
G75*
G03*
X42938593Y-132310952I211310J-453154D01*
G01*
X55536271Y-126436558D02*
G75*
G03*
X54871808Y-126194713I-453154J-211309D01*
G01*
%TO.C,SW5:13*%
X184502500Y-73455200D02*
X184502500Y-60555200D01*
X197902500Y-73955200D02*
X185002500Y-73955200D01*
X185002500Y-60055200D02*
X197902500Y-60055200D01*
X198402500Y-60555200D02*
X198402500Y-73455200D01*
X184502500Y-73455200D02*
G75*
G03*
X185002500Y-73955200I500001J1D01*
G01*
X198402500Y-60555200D02*
G75*
G03*
X197902500Y-60055200I-500000J0D01*
G01*
X185002500Y-60055200D02*
G75*
G03*
X184502500Y-60555200I1J-500001D01*
G01*
X197902500Y-73955200D02*
G75*
G03*
X198402500Y-73455200I0J500000D01*
G01*
%TO.C,SW5:9*%
X104040000Y-56877660D02*
X116940000Y-56877660D01*
X117440000Y-57377660D02*
X117440000Y-70277660D01*
X116940000Y-70777660D02*
X104040000Y-70777660D01*
X103540000Y-70277660D02*
X103540000Y-57377660D01*
X117440000Y-57377660D02*
G75*
G03*
X116940000Y-56877660I-500000J0D01*
G01*
X116940000Y-70777660D02*
G75*
G03*
X117440000Y-70277660I0J500000D01*
G01*
X104040000Y-56877660D02*
G75*
G03*
X103540000Y-57377660I1J-500001D01*
G01*
X103540000Y-70277660D02*
G75*
G03*
X104040000Y-70777660I500001J1D01*
G01*
%TO.C,SW5:10*%
X122590000Y-68680000D02*
X122590000Y-55780000D01*
X135990000Y-69180000D02*
X123090000Y-69180000D01*
X123090000Y-55280000D02*
X135990000Y-55280000D01*
X136490000Y-55780000D02*
X136490000Y-68680000D01*
X136490000Y-55780000D02*
G75*
G03*
X135990000Y-55280000I-500000J0D01*
G01*
X122590000Y-68680000D02*
G75*
G03*
X123090000Y-69180000I500001J1D01*
G01*
X123090000Y-55280000D02*
G75*
G03*
X122590000Y-55780000I1J-500001D01*
G01*
X135990000Y-69180000D02*
G75*
G03*
X136490000Y-68680000I0J500000D01*
G01*
%TO.C,SW5:11*%
X155540000Y-57377660D02*
X155540000Y-70277660D01*
X142140000Y-56877660D02*
X155040000Y-56877660D01*
X141640000Y-70277660D02*
X141640000Y-57377660D01*
X155040000Y-70777660D02*
X142140000Y-70777660D01*
X141640000Y-70277660D02*
G75*
G03*
X142140000Y-70777660I500001J1D01*
G01*
X142140000Y-56877660D02*
G75*
G03*
X141640000Y-57377660I1J-500001D01*
G01*
X155540000Y-57377660D02*
G75*
G03*
X155040000Y-56877660I-500000J0D01*
G01*
X155040000Y-70777660D02*
G75*
G03*
X155540000Y-70277660I0J500000D01*
G01*
%TO.C,SW5:12*%
X174590000Y-60555200D02*
X174590000Y-73455200D01*
X174090000Y-73955200D02*
X161190000Y-73955200D01*
X160690000Y-73455200D02*
X160690000Y-60555200D01*
X161190000Y-60055200D02*
X174090000Y-60055200D01*
X161190000Y-60055200D02*
G75*
G03*
X160690000Y-60555200I1J-500001D01*
G01*
X174090000Y-73955200D02*
G75*
G03*
X174590000Y-73455200I0J500000D01*
G01*
X160690000Y-73455200D02*
G75*
G03*
X161190000Y-73955200I500001J1D01*
G01*
X174590000Y-60555200D02*
G75*
G03*
X174090000Y-60055200I-500000J0D01*
G01*
%TO.C,SW5:8*%
X98390000Y-58650200D02*
X98390000Y-71550200D01*
X84990000Y-58150200D02*
X97890000Y-58150200D01*
X97890000Y-72050200D02*
X84990000Y-72050200D01*
X84490000Y-71550200D02*
X84490000Y-58650200D01*
X84490000Y-71550200D02*
G75*
G03*
X84990000Y-72050200I500001J1D01*
G01*
X98390000Y-58650200D02*
G75*
G03*
X97890000Y-58150200I-500000J0D01*
G01*
X97890000Y-72050200D02*
G75*
G03*
X98390000Y-71550200I0J500000D01*
G01*
X84990000Y-58150200D02*
G75*
G03*
X84490000Y-58650200I1J-500001D01*
G01*
%TO.C,SW5:7*%
X65440000Y-71550200D02*
X65440000Y-58650200D01*
X65940000Y-58150200D02*
X78840000Y-58150200D01*
X78840000Y-72050200D02*
X65940000Y-72050200D01*
X79340000Y-58650200D02*
X79340000Y-71550200D01*
X65440000Y-71550200D02*
G75*
G03*
X65940000Y-72050200I500001J1D01*
G01*
X78840000Y-72050200D02*
G75*
G03*
X79340000Y-71550200I0J500000D01*
G01*
X79340000Y-58650200D02*
G75*
G03*
X78840000Y-58150200I-500000J0D01*
G01*
X65940000Y-58150200D02*
G75*
G03*
X65440000Y-58650200I1J-500001D01*
G01*
%TO.C,SW2:11*%
X155540000Y-114527660D02*
X155540000Y-127427660D01*
X155040000Y-127927660D02*
X142140000Y-127927660D01*
X141640000Y-127427660D02*
X141640000Y-114527660D01*
X142140000Y-114027660D02*
X155040000Y-114027660D01*
X155040000Y-127927660D02*
G75*
G03*
X155540000Y-127427660I0J500000D01*
G01*
X142140000Y-114027660D02*
G75*
G03*
X141640000Y-114527660I1J-500001D01*
G01*
X141640000Y-127427660D02*
G75*
G03*
X142140000Y-127927660I500001J1D01*
G01*
X155540000Y-114527660D02*
G75*
G03*
X155040000Y-114027660I-500000J0D01*
G01*
%TO.C,SW2:8*%
X98390000Y-115797660D02*
X98390000Y-128697660D01*
X84990000Y-115297660D02*
X97890000Y-115297660D01*
X97890000Y-129197660D02*
X84990000Y-129197660D01*
X84490000Y-128697660D02*
X84490000Y-115797660D01*
X84490000Y-128697660D02*
G75*
G03*
X84990000Y-129197660I500001J1D01*
G01*
X97890000Y-129197660D02*
G75*
G03*
X98390000Y-128697660I0J500000D01*
G01*
X84990000Y-115297660D02*
G75*
G03*
X84490000Y-115797660I1J-500001D01*
G01*
X98390000Y-115797660D02*
G75*
G03*
X97890000Y-115297660I-500000J0D01*
G01*
%TO.C,SW3:12*%
X174090000Y-112052660D02*
X161190000Y-112052660D01*
X161190000Y-98152660D02*
X174090000Y-98152660D01*
X174590000Y-98652660D02*
X174590000Y-111552660D01*
X160690000Y-111552660D02*
X160690000Y-98652660D01*
X174590000Y-98652660D02*
G75*
G03*
X174090000Y-98152660I-500000J0D01*
G01*
X161190000Y-98152660D02*
G75*
G03*
X160690000Y-98652660I1J-500001D01*
G01*
X174090000Y-112052660D02*
G75*
G03*
X174590000Y-111552660I0J500000D01*
G01*
X160690000Y-111552660D02*
G75*
G03*
X161190000Y-112052660I500001J1D01*
G01*
%TO.C,SW2:12*%
X174590000Y-117702660D02*
X174590000Y-130602660D01*
X161190000Y-117202660D02*
X174090000Y-117202660D01*
X160690000Y-130602660D02*
X160690000Y-117702660D01*
X174090000Y-131102660D02*
X161190000Y-131102660D01*
X174590000Y-117702660D02*
G75*
G03*
X174090000Y-117202660I-500000J0D01*
G01*
X174090000Y-131102660D02*
G75*
G03*
X174590000Y-130602660I0J500000D01*
G01*
X160690000Y-130602660D02*
G75*
G03*
X161190000Y-131102660I500001J1D01*
G01*
X161190000Y-117202660D02*
G75*
G03*
X160690000Y-117702660I1J-500001D01*
G01*
%TO.C,SW1:12*%
X161190000Y-136252660D02*
X174090000Y-136252660D01*
X174090000Y-150152660D02*
X161190000Y-150152660D01*
X174590000Y-136752660D02*
X174590000Y-149652660D01*
X160690000Y-149652660D02*
X160690000Y-136752660D01*
X161190000Y-136252660D02*
G75*
G03*
X160690000Y-136752660I1J-500001D01*
G01*
X174590000Y-136752660D02*
G75*
G03*
X174090000Y-136252660I-500000J0D01*
G01*
X160690000Y-149652660D02*
G75*
G03*
X161190000Y-150152660I500001J1D01*
G01*
X174090000Y-150152660D02*
G75*
G03*
X174590000Y-149652660I0J500000D01*
G01*
%TD*%
M02*
