%TF.GenerationSoftware,KiCad,Pcbnew,(6.0.5)*%
%TF.CreationDate,2022-08-07T19:44:15-06:00*%
%TF.ProjectId,top,746f702e-6b69-4636-9164-5f7063625858,rev?*%
%TF.SameCoordinates,Original*%
%TF.FileFunction,Profile,NP*%
%FSLAX46Y46*%
G04 Gerber Fmt 4.6, Leading zero omitted, Abs format (unit mm)*
G04 Created by KiCad (PCBNEW (6.0.5)) date 2022-08-07 19:44:15*
%MOMM*%
%LPD*%
G01*
G04 APERTURE LIST*
%TA.AperFunction,Profile*%
%ADD10C,0.381000*%
%TD*%
%TA.AperFunction,Profile*%
%ADD11C,0.120000*%
%TD*%
%TA.AperFunction,Profile*%
%ADD12C,0.150000*%
%TD*%
G04 APERTURE END LIST*
D10*
X202692000Y-154908000D02*
X218821000Y-154908000D01*
X217220000Y-50000000D02*
X222046800Y-54820000D01*
X21080980Y-143315440D02*
X20975000Y-140325000D01*
X20975000Y-140325000D02*
X22300000Y-138325000D01*
X60070000Y-55210000D02*
X65510000Y-50010000D01*
X44030530Y-191002920D02*
X48075000Y-192175000D01*
X22300000Y-138325000D02*
X24617680Y-137160000D01*
X65510000Y-50010000D02*
X217220000Y-50000000D01*
X222059500Y-149669500D02*
X222059500Y-151669500D01*
X42764960Y-189817760D02*
X44030530Y-191002920D01*
X129152400Y-154908000D02*
X196392800Y-154908000D01*
X48075000Y-192175000D02*
X50983900Y-191351920D01*
X218821000Y-154908000D02*
X222059500Y-151669500D01*
X24617680Y-137160000D02*
X28985200Y-135128000D01*
X196392800Y-154908000D02*
X202692000Y-154908000D01*
X60070000Y-55210000D02*
X60070000Y-120650000D01*
X222046800Y-143383000D02*
X222059500Y-149669500D01*
X222046800Y-143383000D02*
X222046800Y-54820000D01*
X21080980Y-143315440D02*
X42764960Y-189817760D01*
X50983900Y-191351920D02*
X129152400Y-154908000D01*
X28985200Y-135128000D02*
X60070000Y-120650000D01*
D11*
%TO.C,SW1:13*%
X196071300Y-150202660D02*
X196071300Y-136202660D01*
X177309800Y-150205320D02*
X196071300Y-150202660D01*
X177309800Y-136205320D02*
X177309800Y-150205320D01*
X196071300Y-136202660D02*
X177309800Y-136205320D01*
%TO.C,SW2:13*%
X196071300Y-131152660D02*
X196071300Y-117152660D01*
X177309800Y-131155320D02*
X196071300Y-131152660D01*
X177309800Y-117155320D02*
X177309800Y-131155320D01*
X196071300Y-117152660D02*
X177309800Y-117155320D01*
%TO.C,SW3:13*%
X196071300Y-112102660D02*
X196071300Y-98102660D01*
X177309800Y-112105320D02*
X196071300Y-112102660D01*
X177309800Y-98105320D02*
X177309800Y-112105320D01*
X196071300Y-98102660D02*
X177309800Y-98105320D01*
%TO.C,SW4:13*%
X196071300Y-93052660D02*
X196071300Y-79052660D01*
X177309800Y-93055320D02*
X196071300Y-93052660D01*
X177309800Y-79055320D02*
X177309800Y-93055320D01*
X196071300Y-79052660D02*
X177309800Y-79055320D01*
%TO.C,SW5:13*%
X196071300Y-74005200D02*
X196071300Y-60005200D01*
X177309800Y-74007860D02*
X196071300Y-74005200D01*
X177309800Y-60007860D02*
X177309800Y-74007860D01*
X196071300Y-60005200D02*
X177309800Y-60007860D01*
%TO.C,SW1:10*%
X136540000Y-145430000D02*
X136540000Y-131430000D01*
X136540000Y-131430000D02*
X122540000Y-131430000D01*
X122540000Y-145430000D02*
X136540000Y-145430000D01*
X122540000Y-131430000D02*
X122540000Y-145430000D01*
%TO.C,SW1:9*%
X103490000Y-133027660D02*
X103490000Y-147027660D01*
X117490000Y-147027660D02*
X117490000Y-133027660D01*
X117490000Y-133027660D02*
X103490000Y-133027660D01*
X103490000Y-147027660D02*
X117490000Y-147027660D01*
%TO.C,SW2:10*%
X122540000Y-112380000D02*
X122540000Y-126380000D01*
X136540000Y-112380000D02*
X122540000Y-112380000D01*
X122540000Y-126380000D02*
X136540000Y-126380000D01*
X136540000Y-126380000D02*
X136540000Y-112380000D01*
%TO.C,SW2:9*%
X103490000Y-113977660D02*
X103490000Y-127977660D01*
X103490000Y-127977660D02*
X117490000Y-127977660D01*
X117490000Y-113977660D02*
X103490000Y-113977660D01*
X117490000Y-127977660D02*
X117490000Y-113977660D01*
%TO.C,SW2:7*%
X65390000Y-124485160D02*
X79390000Y-124485160D01*
X79390000Y-110485160D02*
X65390000Y-110485160D01*
X79390000Y-124485160D02*
X79390000Y-110485160D01*
X65390000Y-110485160D02*
X65390000Y-124485160D01*
%TO.C,SW3:11*%
X141590000Y-94927660D02*
X141590000Y-108927660D01*
X155590000Y-108927660D02*
X155590000Y-94927660D01*
X155590000Y-94927660D02*
X141590000Y-94927660D01*
X141590000Y-108927660D02*
X155590000Y-108927660D01*
%TO.C,SW3:10*%
X122540000Y-93330000D02*
X122540000Y-107330000D01*
X136540000Y-93330000D02*
X122540000Y-93330000D01*
X122540000Y-107330000D02*
X136540000Y-107330000D01*
X136540000Y-107330000D02*
X136540000Y-93330000D01*
%TO.C,SW3:9*%
X117490000Y-108927660D02*
X117490000Y-94927660D01*
X103490000Y-108927660D02*
X117490000Y-108927660D01*
X117490000Y-94927660D02*
X103490000Y-94927660D01*
X103490000Y-94927660D02*
X103490000Y-108927660D01*
%TO.C,SW3:8*%
X84440000Y-110197660D02*
X98440000Y-110197660D01*
X84440000Y-96197660D02*
X84440000Y-110197660D01*
X98440000Y-110197660D02*
X98440000Y-96197660D01*
X98440000Y-96197660D02*
X84440000Y-96197660D01*
%TO.C,SW4:12*%
X160640000Y-79052660D02*
X160640000Y-93052660D01*
X174640000Y-93052660D02*
X174640000Y-79052660D01*
X160640000Y-93052660D02*
X174640000Y-93052660D01*
X174640000Y-79052660D02*
X160640000Y-79052660D01*
%TO.C,SW4:11*%
X155590000Y-75877660D02*
X141590000Y-75877660D01*
X141590000Y-75877660D02*
X141590000Y-89877660D01*
X141590000Y-89877660D02*
X155590000Y-89877660D01*
X155590000Y-89877660D02*
X155590000Y-75877660D01*
%TO.C,SW4:10*%
X136540000Y-74280000D02*
X122540000Y-74280000D01*
X122540000Y-74280000D02*
X122540000Y-88280000D01*
X136540000Y-88280000D02*
X136540000Y-74280000D01*
X122540000Y-88280000D02*
X136540000Y-88280000D01*
%TO.C,SW4:9*%
X103490000Y-89877660D02*
X117490000Y-89877660D01*
X103490000Y-75877660D02*
X103490000Y-89877660D01*
X117490000Y-75877660D02*
X103490000Y-75877660D01*
X117490000Y-89877660D02*
X117490000Y-75877660D01*
%TO.C,SW4:8*%
X84440000Y-91147660D02*
X98440000Y-91147660D01*
X98440000Y-77147660D02*
X84440000Y-77147660D01*
X98440000Y-91147660D02*
X98440000Y-77147660D01*
X84440000Y-77147660D02*
X84440000Y-91147660D01*
%TO.C,SW4:7*%
X65390000Y-95910160D02*
X79390000Y-95910160D01*
X65390000Y-81910160D02*
X65390000Y-95910160D01*
X79390000Y-81910160D02*
X65390000Y-81910160D01*
X79390000Y-95910160D02*
X79390000Y-81910160D01*
%TO.C,SW0:10*%
X92076827Y-136325518D02*
X79388518Y-142242173D01*
X97993482Y-149013827D02*
X92076827Y-136325518D01*
X79388518Y-142242173D02*
X85305173Y-154930482D01*
X85305173Y-154930482D02*
X97993482Y-149013827D01*
%TO.C,SW0:12*%
X41497518Y-174414173D02*
X47414173Y-187102482D01*
X60102482Y-181185827D02*
X54185827Y-168497518D01*
X54185827Y-168497518D02*
X41497518Y-174414173D01*
X47414173Y-187102482D02*
X60102482Y-181185827D01*
%TO.C,SW0:11*%
X71642798Y-169426824D02*
X80641824Y-158702202D01*
X80641824Y-158702202D02*
X69917202Y-149703176D01*
X60918176Y-160427798D02*
X71642798Y-169426824D01*
X69917202Y-149703176D02*
X60918176Y-160427798D01*
%TO.C,SW0:9*%
X52050682Y-163918907D02*
X46134027Y-151230598D01*
X39362373Y-169835562D02*
X52050682Y-163918907D01*
X33445718Y-157147253D02*
X39362373Y-169835562D01*
X46134027Y-151230598D02*
X33445718Y-157147253D01*
D12*
%TO.C,SW0:7*%
X30376758Y-152456123D02*
X44515159Y-145863278D01*
X39021122Y-134081277D02*
X24882721Y-140674122D01*
X24882721Y-140674122D02*
X30376758Y-152456123D01*
X39021122Y-134081277D02*
X44515159Y-145863278D01*
D11*
%TO.C,SW1:11*%
X141590000Y-147027660D02*
X155590000Y-147027660D01*
X155590000Y-147027660D02*
X155590000Y-133027660D01*
X155590000Y-133027660D02*
X141590000Y-133027660D01*
X141590000Y-133027660D02*
X141590000Y-147027660D01*
%TO.C,SW0:8*%
X61265802Y-138605267D02*
X55349147Y-125916958D01*
X42660838Y-131833613D02*
X48577493Y-144521922D01*
X55349147Y-125916958D02*
X42660838Y-131833613D01*
X48577493Y-144521922D02*
X61265802Y-138605267D01*
%TO.C,SW5:9*%
X117490000Y-56827660D02*
X103490000Y-56827660D01*
X103490000Y-70827660D02*
X117490000Y-70827660D01*
X103490000Y-56827660D02*
X103490000Y-70827660D01*
X117490000Y-70827660D02*
X117490000Y-56827660D01*
%TO.C,SW5:10*%
X136540000Y-55230000D02*
X122540000Y-55230000D01*
X122540000Y-69230000D02*
X136540000Y-69230000D01*
X122540000Y-55230000D02*
X122540000Y-69230000D01*
X136540000Y-69230000D02*
X136540000Y-55230000D01*
%TO.C,SW5:11*%
X155590000Y-56827660D02*
X141590000Y-56827660D01*
X155590000Y-70827660D02*
X155590000Y-56827660D01*
X141590000Y-56827660D02*
X141590000Y-70827660D01*
X141590000Y-70827660D02*
X155590000Y-70827660D01*
%TO.C,SW5:12*%
X160640000Y-60005200D02*
X160640000Y-74005200D01*
X174640000Y-60005200D02*
X160640000Y-60005200D01*
X174640000Y-74005200D02*
X174640000Y-60005200D01*
X160640000Y-74005200D02*
X174640000Y-74005200D01*
%TO.C,SW5:8*%
X98440000Y-58100200D02*
X84440000Y-58100200D01*
X98440000Y-72100200D02*
X98440000Y-58100200D01*
X84440000Y-58100200D02*
X84440000Y-72100200D01*
X84440000Y-72100200D02*
X98440000Y-72100200D01*
%TO.C,SW5:7*%
X65390000Y-58100200D02*
X65390000Y-72100200D01*
X79390000Y-72100200D02*
X79390000Y-58100200D01*
X79390000Y-58100200D02*
X65390000Y-58100200D01*
X65390000Y-72100200D02*
X79390000Y-72100200D01*
%TO.C,SW2:11*%
X155590000Y-127977660D02*
X155590000Y-113977660D01*
X155590000Y-113977660D02*
X141590000Y-113977660D01*
X141590000Y-127977660D02*
X155590000Y-127977660D01*
X141590000Y-113977660D02*
X141590000Y-127977660D01*
%TO.C,SW2:8*%
X84440000Y-129247660D02*
X98440000Y-129247660D01*
X84440000Y-115247660D02*
X84440000Y-129247660D01*
X98440000Y-129247660D02*
X98440000Y-115247660D01*
X98440000Y-115247660D02*
X84440000Y-115247660D01*
%TO.C,SW3:12*%
X160640000Y-98102660D02*
X160640000Y-112102660D01*
X160640000Y-112102660D02*
X174640000Y-112102660D01*
X174640000Y-112102660D02*
X174640000Y-98102660D01*
X174640000Y-98102660D02*
X160640000Y-98102660D01*
%TO.C,SW2:12*%
X160640000Y-117152660D02*
X160640000Y-131152660D01*
X174640000Y-117152660D02*
X160640000Y-117152660D01*
X174640000Y-131152660D02*
X174640000Y-117152660D01*
X160640000Y-131152660D02*
X174640000Y-131152660D01*
%TO.C,SW1:12*%
X174640000Y-150202660D02*
X174640000Y-136202660D01*
X160640000Y-136202660D02*
X160640000Y-150202660D01*
X174640000Y-136202660D02*
X160640000Y-136202660D01*
X160640000Y-150202660D02*
X174640000Y-150202660D01*
%TO.C,SW11*%
X217502400Y-117150850D02*
X203502400Y-117150850D01*
X217502400Y-131150850D02*
X217502400Y-117150850D01*
X203502400Y-117150850D02*
X203502400Y-131150850D01*
X203502400Y-131150850D02*
X217502400Y-131150850D01*
X203502400Y-93055200D02*
X217502400Y-93055200D01*
X217502400Y-93055200D02*
X217502400Y-79055200D01*
X203502400Y-79055200D02*
X203502400Y-93055200D01*
X217502400Y-79055200D02*
X203502400Y-79055200D01*
X217502400Y-60005200D02*
X203502400Y-60005200D01*
X203502400Y-60005200D02*
X203502400Y-74005200D01*
X203502400Y-74005200D02*
X217502400Y-74005200D01*
X217502400Y-74005200D02*
X217502400Y-60005200D01*
X203502400Y-150210850D02*
X217502400Y-150210850D01*
X203502400Y-136210850D02*
X203502400Y-150210850D01*
X217502400Y-150210850D02*
X217502400Y-136210850D01*
X217502400Y-136210850D02*
X203502400Y-136210850D01*
X203502400Y-98100850D02*
X203502400Y-112100850D01*
X203502400Y-112100850D02*
X217502400Y-112100850D01*
X217502400Y-98100850D02*
X203502400Y-98100850D01*
X217502400Y-112100850D02*
X217502400Y-98100850D01*
%TD*%
M02*
