%TF.GenerationSoftware,KiCad,Pcbnew,(6.0.5)*%
%TF.CreationDate,2022-08-07T19:44:15-06:00*%
%TF.ProjectId,top,746f702e-6b69-4636-9164-5f7063625858,rev?*%
%TF.SameCoordinates,Original*%
%TF.FileFunction,Legend,Top*%
%TF.FilePolarity,Positive*%
%FSLAX46Y46*%
G04 Gerber Fmt 4.6, Leading zero omitted, Abs format (unit mm)*
G04 Created by KiCad (PCBNEW (6.0.5)) date 2022-08-07 19:44:15*
%MOMM*%
%LPD*%
G01*
G04 APERTURE LIST*
%ADD10C,0.150000*%
G04 APERTURE END LIST*
D10*
%TO.C,SW0:7*%
X32684584Y-143793980D02*
X32834181Y-143776763D01*
X33049969Y-143676140D01*
X33116159Y-143592733D01*
X33139192Y-143529451D01*
X33142100Y-143423011D01*
X33101851Y-143336696D01*
X33018444Y-143270506D01*
X32955162Y-143247473D01*
X32848722Y-143244565D01*
X32655967Y-143281906D01*
X32549528Y-143278998D01*
X32486246Y-143255965D01*
X32402839Y-143189774D01*
X32362589Y-143103459D01*
X32365497Y-142997020D01*
X32388530Y-142933737D01*
X32454721Y-142850331D01*
X32670508Y-142749707D01*
X32820105Y-142732491D01*
X33102083Y-142548460D02*
X33740489Y-143354145D01*
X33611249Y-142626283D01*
X34085749Y-143193147D01*
X33878919Y-142186216D01*
X34396809Y-141944720D02*
X34483124Y-141904471D01*
X34589564Y-141907379D01*
X34652846Y-141930412D01*
X34736253Y-141996602D01*
X34859909Y-142149107D01*
X34960532Y-142364895D01*
X34997873Y-142557650D01*
X34994965Y-142664089D01*
X34971932Y-142727372D01*
X34905742Y-142810778D01*
X34819427Y-142851028D01*
X34712987Y-142848120D01*
X34649705Y-142825087D01*
X34566298Y-142758896D01*
X34442642Y-142606391D01*
X34342019Y-142390604D01*
X34304677Y-142197849D01*
X34307586Y-142091409D01*
X34330618Y-142028127D01*
X34396809Y-141944720D01*
X35469698Y-142442718D02*
X35532980Y-142465751D01*
X35509947Y-142529033D01*
X35446665Y-142506000D01*
X35469698Y-142442718D01*
X35509947Y-142529033D01*
X35248326Y-141967985D02*
X35311609Y-141991018D01*
X35288576Y-142054300D01*
X35225294Y-142031267D01*
X35248326Y-141967985D01*
X35288576Y-142054300D01*
X35432589Y-141461728D02*
X36036794Y-141179982D01*
X36070995Y-142267412D01*
%TO.C,*%
%TD*%
M02*
