%TF.GenerationSoftware,KiCad,Pcbnew,(6.0.5)*%
%TF.CreationDate,2022-08-07T14:06:45-06:00*%
%TF.ProjectId,ErgoDOX,4572676f-444f-4582-9e6b-696361645f70,rev?*%
%TF.SameCoordinates,Original*%
%TF.FileFunction,Paste,Bot*%
%TF.FilePolarity,Positive*%
%FSLAX46Y46*%
G04 Gerber Fmt 4.6, Leading zero omitted, Abs format (unit mm)*
G04 Created by KiCad (PCBNEW (6.0.5)) date 2022-08-07 14:06:45*
%MOMM*%
%LPD*%
G01*
G04 APERTURE LIST*
G04 Aperture macros list*
%AMRoundRect*
0 Rectangle with rounded corners*
0 $1 Rounding radius*
0 $2 $3 $4 $5 $6 $7 $8 $9 X,Y pos of 4 corners*
0 Add a 4 corners polygon primitive as box body*
4,1,4,$2,$3,$4,$5,$6,$7,$8,$9,$2,$3,0*
0 Add four circle primitives for the rounded corners*
1,1,$1+$1,$2,$3*
1,1,$1+$1,$4,$5*
1,1,$1+$1,$6,$7*
1,1,$1+$1,$8,$9*
0 Add four rect primitives between the rounded corners*
20,1,$1+$1,$2,$3,$4,$5,0*
20,1,$1+$1,$4,$5,$6,$7,0*
20,1,$1+$1,$6,$7,$8,$9,0*
20,1,$1+$1,$8,$9,$2,$3,0*%
%AMRotRect*
0 Rectangle, with rotation*
0 The origin of the aperture is its center*
0 $1 length*
0 $2 width*
0 $3 Rotation angle, in degrees counterclockwise*
0 Add horizontal line*
21,1,$1,$2,0,0,$3*%
G04 Aperture macros list end*
%ADD10R,1.600000X2.200000*%
%ADD11RoundRect,0.051100X0.553900X0.313900X-0.553900X0.313900X-0.553900X-0.313900X0.553900X-0.313900X0*%
%ADD12R,2.200000X1.600000*%
%ADD13RoundRect,0.051100X-0.313900X0.553900X-0.313900X-0.553900X0.313900X-0.553900X0.313900X0.553900X0*%
%ADD14RotRect,1.600000X2.200000X205.000000*%
%ADD15RoundRect,0.051100X0.369344X0.518578X-0.634664X0.050402X-0.369344X-0.518578X0.634664X-0.050402X0*%
%ADD16RotRect,1.600000X2.200000X230.000000*%
%ADD17RoundRect,0.051100X0.115579X0.626083X-0.596501X-0.222541X-0.115579X-0.626083X0.596501X0.222541X0*%
G04 APERTURE END LIST*
D10*
%TO.C,SW1:13*%
X178890500Y-146902660D03*
X183652500Y-146902660D03*
X194252500Y-149102660D03*
X189490500Y-149102660D03*
D11*
X193132500Y-134908660D03*
X187682500Y-137539860D03*
X184322500Y-137539860D03*
X189772500Y-134908660D03*
%TD*%
D10*
%TO.C,SW1:10*%
X121740000Y-142130000D03*
X132340000Y-144330000D03*
D11*
X131220000Y-130136000D03*
X127860000Y-130136000D03*
%TD*%
D10*
%TO.C,SW1:9*%
X102690000Y-143727660D03*
X113290000Y-145927660D03*
D11*
X112170000Y-131733660D03*
X108810000Y-131733660D03*
%TD*%
D10*
%TO.C,SW2:13*%
X183652500Y-127852660D03*
X178890500Y-127852660D03*
X189490500Y-130052660D03*
X194252500Y-130052660D03*
D11*
X193132500Y-115858660D03*
X187682500Y-118489860D03*
X184322500Y-118489860D03*
X189772500Y-115858660D03*
%TD*%
D10*
%TO.C,SW2:10*%
X121740000Y-123080000D03*
X132340000Y-125280000D03*
D11*
X131220000Y-111086000D03*
X127860000Y-111086000D03*
%TD*%
D10*
%TO.C,SW2:9*%
X102690000Y-124677660D03*
X113290000Y-126877660D03*
D11*
X112170000Y-112683660D03*
X108810000Y-112683660D03*
%TD*%
D12*
%TO.C,SW2:7*%
X76090000Y-125285160D03*
X78290000Y-114685160D03*
D13*
X64096000Y-115805160D03*
X64096000Y-119165160D03*
%TD*%
D10*
%TO.C,SW3:13*%
X183652500Y-108802660D03*
X178890500Y-108802660D03*
X189490500Y-111002660D03*
X194252500Y-111002660D03*
D11*
X193132500Y-96808660D03*
X187682500Y-99439860D03*
X189772500Y-96808660D03*
X184322500Y-99439860D03*
%TD*%
D10*
%TO.C,SW3:11*%
X140790000Y-105627660D03*
X151390000Y-107827660D03*
D11*
X150270000Y-93633660D03*
X146910000Y-93633660D03*
%TD*%
D10*
%TO.C,SW3:10*%
X121740000Y-104030000D03*
X132340000Y-106230000D03*
D11*
X131220000Y-92036000D03*
X127860000Y-92036000D03*
%TD*%
D10*
%TO.C,SW3:9*%
X102690000Y-105627660D03*
X113290000Y-107827660D03*
D11*
X112170000Y-93633660D03*
X108810000Y-93633660D03*
%TD*%
D10*
%TO.C,SW3:8*%
X83640000Y-106897660D03*
X94240000Y-109097660D03*
D11*
X93120000Y-94903660D03*
X89760000Y-94903660D03*
%TD*%
D10*
%TO.C,SW4:13*%
X183652500Y-89752660D03*
X178890500Y-89752660D03*
X194252500Y-91952660D03*
X189490500Y-91952660D03*
D11*
X187682500Y-80389860D03*
X193132500Y-77758660D03*
X184322500Y-80389860D03*
X189772500Y-77758660D03*
%TD*%
D10*
%TO.C,SW4:12*%
X159840000Y-89752660D03*
X170440000Y-91952660D03*
D11*
X169320000Y-77758660D03*
X165960000Y-77758660D03*
%TD*%
D10*
%TO.C,SW4:11*%
X140790000Y-86577660D03*
X151390000Y-88777660D03*
D11*
X150270000Y-74583660D03*
X146910000Y-74583660D03*
%TD*%
D10*
%TO.C,SW4:10*%
X121740000Y-84980000D03*
X132340000Y-87180000D03*
D11*
X131220000Y-72986000D03*
X127860000Y-72986000D03*
%TD*%
D10*
%TO.C,SW4:9*%
X102690000Y-86577660D03*
X113290000Y-88777660D03*
D11*
X112170000Y-74583660D03*
X108810000Y-74583660D03*
%TD*%
D10*
%TO.C,SW4:8*%
X83640000Y-87847660D03*
X94240000Y-90047660D03*
D11*
X93120000Y-75853660D03*
X89760000Y-75853660D03*
%TD*%
D12*
%TO.C,SW4:7*%
X76090000Y-96710160D03*
X78290000Y-86110160D03*
D13*
X64096000Y-87230160D03*
X64096000Y-90590160D03*
%TD*%
D14*
%TO.C,SW0:10*%
X83185487Y-152277761D03*
X93722110Y-149791885D03*
D15*
X86708401Y-137401085D03*
X83663207Y-138821082D03*
%TD*%
D14*
%TO.C,SW0:12*%
X45294487Y-184449761D03*
X55831110Y-181963885D03*
D15*
X48817401Y-169573085D03*
X45772207Y-170993082D03*
%TD*%
D16*
%TO.C,SW0:11*%
X68600621Y-167918461D03*
X77099468Y-161212522D03*
D17*
X65506311Y-152946765D03*
X63346544Y-155520674D03*
%TD*%
D14*
%TO.C,SW0:9*%
X37242687Y-167182841D03*
X47779310Y-164696965D03*
D15*
X40765601Y-152306165D03*
X37720407Y-153726162D03*
%TD*%
D10*
%TO.C,SW1:11*%
X140790000Y-143727660D03*
X151390000Y-145927660D03*
D11*
X150270000Y-131733660D03*
X146910000Y-131733660D03*
%TD*%
D14*
%TO.C,SW0:8*%
X46457807Y-141869201D03*
X56994430Y-139383325D03*
D15*
X49980721Y-126992525D03*
X46935527Y-128412522D03*
%TD*%
D10*
%TO.C,SW5:13*%
X183652500Y-70705200D03*
X178890500Y-70705200D03*
X194252500Y-72905200D03*
X189490500Y-72905200D03*
D11*
X193132500Y-58711200D03*
X187682500Y-61342400D03*
X184322500Y-61342400D03*
X189772500Y-58711200D03*
%TD*%
D10*
%TO.C,SW5:9*%
X102690000Y-67527660D03*
X113290000Y-69727660D03*
D11*
X112170000Y-55533660D03*
X108810000Y-55533660D03*
%TD*%
D10*
%TO.C,SW5:10*%
X121740000Y-65930000D03*
X132340000Y-68130000D03*
D11*
X131220000Y-53936000D03*
X127860000Y-53936000D03*
%TD*%
D10*
%TO.C,SW5:11*%
X140790000Y-67527660D03*
X151390000Y-69727660D03*
D11*
X150270000Y-55533660D03*
X146910000Y-55533660D03*
%TD*%
D10*
%TO.C,SW5:12*%
X159840000Y-70705200D03*
X170440000Y-72905200D03*
D11*
X169320000Y-58711200D03*
X165960000Y-58711200D03*
%TD*%
D10*
%TO.C,SW5:8*%
X83640000Y-68800200D03*
X94240000Y-71000200D03*
D11*
X93120000Y-56806200D03*
X89760000Y-56806200D03*
%TD*%
D10*
%TO.C,SW5:7*%
X64590000Y-68800200D03*
X75190000Y-71000200D03*
D11*
X74070000Y-56806200D03*
X70710000Y-56806200D03*
%TD*%
D10*
%TO.C,SW2:11*%
X140790000Y-124677660D03*
X151390000Y-126877660D03*
D11*
X150270000Y-112683660D03*
X146910000Y-112683660D03*
%TD*%
D10*
%TO.C,SW2:8*%
X83640000Y-125947660D03*
X94240000Y-128147660D03*
D11*
X93120000Y-113953660D03*
X89760000Y-113953660D03*
%TD*%
D10*
%TO.C,SW3:12*%
X159840000Y-108802660D03*
X170440000Y-111002660D03*
D11*
X169320000Y-96808660D03*
X165960000Y-96808660D03*
%TD*%
D10*
%TO.C,SW2:12*%
X159840000Y-127852660D03*
X170440000Y-130052660D03*
D11*
X169320000Y-115858660D03*
X165960000Y-115858660D03*
%TD*%
D10*
%TO.C,SW1:12*%
X159840000Y-146902660D03*
X170440000Y-149102660D03*
D11*
X169320000Y-134908660D03*
X165960000Y-134908660D03*
%TD*%
D10*
%TO.C,SW11*%
X202702400Y-127850850D03*
X213302400Y-130050850D03*
D11*
X212182400Y-115856850D03*
X208822400Y-115856850D03*
%TD*%
D15*
%TO.C,*%
X29720806Y-136293997D03*
%TD*%
D10*
%TO.C,SW11*%
X202702400Y-89755200D03*
X213302400Y-91955200D03*
D11*
X212182400Y-77761200D03*
X208822400Y-77761200D03*
%TD*%
D15*
%TO.C,*%
X32766000Y-134874000D03*
%TD*%
D10*
%TO.C,SW11*%
X202702400Y-70705200D03*
X213302400Y-72905200D03*
D11*
X212182400Y-58711200D03*
X208822400Y-58711200D03*
%TD*%
D10*
%TO.C,SW11*%
X202702400Y-146910850D03*
X213302400Y-149110850D03*
D11*
X212182400Y-134916850D03*
X208822400Y-134916850D03*
%TD*%
D10*
%TO.C,SW11*%
X202702400Y-108800850D03*
X213302400Y-111000850D03*
D11*
X212182400Y-96806850D03*
X208822400Y-96806850D03*
%TD*%
M02*
