%TF.GenerationSoftware,KiCad,Pcbnew,(6.0.5)*%
%TF.CreationDate,2022-08-07T14:10:58-06:00*%
%TF.ProjectId,left,6c656674-2e6b-4696-9361-645f70636258,rev?*%
%TF.SameCoordinates,Original*%
%TF.FileFunction,Legend,Bot*%
%TF.FilePolarity,Positive*%
%FSLAX46Y46*%
G04 Gerber Fmt 4.6, Leading zero omitted, Abs format (unit mm)*
G04 Created by KiCad (PCBNEW (6.0.5)) date 2022-08-07 14:10:58*
%MOMM*%
%LPD*%
G01*
G04 APERTURE LIST*
%ADD10C,0.150000*%
G04 APERTURE END LIST*
D10*
%TO.C,SW0:7*%
X223905415Y-137366320D02*
X223755818Y-137349103D01*
X223540030Y-137248480D01*
X223473840Y-137165073D01*
X223450807Y-137101791D01*
X223447899Y-136995351D01*
X223488148Y-136909036D01*
X223571555Y-136842846D01*
X223634837Y-136819813D01*
X223741277Y-136816905D01*
X223934032Y-136854246D01*
X224040471Y-136851338D01*
X224103753Y-136828305D01*
X224187160Y-136762114D01*
X224227410Y-136675799D01*
X224224502Y-136569360D01*
X224201469Y-136506077D01*
X224135278Y-136422671D01*
X223919491Y-136322047D01*
X223769894Y-136304831D01*
X223487916Y-136120800D02*
X222849510Y-136926485D01*
X222978750Y-136198623D01*
X222504250Y-136765487D01*
X222711080Y-135758556D01*
X222193190Y-135517060D02*
X222106875Y-135476811D01*
X222000435Y-135479719D01*
X221937153Y-135502752D01*
X221853746Y-135568942D01*
X221730090Y-135721447D01*
X221629467Y-135937235D01*
X221592126Y-136129990D01*
X221595034Y-136236429D01*
X221618067Y-136299712D01*
X221684257Y-136383118D01*
X221770572Y-136423368D01*
X221877012Y-136420460D01*
X221940294Y-136397427D01*
X222023701Y-136331236D01*
X222147357Y-136178731D01*
X222247980Y-135962944D01*
X222285322Y-135770189D01*
X222282413Y-135663749D01*
X222259381Y-135600467D01*
X222193190Y-135517060D01*
X221120301Y-136015058D02*
X221057019Y-136038091D01*
X221080052Y-136101373D01*
X221143334Y-136078340D01*
X221120301Y-136015058D01*
X221080052Y-136101373D01*
X221341673Y-135540325D02*
X221278390Y-135563358D01*
X221301423Y-135626640D01*
X221364705Y-135603607D01*
X221341673Y-135540325D01*
X221301423Y-135626640D01*
X221157410Y-135034068D02*
X220553205Y-134752322D01*
X220519004Y-135839752D01*
%TO.C,*%
%TD*%
M02*
